<svg width="161" height="165" viewBox="0 0 161 165" fill="none" xmlns="http://www.w3.org/2000/svg">
<path d="M126.163 11.4977H32.7163C29.3852 11.4977 26.6847 14.2048 26.6847 17.5441V66.9206C26.6847 70.2599 29.3852 72.9669 32.7163 72.9669H126.163C129.495 72.9669 132.195 70.2599 132.195 66.9206V17.5441C132.195 14.2048 129.495 11.4977 126.163 11.4977Z" fill="#4E4EEE"/>
<path d="M81.3693 39.7955C78.2057 37.4955 73.8254 37.722 70.1056 38.9591C66.3858 40.1963 63.031 42.3047 59.3286 43.5767C52.3409 45.9813 44.3277 45.1101 38.0006 41.294C32.5251 37.9659 28.4229 32.4771 26.6847 26.3088V66.9258C26.6893 68.528 27.3262 70.0633 28.4564 71.1962C29.5865 72.3291 31.1181 72.9676 32.7163 72.9722H83.6464C83.0907 71.757 82.7215 70.4646 82.5513 69.1388C81.8908 64.0333 83.9419 59.015 84.9327 53.9618C85.9235 48.9086 85.5237 42.8274 81.3693 39.7955Z" fill="#8079CB"/>
<path d="M50.7765 58.771C59.1381 58.771 65.9165 51.9761 65.9165 43.5941C65.9165 35.2121 59.1381 28.4172 50.7765 28.4172C42.4149 28.4172 35.6365 35.2121 35.6365 43.5941C35.6365 51.9761 42.4149 58.771 50.7765 58.771Z" fill="#493FB5"/>
<path d="M129.223 11.4977H29.6744C28.8845 11.4977 28.1267 11.8111 27.5665 12.3694C27.0063 12.9277 26.6893 13.6855 26.6847 14.4774V16.7252H132.195V14.4774C132.191 13.6885 131.876 12.9333 131.319 12.3755C130.763 11.8177 130.01 11.5023 129.223 11.4977Z" fill="#6678FF"/>
<path d="M98.456 30.4036H77.8059C77.1339 30.4036 76.5891 30.9497 76.5891 31.6233V32.6688C76.5891 33.3424 77.1339 33.8885 77.8059 33.8885H98.456C99.128 33.8885 99.6728 33.3424 99.6728 32.6688V31.6233C99.6728 30.9497 99.128 30.4036 98.456 30.4036Z" fill="#4239AB"/>
<path d="M122.496 37.8788H77.8755C77.4435 37.8788 77.0933 38.2298 77.0933 38.6629V39.3338C77.0933 39.7668 77.4435 40.1179 77.8755 40.1179H122.496C122.928 40.1179 123.278 39.7668 123.278 39.3338V38.6629C123.278 38.2298 122.928 37.8788 122.496 37.8788Z" fill="#4239AB"/>
<path d="M122.496 44.0994H77.8755C77.4435 44.0994 77.0933 44.4505 77.0933 44.8835V45.5544C77.0933 45.9874 77.4435 46.3385 77.8755 46.3385H122.496C122.928 46.3385 123.278 45.9874 123.278 45.5544V44.8835C123.278 44.4505 122.928 44.0994 122.496 44.0994Z" fill="#4239AB"/>
<path d="M35.6366 43.5593V43.5941C35.5677 45.6316 35.9086 47.6621 36.6389 49.5648C37.3691 51.4675 38.4739 53.2034 39.8874 54.6692C41.3009 56.1349 42.9942 57.3005 44.8664 58.0966C46.7386 58.8927 48.7515 59.3029 50.7852 59.3029C52.8189 59.3029 54.8318 58.8927 56.704 58.0966C58.5763 57.3005 60.2695 56.1349 61.683 54.6692C63.0965 53.2034 64.2013 51.4675 64.9316 49.5648C65.6618 47.6621 66.0027 45.6316 65.9339 43.5941V43.5593H35.6366Z" fill="#645CC0"/>
<path d="M122.496 50.3201H77.8755C77.4435 50.3201 77.0933 50.6711 77.0933 51.1042V51.775C77.0933 52.2081 77.4435 52.5591 77.8755 52.5591H122.496C122.928 52.5591 123.278 52.2081 123.278 51.775V51.1042C123.278 50.6711 122.928 50.3201 122.496 50.3201Z" fill="#4239AB"/>
<path d="M50.7765 28.4172C48.744 28.3481 46.7184 28.6898 44.8203 29.4219C42.9223 30.154 41.1906 31.2615 39.7285 32.6784C38.2663 34.0953 37.1035 35.7927 36.3094 37.6695C35.5152 39.5463 35.106 41.5641 35.106 43.6028C35.106 45.6415 35.5152 47.6593 36.3094 49.5361C37.1035 51.4129 38.2663 53.1103 39.7285 54.5272C41.1906 55.9442 42.9223 57.0516 44.8203 57.7837C46.7184 58.5158 48.744 58.8575 50.7765 58.7885V28.4172Z" fill="#221A7E"/>
<path d="M123.261 14.9827C123.808 14.9827 124.251 14.538 124.251 13.9895C124.251 13.441 123.808 12.9963 123.261 12.9963C122.713 12.9963 122.27 13.441 122.27 13.9895C122.27 14.538 122.713 14.9827 123.261 14.9827Z" fill="#221A7E"/>
<path d="M117.055 14.9827C117.602 14.9827 118.046 14.538 118.046 13.9895C118.046 13.441 117.602 12.9963 117.055 12.9963C116.508 12.9963 116.064 13.441 116.064 13.9895C116.064 14.538 116.508 14.9827 117.055 14.9827Z" fill="#221A7E"/>
<path d="M111.093 14.9827C111.64 14.9827 112.084 14.538 112.084 13.9895C112.084 13.441 111.64 12.9963 111.093 12.9963C110.546 12.9963 110.102 13.441 110.102 13.9895C110.102 14.538 110.546 14.9827 111.093 14.9827Z" fill="#221A7E"/>
<path d="M114.17 22.9632H20.7226C17.3914 22.9632 14.6909 25.6703 14.6909 29.0096V78.386C14.6909 81.7253 17.3914 84.4324 20.7226 84.4324H114.17C117.501 84.4324 120.201 81.7253 120.201 78.386V29.0096C120.201 25.6703 117.501 22.9632 114.17 22.9632Z" fill="#4239AB"/>
<path d="M53.7663 15.2615C53.5856 12.4037 52.6567 9.64406 51.0731 7.26074C49.4896 4.87742 47.3074 2.95459 44.7465 1.68599C42.1855 0.417393 39.3362 -0.152153 36.4857 0.034741C33.6352 0.221635 30.8842 1.15837 28.5099 2.75055C26.7346 3.93728 25.2109 5.46424 24.0266 7.24355C22.8423 9.02287 22.0207 11.0194 21.6091 13.1183C20.7706 17.356 21.6455 21.754 24.0414 25.3451C26.4372 28.9363 30.1579 31.4265 34.3851 32.268C35.3975 32.4758 36.4283 32.5809 37.4617 32.5817H37.5834C38.1222 32.5817 38.6611 32.5468 39.2 32.4946C41.8429 32.2252 44.3796 31.3097 46.5874 29.8286C47.022 29.5324 47.4218 29.2361 47.8216 28.9051L48.4647 28.3649C48.7254 28.1384 48.9514 27.8944 49.1948 27.6505C49.2789 27.5778 49.3547 27.496 49.4207 27.4065C51.4969 25.1955 52.9069 22.4409 53.4882 19.4609C53.6455 18.656 53.7442 17.8407 53.7837 17.0214C53.8126 16.4349 53.8068 15.8473 53.7663 15.2615ZM51.7673 19.1124C51.02 22.8924 48.8056 26.22 45.6112 28.3636C42.4167 30.5072 38.5037 31.2911 34.7327 30.543C32.8397 30.1995 31.0338 29.4817 29.4202 28.4315C27.8067 27.3813 26.4179 26.0196 25.3346 24.4259C24.2514 22.8322 23.4954 21.0383 23.1107 19.1487C22.7261 17.2591 22.7205 15.3117 23.0942 13.42C23.468 11.5282 24.2136 9.72993 25.2876 8.12995C26.3617 6.52998 27.7426 5.1603 29.3501 4.10075C30.9575 3.0412 32.7593 2.31298 34.6503 1.95851C36.5413 1.60405 38.4838 1.63043 40.3646 2.03614C44.1353 2.78527 47.4549 5.00506 49.5933 8.20735C51.7316 11.4096 52.5136 15.3322 51.7673 19.1124Z" fill="#A49FDA"/>
<path d="M49.5945 8.20445C47.9992 5.81695 45.7335 3.95718 43.084 2.86023C40.4344 1.76328 37.5199 1.47841 34.7089 2.04162C31.8979 2.60482 29.3165 3.99083 27.2911 6.02443C25.2657 8.05803 23.8872 10.6479 23.3299 13.4667C22.7734 16.286 23.0632 19.2073 24.1628 21.8615C25.2623 24.5156 27.1223 26.7833 29.5074 28.3779C31.8925 29.9725 34.6958 30.8224 37.5627 30.82C40.4296 30.8177 43.2314 29.9633 45.614 28.3649C48.8088 26.2205 51.0229 22.8919 51.7694 19.1111C52.5159 15.3303 51.7336 11.407 49.5945 8.20445ZM48.6559 18.5025C48.1424 21.0735 46.7576 23.3873 44.7363 25.0515C42.715 26.7157 40.1817 27.6277 37.566 27.633C36.8195 27.6318 36.0748 27.5618 35.3411 27.4239C32.576 26.8843 30.111 25.3303 28.4282 23.0656C26.7455 20.8008 25.9659 17.9884 26.2419 15.178C26.5179 12.3677 27.8296 9.76164 29.9207 7.86937C32.0117 5.9771 34.7316 4.93472 37.5486 4.94603C38.2893 4.94735 39.0283 5.01734 39.7562 5.15513C42.6986 5.7484 45.2868 7.48575 46.9547 9.9871C48.6225 12.4885 49.2342 15.5502 48.6559 18.5025Z" fill="#C8C5E9"/>
<path d="M46.9524 9.98182C46.132 8.73925 45.0733 7.67263 43.8378 6.84401C42.6024 6.01539 41.2149 5.44131 39.7561 5.15517C39.0283 5.01739 38.2893 4.94739 37.5486 4.94608C34.7316 4.93476 32.0117 5.97715 29.9206 7.86942C27.8296 9.76169 26.5178 12.3678 26.2418 15.1781C25.9658 17.9884 26.7454 20.8009 28.4282 23.0656C30.111 25.3303 32.5759 26.8844 35.3411 27.424C36.0747 27.5618 36.8195 27.6318 37.566 27.6331C40.1816 27.6278 42.7149 26.7157 44.7362 25.0515C46.7575 23.3874 48.1424 21.0735 48.6559 18.5025C48.9494 17.04 48.9499 15.5335 48.6575 14.0707C48.365 12.608 47.7854 11.2181 46.9524 9.98182ZM47.9606 18.3631C47.5522 20.4291 46.5417 22.3272 45.057 23.8173C43.5722 25.3074 41.68 26.3227 39.6196 26.7345C37.5591 27.1464 35.4231 26.9364 33.4818 26.1311C31.5405 25.3259 29.881 23.9615 28.7133 22.2106C27.5457 20.4597 26.9223 18.401 26.922 16.2949C26.9218 14.1887 27.5447 12.1299 28.7119 10.3787C29.8792 8.62753 31.5383 7.26275 33.4795 6.45701C35.4206 5.65127 37.5566 5.44078 39.6171 5.85216C42.3778 6.40335 44.8074 8.03069 46.3719 10.3766C47.9363 12.7225 48.5078 15.5951 47.9606 18.3631Z" fill="#A49FDA"/>
<path d="M39.6172 5.85217C37.5567 5.44079 35.4207 5.65128 33.4796 6.45702C31.5384 7.26276 29.8793 8.62754 28.712 10.3787C27.5448 12.1299 26.9219 14.1888 26.9221 16.2949C26.9224 18.401 27.5458 20.4597 28.7134 22.2106C29.8811 23.9615 31.5405 25.3259 33.4819 26.1312C35.4232 26.9364 37.5592 27.1464 39.6196 26.7346C41.6801 26.3227 43.5723 25.3075 45.0571 23.8173C46.5418 22.3272 47.5523 20.4291 47.9607 18.3631C48.5079 15.5951 47.9364 12.7225 46.372 10.3766C44.8075 8.0307 42.3779 6.40336 39.6172 5.85217ZM38.7654 11.097C38.9572 11.0054 39.165 10.9526 39.3772 10.9415C39.5893 10.9305 39.8015 10.9614 40.0016 11.0326C40.2018 11.1038 40.386 11.2139 40.5437 11.3565C40.7015 11.4991 40.8296 11.6714 40.9208 11.8637C41.0842 12.2593 41.0866 12.7034 40.9274 13.1007C40.7682 13.4981 40.4601 13.8171 40.0691 13.9895C39.8797 14.0753 39.6752 14.1229 39.4674 14.1295C39.2596 14.1361 39.0525 14.1016 38.858 14.028C38.6635 13.9543 38.4854 13.843 38.3338 13.7004C38.1822 13.5578 38.0602 13.3866 37.9746 13.1967C37.889 13.0068 37.8415 12.8018 37.8349 12.5935C37.8284 12.3852 37.8628 12.1776 37.9362 11.9827C38.0096 11.7877 38.1207 11.6091 38.263 11.4572C38.4052 11.3052 38.576 11.1828 38.7654 11.097ZM34.6459 11.097C34.8376 11.0054 35.0454 10.9526 35.2576 10.9415C35.4697 10.9305 35.6819 10.9614 35.882 11.0326C36.0822 11.1038 36.2664 11.2139 36.4241 11.3565C36.5819 11.4991 36.71 11.6714 36.8013 11.8637C36.9636 12.2615 36.9634 12.7073 36.8008 13.105C36.6383 13.5027 36.3263 13.8203 35.9321 13.9895C35.7409 14.0874 35.5317 14.1452 35.3175 14.1595C35.1032 14.1737 34.8883 14.1441 34.6858 14.0723C34.4833 14.0006 34.2976 13.8883 34.1398 13.7423C33.982 13.5962 33.8556 13.4195 33.7681 13.2229C33.6807 13.0263 33.6341 12.8139 33.6312 12.5986C33.6283 12.3834 33.6692 12.1698 33.7513 11.9709C33.8334 11.772 33.9551 11.5919 34.1089 11.4417C34.2627 11.2915 34.4454 11.1742 34.6459 11.097ZM31.0477 15.9759C30.8927 15.5804 30.8953 15.1403 31.055 14.7467C31.2148 14.353 31.5194 14.0361 31.9059 13.8614C32.2923 13.6867 32.731 13.6677 33.131 13.8084C33.5311 13.949 33.8618 14.2385 34.0549 14.6168C34.2172 15.0146 34.217 15.4604 34.0544 15.8581C33.8919 16.2558 33.5799 16.5734 33.1857 16.7426C32.9957 16.8363 32.7888 16.8908 32.5774 16.9028C32.366 16.9149 32.1543 16.8842 31.9549 16.8127C31.7555 16.7412 31.5725 16.6303 31.4166 16.4866C31.2608 16.3428 31.1354 16.1692 31.0477 15.9759ZM37.3749 21.9003C34.8718 21.9003 32.8381 20.6458 32.8381 19.0775C32.8381 18.0495 33.7594 17.1434 35.0978 16.6555C35.2016 16.1243 35.4864 15.6457 35.9033 15.3016C36.3203 14.9576 36.8435 14.7695 37.3836 14.7695C37.9236 14.7695 38.4468 14.9576 38.8638 15.3016C39.2808 15.6457 39.5655 16.1243 39.6693 16.6555C41.0078 17.1434 41.9116 18.0495 41.9116 19.0775C41.9116 20.6458 39.8779 21.9003 37.3749 21.9003ZM43.0763 16.7426C42.885 16.8405 42.6759 16.8983 42.4616 16.9126C42.2473 16.9268 42.0324 16.8972 41.8299 16.8254C41.6274 16.7537 41.4417 16.6414 41.2839 16.4954C41.1261 16.3493 40.9997 16.1726 40.9122 15.976C40.8248 15.7794 40.7782 15.567 40.7753 15.3517C40.7724 15.1365 40.8133 14.9229 40.8954 14.724C40.9775 14.5251 41.0992 14.345 41.253 14.1948C41.4068 14.0446 41.5895 13.9273 41.79 13.8501C41.9817 13.7585 42.1896 13.7057 42.4017 13.6946C42.6138 13.6836 42.826 13.7145 43.0262 13.7857C43.2263 13.8569 43.4105 13.967 43.5683 14.1096C43.726 14.2522 43.8541 14.4245 43.9454 14.6168C44.1077 15.0146 44.1075 15.4604 43.945 15.8581C43.7824 16.2558 43.4704 16.5734 43.0763 16.7426Z" fill="#C8C5E9"/>
<path d="M41.9116 19.0775C41.9116 20.6457 39.8779 21.9003 37.3748 21.9003C34.8718 21.9003 32.8381 20.6457 32.8381 19.0775C32.8381 18.0494 33.7593 17.1434 35.0978 16.6555C35.2016 16.1242 35.4863 15.6456 35.9033 15.3016C36.3203 14.9576 36.8435 14.7695 37.3835 14.7695C37.9236 14.7695 38.4468 14.9576 38.8638 15.3016C39.2807 15.6456 39.5655 16.1242 39.6693 16.6555C41.0077 17.1434 41.9116 18.0494 41.9116 19.0775Z" fill="#A49FDA"/>
<path d="M33.1857 16.7426C32.9944 16.8405 32.7853 16.8983 32.571 16.9125C32.3567 16.9268 32.1418 16.8971 31.9393 16.8254C31.7368 16.7537 31.5511 16.6414 31.3933 16.4953C31.2355 16.3493 31.1091 16.1726 31.0216 15.976C30.9342 15.7794 30.8876 15.5669 30.8847 15.3517C30.8818 15.1365 30.9227 14.9229 31.0048 14.724C31.0869 14.5251 31.2086 14.345 31.3624 14.1948C31.5162 14.0445 31.6989 13.9272 31.8994 13.8501C32.0911 13.7585 32.299 13.7056 32.5111 13.6946C32.7232 13.6835 32.9354 13.7145 33.1356 13.7857C33.3357 13.8569 33.5199 13.9669 33.6777 14.1095C33.8354 14.2521 33.9635 14.4245 34.0548 14.6168C34.2171 15.0146 34.2169 15.4604 34.0544 15.858C33.8918 16.2557 33.5798 16.5734 33.1857 16.7426Z" fill="#A49FDA"/>
<path d="M43.0762 16.7426C42.8849 16.8405 42.6758 16.8983 42.4615 16.9125C42.2472 16.9268 42.0323 16.8971 41.8298 16.8254C41.6274 16.7537 41.4416 16.6414 41.2838 16.4953C41.126 16.3493 40.9996 16.1726 40.9121 15.976C40.8247 15.7794 40.7781 15.5669 40.7752 15.3517C40.7723 15.1365 40.8132 14.9229 40.8953 14.724C40.9774 14.5251 41.0991 14.345 41.2529 14.1948C41.4067 14.0445 41.5894 13.9272 41.7899 13.8501C41.9816 13.7585 42.1895 13.7056 42.4016 13.6946C42.6137 13.6835 42.8259 13.7145 43.0261 13.7857C43.2262 13.8569 43.4104 13.9669 43.5682 14.1095C43.7259 14.2521 43.854 14.4245 43.9453 14.6168C44.1076 15.0146 44.1074 15.4604 43.9449 15.858C43.7823 16.2557 43.4703 16.5734 43.0762 16.7426Z" fill="#A49FDA"/>
<path d="M40.0691 13.9895C39.7814 14.1052 39.4663 14.1336 39.1627 14.0713C38.859 14.009 38.5804 13.8587 38.3613 13.639C38.1422 13.4193 37.9923 13.1399 37.9302 12.8355C37.8681 12.5312 37.8966 12.2152 38.0121 11.9269C38.1276 11.6386 38.325 11.3907 38.5799 11.214C38.8347 11.0372 39.1358 10.9394 39.4456 10.9326C39.7554 10.9259 40.0604 11.0105 40.3227 11.176C40.5849 11.3416 40.7929 11.5807 40.9208 11.8637C41.0842 12.2593 41.0865 12.7033 40.9273 13.1007C40.7681 13.498 40.46 13.817 40.0691 13.9895Z" fill="#A49FDA"/>
<path d="M35.9321 13.9895C35.7409 14.0874 35.5317 14.1452 35.3174 14.1594C35.1032 14.1737 34.8883 14.144 34.6858 14.0723C34.4833 14.0006 34.2975 13.8883 34.1398 13.7422C33.982 13.5962 33.8555 13.4195 33.7681 13.2229C33.6807 13.0262 33.6341 12.8138 33.6312 12.5986C33.6283 12.3833 33.6692 12.1698 33.7513 11.9709C33.8334 11.7719 33.9551 11.5919 34.1089 11.4416C34.2627 11.2914 34.4454 11.1741 34.6458 11.097C34.8376 11.0053 35.0454 10.9525 35.2575 10.9415C35.4696 10.9304 35.6818 10.9614 35.882 11.0326C36.0822 11.1038 36.2664 11.2138 36.4241 11.3564C36.5818 11.499 36.71 11.6714 36.8012 11.8637C36.9635 12.2614 36.9634 12.7072 36.8008 13.1049C36.6382 13.5026 36.3262 13.8203 35.9321 13.9895Z" fill="#A49FDA"/>
<path d="M110.172 27.7028H16.7246C13.3935 27.7028 10.693 30.4098 10.693 33.7491V83.1256C10.693 86.4649 13.3935 89.172 16.7246 89.172H110.172C113.503 89.172 116.203 86.4649 116.203 83.1256V33.7491C116.203 30.4098 113.503 27.7028 110.172 27.7028Z" fill="#5959FF"/>
<g opacity="0.27">
<path d="M65.3776 56.0005C62.2141 53.7005 57.8337 53.927 54.1139 55.1641C50.3941 56.4013 47.0393 58.5097 43.3369 59.7817C36.3492 62.1863 28.336 61.3151 22.0089 57.4991C16.5334 54.1709 12.4312 48.6821 10.693 42.5138V83.1308C10.6976 84.733 11.3345 86.2683 12.4647 87.4012C13.5949 88.5341 15.1264 89.1726 16.7246 89.1772H67.6547C67.099 87.962 66.7298 86.6696 66.5596 85.3438C65.8991 80.2383 67.9502 75.22 68.941 70.1668C69.9318 65.1137 69.532 59.0324 65.3776 56.0005Z" fill="#3131C1"/>
</g>
<path d="M34.7848 74.976C43.1464 74.976 49.9248 68.1811 49.9248 59.7991C49.9248 51.4171 43.1464 44.6221 34.7848 44.6221C26.4232 44.6221 19.6448 51.4171 19.6448 59.7991C19.6448 68.1811 26.4232 74.976 34.7848 74.976Z" fill="#6678FF"/>
<path d="M113.231 27.7028H13.6827C12.8928 27.7027 12.135 28.0161 11.5748 28.5744C11.0146 29.1327 10.6976 29.8905 10.693 30.6824V32.9302H116.203V30.6824C116.199 29.8936 115.884 29.1383 115.328 28.5805C114.771 28.0227 114.018 27.7073 113.231 27.7028Z" fill="#6678FF"/>
<path d="M82.4644 46.6086H61.8142C61.1422 46.6086 60.5975 47.1547 60.5975 47.8283V48.8738C60.5975 49.5474 61.1422 50.0935 61.8142 50.0935H82.4644C83.1364 50.0935 83.6811 49.5474 83.6811 48.8738V47.8283C83.6811 47.1547 83.1364 46.6086 82.4644 46.6086Z" fill="#C8C5E9"/>
<path d="M106.504 54.0837H61.8838C61.4518 54.0837 61.1016 54.4348 61.1016 54.8679V55.5387C61.1016 55.9718 61.4518 56.3228 61.8838 56.3228H106.504C106.936 56.3228 107.286 55.9718 107.286 55.5387V54.8679C107.286 54.4348 106.936 54.0837 106.504 54.0837Z" fill="#C8C5E9"/>
<path d="M106.504 60.3044H61.8838C61.4518 60.3044 61.1016 60.6555 61.1016 61.0886V61.7594C61.1016 62.1925 61.4518 62.5435 61.8838 62.5435H106.504C106.936 62.5435 107.286 62.1925 107.286 61.7594V61.0886C107.286 60.6555 106.936 60.3044 106.504 60.3044Z" fill="#C8C5E9"/>
<path d="M19.6449 59.7643C19.6438 59.7777 19.6376 59.7902 19.6275 59.7991C19.5587 61.8366 19.8995 63.8672 20.6298 65.7698C21.3601 67.6725 22.4649 69.4084 23.8784 70.8742C25.2919 72.3399 26.9851 73.5056 28.8574 74.3016C30.7296 75.0977 32.7425 75.508 34.7762 75.508C36.8099 75.508 38.8228 75.0977 40.695 74.3016C42.5672 73.5056 44.2605 72.3399 45.674 70.8742C47.0875 69.4084 48.1922 67.6725 48.9225 65.7698C49.6528 63.8672 49.9937 61.8366 49.9248 59.7991V59.7643H19.6449Z" fill="#261E86"/>
<path d="M106.504 66.525H61.8838C61.4518 66.525 61.1016 66.8761 61.1016 67.3091V67.98C61.1016 68.413 61.4518 68.7641 61.8838 68.7641H106.504C106.936 68.7641 107.286 68.413 107.286 67.98V67.3091C107.286 66.8761 106.936 66.525 106.504 66.525Z" fill="#C8C5E9"/>
<path d="M34.7848 44.6222C32.7523 44.5531 30.7267 44.8948 28.8287 45.6269C26.9306 46.359 25.1989 47.4665 23.7368 48.8834C22.2746 50.3003 21.1118 51.9978 20.3177 53.8746C19.5235 55.7514 19.1143 57.7692 19.1143 59.8078C19.1143 61.8465 19.5235 63.8643 20.3177 65.7411C21.1118 67.6179 22.2746 69.3153 23.7368 70.7322C25.1989 72.1492 26.9306 73.2567 28.8287 73.9887C30.7267 74.7208 32.7523 75.0625 34.7848 74.9935V44.6222Z" fill="#4040B7"/>
<path d="M107.269 31.1877C107.816 31.1877 108.26 30.743 108.26 30.1945C108.26 29.646 107.816 29.2013 107.269 29.2013C106.722 29.2013 106.278 29.646 106.278 30.1945C106.278 30.743 106.722 31.1877 107.269 31.1877Z" fill="#221A7E"/>
<path d="M101.063 31.1877C101.611 31.1877 102.054 30.743 102.054 30.1945C102.054 29.646 101.611 29.2013 101.063 29.2013C100.516 29.2013 100.073 29.646 100.073 30.1945C100.073 30.743 100.516 31.1877 101.063 31.1877Z" fill="#221A7E"/>
<path d="M95.1014 31.1877C95.6486 31.1877 96.0922 30.743 96.0922 30.1945C96.0922 29.646 95.6486 29.2013 95.1014 29.2013C94.5542 29.2013 94.1106 29.646 94.1106 30.1945C94.1106 30.743 94.5542 31.1877 95.1014 31.1877Z" fill="#221A7E"/>
<path d="M134.246 75.5162C134.076 72.7953 133.193 70.1675 131.686 67.8978C130.179 65.628 128.103 63.7965 125.665 62.5879C123.227 61.3793 120.514 60.8363 117.8 61.0135C115.087 61.1908 112.467 62.0822 110.207 63.5977C108.526 64.7393 107.08 66.1946 105.948 67.8842C104.809 69.5734 104.023 71.476 103.636 73.4775C102.843 77.5115 103.679 81.6958 105.96 85.1127C108.241 88.5296 111.781 90.9 115.804 91.7038C116.765 91.8972 117.743 91.9964 118.724 92H118.846C119.357 91.9971 119.867 91.968 120.375 91.9129C122.894 91.6668 125.313 90.7987 127.415 89.3863C127.815 89.1075 128.215 88.8113 128.597 88.4977C128.812 88.338 129.015 88.1633 129.205 87.9749C129.449 87.7658 129.675 87.5393 129.901 87.3128L130.109 87.0862C132.089 84.9768 133.433 82.349 133.985 79.5065C134.138 78.7424 134.231 77.9676 134.264 77.189C134.293 76.6316 134.287 76.0729 134.246 75.5162ZM132.352 79.1754C132 80.9598 131.301 82.6573 130.295 84.1707C129.289 85.6841 127.995 86.9837 126.487 87.9952C124.979 89.0068 123.287 89.7103 121.507 90.0656C119.728 90.4209 117.896 90.421 116.117 90.0659C113.44 89.5318 110.982 88.2145 109.053 86.2804C107.123 84.3463 105.809 81.8823 105.276 79.1996C104.742 76.5169 105.015 73.7361 106.058 71.2084C107.101 68.6808 108.868 66.5198 111.136 64.9986C113.403 63.4773 116.07 62.6641 118.799 62.6617C121.528 62.6592 124.196 63.4677 126.466 64.9849C128.737 66.5021 130.508 68.6599 131.555 71.1857C132.603 73.7114 132.88 76.4918 132.352 79.1754Z" fill="#A49FDA"/>
<path d="M130.283 68.7903C128.506 66.1255 125.862 64.161 122.801 63.2316C119.741 62.3022 116.454 62.4655 113.5 63.6936C110.547 64.9217 108.109 67.1387 106.604 69.9665C105.098 72.7944 104.617 76.0582 105.243 79.2016C105.87 82.345 107.564 85.1735 110.037 87.2049C112.511 89.2363 115.611 90.345 118.808 90.3419C122.006 90.3388 125.103 89.2242 127.573 87.188C130.043 85.1518 131.731 82.3201 132.351 79.1754C132.71 77.3933 132.711 75.5577 132.356 73.7749C132.001 71.9922 131.296 70.2979 130.283 68.7903ZM129.379 78.6004C128.893 81.0485 127.577 83.2523 125.653 84.8374C123.73 86.4225 121.318 87.291 118.828 87.2954C118.116 87.2941 117.406 87.224 116.707 87.0863C114.085 86.5614 111.751 85.078 110.159 82.9243C108.567 80.7706 107.83 78.1004 108.092 75.4327C108.355 72.7649 109.597 70.2902 111.578 68.4894C113.559 66.6886 116.137 65.6904 118.811 65.6887C119.517 65.69 120.221 65.7601 120.914 65.8978C123.717 66.4573 126.183 68.1098 127.77 70.492C129.358 72.8741 129.937 75.7907 129.379 78.6004Z" fill="#C8C5E9"/>
<path d="M127.763 70.4805C126.979 69.3014 125.971 68.2894 124.795 67.5028C123.62 66.7163 122.301 66.1708 120.914 65.8978C120.221 65.7601 119.517 65.6901 118.811 65.6887C116.137 65.6904 113.559 66.6887 111.578 68.4894C109.597 70.2902 108.355 72.765 108.092 75.4327C107.83 78.1004 108.567 80.7706 110.159 82.9243C111.751 85.078 114.085 86.5614 116.707 87.0863C117.406 87.2241 118.116 87.2941 118.828 87.2954C120.779 87.2918 122.692 86.7574 124.364 85.7492C126.036 84.7411 127.403 83.2969 128.32 81.5709C129.237 79.8448 129.67 77.9016 129.572 75.9484C129.473 73.9952 128.848 72.1054 127.763 70.4805ZM128.719 78.461C128.33 80.4249 127.369 82.2292 125.957 83.6456C124.546 85.0621 122.747 86.0272 120.788 86.4189C118.83 86.8106 116.799 86.6113 114.953 85.8462C113.108 85.0812 111.53 83.7847 110.419 82.1206C109.308 80.4566 108.715 78.4998 108.714 76.4977C108.712 74.4955 109.303 72.5379 110.411 70.8724C111.52 69.2069 113.096 67.9082 114.941 67.1406C116.785 66.373 118.816 66.1709 120.775 66.56C122.076 66.8183 123.314 67.3312 124.417 68.0691C125.521 68.8071 126.468 69.7557 127.206 70.8609C127.944 71.9661 128.457 73.2061 128.717 74.5102C128.976 75.8142 128.977 77.1567 128.719 78.461Z" fill="#A49FDA"/>
<path d="M120.775 66.5599C118.816 66.1709 116.785 66.3729 114.941 67.1405C113.096 67.9081 111.52 69.2068 110.411 70.8723C109.303 72.5379 108.712 74.4955 108.714 76.4976C108.715 78.4998 109.308 80.4566 110.419 82.1206C111.53 83.7846 113.108 85.0811 114.953 85.8462C116.799 86.6113 118.83 86.8105 120.788 86.4188C122.747 86.0271 124.546 85.062 125.957 83.6456C127.369 82.2291 128.33 80.4248 128.719 78.461C128.977 77.1567 128.976 75.8141 128.717 74.5101C128.457 73.206 127.944 71.966 127.206 70.8609C126.468 69.7557 125.521 68.807 124.417 68.0691C123.314 67.3311 122.076 66.8183 120.775 66.5599ZM119.958 71.5434C120.232 71.4291 120.534 71.3985 120.826 71.4553C121.118 71.5122 121.387 71.654 121.599 71.863C121.81 72.072 121.956 72.3389 122.017 72.6305C122.079 72.922 122.053 73.2253 121.944 73.5023C121.834 73.7792 121.645 74.0177 121.401 74.1879C121.157 74.3581 120.869 74.4524 120.572 74.459C120.274 74.4657 119.982 74.3844 119.731 74.2253C119.479 74.0662 119.28 73.8364 119.158 73.5646C119.001 73.1899 118.996 72.7681 119.146 72.39C119.295 72.0119 119.587 71.7079 119.958 71.5434ZM116.047 71.5434C116.322 71.4321 116.624 71.4046 116.915 71.4642C117.206 71.5238 117.473 71.6679 117.682 71.8786C117.892 72.0892 118.035 72.357 118.094 72.6487C118.153 72.9403 118.125 73.2429 118.014 73.5187C117.902 73.7945 117.712 74.0313 117.467 74.1997C117.223 74.368 116.934 74.4603 116.637 74.4652C116.34 74.4701 116.048 74.3873 115.798 74.2272C115.548 74.067 115.35 73.8366 115.23 73.5646C115.15 73.3783 115.108 73.1779 115.106 72.9751C115.103 72.7722 115.141 72.571 115.217 72.383C115.293 72.195 115.406 72.024 115.548 71.8799C115.691 71.7357 115.86 71.6214 116.047 71.5434ZM112.623 76.1958C112.466 75.8192 112.462 75.3963 112.612 75.0169C112.761 74.6375 113.053 74.3314 113.423 74.1636C113.794 73.9958 114.216 73.9796 114.599 74.1182C114.981 74.2569 115.295 74.5396 115.473 74.9063C115.63 75.2829 115.634 75.7058 115.484 76.0852C115.335 76.4646 115.043 76.7707 114.672 76.9385C114.302 77.1063 113.88 77.1225 113.497 76.9839C113.115 76.8452 112.801 76.5625 112.623 76.1958ZM118.654 81.824C116.273 81.824 114.326 80.6391 114.326 79.158C114.326 78.1648 115.195 77.3109 116.481 76.8405C116.575 76.3297 116.842 75.8674 117.239 75.5334C117.636 75.1994 118.136 75.0146 118.654 75.0109C119.17 75.0211 119.668 75.2083 120.063 75.5412C120.458 75.874 120.728 76.3326 120.827 76.8405C122.096 77.3109 122.965 78.1648 122.965 79.158C122.965 80.6391 121.036 81.824 118.654 81.824ZM124.078 76.9276C123.802 77.0388 123.5 77.0663 123.209 77.0067C122.919 76.9471 122.652 76.803 122.442 76.5924C122.232 76.3818 122.089 76.1139 122.03 75.8223C121.971 75.5306 121.999 75.228 122.111 74.9522C122.222 74.6764 122.412 74.4396 122.657 74.2713C122.902 74.103 123.191 74.0107 123.487 74.0058C123.784 74.0009 124.076 74.0836 124.326 74.2438C124.576 74.4039 124.774 74.6344 124.894 74.9063C124.974 75.0927 125.017 75.2931 125.019 75.4959C125.021 75.6987 124.983 75.9 124.907 76.088C124.831 76.2759 124.719 76.447 124.576 76.5911C124.434 76.7352 124.264 76.8496 124.078 76.9276Z" fill="#C8C5E9"/>
<path d="M122.965 79.1581C122.965 80.6392 121.036 81.8241 118.654 81.8241C116.273 81.8241 114.326 80.6392 114.326 79.1581C114.326 78.1649 115.195 77.3111 116.482 76.8406C116.575 76.3298 116.843 75.8675 117.239 75.5335C117.636 75.1995 118.136 75.0147 118.654 75.011C119.17 75.0213 119.668 75.2084 120.063 75.5413C120.458 75.8741 120.728 76.3327 120.827 76.8406C122.096 77.3111 122.965 78.1649 122.965 79.1581Z" fill="#A49FDA"/>
<path d="M114.656 76.9277C114.29 77.1005 113.87 77.1205 113.489 76.9833C113.107 76.8461 112.796 76.5629 112.623 76.1958C112.466 75.8192 112.462 75.3963 112.612 75.0169C112.761 74.6375 113.053 74.3315 113.423 74.1637C113.794 73.9959 114.216 73.9796 114.599 74.1183C114.981 74.2569 115.295 74.5396 115.473 74.9064C115.553 75.0927 115.596 75.2931 115.598 75.4959C115.6 75.6988 115.562 75.9 115.486 76.088C115.41 76.276 115.297 76.447 115.155 76.5912C115.013 76.7353 114.843 76.8497 114.656 76.9277Z" fill="#A49FDA"/>
<path d="M124.078 76.9277C123.802 77.0389 123.5 77.0664 123.209 77.0068C122.919 76.9472 122.652 76.8031 122.442 76.5925C122.232 76.3819 122.089 76.114 122.03 75.8224C121.971 75.5307 121.999 75.2281 122.111 74.9523C122.222 74.6765 122.412 74.4397 122.657 74.2714C122.902 74.1031 123.191 74.0107 123.487 74.0058C123.784 74.0009 124.076 74.0837 124.326 74.2439C124.576 74.404 124.774 74.6344 124.894 74.9064C124.974 75.0927 125.017 75.2931 125.019 75.496C125.021 75.6988 124.983 75.9 124.907 76.088C124.831 76.276 124.719 76.447 124.576 76.5912C124.434 76.7353 124.264 76.8497 124.078 76.9277Z" fill="#A49FDA"/>
<path d="M121.209 74.314C120.935 74.4282 120.633 74.4589 120.341 74.402C120.049 74.3452 119.781 74.2034 119.569 73.9944C119.357 73.7854 119.211 73.5184 119.15 73.2269C119.089 72.9353 119.114 72.6321 119.224 72.3551C119.333 72.0781 119.522 71.8396 119.766 71.6695C120.01 71.4993 120.299 71.405 120.596 71.3983C120.893 71.3917 121.186 71.473 121.437 71.632C121.688 71.7911 121.887 72.0209 122.009 72.2927C122.167 72.6674 122.171 73.0893 122.022 73.4673C121.872 73.8454 121.581 74.1495 121.209 74.314Z" fill="#A49FDA"/>
<path d="M117.281 74.314C116.91 74.4864 116.486 74.5043 116.101 74.3639C115.717 74.2235 115.404 73.9361 115.23 73.5647C115.15 73.3784 115.108 73.178 115.106 72.9752C115.103 72.7723 115.141 72.5711 115.217 72.3831C115.293 72.1951 115.406 72.0241 115.548 71.88C115.691 71.7358 115.86 71.6215 116.047 71.5435C116.413 71.3794 116.83 71.368 117.205 71.5118C117.58 71.6556 117.882 71.9427 118.046 72.3101C118.21 72.6775 118.221 73.0951 118.077 73.4708C117.934 73.8466 117.648 74.1499 117.281 74.314Z" fill="#A49FDA"/>
<path d="M21.105 74.2616C20.9632 71.96 20.0637 69.7706 18.5476 68.0363C17.0315 66.3021 14.9843 65.121 12.7267 64.678C10.7036 64.2718 8.60574 64.4773 6.69934 65.2684C4.79294 66.0595 3.16399 67.4005 2.01925 69.1213C1.07391 70.5519 0.493723 72.1934 0.329731 73.9015C0.165739 75.6095 0.422963 77.3318 1.07878 78.9168C1.73459 80.5019 2.76891 81.9011 4.09074 82.9914C5.41257 84.0817 6.98141 84.8296 8.65928 85.1695C9.30505 85.307 9.96329 85.3771 10.6235 85.3786H10.7104C11.058 85.3786 11.4057 85.3612 11.7533 85.3263C13.4492 85.1486 15.0772 84.5627 16.4987 83.6187C16.7594 83.427 17.0375 83.2354 17.2809 83.0263L17.6981 82.6603L18.1674 82.2247L18.3238 82.0679C19.6421 80.6394 20.5388 78.8719 20.9138 76.9625C21.0202 76.4458 21.0842 75.9213 21.105 75.3942C21.1224 75.0109 21.1224 74.645 21.105 74.2616ZM19.8187 76.7359C19.3383 79.1614 17.9197 81.2976 15.8729 82.6778C14.8588 83.3635 13.7187 83.84 12.519 84.0793C11.3192 84.3186 10.084 84.3161 8.88525 84.0717C7.07597 83.7153 5.4129 82.8286 4.1066 81.5241C2.80029 80.2196 1.9095 78.5558 1.54701 76.7435C1.18452 74.9312 1.36663 73.0518 2.07028 71.3433C2.77393 69.6348 3.96749 68.174 5.49982 67.1459C7.03215 66.1178 8.83435 65.5685 10.6782 65.5678C12.5221 65.567 14.3248 66.1147 15.858 67.1416C17.3911 68.1684 18.5859 69.6282 19.291 71.3361C19.996 73.0441 20.1797 74.9233 19.8187 76.7359Z" fill="#A49FDA"/>
<path d="M18.4281 69.7312C17.2309 67.934 15.449 66.6086 13.3862 65.9809C11.3233 65.3532 9.10713 65.462 7.11536 66.2889C5.12359 67.1157 3.47948 68.6093 2.46324 70.5152C1.447 72.4211 1.12153 74.6213 1.5423 76.7408C1.96306 78.8603 3.10402 80.7679 4.77072 82.1386C6.43742 83.5093 8.52671 84.2581 10.6825 84.2576C12.8383 84.257 14.9272 83.507 16.5932 82.1354C18.2591 80.7639 19.3991 78.8556 19.8187 76.7359C20.0576 75.534 20.0577 74.2967 19.8191 73.0947C19.5805 71.8928 19.1078 70.7498 18.4281 69.7312ZM17.8197 76.3351C17.6358 77.2746 17.2675 78.168 16.7364 78.9637C16.2053 79.7593 15.5218 80.4413 14.7257 80.9701C13.5421 81.7785 12.1426 82.2097 10.7104 82.2073C10.232 82.204 9.75499 82.1573 9.28504 82.0679C7.51618 81.7159 5.9411 80.717 4.86607 79.2656C3.79104 77.8141 3.29288 76.0138 3.46846 74.2146C3.64404 72.4154 4.48081 70.7459 5.81606 69.5309C7.15132 68.3158 8.88963 67.6419 10.693 67.6402C11.1656 67.6434 11.6369 67.6901 12.101 67.7796C13.9887 68.1585 15.6499 69.2711 16.7215 70.8744C17.7932 72.4776 18.188 74.4409 17.8197 76.3351Z" fill="#C8C5E9"/>
<path d="M16.7246 70.8813C16.1971 70.0832 15.5168 69.3981 14.7231 68.8656C13.9294 68.3332 13.0381 67.9641 12.1009 67.7797C11.6369 67.6902 11.1656 67.6435 10.693 67.6403C8.8896 67.6419 7.15129 68.3158 5.81603 69.5309C4.48078 70.746 3.64401 72.4155 3.46843 74.2147C3.29285 76.0138 3.79101 77.8142 4.86604 79.2657C5.94107 80.7171 7.51615 81.7159 9.28501 82.0679C9.75496 82.1574 10.232 82.2041 10.7104 82.2073C12.1426 82.2098 13.5421 81.7786 14.7257 80.9702C15.5203 80.4415 16.2028 79.7605 16.7338 78.9663C17.2648 78.1721 17.6338 77.2805 17.8196 76.3427C18.0054 75.405 18.0043 74.4397 17.8164 73.5023C17.6284 72.565 17.2574 71.6742 16.7246 70.8813ZM17.3852 76.2481C17.1228 77.5725 16.4748 78.7893 15.5229 79.7447C14.571 80.7002 13.358 81.3513 12.0371 81.6159C10.7162 81.8806 9.34671 81.7468 8.10163 81.2315C6.85654 80.7163 5.79174 79.8426 5.04175 78.721C4.29176 77.5993 3.89024 76.28 3.88791 74.9297C3.88559 73.5794 4.28256 72.2587 5.02868 71.1344C5.7748 70.0102 6.83659 69.1329 8.07989 68.6133C9.32319 68.0937 10.6922 67.9552 12.014 68.2153C12.8933 68.3883 13.7299 68.7334 14.476 69.231C15.222 69.7285 15.8629 70.3687 16.3618 71.1148C16.8607 71.861 17.2079 72.6984 17.3835 73.5793C17.5591 74.4601 17.5597 75.367 17.3852 76.2481Z" fill="#A49FDA"/>
<path d="M12.0141 68.2153C10.6923 67.9552 9.32323 68.0937 8.07993 68.6133C6.83662 69.1329 5.77484 70.0102 5.02872 71.1345C4.2826 72.2587 3.88562 73.5794 3.88795 74.9297C3.89028 76.28 4.2918 77.5993 5.04179 78.721C5.79177 79.8426 6.85658 80.7163 8.10166 81.2315C9.34675 81.7468 10.7163 81.8806 12.0371 81.6159C13.358 81.3513 14.5711 80.7002 15.5229 79.7447C16.4748 78.7893 17.1229 77.5725 17.3852 76.2481C17.5597 75.367 17.5591 74.4601 17.3835 73.5793C17.2079 72.6984 16.8607 71.861 16.3618 71.1148C15.8629 70.3687 15.2221 69.7285 14.476 69.231C13.73 68.7334 12.8934 68.3883 12.0141 68.2153ZM11.4752 71.5957C11.5972 71.5367 11.7297 71.5025 11.8649 71.4952C12.0002 71.4878 12.1356 71.5073 12.2633 71.5527C12.3909 71.5981 12.5084 71.6683 12.6088 71.7594C12.7093 71.8506 12.7907 71.9607 12.8484 72.0836C12.9032 72.2094 12.9328 72.3449 12.9353 72.4822C12.9379 72.6195 12.9135 72.7559 12.8634 72.8837C12.8134 73.0116 12.7387 73.1283 12.6437 73.2272C12.5487 73.3261 12.4351 73.4052 12.3096 73.4601C12.0572 73.5696 11.7727 73.5783 11.5141 73.4844C11.2556 73.3904 11.0427 73.201 10.919 72.9548C10.865 72.8291 10.8366 72.6939 10.8354 72.5571C10.8342 72.4203 10.8603 72.2846 10.9121 72.158C10.9639 72.0315 11.0404 71.9165 11.1371 71.8199C11.2338 71.7234 11.3487 71.6471 11.4752 71.5957ZM8.83311 71.5957C8.95512 71.5367 9.08758 71.5025 9.22284 71.4952C9.3581 71.4878 9.49348 71.5073 9.62115 71.5527C9.74883 71.5981 9.86628 71.6683 9.96671 71.7594C10.0671 71.8506 10.1486 71.9607 10.2063 72.0836C10.2611 72.2094 10.2906 72.3449 10.2932 72.4822C10.2958 72.6195 10.2714 72.7559 10.2213 72.8837C10.1713 73.0116 10.0966 73.1283 10.0016 73.2272C9.90656 73.3261 9.79302 73.4052 9.66746 73.4601C9.41568 73.5741 9.12947 73.585 8.86976 73.4907C8.61004 73.3963 8.39732 73.204 8.27688 72.9548C8.2229 72.8291 8.19449 72.6939 8.19332 72.5571C8.19214 72.4203 8.21822 72.2846 8.27002 72.158C8.32183 72.0315 8.39831 71.9165 8.49501 71.8199C8.5917 71.7234 8.70664 71.6471 8.83311 71.5957ZM6.52127 74.7147C6.42762 74.5242 6.39307 74.3099 6.42208 74.0994C6.45108 73.889 6.54231 73.6921 6.684 73.5342C6.82569 73.3763 7.01134 73.2645 7.21699 73.2133C7.42265 73.1622 7.63888 73.1739 7.8378 73.2471C8.03672 73.3203 8.2092 73.4516 8.33298 73.624C8.45677 73.7964 8.52619 74.002 8.53229 74.2143C8.53839 74.4267 8.48089 74.636 8.3672 74.8152C8.25351 74.9945 8.08885 75.1355 7.89447 75.22C7.7714 75.2784 7.63796 75.3117 7.50193 75.3179C7.36591 75.324 7.23002 75.303 7.10219 75.2559C6.97437 75.2089 6.85717 75.1368 6.75743 75.0439C6.65769 74.951 6.57741 74.8391 6.52127 74.7147ZM10.5887 78.5307C8.97217 78.5307 7.6685 77.7118 7.6685 76.7185C7.6685 76.0564 8.25949 75.4814 9.11123 75.1677C9.17888 74.8231 9.36254 74.5121 9.63148 74.287C9.90042 74.0618 10.2383 73.936 10.5887 73.9306C10.9379 73.9334 11.2751 74.0586 11.5419 74.2846C11.8086 74.5106 11.9879 74.823 12.0488 75.1677C12.9179 75.4814 13.4916 76.0564 13.4916 76.7185C13.4916 77.7118 12.1879 78.5307 10.5887 78.5307ZM14.239 75.22C14.1159 75.2784 13.9825 75.3117 13.8465 75.3179C13.7104 75.324 13.5745 75.303 13.4467 75.2559C13.3189 75.2089 13.2017 75.1368 13.102 75.0439C13.0022 74.951 12.9219 74.8391 12.8658 74.7147C12.7721 74.5242 12.7376 74.3099 12.7666 74.0994C12.7956 73.889 12.8868 73.6921 13.0285 73.5342C13.1702 73.3763 13.3559 73.2645 13.5615 73.2133C13.7672 73.1622 13.9834 73.1739 14.1823 73.2471C14.3812 73.3203 14.5537 73.4516 14.6775 73.624C14.8013 73.7964 14.8707 74.002 14.8768 74.2143C14.8829 74.4267 14.8254 74.636 14.7117 74.8152C14.598 74.9945 14.4334 75.1355 14.239 75.22Z" fill="#C8C5E9"/>
<path d="M13.4915 76.7185C13.4915 77.7117 12.1878 78.5307 10.5887 78.5307C8.98951 78.5307 7.66846 77.7117 7.66846 76.7185C7.66846 76.0564 8.25945 75.4813 9.11119 75.1677C9.17884 74.823 9.3625 74.5121 9.63144 74.2869C9.90038 74.0617 10.2383 73.9359 10.5887 73.9305C10.9379 73.9333 11.2751 74.0586 11.5418 74.2846C11.8085 74.5105 11.9879 74.823 12.0488 75.1677C12.9179 75.4813 13.4915 76.0564 13.4915 76.7185Z" fill="#A49FDA"/>
<path d="M7.89448 75.22C7.77142 75.2784 7.63798 75.3117 7.50195 75.3178C7.36592 75.324 7.23003 75.3029 7.10221 75.2559C6.97438 75.2089 6.85718 75.1368 6.75744 75.0439C6.6577 74.9509 6.57742 74.839 6.52128 74.7147C6.42763 74.5241 6.39309 74.3098 6.42209 74.0994C6.4511 73.889 6.54233 73.6921 6.68402 73.5342C6.82571 73.3762 7.01135 73.2645 7.21701 73.2133C7.42267 73.1621 7.6389 73.1739 7.83782 73.2471C8.03674 73.3203 8.20921 73.4516 8.333 73.624C8.45679 73.7964 8.52621 74.002 8.53231 74.2143C8.53841 74.4267 8.4809 74.6359 8.36722 74.8152C8.25353 74.9944 8.08887 75.1354 7.89448 75.22Z" fill="#A49FDA"/>
<path d="M14.239 75.22C14.1159 75.2784 13.9825 75.3117 13.8464 75.3178C13.7104 75.324 13.5745 75.3029 13.4467 75.2559C13.3189 75.2089 13.2017 75.1368 13.1019 75.0439C13.0022 74.9509 12.9219 74.839 12.8658 74.7147C12.7721 74.5241 12.7376 74.3098 12.7666 74.0994C12.7956 73.889 12.8868 73.6921 13.0285 73.5342C13.1702 73.3762 13.3558 73.2645 13.5615 73.2133C13.7671 73.1621 13.9834 73.1739 14.1823 73.2471C14.3812 73.3203 14.5537 73.4516 14.6775 73.624C14.8013 73.7964 14.8707 74.002 14.8768 74.2143C14.8829 74.4267 14.8254 74.6359 14.7117 74.8152C14.598 74.9944 14.4334 75.1354 14.239 75.22Z" fill="#A49FDA"/>
<path d="M12.3096 73.4601C12.0573 73.5696 11.7727 73.5783 11.5142 73.4843C11.2557 73.3904 11.0427 73.2009 10.919 72.9548C10.8246 72.702 10.8297 72.4226 10.9333 72.1735C11.0368 71.9243 11.2311 71.7239 11.4766 71.6131C11.7221 71.5022 12.0005 71.4891 12.2553 71.5765C12.51 71.6639 12.7221 71.8452 12.8484 72.0835C12.9033 72.2094 12.9328 72.3448 12.9354 72.4821C12.9379 72.6194 12.9135 72.7559 12.8635 72.8837C12.8134 73.0115 12.7388 73.1282 12.6437 73.2271C12.5487 73.326 12.4352 73.4052 12.3096 73.4601Z" fill="#A49FDA"/>
<path d="M9.66745 73.4601C9.41567 73.574 9.12946 73.585 8.86975 73.4906C8.61003 73.3963 8.39731 73.204 8.27687 72.9548C8.18248 72.702 8.18758 72.4226 8.29113 72.1735C8.39468 71.9243 8.58892 71.7239 8.83443 71.6131C9.07995 71.5022 9.35834 71.4891 9.61312 71.5765C9.86789 71.6639 10.08 71.8452 10.2063 72.0835C10.2611 72.2094 10.2906 72.3448 10.2932 72.4821C10.2958 72.6194 10.2714 72.7559 10.2213 72.8837C10.1713 73.0115 10.0966 73.1282 10.0016 73.2271C9.90655 73.326 9.79301 73.4052 9.66745 73.4601Z" fill="#A49FDA"/>
<path d="M143.454 83.9771C142.99 85.3798 142.573 86.7824 142.109 88.2319L141.413 90.3358C140.764 92.5333 140.068 94.6841 139.372 96.8348C138.955 98.144 136.96 97.5829 137.378 96.2738L139.743 88.7462C139.836 88.3721 139.975 88.0448 140.068 87.7175C140.578 86.1279 141.088 84.5382 141.552 82.9485C142.016 81.3588 142.897 79.1613 143.222 77.1976C143.547 75.2339 143.361 73.9715 142.433 72.6156C141.506 71.2597 140.161 70.9792 138.723 71.1662C137.285 71.3532 135.662 72.3818 134.456 73.5039C129.442 78.2387 125.816 84.2718 123.974 90.9437C123.603 92.2528 121.608 91.6917 121.979 90.3826C122.826 87.3153 124.041 84.3635 125.597 81.5926C125.915 80.9631 126.271 80.3541 126.664 79.7692L127.313 78.7873C128.327 77.2087 129.475 75.7225 130.745 74.3455C131.956 72.8509 133.378 71.5434 134.966 70.4649C136.528 69.3507 138.448 68.8669 140.346 69.109C141.236 69.231 142.084 69.5665 142.818 70.0871C143.552 70.6078 144.152 71.2985 144.567 72.1013C146.515 75.8885 144.613 80.2367 143.454 83.9771Z" fill="#4040B7"/>
<path d="M154.214 122.223C154.205 122.352 154.174 122.479 154.121 122.597C153.982 123.205 153.843 123.813 153.658 124.467C153.472 125.122 153.101 126.197 152.776 127.039C152.7 127.3 152.529 127.523 152.297 127.661C152.064 127.8 151.788 127.845 151.524 127.787C151.407 127.761 151.296 127.71 151.2 127.638C151.104 127.565 151.025 127.472 150.968 127.366C150.86 127.248 150.786 127.104 150.754 126.947C150.721 126.791 150.731 126.629 150.782 126.478C151.199 125.355 151.571 124.233 151.895 123.064L152.034 122.41L152.173 121.802C152.211 121.714 152.227 121.617 152.22 121.522C152.55 120.028 152.767 118.512 152.869 116.986C153.156 111.951 152.269 106.918 150.28 102.29C148.29 97.6623 145.254 93.5683 141.413 90.3358L140.207 89.4007C139.998 89.2277 139.838 89.0018 139.743 88.7461C139.684 88.4782 139.717 88.1981 139.836 87.9513L140.068 87.7175C140.224 87.56 140.428 87.4603 140.647 87.4348C140.866 87.4093 141.087 87.4595 141.274 87.5772L142.109 88.2318C144.235 89.9079 146.151 91.8391 147.814 93.9827C151.218 98.3454 153.512 103.482 154.493 108.944C155.235 113.348 155.141 117.854 154.214 122.223Z" fill="#4040B7"/>
<path d="M92.4344 109.085C82.3697 99.6869 66.3682 93.9827 52.5002 94.9646C42.9457 95.6192 32.5099 99.4531 24.5323 105.251C19.987 108.57 16.462 112.311 14.0965 116.285C13.5054 117.206 12.9934 118.175 12.566 119.184C11.4695 121.526 10.7793 124.041 10.5252 126.618C10.4341 127.347 10.3877 128.081 10.386 128.815C10.3397 136.296 14.0502 143.169 19.8014 148.78L21.3784 150.229C24.7174 153.148 28.4302 155.601 32.4171 157.523L34.597 158.552C40.708 161.284 47.2625 162.868 53.938 163.227H55.886C63.1065 163.154 70.2433 161.661 76.8967 158.832C77.7316 158.505 78.4737 158.131 79.2622 157.757C83.2617 155.856 87.0155 153.47 90.44 150.65L91.1821 149.996L92.017 149.247L92.8055 148.499L93.1765 148.125C99.1133 142.234 102.267 135.548 102.221 128.862C102.174 122.176 98.7887 115.069 92.4344 109.085ZM91.1821 146.816C82.3697 155.372 68.3626 160.89 55.8396 160.89H54.0308C44.569 160.469 34.1796 156.822 26.202 151.071C17.436 144.806 12.6587 136.904 12.7051 128.862C12.7515 120.82 17.436 113.293 25.8774 107.168C33.5303 101.604 43.5486 97.9102 52.6857 97.3023C65.9044 96.3672 81.2566 101.791 90.8575 110.815C96.7479 116.332 99.9018 122.597 99.9018 128.862C99.9018 135.127 96.9334 141.252 91.1821 146.816Z" fill="#4040B7"/>
<path d="M90.8575 110.815C81.2566 101.791 65.9044 96.3673 52.6857 97.3024C43.5486 97.9102 33.5303 101.604 25.8774 107.168C17.436 113.293 12.7515 121.007 12.7051 128.862C12.6587 136.717 17.436 144.806 26.202 151.071C34.1796 156.822 44.569 160.469 54.0308 160.89H55.8396C68.3626 160.89 82.3697 155.372 91.1821 146.816C96.9334 141.252 99.9482 135.034 99.9018 128.862C99.8554 122.69 96.7479 116.332 90.8575 110.815ZM46.7489 142.234C46.5928 142.24 46.437 142.215 46.2909 142.159C46.1449 142.103 46.0115 142.018 45.8989 141.909C45.7862 141.8 45.6966 141.669 45.6355 141.524C45.5743 141.379 45.5429 141.223 45.543 141.065L45.4503 135.548C45.4011 133.964 44.7541 132.459 43.6414 131.34C42.5084 130.242 40.9923 129.637 39.4207 129.657C37.8542 129.694 36.3657 130.353 35.2796 131.492C34.1936 132.631 33.5981 134.156 33.623 135.735L33.7158 141.252C33.716 141.567 33.5954 141.869 33.3792 142.096C33.1629 142.322 32.868 142.456 32.5563 142.468C32.2443 142.468 31.9444 142.347 31.7196 142.129C31.4947 141.911 31.3624 141.613 31.3504 141.299L31.2576 135.782C31.2203 133.57 32.0531 131.433 33.5741 129.839C35.0951 128.244 37.1804 127.322 39.3743 127.273L40.6266 127.366C42.5834 127.652 44.3775 128.624 45.6926 130.112C47.0078 131.601 47.7596 133.509 47.8157 135.501L47.9085 141.019C47.9087 141.333 47.788 141.635 47.5718 141.862C47.3556 142.089 47.0606 142.222 46.7489 142.234ZM65.5797 113.807C65.4175 112.607 64.7999 111.518 63.857 110.768C62.9141 110.018 61.7193 109.666 60.5242 109.786C59.925 109.853 59.3452 110.041 58.8193 110.338C58.2935 110.635 57.8322 111.036 57.463 111.516C57.0883 111.983 56.8126 112.523 56.6531 113.102C56.4935 113.681 56.4535 114.287 56.5354 114.882C56.546 114.994 56.5301 115.106 56.489 115.21C58.6689 116.004 62.0083 119.418 62.333 121.007C62.5404 121.941 62.3937 122.92 61.9216 123.751C61.4496 124.581 60.6864 125.204 59.782 125.496C59.0589 125.682 58.2962 125.638 57.5987 125.37C56.9012 125.103 56.303 124.624 55.886 124L55.7005 123.813C55.571 123.746 55.4209 123.734 55.2822 123.777C55.1436 123.821 55.0274 123.918 54.9584 124.046C54.548 124.685 53.9584 125.186 53.2646 125.486C52.5708 125.786 51.8042 125.87 51.0624 125.73C49.2999 125.309 48.1867 123.392 48.6506 121.381C49.1144 119.371 52.3611 116.238 54.541 115.303C54.5064 115.198 54.4906 115.087 54.4946 114.976C54.5605 114.298 54.4758 113.615 54.2466 112.974C54.0175 112.334 53.6497 111.753 53.17 111.274C52.6903 110.795 52.1106 110.429 51.4733 110.204C50.8359 109.979 50.1569 109.9 49.4854 109.973C48.8884 110.029 48.309 110.207 47.7826 110.496C47.2563 110.786 46.7941 111.181 46.4243 111.656C46.0402 112.12 45.752 112.657 45.5765 113.234C45.401 113.812 45.3418 114.419 45.4022 115.02C45.4627 115.621 45.6417 116.204 45.9287 116.734C46.2158 117.265 46.605 117.732 47.0736 118.108C47.2664 118.272 47.3887 118.505 47.4146 118.758C47.4406 119.011 47.3682 119.264 47.2127 119.464C47.136 119.566 47.0393 119.651 46.9288 119.713C46.8184 119.776 46.6963 119.815 46.5703 119.828C46.4443 119.841 46.3169 119.828 46.1961 119.79C46.0752 119.751 45.9635 119.688 45.8677 119.605C45.2031 119.068 44.6516 118.402 44.2455 117.648C43.8393 116.893 43.5866 116.064 43.5022 115.21C43.3461 113.489 43.8661 111.776 44.9504 110.438C46.0346 109.1 47.5965 108.245 49.2999 108.056C49.8077 107.986 50.3226 107.986 50.8305 108.056C52.0055 108.216 53.1135 108.701 54.0308 109.459C54.592 109.907 55.0776 110.444 55.4686 111.048C55.6063 110.789 55.7613 110.539 55.9324 110.3C57.0138 108.946 58.5792 108.073 60.2922 107.869H61.9156C63.0729 108.012 64.1664 108.482 65.0695 109.225C65.7392 109.751 66.2977 110.406 66.7119 111.153C67.1262 111.9 67.3878 112.723 67.4813 113.573C67.6137 114.639 67.4841 115.72 67.1039 116.723C66.7238 117.726 66.1048 118.619 65.3014 119.324C65.097 119.479 64.8439 119.555 64.5884 119.538C64.333 119.521 64.0922 119.412 63.91 119.231C63.7516 119.023 63.6779 118.762 63.7037 118.501C63.7296 118.241 63.8531 118 64.0491 117.828C64.6084 117.333 65.04 116.708 65.3066 116.008C65.5732 115.307 65.6669 114.552 65.5797 113.807ZM79.2622 141.72C78.9546 141.72 78.6597 141.597 78.4423 141.378C78.2248 141.158 78.1026 140.861 78.1026 140.551L78.0099 135.034C77.9461 133.458 77.2815 131.967 76.1546 130.873C74.9927 129.801 73.4613 129.231 71.8876 129.283C70.3538 129.32 68.8959 129.963 67.8286 131.074C66.7612 132.185 66.17 133.674 66.1827 135.221V140.738C66.1888 141.048 66.0725 141.348 65.8594 141.571C65.6463 141.795 65.3538 141.924 65.0463 141.93C64.7388 141.936 64.4414 141.819 64.2196 141.604C63.9978 141.39 63.8697 141.095 63.8636 140.785L63.7708 135.268C63.7579 133.092 64.5904 130.998 66.0901 129.434C67.5899 127.87 69.6376 126.96 71.7948 126.898H73.1398C74.8434 127.141 76.4309 127.909 77.6852 129.096C78.4857 129.844 79.1284 130.747 79.5747 131.751C80.0209 132.756 80.2617 133.84 80.2825 134.94L80.3753 140.457C80.3879 140.615 80.3688 140.773 80.3192 140.923C80.2695 141.072 80.1902 141.21 80.0862 141.328C79.9822 141.446 79.8555 141.542 79.7139 141.609C79.5723 141.676 79.4186 141.714 79.2622 141.72Z" fill="#5959FF"/>
<path d="M98.0002 160.89C97.7219 161.591 96.7479 161.825 96.0521 161.918C94.9714 162.019 93.8829 162.004 92.8055 161.871C90.3483 161.685 87.9206 161.214 85.57 160.469C83.3757 159.799 81.2606 158.89 79.2621 157.757C83.2616 155.856 87.0155 153.47 90.44 150.65C92.1571 151.921 93.7009 153.415 95.0318 155.092C95.7682 156 96.4497 156.953 97.0725 157.944C97.5364 158.739 98.3712 159.908 98.0002 160.89Z" fill="#6678FF"/>
<path d="M99.6236 162.245C98.1858 164.349 95.171 164.162 92.9911 163.975C87.3297 163.591 81.8424 161.843 76.9895 158.879H76.8968C75.9228 158.131 76.9431 156.401 78.0563 157.102L79.2622 157.804C81.2606 158.936 83.3758 159.846 85.5701 160.515C87.9207 161.261 90.3484 161.731 92.8055 161.918C93.883 162.05 94.9714 162.066 96.0522 161.965C96.7479 161.871 97.7219 161.638 98.0002 160.936C98.2785 160.235 97.5364 158.785 97.0726 157.991C96.4498 157 95.7683 156.047 95.0318 155.139C93.701 153.462 92.1572 151.968 90.4401 150.697L89.9763 150.37C89.7483 150.216 89.5844 149.984 89.516 149.716C89.4475 149.449 89.4793 149.165 89.6052 148.92C89.7096 148.746 89.8609 148.605 90.0415 148.514C90.2221 148.423 90.4247 148.385 90.6256 148.406L91.043 148.546L92.017 149.294L93.223 150.276C94.8128 151.685 96.2579 153.251 97.5364 154.952C98.9279 156.822 101.247 159.861 99.6236 162.245Z" fill="#4040B7"/>
<path d="M32.4171 157.523C28.397 159.84 23.9429 161.289 19.3376 161.778C18.1848 161.934 17.0216 161.996 15.859 161.965C15.0705 161.918 14.1429 161.825 13.5399 161.31C12.937 160.796 13.308 159.487 13.7254 158.739C14.2926 157.679 14.9605 156.677 15.7198 155.746C17.2617 153.654 19.1249 151.823 21.2392 150.323L21.3783 150.229C24.7173 153.148 28.4301 155.601 32.4171 157.523Z" fill="#6678FF"/>
<path d="M127.267 138.4H127.22C125.829 139.663 124.527 141.022 123.324 142.468C119.441 147.13 117.048 152.867 116.46 158.926C116.46 159.253 116.413 159.58 116.413 159.861C116.398 160.106 116.304 160.339 116.145 160.525C115.986 160.711 115.771 160.839 115.532 160.89C115.356 160.922 115.174 160.909 115.004 160.852C114.833 160.795 114.68 160.695 114.558 160.562C114.459 160.479 114.384 160.369 114.343 160.245C114.302 160.121 114.296 159.988 114.326 159.861C114.373 159.347 114.373 158.832 114.465 158.318C114.596 156.835 114.844 155.366 115.208 153.923C116.692 147.845 120.124 142.515 124.53 138.12L125.782 136.904C126.756 136.016 128.241 137.465 127.267 138.4Z" fill="#6678FF"/>
<path d="M119.057 137.559L118.779 137.792C113.074 141.439 108.853 147.19 107.926 153.97C108.049 154.107 108.135 154.273 108.175 154.453C108.216 154.634 108.21 154.821 108.158 154.998C108.109 155.167 108.03 155.326 107.926 155.466L107.508 156.027C107.367 156.189 107.177 156.299 106.968 156.342C106.758 156.384 106.541 156.355 106.349 156.261C106.124 156.159 105.932 155.997 105.792 155.793C105.739 155.643 105.708 155.485 105.699 155.326C105.746 154.526 105.839 153.73 105.978 152.941C106.145 151.98 106.362 151.028 106.627 150.089C108.246 145.05 111.393 140.651 115.625 137.512C116.306 136.971 117.019 136.472 117.758 136.016C118.779 135.314 119.753 136.764 119.057 137.559Z" fill="#6678FF"/>
<path d="M34.597 158.552C34.5068 158.694 34.378 158.808 34.226 158.879C31.5191 160.544 28.6017 161.834 25.5527 162.713C22.8314 163.49 20.0297 163.945 17.2041 164.069C15.0241 164.116 12.1021 163.975 11.2673 161.451C10.8035 160.048 11.4064 158.598 12.0558 157.383C12.7702 156.195 13.5603 155.055 14.4212 153.97C15.9799 152.008 17.789 150.263 19.8014 148.78L20.2188 148.499C20.3329 148.425 20.4609 148.376 20.5948 148.355C20.7287 148.334 20.8656 148.341 20.9965 148.377C21.1275 148.412 21.2497 148.474 21.3554 148.56C21.4611 148.645 21.5479 148.752 21.6103 148.873C21.7349 149.091 21.78 149.346 21.7376 149.594C21.6952 149.841 21.5681 150.066 21.3784 150.229L21.2392 150.323C19.125 151.823 17.2617 153.654 15.7199 155.746C14.9606 156.676 14.2926 157.679 13.7255 158.739C13.308 159.487 12.7978 160.609 13.5399 161.31C14.282 162.012 15.0705 161.918 15.859 161.965C17.0216 161.996 18.1849 161.933 19.3376 161.778C23.9429 161.289 28.3971 159.84 32.4171 157.523L33.2056 157.056C34.1796 156.448 35.1072 157.757 34.597 158.552Z" fill="#4040B7"/>
<path d="M56.4427 115.116C56.4427 115.163 56.4427 115.163 56.3963 115.163C56.3966 115.337 56.3432 115.507 56.2435 115.65C56.1438 115.792 56.0027 115.9 55.8397 115.958H55.3759C55.1813 115.944 54.9958 115.869 54.8459 115.743C54.696 115.617 54.5894 115.447 54.541 115.256C54.5064 115.151 54.4907 115.04 54.4947 114.929C54.5605 114.252 54.4758 113.568 54.2467 112.927C54.0176 112.287 53.6498 111.706 53.17 111.227C52.6903 110.748 52.1107 110.383 51.4734 110.158C50.836 109.933 50.1569 109.854 49.4855 109.926C48.8885 109.982 48.3091 110.16 47.7827 110.45C47.2564 110.739 46.7941 111.134 46.4243 111.609C46.0403 112.073 45.7521 112.61 45.5766 113.187C45.4011 113.765 45.3418 114.372 45.4023 114.973C45.4628 115.574 45.6418 116.157 45.9288 116.688C46.2158 117.218 46.6051 117.685 47.0737 118.062C47.2665 118.226 47.3887 118.458 47.4147 118.711C47.4406 118.964 47.3683 119.217 47.2128 119.418C47.136 119.519 47.0394 119.604 46.9289 119.666C46.8184 119.729 46.6964 119.768 46.5704 119.781C46.4444 119.794 46.317 119.781 46.1961 119.743C46.0753 119.704 45.9635 119.641 45.8677 119.558C45.2032 119.021 44.6517 118.355 44.2455 117.601C43.8394 116.846 43.5867 116.017 43.5023 115.163C43.3462 113.443 43.8662 111.729 44.9504 110.391C46.0347 109.054 47.5965 108.198 49.3 108.009C49.8078 107.939 50.3227 107.939 50.8305 108.009C52.0056 108.169 53.1136 108.655 54.0308 109.412C54.5921 109.86 55.0777 110.397 55.4687 111.002C56.2143 112.236 56.5551 113.676 56.4427 115.116Z" fill="#221A7E"/>
<path d="M65.3016 119.324C65.0971 119.479 64.844 119.555 64.5886 119.538C64.3331 119.521 64.0923 119.412 63.9101 119.231C63.7518 119.023 63.678 118.762 63.7039 118.501C63.7297 118.241 63.8533 118 64.0493 117.828C64.6085 117.333 65.0401 116.708 65.3067 116.008C65.5734 115.307 65.6671 114.552 65.5798 113.807C65.4176 112.607 64.8001 111.518 63.8571 110.768C62.9142 110.018 61.7194 109.666 60.5243 109.786C59.9251 109.853 59.3453 110.04 58.8195 110.338C58.2936 110.635 57.8324 111.036 57.4631 111.516C57.0884 111.983 56.8128 112.523 56.6532 113.102C56.4937 113.681 56.4536 114.287 56.5355 114.882C56.5461 114.994 56.5302 115.106 56.4891 115.21C56.4524 115.379 56.3736 115.537 56.26 115.668C56.1465 115.799 56.0019 115.898 55.8398 115.958H55.6543C55.4269 115.999 55.1926 115.949 55.0018 115.817C54.811 115.686 54.6789 115.485 54.6339 115.256C54.6339 115.21 54.5875 115.163 54.5875 115.116C54.4704 113.402 54.9457 111.701 55.9325 110.3C57.0139 108.946 58.5793 108.073 60.2924 107.869H61.9157C63.073 108.011 64.1666 108.482 65.0696 109.225C65.7394 109.751 66.2978 110.406 66.7121 111.153C67.1263 111.9 67.3879 112.723 67.4815 113.573C67.6138 114.638 67.4842 115.72 67.1041 116.723C66.7239 117.726 66.1049 118.619 65.3016 119.324Z" fill="#221A7E"/>
<path d="M47.9085 141.019C47.9088 141.333 47.7881 141.635 47.5719 141.862C47.3557 142.089 47.0607 142.222 46.749 142.234C46.5929 142.24 46.4371 142.215 46.291 142.159C46.1449 142.103 46.0116 142.018 45.8989 141.909C45.7863 141.8 45.6967 141.669 45.6356 141.524C45.5744 141.379 45.543 141.223 45.5431 141.065L45.4503 135.548C45.4012 133.964 44.7542 132.459 43.6415 131.34C42.5085 130.242 40.9924 129.637 39.4208 129.657C37.8543 129.694 36.3658 130.353 35.2797 131.492C34.1937 132.631 33.5982 134.156 33.6231 135.735L33.7159 141.252C33.7161 141.567 33.5954 141.869 33.3792 142.096C33.163 142.322 32.8681 142.456 32.5563 142.468C32.2444 142.468 31.9445 142.347 31.7196 142.129C31.4948 141.911 31.3624 141.613 31.3504 141.299L31.2577 135.782C31.2204 133.57 32.0532 131.433 33.5742 129.839C35.0952 128.244 37.1805 127.322 39.3744 127.272L40.6267 127.366C42.5835 127.651 44.3775 128.624 45.6927 130.112C47.0078 131.601 47.7597 133.509 47.8158 135.501L47.9085 141.019Z" fill="#221A7E"/>
<path d="M80.4217 140.504C80.4278 140.814 80.3116 141.114 80.0985 141.338C79.993 141.448 79.8668 141.537 79.7273 141.599C79.5878 141.66 79.4376 141.693 79.2854 141.696C78.9778 141.703 78.6805 141.585 78.4587 141.371C78.2369 141.156 78.1088 140.861 78.1026 140.551L78.0099 135.034C77.9461 133.458 77.2815 131.967 76.1546 130.873C74.9927 129.801 73.4613 129.231 71.8876 129.283C70.3538 129.32 68.8959 129.963 67.8286 131.074C66.7612 132.185 66.1701 133.674 66.1827 135.221V140.738C66.1857 140.892 66.1587 141.044 66.1033 141.187C66.0478 141.33 65.965 141.461 65.8594 141.571C65.7539 141.682 65.6278 141.771 65.4883 141.832C65.3488 141.894 65.1986 141.927 65.0463 141.93C64.8941 141.933 64.7427 141.906 64.6008 141.85C64.459 141.794 64.3294 141.711 64.2196 141.604C64.1098 141.498 64.0218 141.371 63.9607 141.23C63.8997 141.09 63.8666 140.938 63.8636 140.785L63.7708 135.268C63.7579 133.092 64.5904 130.998 66.0901 129.434C67.5899 127.87 69.6376 126.96 71.7948 126.898H73.1398C74.8434 127.141 76.4309 127.909 77.6852 129.096C78.4857 129.844 79.1284 130.747 79.5747 131.751C80.0209 132.756 80.2617 133.84 80.2825 134.94L80.4217 140.504Z" fill="#221A7E"/>
<path d="M59.7821 125.496C59.0589 125.682 58.2963 125.638 57.5988 125.37C56.9013 125.102 56.3031 124.624 55.8861 124L55.7006 123.813C55.5711 123.746 55.421 123.734 55.2823 123.777C55.1437 123.821 55.0275 123.917 54.9585 124.046C54.5481 124.685 53.9585 125.186 53.2646 125.486C52.5708 125.786 51.8043 125.87 51.0625 125.73C49.3 125.309 48.1868 123.392 48.6506 121.381C49.1144 119.371 52.3611 116.238 54.5411 115.303H54.6338C54.8928 115.167 55.1772 115.088 55.4687 115.069C55.7848 115.026 56.1067 115.074 56.3963 115.21H56.4891C58.669 116.004 62.0084 119.418 62.3331 121.007C62.5405 121.941 62.3938 122.92 61.9217 123.751C61.4496 124.581 60.6864 125.204 59.7821 125.496Z" fill="#221A7E"/>
<path d="M155.977 123.766C155.444 123.191 154.853 122.674 154.214 122.223L154.122 122.129C154.09 121.923 154.002 121.729 153.867 121.57C153.732 121.412 153.556 121.294 153.358 121.231C153.16 121.168 152.949 121.161 152.748 121.213C152.547 121.264 152.364 121.371 152.22 121.522C152.122 121.643 152.058 121.788 152.034 121.942C151.91 122.098 151.831 122.285 151.807 122.484C151.782 122.682 151.813 122.883 151.895 123.065L152.034 123.298C151.959 124.714 151.596 126.098 150.968 127.366C149.5 130.197 147.264 132.548 144.521 134.146C139.558 137.091 133.575 136.998 128.055 136.437C122.536 135.875 116.089 134.52 110.245 135.969C107.918 136.49 105.781 137.656 104.076 139.335C102.358 141.184 101.412 143.628 101.432 146.162C101.431 146.834 101.477 147.506 101.572 148.172C101.708 148.87 101.894 149.558 102.128 150.229C102.899 152.335 104.155 154.226 105.792 155.746L106.349 156.214C107.474 157.163 108.704 157.978 110.013 158.645C111.475 159.392 112.995 160.018 114.558 160.516L115.532 160.843C118.465 161.666 121.487 162.121 124.53 162.199C129.561 162.284 134.558 161.36 139.232 159.482C143.906 157.604 148.163 154.808 151.756 151.258C155.513 147.518 158.667 142.749 159.548 137.418C160.429 132.088 159.27 127.413 155.977 123.766ZM151.895 148.079C148.719 151.668 144.863 154.58 140.554 156.643C136.245 158.707 131.569 159.88 126.803 160.095C123.316 160.243 119.828 159.849 116.46 158.926L114.466 158.318L112.981 157.757C111.249 157.079 109.624 156.15 108.158 154.998L107.833 154.765C107.455 154.446 107.099 154.102 106.766 153.736L105.978 152.894C104.681 151.335 103.845 149.439 103.566 147.424C103.4 146.309 103.467 145.172 103.762 144.085C104.058 142.998 104.576 141.986 105.282 141.112C106.753 139.595 108.617 138.526 110.662 138.026C112.287 137.629 113.954 137.441 115.625 137.465C116.599 137.418 117.573 137.465 118.547 137.512H119.057C120.866 137.652 122.721 137.839 124.53 138.073L127.22 138.4H127.823C133.296 139.008 139.048 139.055 144.103 136.624C149.159 134.192 152.498 130.499 153.75 125.73C153.85 125.376 153.927 125.017 153.982 124.654C156.626 127.085 157.739 131.013 157.739 134.52C157.646 139.663 155.096 144.385 151.895 148.079Z" fill="#4040B7"/>
<path d="M115.625 137.465C111.394 140.604 108.246 145.004 106.627 150.042C106.362 150.981 106.145 151.933 105.978 152.894C104.681 151.335 103.845 149.439 103.566 147.424C103.4 146.309 103.467 145.172 103.762 144.085C104.058 142.998 104.576 141.986 105.282 141.112C106.753 139.595 108.617 138.526 110.662 138.026C112.287 137.629 113.954 137.441 115.625 137.465Z" fill="#5959FF"/>
<path d="M124.53 138.12C120.124 142.515 116.692 147.845 115.208 153.923C114.844 155.366 114.596 156.835 114.466 158.318L112.981 157.757C111.249 157.079 109.624 156.15 108.158 154.998C108.21 154.821 108.216 154.634 108.175 154.453C108.135 154.273 108.049 154.107 107.926 153.97C108.853 147.19 113.074 141.439 118.779 137.792L119.057 137.559C120.866 137.699 122.721 137.886 124.53 138.12Z" fill="#6678FF"/>
<path d="M157.739 134.613C157.646 139.663 155.095 144.385 151.895 148.079C148.719 151.668 144.863 154.58 140.554 156.643C136.244 158.707 131.569 159.88 126.803 160.095C123.316 160.243 119.827 159.849 116.46 158.926C117.057 152.884 119.449 147.164 123.324 142.515C124.527 141.069 125.829 139.709 127.22 138.447H127.823C133.296 139.055 139.048 139.102 144.103 136.67C149.159 134.239 152.498 130.545 153.75 125.776C153.85 125.423 153.927 125.064 153.982 124.701C156.626 127.179 157.739 131.106 157.739 134.613Z" fill="#5959FF"/>
<path d="M24.5787 92.6736C23.883 93.3749 23.2337 94.123 22.5843 94.8711C21.641 95.9748 20.7584 97.1298 19.9406 98.331C15.7482 104.529 13.2086 111.71 12.566 119.184C12.3722 121.517 12.3412 123.86 12.4732 126.197C12.566 127.366 10.989 127.506 10.5252 126.618C10.4377 126.495 10.3892 126.348 10.3861 126.197C10.247 124.08 10.247 121.956 10.3861 119.838C11.1613 109.125 15.6234 99.021 23.0018 91.271C23.0481 91.2242 23.0945 91.2242 23.0945 91.1774C24.0221 90.1956 25.5063 91.6917 24.5787 92.6736Z" fill="#4040B7"/>
<path d="M127.22 81.312C127.085 81.5472 126.862 81.7186 126.601 81.7887C126.34 81.8588 126.063 81.8219 125.829 81.6861L125.597 81.5926C108.649 73.7674 89.8832 70.8222 71.3773 73.0831C60.4661 74.4176 49.8354 77.4952 39.8845 82.2004L39.1888 82.5277C38.9556 82.6463 38.6884 82.6786 38.4341 82.6188C38.1797 82.5589 37.9543 82.4108 37.7973 82.2004C37.6923 82.0218 37.6408 81.8164 37.649 81.609C37.6573 81.4016 37.7249 81.201 37.8437 81.0315L38.1684 80.751L39.5598 80.0964L39.8845 79.9561C44.4916 77.7967 49.251 75.9839 54.1235 74.5325C60.606 72.6271 67.2526 71.3434 73.9747 70.6986C80.8742 70.0598 87.82 70.1225 94.7071 70.8856C96.0057 71.0259 97.3044 71.1661 98.6031 71.3999L100.783 71.7272C103.52 72.1947 106.256 72.7558 108.946 73.4571L111.868 74.252L113.863 74.8598C118.236 76.1977 122.514 77.838 126.664 79.7691L126.849 79.8626C126.971 79.9302 127.078 80.0222 127.163 80.133C127.248 80.2437 127.31 80.3709 127.345 80.5066C127.38 80.6423 127.387 80.7838 127.365 80.9223C127.344 81.0608 127.294 81.1934 127.22 81.312Z" fill="#4040B7"/>
<path d="M103.659 149.107C103.647 149.384 103.529 149.646 103.33 149.837C103.132 150.029 102.867 150.136 102.592 150.136L102.128 150.229C99.1687 150.557 96.1825 150.557 93.223 150.229L91.1822 149.995C90.6256 149.902 90.3474 149.201 90.4401 148.686C90.4732 148.563 90.5371 148.45 90.6256 148.359C90.7593 148.198 90.9321 148.074 91.1272 148.001C91.3223 147.927 91.533 147.905 91.7388 147.938L93.1766 148.125C95.9652 148.445 98.7797 148.46 101.572 148.172L102.592 148.032C102.871 148.043 103.136 148.16 103.334 148.359C103.531 148.559 103.647 148.826 103.659 149.107Z" fill="#4040B7"/>
<path d="M113.213 70.0908C112.842 71.4935 112.332 72.8494 111.868 74.2521L108.946 73.4572C106.256 72.7559 103.52 72.1948 100.783 71.7273C102.155 69.2183 103.856 66.9066 105.839 64.8543C106.755 63.7836 107.874 62.9092 109.132 62.2827C110.102 61.8723 111.181 61.8063 112.193 62.0957C112.489 62.1321 112.765 62.2632 112.981 62.4697C113.086 62.5499 113.18 62.6443 113.26 62.7503H113.399C113.445 62.8438 113.492 62.8905 113.492 62.984C113.807 63.5239 113.982 64.1348 114.002 64.7607C114.095 66.6777 113.723 68.2674 113.213 70.0908Z" fill="#5959FF"/>
<path d="M113.863 74.8598L113.584 75.7482C113.167 77.0106 111.172 76.4495 111.544 75.1871C111.636 74.8598 111.775 74.5325 111.868 74.252C112.332 72.8493 112.842 71.4934 113.213 70.0908C113.584 68.6881 114.094 66.6777 114.002 64.8542C113.982 64.2282 113.806 63.6173 113.492 63.0775C113.492 62.984 113.445 62.9372 113.399 62.8437H113.26C113.18 62.7378 113.086 62.6434 112.981 62.5632C112.765 62.3566 112.489 62.2255 112.193 62.1891C111.181 61.8998 110.102 61.9657 109.132 62.3762C107.874 63.0026 106.755 63.8771 105.839 64.9477C103.856 67.0001 102.155 69.3118 100.783 71.8207C100.551 72.1948 100.366 72.5688 100.18 72.9429C99.5771 74.1585 97.7683 73.0831 98.3712 71.9142L98.6031 71.4934C100.339 68.0282 102.662 64.8953 105.468 62.2359C107.601 60.3657 110.523 59.0565 113.306 60.2722C115.161 61.067 115.95 62.8905 116.089 64.7607C116.321 68.2206 114.976 71.587 113.863 74.8598Z" fill="#4040B7"/>
<path d="M96.3304 89.1202C95.1709 93.0476 94.0114 96.9283 92.8054 100.856C92.4344 102.118 90.44 101.557 90.8111 100.295L94.4288 88.2318C94.9998 86.529 95.4797 84.7966 95.8666 83.042C96.2099 81.6436 96.0454 80.1675 95.4028 78.8808C95.1052 78.3105 94.633 77.8524 94.0564 77.5744C93.4798 77.2964 92.8296 77.2134 92.2025 77.3378C90.7647 77.5249 89.5588 78.46 88.5384 79.4418C84.0394 83.6966 80.9318 89.4474 79.3549 95.4321C78.9838 96.7413 76.9894 96.1802 77.3141 94.8711C78.3505 91.0688 79.9451 87.4442 82.045 84.1173C83.0021 82.6723 84.0396 81.283 85.1525 79.9561C86.2416 78.6077 87.5052 77.4126 88.9094 76.4027C90.3585 75.4388 92.1062 75.0399 93.8258 75.2806C94.6015 75.4561 95.3268 75.8087 95.946 76.3113C96.5651 76.8139 97.0616 77.453 97.3972 78.1794C99.0205 81.7328 97.3972 85.6603 96.3304 89.1202Z" fill="#4040B7"/>
<path d="M141.413 90.3358C140.764 92.5333 140.068 94.684 139.372 96.8348C138.955 98.1439 136.96 97.5829 137.378 96.2737L139.743 88.7461C139.684 88.4782 139.717 88.1981 139.836 87.9513L140.068 87.7175C140.578 86.1278 141.088 84.5381 141.552 82.9485C142.016 81.3588 142.897 79.1613 143.222 77.1976C143.547 75.2338 143.361 73.9715 142.433 72.6156C141.506 71.2596 140.161 70.9791 138.723 71.1661C137.285 71.3532 135.662 72.3818 134.456 73.5039C129.442 78.2387 125.816 84.2717 123.974 90.9436C123.603 92.2528 121.608 91.6917 121.979 90.3826C122.826 87.3153 124.041 84.3635 125.597 81.5926C108.649 73.7674 89.8833 70.8222 71.3774 73.0831C60.4662 74.4176 49.8354 77.4953 39.8845 82.2004V82.3874C39.7454 85.0525 39.2352 87.6707 39.3279 90.289C39.3279 91.6449 37.2408 91.6449 37.2408 90.289C37.148 87.5772 37.6582 84.9122 37.7974 82.2004C37.6924 82.0218 37.6409 81.8164 37.6491 81.609C37.6573 81.4016 37.7249 81.201 37.8437 81.0315C37.8437 79.3016 37.6118 77.4313 36.4987 76.2157C35.3855 75.0001 34.7362 74.5793 33.6231 74.7195C32.5099 74.8598 30.9793 76.2157 30.1445 77.2911C26.2021 82.6679 25.1817 89.4007 24.5787 95.8997C24.5787 96.1725 24.4712 96.4341 24.2799 96.627C24.0885 96.8199 23.829 96.9283 23.5583 96.9283C23.4205 96.9346 23.2828 96.9127 23.1536 96.8638C23.0244 96.815 22.9064 96.7402 22.8066 96.6441C22.7069 96.5479 22.6276 96.4324 22.5734 96.3044C22.5193 96.1765 22.4914 96.0388 22.4916 95.8997C22.5379 95.5724 22.5379 95.2451 22.5843 94.9178C21.641 96.0215 20.7584 97.1765 19.9406 98.3777C15.7557 104.562 13.2164 111.726 12.566 119.184C12.9934 118.175 13.5054 117.206 14.0966 116.285C16.462 112.311 19.987 108.57 24.5323 105.251C32.5099 99.4531 42.9457 95.6191 52.5002 94.9646C66.3682 93.9827 82.3697 99.6868 92.4344 109.085C98.7887 115.069 102.221 121.896 102.221 128.862C102.221 135.829 99.1133 142.234 93.1765 148.125C95.9651 148.445 98.7797 148.46 101.572 148.172C101.477 147.506 101.431 146.834 101.432 146.162C101.412 143.628 102.358 141.184 104.076 139.335C105.781 137.656 107.918 136.49 110.245 135.969C116.089 134.52 122.211 135.829 128.055 136.436C133.899 137.044 139.558 137.091 144.521 134.145C147.264 132.548 149.5 130.197 150.968 127.366C150.86 127.248 150.786 127.104 150.754 126.947C150.721 126.791 150.731 126.629 150.782 126.478C151.199 125.355 151.57 124.233 151.895 123.064C151.813 122.883 151.782 122.682 151.807 122.483C151.831 122.285 151.91 122.098 152.034 121.942C152.058 121.788 152.122 121.643 152.22 121.522C152.55 120.028 152.767 118.512 152.869 116.986C153.156 111.951 152.269 106.918 150.279 102.29C148.29 97.6623 145.254 93.5683 141.413 90.3358ZM96.3305 89.1202C95.1709 93.0476 94.0114 96.9283 92.8055 100.856C92.4344 102.118 90.4401 101.557 90.8111 100.295L94.4288 88.2318C94.9998 86.529 95.4798 84.7966 95.8667 83.042C96.21 81.6436 96.0455 80.1675 95.4028 78.8808C95.1053 78.3105 94.6331 77.8524 94.0565 77.5744C93.4799 77.2964 92.8297 77.2134 92.2025 77.3378C90.7647 77.5249 89.5588 78.46 88.5384 79.4418C84.0394 83.6965 80.9319 89.4474 79.3549 95.4321C78.9839 96.7413 76.9895 96.1802 77.3142 94.8711C78.3506 91.0688 79.9452 87.4442 82.0451 84.1173C83.0022 82.6723 84.0397 81.283 85.1526 79.9561C86.2417 78.6077 87.5052 77.4126 88.9095 76.4027C90.3585 75.4388 92.1063 75.0399 93.8259 75.2806C94.6015 75.4561 95.3268 75.8087 95.946 76.3113C96.5652 76.8139 97.0617 77.453 97.3972 78.1794C99.0206 81.7328 97.3972 85.6603 96.3305 89.1202Z" fill="#5959FF"/>
<path d="M39.8845 82.2004V82.3874C39.7454 85.0525 39.2352 87.6708 39.328 90.2891C39.328 91.645 37.2408 91.645 37.2408 90.2891C37.148 87.5773 37.6582 84.9122 37.7974 82.2004V82.1069C37.8359 81.7342 37.8514 81.3594 37.8438 80.9848C37.8438 79.2548 37.6119 77.3846 36.4987 76.169C35.3856 74.9534 34.7362 74.5326 33.6231 74.6728C32.5099 74.8131 30.9793 76.169 30.1445 77.2444C26.2021 82.6212 25.1817 89.354 24.5787 95.853C24.5787 96.1258 24.4712 96.3874 24.2799 96.5803C24.0885 96.7732 23.829 96.8816 23.5583 96.8816C23.4205 96.8879 23.2828 96.866 23.1536 96.8171C23.0244 96.7683 22.9064 96.6935 22.8066 96.5973C22.7069 96.5012 22.6276 96.3857 22.5734 96.2577C22.5193 96.1298 22.4914 95.9921 22.4916 95.853C22.538 95.5257 22.538 95.1984 22.5843 94.8711L23.0018 91.271C23.3017 88.7843 23.8138 86.3283 24.5324 83.9304C25.0876 82.1695 25.8018 80.4636 26.6659 78.834C27.502 77.1857 28.5985 75.6856 29.9126 74.3923C31.2576 73.1767 33.0201 72.2416 34.8754 72.7091C36.2012 73.0707 37.3737 73.8587 38.2148 74.9534C39.328 76.356 39.7454 78.1327 39.8845 79.9094C39.9309 80.6724 39.9309 81.4375 39.8845 82.2004Z" fill="#4040B7"/>
<path d="M72.2122 126.898H73.1862C74.8898 127.141 76.4773 127.909 77.7316 129.096C78.5321 129.844 79.1748 130.747 79.6211 131.751C80.0673 132.756 80.3081 133.84 80.329 134.94L80.4217 140.457C80.4248 140.611 80.3978 140.764 80.3423 140.907C80.2869 141.05 80.204 141.18 80.0985 141.291C79.993 141.402 79.8669 141.49 79.7273 141.552C79.5878 141.613 79.4376 141.647 79.2854 141.65C79.1331 141.653 78.9817 141.626 78.8399 141.57C78.698 141.514 78.5685 141.43 78.4587 141.324C78.3488 141.218 78.2609 141.09 78.1998 140.95C78.1387 140.809 78.1057 140.658 78.1027 140.504L78.0099 134.987C77.9461 133.411 77.2816 131.92 76.1546 130.826C74.9927 129.755 73.4613 129.184 71.8876 129.236C70.3538 129.273 68.8959 129.916 67.8286 131.027C66.7612 132.138 66.1701 133.628 66.1827 135.174V140.691C66.1888 141.001 66.0726 141.301 65.8595 141.525C65.6464 141.748 65.3539 141.877 65.0463 141.884C64.8941 141.887 64.7427 141.859 64.6008 141.803C64.459 141.748 64.3295 141.664 64.2196 141.558C63.9978 141.343 63.8698 141.048 63.8636 140.738L63.7709 135.221C63.75 133.041 64.5834 130.941 66.0899 129.376L67.0175 128.582C66.2706 128.861 65.5424 129.189 64.8376 129.563C53.0104 135.314 44.4299 145.834 39.9773 158.084C44.4996 159.644 49.2124 160.572 53.9844 160.843H55.7933C68.3162 160.843 82.3233 155.326 91.1358 146.769C96.8871 141.206 99.9018 134.987 99.8554 128.815C99.8554 128.161 99.8091 127.506 99.7627 126.898C90.7183 125.168 81.1638 124.561 72.2122 126.898Z" fill="#6678FF"/>
<path d="M121.284 94.4971C121.794 93.5619 122.304 92.5801 122.86 91.645C122.71 91.647 122.561 91.6119 122.426 91.5428C122.292 91.4736 122.176 91.3725 122.09 91.2481C122.003 91.1238 121.947 90.9799 121.928 90.8291C121.909 90.6783 121.926 90.525 121.979 90.3826C122.826 87.3153 124.041 84.3635 125.597 81.5926C108.649 73.7674 89.8832 70.8223 71.3773 73.0831C62.8978 74.1139 54.5782 76.2027 46.6097 79.3016L48.6041 80.7043C51.2181 82.3767 53.9459 83.8609 56.7672 85.146L57.6948 85.5668H57.834L60.1531 86.4552C62.8122 87.4838 65.5024 88.4189 68.2234 89.2605C71.5165 90.3358 74.8095 91.3177 78.149 92.1593C79.1387 89.3374 80.4459 86.6392 82.045 84.1174C83.0021 82.6723 84.0396 81.283 85.1525 79.9562C86.2416 78.6077 87.5052 77.4126 88.9094 76.4028C90.3585 75.4388 92.1062 75.0399 93.8258 75.2806C94.6015 75.4562 95.3268 75.8088 95.9459 76.3113C96.5651 76.8139 97.0616 77.453 97.3972 78.1795C99.0205 81.7329 97.3972 85.6603 96.3304 89.1202L94.5215 95.1516C97.3044 95.4789 100.134 95.6659 102.917 95.7594C108.923 95.9325 114.932 95.5412 120.866 94.5906L121.284 94.4971Z" fill="#6678FF"/>
<path d="M149.994 110.394C135.801 120.54 119.336 127.74 102.174 130.218C101.803 136.436 98.6959 142.608 93.1765 148.125C95.9651 148.445 98.7796 148.46 101.572 148.172C101.477 147.506 101.431 146.834 101.432 146.162C101.411 143.628 102.358 141.184 104.076 139.335C105.781 137.656 107.918 136.49 110.245 135.969C116.089 134.519 122.211 135.829 128.055 136.436C133.899 137.044 139.558 137.091 144.521 134.145C147.264 132.548 149.5 130.197 150.968 127.366C150.86 127.248 150.786 127.104 150.754 126.947C150.721 126.791 150.731 126.629 150.782 126.478C151.199 125.355 151.57 124.233 151.895 123.064C151.813 122.883 151.782 122.682 151.807 122.483C151.831 122.285 151.91 122.098 152.034 121.942C152.058 121.788 152.122 121.643 152.22 121.522C152.55 120.028 152.767 118.512 152.869 116.986C153.018 114.213 152.816 111.432 152.266 108.711L149.994 110.394Z" fill="#5050E5"/>
</svg>
