<svg width="151" height="167" viewBox="0 0 151 167" fill="none" xmlns="http://www.w3.org/2000/svg">
<path d="M12.6265 106.55L63.8155 114.912C67.336 115.48 70.6542 113.247 71.2207 109.878L84.0483 38.1932C84.6552 34.8241 82.3082 31.6579 78.8282 31.0896L27.5988 22.7277C24.1188 22.1595 20.8006 24.4326 20.1936 27.7611L7.36601 99.4868C6.79949 102.815 9.14649 105.981 12.6265 106.55Z" fill="#6678FF"/>
<path d="M71.7467 61.4117L23.0262 53.4557C22.7233 53.4164 22.4315 53.316 22.1682 53.1607C21.905 53.0053 21.6758 52.7982 21.4944 52.5518C21.313 52.3053 21.1831 52.0246 21.1125 51.7266C21.042 51.4285 21.0322 51.1192 21.0838 50.8173L22.9048 40.4664C23.0411 39.8544 23.4074 39.3188 23.9275 38.971C24.4476 38.6232 25.0813 38.49 25.6969 38.5991L74.4174 46.5551C74.7203 46.5945 75.0121 46.6948 75.2753 46.8502C75.5386 47.0055 75.7678 47.2126 75.9492 47.4591C76.1306 47.7055 76.2605 47.9862 76.3311 48.2843C76.4016 48.5823 76.4114 48.8916 76.3598 49.1936L74.5388 59.5039C74.4024 60.1184 74.0377 60.6576 73.5191 61.012C73.0004 61.3664 72.3667 61.5093 71.7467 61.4117Z" fill="#4E4EDE"/>
<path d="M71.0993 69.5301L20.841 61.3306C20.6344 61.306 20.4349 61.2396 20.2546 61.1354C20.0743 61.0312 19.917 60.8914 19.7922 60.7244C19.6673 60.5574 19.5776 60.3667 19.5283 60.1639C19.4791 59.9611 19.4714 59.7504 19.5057 59.5446C19.5444 59.3388 19.6235 59.1427 19.7383 58.9678C19.8531 58.7929 20.0013 58.6426 20.1745 58.5255C20.3476 58.4085 20.5421 58.3271 20.7469 58.286C20.9516 58.2449 21.1624 58.245 21.3671 58.2862L71.6253 66.4858C71.8319 66.5104 72.0314 66.5768 72.2117 66.681C72.392 66.7852 72.5493 66.925 72.6742 67.092C72.799 67.259 72.8888 67.4496 72.938 67.6524C72.9873 67.8552 72.995 68.0659 72.9607 68.2718C72.864 68.6773 72.619 69.0317 72.2743 69.2647C71.9296 69.4977 71.5103 69.5924 71.0993 69.5301Z" fill="#4E4EDE"/>
<path d="M69.6425 77.5267L19.3843 69.3272C19.1812 69.2976 18.9862 69.2276 18.8105 69.1213C18.6349 69.0149 18.4822 68.8744 18.3615 68.7079C18.2409 68.5415 18.1546 68.3525 18.1079 68.1521C18.0611 67.9518 18.0548 67.744 18.0894 67.5411C18.1281 67.3354 18.2072 67.1393 18.322 66.9644C18.4368 66.7895 18.585 66.6391 18.7582 66.5221C18.9313 66.4051 19.1258 66.3237 19.3306 66.2826C19.5353 66.2415 19.7461 66.2416 19.9508 66.2828L70.209 74.4823C70.6217 74.5427 70.9938 74.7644 71.244 75.099C71.4942 75.4337 71.6022 75.8541 71.5444 76.2684C71.439 76.6771 71.1861 77.0321 70.8348 77.2646C70.4834 77.497 70.0586 77.5904 69.6425 77.5267Z" fill="#4E4EDE"/>
<path d="M68.2262 85.5232L17.968 77.3237C17.5553 77.2634 17.1832 77.0417 16.933 76.707C16.6828 76.3723 16.5748 75.9519 16.6326 75.5376C16.7203 75.1188 16.9693 74.7516 17.3255 74.516C17.6816 74.2803 18.1162 74.1953 18.5345 74.2793L68.7927 82.4788C68.9958 82.5084 69.1908 82.5784 69.3665 82.6848C69.5421 82.7911 69.6948 82.9316 69.8154 83.0981C69.9361 83.2645 70.0224 83.4535 70.0691 83.6539C70.1159 83.8543 70.1221 84.062 70.0876 84.2649C70.0489 84.4707 69.9698 84.6667 69.855 84.8416C69.7402 85.0165 69.592 85.1669 69.4188 85.2839C69.2457 85.4009 69.0512 85.4824 68.8464 85.5234C68.6417 85.5645 68.4309 85.5644 68.2262 85.5232Z" fill="#4E4EDE"/>
<path d="M66.8099 93.5198L16.5517 85.3202C16.3451 85.2956 16.1456 85.2292 15.9653 85.125C15.785 85.0208 15.6277 84.881 15.5029 84.714C15.378 84.547 15.2882 84.3564 15.239 84.1536C15.1898 83.9508 15.1821 83.7401 15.2164 83.5342C15.2551 83.3284 15.3342 83.1324 15.449 82.9575C15.5638 82.7825 15.712 82.6322 15.8851 82.5152C16.0583 82.3981 16.2528 82.3167 16.4576 82.2756C16.6623 82.2345 16.8731 82.2346 17.0778 82.2758L67.336 90.4754C67.5426 90.5 67.7421 90.5664 67.9224 90.6706C68.1027 90.7748 68.26 90.9146 68.3849 91.0816C68.5097 91.2486 68.5995 91.4393 68.6487 91.6421C68.698 91.8449 68.7057 92.0556 68.6714 92.2614C68.6326 92.4672 68.5536 92.6633 68.4388 92.8382C68.324 93.0131 68.1757 93.1634 68.0026 93.2805C67.8294 93.3975 67.6349 93.4789 67.4302 93.52C67.2254 93.5611 67.0146 93.561 66.8099 93.5198Z" fill="#4E4EDE"/>
<path d="M65.3532 101.516L15.095 93.3168C14.8919 93.2873 14.6968 93.2172 14.5212 93.1109C14.3456 93.0045 14.1929 92.864 14.0722 92.6976C13.9516 92.5311 13.8653 92.3422 13.8186 92.1418C13.7718 91.9414 13.7655 91.7336 13.8001 91.5308C13.8388 91.325 13.9179 91.129 14.0327 90.954C14.1475 90.7791 14.2957 90.6288 14.4689 90.5117C14.642 90.3947 14.8365 90.3133 15.0413 90.2722C15.246 90.2311 15.4568 90.2312 15.6615 90.2724L65.9197 98.472C66.3324 98.5323 66.7045 98.754 66.9547 99.0887C67.2049 99.4233 67.3129 99.8437 67.2551 100.258C67.1674 100.677 66.9184 101.044 66.5622 101.28C66.206 101.515 65.7715 101.6 65.3532 101.516Z" fill="#4E4EDE"/>
<path d="M89.1469 108.092L138.393 91.3279C143.007 89.7854 145.394 84.9144 143.775 80.5304L118.606 13.1075C116.987 8.72359 111.889 6.40986 107.316 7.99294L58.0694 24.7168C53.4563 26.2998 51.0283 31.1303 52.6874 35.5548L77.8165 102.978C79.4756 107.362 84.5338 109.675 89.1469 108.092Z" fill="#8DA3FF"/>
<path d="M114.397 24.8385L47.7101 47.5293C43.5017 48.9501 38.8482 46.8799 37.351 42.8613L33.7091 33.0381C32.1714 28.9789 34.397 24.595 38.6054 23.1337L105.293 0.442889C109.501 -0.977823 114.155 1.13295 115.652 5.15154L119.294 14.9747C120.831 18.9933 118.606 23.4178 114.397 24.8385Z" fill="#8DA3FF"/>
<path d="M38.6054 23.1337L39.3338 22.8902C43.5422 21.4694 48.1553 23.5802 49.6525 27.5988L56.0461 44.6879L43.2185 49.0718C42.3906 49.3551 41.4862 49.3113 40.6893 48.9493C39.8925 48.5874 39.2631 47.9345 38.9291 47.1234L33.7091 33.0381C32.1714 28.9789 34.397 24.595 38.6054 23.1337Z" fill="#5959FF"/>
<path d="M64.2201 39.9387L113.75 23.0525C113.922 23.0017 114.081 22.9169 114.22 22.8029C114.358 22.689 114.472 22.5483 114.555 22.3893C114.638 22.2302 114.688 22.0561 114.703 21.8771C114.718 21.6982 114.696 21.5182 114.64 21.3477C114.504 20.9982 114.239 20.7148 113.9 20.5561C113.561 20.3974 113.174 20.3756 112.819 20.4953L63.2489 37.3814C63.0776 37.4315 62.9185 37.5165 62.7815 37.6311C62.6445 37.7458 62.5326 37.8876 62.4528 38.0477C62.373 38.2077 62.3271 38.3826 62.3178 38.5613C62.3086 38.7401 62.3363 38.9188 62.3992 39.0863C62.4624 39.2626 62.5598 39.4246 62.6857 39.5629C62.8116 39.7013 62.9636 39.8133 63.1328 39.8926C63.3021 39.9718 63.4853 40.0166 63.6719 40.0246C63.8585 40.0325 64.0448 40.0033 64.2201 39.9387Z" fill="#5959FF"/>
<path d="M67.862 49.7619L117.432 32.8757C117.604 32.8257 117.763 32.7406 117.9 32.626C118.037 32.5113 118.149 32.3695 118.228 32.2095C118.308 32.0494 118.354 31.8745 118.363 31.6958C118.373 31.517 118.345 31.3383 118.282 31.1708C118.22 30.9948 118.122 30.8333 117.995 30.6963C117.868 30.5592 117.715 30.4494 117.545 30.3735C117.375 30.2976 117.191 30.2571 117.005 30.2546C116.818 30.2522 116.633 30.2877 116.461 30.359L66.9313 47.2046C66.7586 47.2592 66.5987 47.3485 66.4614 47.4671C66.3242 47.5857 66.2124 47.731 66.1329 47.8943C66.0534 48.0576 66.0078 48.2354 65.999 48.4169C65.9902 48.5984 66.0183 48.7798 66.0816 48.95C66.2173 49.289 66.4781 49.5626 66.8097 49.7137C67.1412 49.8649 67.5181 49.8822 67.862 49.7619Z" fill="#5959FF"/>
<path d="M71.5444 59.5851L121.115 42.7395C121.457 42.6196 121.738 42.369 121.898 42.0421C122.057 41.7153 122.081 41.3386 121.964 40.9941C121.821 40.652 121.552 40.3777 121.214 40.227C120.876 40.0762 120.493 40.0602 120.144 40.1822L70.5732 57.0278C70.4005 57.0824 70.2406 57.1718 70.1033 57.2903C69.9661 57.4089 69.8543 57.5542 69.7748 57.7175C69.6953 57.8808 69.6498 58.0586 69.6409 58.2401C69.6321 58.4216 69.6602 58.603 69.7235 58.7733C69.8674 59.1153 70.1357 59.3896 70.4739 59.5403C70.8121 59.6911 71.1949 59.7071 71.5444 59.5851Z" fill="#5959FF"/>
<path d="M75.2268 69.4083L124.757 52.5627C124.929 52.5081 125.089 52.4187 125.227 52.3002C125.364 52.1816 125.476 52.0363 125.555 51.873C125.635 51.7097 125.68 51.5319 125.689 51.3504C125.698 51.1689 125.67 50.9875 125.606 50.8173C125.471 50.4782 125.21 50.2047 124.878 50.0536C124.547 49.9024 124.17 49.8851 123.826 50.0054L74.2556 66.851C74.0828 66.9056 73.923 66.995 73.7857 67.1135C73.6484 67.2321 73.5367 67.3775 73.4572 67.5407C73.3777 67.704 73.3321 67.8818 73.3233 68.0633C73.3145 68.2448 73.3426 68.4262 73.4058 68.5965C73.5498 68.9385 73.8181 69.2128 74.1563 69.3635C74.4945 69.5143 74.8772 69.5303 75.2268 69.4083Z" fill="#5959FF"/>
<path d="M132.283 84.1431C131.919 85.4014 129.855 86.0103 127.711 85.442C125.566 84.8737 124.069 83.3718 124.433 82.1135C124.797 80.8552 125.687 80.6928 126.942 80.6116C127.17 80.1861 127.531 79.848 127.97 79.6499C128.409 79.4517 128.901 79.4045 129.37 79.5156C129.833 79.6293 130.241 79.9034 130.522 80.2896C130.804 80.6758 130.94 81.1492 130.907 81.6264C131.959 82.3165 132.526 83.2907 132.283 84.1431Z" fill="white"/>
<path d="M125.283 80.2463C124.907 80.3183 124.519 80.2395 124.201 80.0269C123.883 79.8143 123.661 79.4849 123.583 79.1097C123.561 78.9252 123.576 78.738 123.627 78.5594C123.679 78.3808 123.766 78.2145 123.883 78.0704C124 77.9264 124.145 77.8075 124.309 77.7211C124.473 77.6346 124.653 77.5823 124.838 77.5672C125.207 77.494 125.591 77.5673 125.907 77.7716C126.224 77.976 126.45 78.2955 126.537 78.6632C126.56 78.85 126.545 79.0394 126.494 79.2204C126.443 79.4014 126.356 79.5705 126.24 79.7178C126.123 79.865 125.978 79.9876 125.814 80.0783C125.65 80.1691 125.469 80.2262 125.283 80.2463Z" fill="white"/>
<path d="M133.861 82.4788C133.487 82.5404 133.104 82.4574 132.788 82.2464C132.473 82.0355 132.249 81.7123 132.162 81.3423C132.139 81.1577 132.154 80.9705 132.206 80.7919C132.257 80.6133 132.344 80.447 132.461 80.303C132.579 80.1589 132.724 80.0401 132.888 79.9536C133.052 79.8671 133.232 79.8148 133.416 79.7998C133.786 79.7266 134.169 79.7998 134.486 80.0042C134.803 80.2085 135.029 80.5281 135.116 80.8958C135.138 81.0825 135.124 81.2719 135.073 81.453C135.022 81.634 134.935 81.803 134.818 81.9503C134.702 82.0976 134.557 82.2201 134.393 82.3109C134.228 82.4016 134.048 82.4587 133.861 82.4788Z" fill="white"/>
<path d="M131.879 79.5156C131.503 79.5876 131.115 79.5088 130.797 79.2962C130.479 79.0836 130.257 78.7542 130.179 78.379C130.157 78.1945 130.172 78.0073 130.223 77.8287C130.275 77.6501 130.361 77.4838 130.479 77.3397C130.596 77.1957 130.741 77.0768 130.905 76.9904C131.069 76.9039 131.249 76.8516 131.433 76.8365C131.809 76.7646 132.197 76.8434 132.515 77.056C132.833 77.2686 133.055 77.5979 133.133 77.9731C133.155 78.1577 133.14 78.3449 133.089 78.5235C133.037 78.702 132.95 78.8684 132.833 79.0124C132.716 79.1565 132.571 79.2753 132.407 79.3618C132.243 79.4482 132.063 79.5006 131.879 79.5156Z" fill="white"/>
<path d="M128.318 78.582C127.942 78.654 127.554 78.5752 127.236 78.3626C126.918 78.15 126.696 77.8206 126.618 77.4454C126.596 77.2609 126.611 77.0737 126.662 76.8951C126.714 76.7165 126.801 76.5502 126.918 76.4061C127.035 76.2621 127.18 76.1433 127.344 76.0568C127.508 75.9703 127.688 75.918 127.872 75.903C128.248 75.831 128.636 75.9098 128.954 76.1224C129.272 76.335 129.494 76.6644 129.572 77.0395C129.594 77.2241 129.579 77.4113 129.528 77.5899C129.476 77.7685 129.39 77.9348 129.272 78.0788C129.155 78.2229 129.01 78.3417 128.846 78.4282C128.682 78.5146 128.502 78.567 128.318 78.582Z" fill="white"/>
<path d="M120.386 76.5525C121.115 76.9584 121.115 78.2168 120.386 79.3533C119.658 80.4899 118.525 81.0582 117.797 80.6117C117.068 80.1652 117.109 79.6781 117.271 78.9474C117.049 78.7645 116.902 78.5066 116.857 78.2224C116.813 77.9382 116.873 77.6474 117.028 77.4049C117.185 77.1541 117.424 76.965 117.704 76.869C117.984 76.773 118.288 76.7759 118.565 76.8772C119.213 76.4307 119.901 76.2683 120.386 76.5525Z" fill="white"/>
<path d="M116.785 79.8404C116.745 80.0629 116.623 80.262 116.443 80.3976C116.263 80.5332 116.038 80.5952 115.814 80.5711C115.7 80.5667 115.588 80.5382 115.486 80.4875C115.384 80.4368 115.294 80.365 115.221 80.2769C115.148 80.1888 115.095 80.0863 115.065 79.9761C115.035 79.8659 115.028 79.7505 115.045 79.6375C115.055 79.5215 115.088 79.4087 115.143 79.3062C115.198 79.2036 115.273 79.1134 115.364 79.0411C115.455 78.9689 115.56 78.9161 115.672 78.886C115.784 78.8559 115.901 78.8492 116.016 78.8662C116.245 78.8967 116.454 79.0154 116.597 79.1972C116.741 79.379 116.808 79.6097 116.785 79.8404Z" fill="white"/>
<path d="M119.618 75.3753C119.578 75.6057 119.45 75.8113 119.26 75.9479C119.071 76.0845 118.836 76.1413 118.606 76.106C118.496 76.0962 118.388 76.0638 118.291 76.0107C118.194 75.9577 118.108 75.8851 118.04 75.7976C117.972 75.7101 117.922 75.6094 117.894 75.5019C117.866 75.3943 117.86 75.2822 117.877 75.1723C117.938 74.9723 118.067 74.8 118.241 74.6854C118.416 74.5709 118.625 74.5214 118.832 74.5455C119.039 74.5697 119.231 74.666 119.375 74.8176C119.518 74.9692 119.604 75.1666 119.618 75.3753Z" fill="white"/>
<path d="M117.432 75.9841C117.402 76.214 117.284 76.423 117.102 76.567C116.921 76.7109 116.691 76.7785 116.461 76.7554C116.236 76.7159 116.034 76.5948 115.892 76.4152C115.75 76.2356 115.679 76.0099 115.692 75.7812C115.732 75.548 115.859 75.3386 116.047 75.1954C116.234 75.0523 116.469 74.986 116.704 75.0099C116.816 75.0248 116.924 75.062 117.022 75.1193C117.119 75.1766 117.204 75.2528 117.272 75.3435C117.34 75.4342 117.389 75.5376 117.417 75.6476C117.444 75.7576 117.449 75.872 117.432 75.9841Z" fill="white"/>
<path d="M116.259 77.8514C116.244 77.9639 116.207 78.0722 116.15 78.1701C116.093 78.2679 116.017 78.3534 115.926 78.4215C115.836 78.4895 115.733 78.5388 115.623 78.5663C115.513 78.5939 115.399 78.5993 115.288 78.5821C115.176 78.5719 115.067 78.5396 114.968 78.4871C114.869 78.4346 114.781 78.3629 114.709 78.276C114.638 78.1892 114.584 78.0891 114.551 77.9814C114.519 77.8737 114.508 77.7605 114.519 77.6485C114.549 77.4186 114.668 77.2096 114.849 77.0657C115.03 76.9217 115.26 76.8542 115.49 76.8772C115.606 76.8871 115.718 76.9206 115.82 76.9757C115.923 77.0307 116.012 77.1062 116.085 77.1975C116.157 77.2888 116.209 77.3939 116.239 77.5064C116.269 77.6188 116.276 77.7363 116.259 77.8514Z" fill="white"/>
<path d="M147.354 107.401C146.05 113.866 143.265 119.94 139.217 125.147C135.353 130.095 130.305 133.99 124.538 136.473C121.594 137.74 118.527 138.763 115.461 139.744C111.699 140.93 107.937 142.075 104.094 142.933C97.158 144.39 90.0823 145.076 82.9957 144.978C77.5117 144.876 72.0377 144.466 66.5995 143.751C60.0166 142.974 53.3109 142.279 46.9732 140.235C41.9849 138.64 37.4463 136.105 33.1531 133.12C28.8598 130.135 25.139 126.864 22.2359 122.694C18.758 117.731 16.6688 111.929 16.1845 105.889C15.6529 99.9598 16.3072 93.7448 18.7604 88.2658C19.9624 85.6005 21.6388 83.176 23.7079 81.1103C26.262 78.6331 29.5444 77.0421 33.0713 76.5718C37.1601 75.9176 41.6169 76.0402 45.8693 75.754C52.5466 75.2488 59.1523 74.0428 65.5773 72.1558C71.3514 70.423 76.9396 68.122 82.2597 65.2866C84.129 64.267 86.0538 63.3524 88.0249 62.5471C90.418 61.6317 92.8976 60.9604 95.4257 60.5436C100.946 59.6032 106.67 59.1125 112.272 59.6032C119.486 60.1841 126.388 62.7922 132.184 67.1266C136.816 70.7085 140.612 75.2573 143.306 80.4561C147.681 88.7564 149.234 98.1607 147.354 107.401Z" fill="#5959FF"/>
<path d="M149.93 97.0976C149.718 93.3622 148.989 89.6743 147.763 86.1396C146.125 81.3713 143.707 76.9083 140.607 72.9327C136.263 67.3645 130.521 63.0473 123.966 60.421C117.669 57.9268 110.841 57.2726 104.094 57.7223C98.7377 58.0903 93.2178 58.6628 88.1477 60.5436C83.6908 62.1791 79.6838 64.7142 75.3497 66.636C72.118 68.1034 68.7836 69.3333 65.373 70.3159H65.3321C64.4734 70.6021 63.6148 70.8474 62.7152 71.0519C59.8729 71.8236 56.9935 72.4513 54.0879 72.9327C48.8133 73.7914 43.4978 74.0367 38.1824 74.282C34.3798 74.4865 30.4954 74.7727 27.0199 76.49C25.3111 77.3373 23.7508 78.4557 22.3996 79.8019C22.3587 79.8428 22.3587 79.8837 22.3178 79.8837C17.861 84.2996 15.4486 90.3511 14.5899 96.5252C13.7258 102.557 14.2289 108.705 16.0619 114.516C18.0301 120.315 21.4176 125.53 25.9159 129.685C28.9706 132.51 32.3147 135.004 35.8926 137.127L37.1193 137.863L37.2828 137.945L38.2233 138.476L39.8179 139.294C43.8086 141.22 48.0261 142.635 52.3706 143.506L54.2105 143.874L55.0692 144.037L58.0131 144.487L59.8531 144.773C64.1463 145.386 68.4396 145.877 72.692 146.245L73.7142 146.327L74.491 146.409C79.2494 146.825 84.0295 146.934 88.8019 146.736L90.6827 146.613L93.0133 146.45C96.4199 146.162 99.8061 145.671 103.154 144.978L104.462 144.732L105.034 144.61L109.287 143.547L110.841 143.097L116.033 141.502L116.565 141.339L119.672 140.275C124.538 138.599 129.322 136.555 133.493 133.406C138.733 129.361 142.926 124.117 145.718 118.114C147.024 115.347 148.051 112.457 148.785 109.487C149.112 108.056 149.398 106.625 149.603 105.153C149.981 102.485 150.091 99.7868 149.93 97.0976ZM148.008 102.822C147.967 103.026 147.967 103.272 147.926 103.517C147.919 103.764 147.892 104.01 147.844 104.253V104.335C147.844 104.498 147.803 104.621 147.803 104.785L147.681 105.521C147.64 105.725 147.64 105.889 147.599 106.093C147.558 106.297 147.558 106.379 147.517 106.543C147.517 106.584 147.517 106.584 147.476 106.625L147.354 107.361C146.05 113.825 143.265 119.9 139.217 125.106C135.353 130.054 130.305 133.95 124.538 136.432C121.594 137.7 118.528 138.722 115.461 139.703L115.011 139.867L113.744 140.235L112.476 140.643L111.658 140.889L110.759 141.175H110.554L109.655 141.42L108.428 141.788L106.874 142.197L105.648 142.483H105.443L104.094 142.811C97.1581 144.267 90.0824 144.953 82.9958 144.855C77.5117 144.753 72.0378 144.343 66.5996 143.628C60.0166 142.851 53.311 142.156 46.9733 140.112L46.0329 139.826L45.2969 139.539L44.7245 139.335H44.6836L43.8249 139.008H43.7432L43.0072 138.722L42.4347 138.435L41.0854 137.822L40.513 137.536L40.3903 137.454L39.2455 136.923L38.5095 136.514L37.7735 136.105L37.6099 136.023H37.5691L36.7104 135.492L35.8109 134.878L34.0118 133.733L33.1531 133.12C28.9826 130.258 25.1391 126.864 22.236 122.694C18.7581 117.731 16.6689 111.929 16.1846 105.889C15.653 99.9598 16.3072 93.7448 18.7605 88.2658C19.9624 85.6005 21.6389 83.176 23.708 81.1103C26.2621 78.6331 29.5445 77.0421 33.0714 76.5718C37.1602 75.9176 41.617 76.0402 45.8693 75.754L48.2817 75.5087H48.9768L50.2035 75.3451H50.4079L51.6755 75.1816L54.3741 74.7727L55.5598 74.5682L56.7456 74.3229L57.686 74.1594H58.0131L59.158 73.914L60.1393 73.6687L61.4477 73.3825L62.7152 73.0554L63.901 72.7283L65.0868 72.4012L65.5774 72.2785L67.4992 71.6652L68.4805 71.3381L69.4209 71.011L70.3613 70.6839H70.4431L71.3018 70.3568L73.0191 69.6617L74.0821 69.2528L75.6359 68.5986L77.1896 67.9035L78.4572 67.2902L80.2563 66.4315L82.2598 65.4093C84.1291 64.3897 86.0538 63.4751 88.025 62.6698C90.4181 61.7543 92.8976 61.0831 95.4257 60.6663C100.946 59.7259 106.67 59.2352 112.272 59.7259C119.486 60.3068 126.388 62.9148 132.184 67.2493C136.816 70.8312 140.612 75.38 143.306 80.5788C143.714 81.3077 144.083 82.0585 144.41 82.8277L144.9 83.9725C145.422 85.1717 145.872 86.4004 146.25 87.6524H146.291C146.372 87.8978 146.413 88.1022 146.495 88.3067C146.577 88.5111 146.618 88.7564 146.659 88.9609V89.0426C146.699 89.1653 146.699 89.2471 146.74 89.3697C146.781 89.4924 146.945 90.1057 147.027 90.5146L147.149 91.0462L147.395 92.191C147.476 92.559 147.517 92.9679 147.599 93.3359C147.606 93.529 147.634 93.7209 147.681 93.9083C147.681 94.031 147.722 94.1128 147.722 94.2354L147.844 95.1759C147.838 95.2597 147.852 95.3438 147.885 95.4212C147.885 95.7074 147.926 95.9527 147.926 96.239C147.973 96.4954 148.001 96.7551 148.008 97.0158C148.008 97.2612 148.049 97.5065 148.049 97.7927C148.049 98.0789 148.09 98.3242 148.09 98.6105V100.818C148.09 100.941 148.049 101.064 148.049 101.186V101.636C148.016 101.866 148.002 102.099 148.008 102.331C147.988 102.494 147.988 102.659 148.008 102.822Z" fill="#4040B7"/>
<path d="M145.963 102.577C145.277 105.642 144.276 108.629 142.978 111.49C140.239 117.542 136.845 125.106 130.712 126.21C125.396 127.191 123.352 122.366 115.461 122.571C109.573 122.734 109.327 125.474 104.094 125.76C94.3624 126.21 91.7865 116.806 83.2817 117.215C76.0036 117.583 75.9628 124.574 66.5994 126.578C60.3026 127.886 54.9054 125.597 46.9731 123.062C41.9847 121.467 37.4461 118.932 33.1529 115.947C28.8596 112.962 25.1388 109.691 22.2358 105.521C19.7161 101.923 17.9243 97.8667 16.9612 93.5812C16.052 97.6166 15.7898 101.771 16.1843 105.889C16.6687 111.929 18.7578 117.731 22.2358 122.694C25.1388 126.864 28.9823 130.258 33.1529 133.12C37.3235 135.982 41.9847 138.64 46.9731 140.235C53.3107 142.279 60.0164 142.974 66.5994 143.751C72.0375 144.466 77.5115 144.875 82.9955 144.978C90.0821 145.076 97.1578 144.39 104.094 142.933C107.937 142.074 111.699 140.93 115.461 139.744C118.527 138.763 121.594 137.74 124.538 136.473C130.304 133.99 135.353 130.095 139.217 125.147C144.217 118.727 147.268 111.007 148.008 102.904C147.309 102.982 146.603 102.869 145.963 102.577Z" fill="#5050E5"/>
<path d="M21.0093 72.8918L20.2733 72.4829C17.2888 70.8149 14.0599 69.6282 10.7055 68.9666C9.14576 68.6464 7.55401 68.5092 5.96248 68.5577C5.55534 68.5945 5.15582 68.6909 4.77673 68.8439C4.47427 68.9472 4.20569 69.131 3.99985 69.3755L3.8363 69.539L3.71364 69.7434C3.60008 69.8891 3.51668 70.0559 3.46831 70.2341C3.42453 70.2944 3.39643 70.3647 3.38653 70.4385C3.34108 70.5278 3.31331 70.625 3.30476 70.7248C3.22479 70.9194 3.18314 71.1277 3.18209 71.3381C3.1412 71.4199 3.1412 71.379 3.1412 71.5425C3.1412 71.7061 3.10032 71.747 3.10032 71.8287V72.5647C3.10032 73.0145 3.1412 73.5052 3.18209 73.9958C3.28413 74.9085 3.46193 75.8112 3.71364 76.6944C3.91808 77.5531 4.16341 78.3708 4.40874 79.1886C4.89025 80.7709 5.51999 82.3041 6.28959 83.7681C6.61517 84.4794 6.99806 85.1632 7.43446 85.8125L7.51623 85.8943H8.08867C9.27442 85.8534 9.27442 87.6933 8.08867 87.7342C7.61574 87.7731 7.14018 87.7032 6.69847 87.5298L6.16692 87.1209C5.61757 86.4506 5.1635 85.7076 4.81762 84.9129C3.89669 83.1566 3.13055 81.3233 2.52788 79.4339C1.88286 77.4279 1.45785 75.3577 1.26035 73.2598C1.13769 71.2563 1.46479 68.9666 3.18209 67.6582C4.11469 67.0063 5.23431 66.6762 6.37137 66.7177C8.20121 66.7197 10.0252 66.9254 11.8095 67.331C15.3762 68.1147 18.7978 69.453 21.9497 71.2972C22.9719 71.9105 22.0315 73.4643 21.0093 72.8918Z" fill="#4040B7"/>
<path d="M88.1479 109.977C88.0305 112.193 87.6038 114.381 86.8803 116.479C84.7541 122.775 79.9293 127.641 74.1641 130.912C68.3989 134.183 60.5075 136.35 53.2703 137.168C45.7189 138.008 38.0844 137.719 30.6183 136.309C27.2266 135.695 23.9001 134.765 20.6824 133.529C19.3136 133.022 17.9756 132.435 16.6754 131.771C15.0142 130.964 13.4152 130.034 11.8915 128.99C7.88446 126.21 4.69519 122.244 3.22322 117.583C1.75125 112.921 1.95569 107.688 3.01878 102.822C3.90206 98.3936 5.37343 94.1033 7.39381 90.0649C9.59527 85.8378 12.4364 81.976 15.8168 78.6162C22.7269 71.747 31.9267 67.2084 41.7398 66.636C49.9583 66.1453 58.0951 68.3942 65.2505 72.3603C67.2231 73.4619 69.1216 74.6912 70.934 76.0403H70.9748L71.0975 76.122L71.3428 76.3265L73.4281 78.1256C75.2293 79.8042 76.9099 81.6077 78.4574 83.5228C84.3453 90.8827 88.6794 100.369 88.1479 109.977Z" fill="#5959FF"/>
<path d="M90.0283 107.688C90.0283 107.32 89.9874 106.911 89.9874 106.502C89.5785 100.164 87.2887 93.9084 84.0995 88.4703L83.4453 87.4072C83.0773 86.7938 82.6684 86.2214 82.2595 85.6081C78.905 80.5713 74.5993 76.2378 69.5842 72.851L69.4206 72.7283L67.6624 71.6244L67.4989 71.5426L65.3727 70.3159H65.3318C60.118 67.4943 54.4149 65.6904 48.5268 65.0005C42.2718 64.2588 35.9302 65.0444 30.0454 67.2902C27.2003 68.3242 24.4837 69.6824 21.9495 71.3381C21.3771 71.7061 20.8047 72.0741 20.2731 72.483L19.9051 72.7283C15.0157 76.3129 10.8529 80.7948 7.63868 85.9352C7.31158 86.4667 6.98447 86.9983 6.69825 87.5707C5.09837 90.3135 3.79618 93.2194 2.81388 96.239C2.13561 98.3597 1.57594 100.516 1.13747 102.699C0.647786 105.028 0.360498 107.395 0.278819 109.773C0.0933968 115.482 1.93276 121.072 5.47161 125.556C8.17023 128.909 11.7684 131.403 15.571 133.284C18.5215 134.75 21.6012 135.941 24.7708 136.841C28.614 137.903 32.5394 138.641 36.5057 139.049L38.3865 139.212L39.8176 139.294C41.4532 139.417 43.0887 139.458 44.7242 139.458H47.6682C55.396 139.172 63.2874 137.822 70.4428 134.797L72.6917 133.774C73.3936 133.461 74.0763 133.106 74.7361 132.711C78.9067 130.421 82.6684 127.396 85.4079 123.511L86.1439 122.367L86.5937 121.631C87.4532 120.17 88.1524 118.621 88.6789 117.01C89.639 113.998 90.0949 110.848 90.0283 107.688ZM88.1474 109.977C88.03 112.193 87.6034 114.381 86.8799 116.479C86.4381 117.795 85.877 119.067 85.2035 120.281L84.4266 121.59C81.8915 125.474 78.2934 128.582 74.1637 130.912C73.7002 131.195 73.2225 131.455 72.7326 131.689L72.0375 132.057L71.7104 132.221L71.3424 132.384L71.1379 132.466L70.7291 132.67L70.2793 132.875H70.1975L69.0935 133.325L68.1122 133.693H67.9896L67.3353 133.938L67.1309 134.02L66.9265 134.101L66.3949 134.265L65.9043 134.429L64.8003 134.797H64.7185L63.819 135.083H63.7781L63.4101 135.205H63.2056L62.5105 135.369L61.6519 135.614L61.1203 135.696L60.3435 135.9L59.7301 136.023H59.6484L58.7897 136.187H58.5853L57.3995 136.432H57.3178L56.2955 136.596H56.2547L55.8049 136.677L55.0689 136.759L54.1694 136.882L53.2698 137.004C48.9925 137.461 44.6851 137.571 40.3901 137.332C38.8772 137.25 37.4052 137.127 35.8924 136.964C34.1342 136.759 32.3351 136.473 30.6178 136.146C27.2262 135.532 23.8996 134.601 20.682 133.365C19.3131 132.858 17.9751 132.271 16.675 131.607C15.0137 130.8 13.4147 129.871 11.891 128.827C7.88401 126.046 4.69474 122.08 3.22276 117.419C1.75079 112.758 1.95523 107.524 3.01832 102.658C3.91553 98.2862 5.38661 94.0517 7.39335 90.0649C9.59482 85.8378 12.436 81.976 15.8163 78.6162C22.7264 71.747 31.9262 67.2084 41.7394 66.636C48.9766 66.2271 56.2138 67.9444 62.715 71.0519L65.0865 72.2786L65.25 72.3603L66.1496 72.8919L67.0082 73.3825L67.4989 73.6688H67.5398L68.3575 74.2003L69.0118 74.6092L69.5024 74.9772L69.6251 75.059L70.1975 75.4678L70.9335 75.9994H70.9744L71.097 76.0812L71.3424 76.2856L73.4277 78.0847C75.2289 79.7633 76.9094 81.5669 78.4569 83.4819C83.7724 90.0649 87.7794 98.4061 88.1474 106.993C88.1883 107.442 88.1883 107.892 88.1883 108.342C88.1883 108.792 88.1883 109.446 88.1474 109.977Z" fill="#4040B7"/>
<path d="M20.273 72.483L19.9051 72.7283C15.0157 76.3128 10.8529 80.7948 7.63862 85.9352H7.51595L7.43418 85.8534C6.99778 85.2041 6.6149 84.5204 6.28931 83.809C5.51971 82.3451 4.88997 80.8118 4.40846 79.2295C4.16313 78.4118 3.9178 77.594 3.71336 76.7353C3.46165 75.8521 3.28385 74.9495 3.18181 74.0367C3.14092 73.5461 3.10004 73.0554 3.10004 72.6056V71.8288C3.10004 71.747 3.14092 71.6652 3.14092 71.5426C3.14092 71.4199 3.14092 71.4199 3.18181 71.3381C3.18286 71.1277 3.22451 70.9194 3.30448 70.7248C3.31303 70.625 3.3408 70.5278 3.38625 70.4386C3.39615 70.3647 3.42425 70.2945 3.46803 70.2341C3.51641 70.0559 3.5998 69.8891 3.71336 69.7435L3.83602 69.539L3.99958 69.3755C4.20541 69.131 4.47399 68.9472 4.77645 68.8439C5.15554 68.6909 5.55506 68.5945 5.96221 68.5577C7.55373 68.5092 9.14548 68.6464 10.7052 68.9666C14.0596 69.6283 17.2885 70.815 20.273 72.483Z" fill="#6678FF"/>
<path d="M12.9542 107.933C20.8865 108.71 27.674 106.911 30.945 105.48C41.8213 100.818 49.0176 85.1173 47.9545 66.7994C45.8904 66.581 43.8122 66.5263 41.7395 66.6359C31.9263 67.2083 22.7265 71.7469 15.8164 78.6161C12.4361 81.9759 9.59493 85.8376 7.39346 90.0648C5.37309 94.1031 3.90171 98.3935 3.01843 102.822C2.81399 103.721 2.65044 104.58 2.52777 105.48C5.87438 106.771 9.38273 107.597 12.9542 107.933Z" fill="#6678FF"/>
<path d="M87.4525 74.1185C87.2782 75.4186 87.0048 76.7035 86.6347 77.962C85.8915 80.6461 84.7621 83.2079 83.2819 85.5671H82.7095L82.2597 85.6489C78.9052 80.6121 74.5995 76.2787 69.5844 72.8918L69.4208 72.7692C73.5005 70.2968 78.0841 68.7736 82.8321 68.3124C83.8952 68.1897 85.1628 68.0261 86.185 68.435C87.2072 68.8439 87.5343 69.7026 87.6161 70.643C87.721 71.8035 87.666 72.9729 87.4525 74.1185Z" fill="#6678FF"/>
<path d="M89.4967 71.7878C89.3761 74.762 88.7968 77.6997 87.7794 80.497C87.2578 81.9126 86.6431 83.2922 85.9394 84.6267C85.6123 85.3218 85.2035 85.9351 84.8355 86.5893C84.4675 87.2435 84.3039 87.4071 83.7724 87.4071H82.7093C82.5029 87.4039 82.3033 87.333 82.1413 87.2052C81.9793 87.0774 81.8638 86.8998 81.8126 86.6999C81.7615 86.4999 81.7775 86.2887 81.8583 86.0988C81.939 85.9089 82.08 85.7508 82.2595 85.6489L82.7093 85.5671H83.2817C84.7619 83.2079 85.8913 80.6461 86.6345 77.9619C87.0046 76.7035 87.278 75.4186 87.4523 74.1185C87.6696 72.9596 87.7246 71.7761 87.6159 70.6021C87.5341 69.6617 87.1252 68.7621 86.1848 68.3941C85.2443 68.0261 83.895 68.1488 82.8319 68.2715C78.0839 68.7327 73.5004 70.2559 69.4206 72.7283L68.1122 73.546C67.929 73.659 67.7114 73.7025 67.4989 73.6687C67.4001 73.6641 67.3039 73.6356 67.2184 73.5858C67.133 73.536 67.0609 73.4662 67.0082 73.3825C66.9138 73.2828 66.8424 73.1637 66.7989 73.0335C66.7554 72.9033 66.7409 72.7652 66.7565 72.6288C66.7721 72.4924 66.8173 72.3611 66.8891 72.2441C66.9608 72.1271 67.0573 72.0272 67.1718 71.9514L67.6625 71.6243C70.3743 69.9173 73.3037 68.5833 76.3716 67.6581C77.7954 67.2447 79.2427 66.917 80.7058 66.6768C82.1214 66.4142 83.5593 66.291 84.999 66.3088C86.4301 66.4315 87.7794 66.8813 88.6381 68.1079C89.4967 69.3345 89.5376 70.5203 89.4967 71.7878Z" fill="#4040B7"/>
<path d="M85.0808 92.7634L83.9359 91.9866L70.1158 97.3838C69.1753 97.7518 68.1122 98.2425 68.1122 98.9784C68.1122 99.7144 68.8482 100.042 69.666 100.205C70.5144 100.369 71.3818 100.41 72.2419 100.328C75.3903 100.123 78.5796 99.9189 81.5235 99.142C83.8133 98.5287 85.9804 97.5474 87.3297 96.198L85.0808 92.7634Z" fill="#4040B7"/>
<path d="M87.7794 100.164L87.207 99.7554L73.3868 105.153C72.4463 105.521 71.3832 106.011 71.3832 106.747C71.3832 107.483 72.1192 107.81 72.937 107.974C73.7854 108.138 74.6528 108.179 75.5129 108.097C78.6613 107.892 81.8506 107.688 84.7945 106.911C86.1763 106.561 87.5088 106.039 88.7607 105.357C88.54 103.608 88.2123 101.874 87.7794 100.164Z" fill="#4040B7"/>
<path d="M145.554 131.239C141.629 136.677 135.251 139.294 128.913 140.603L126.746 141.011L124.906 141.257C122.136 141.57 119.341 141.597 116.565 141.339L115.624 141.216C114.561 141.093 113.498 140.889 112.476 140.684C108.24 139.8 104.132 138.385 100.25 136.473C95.2211 133.979 90.6417 130.544 87.2071 126.087C85.1626 123.47 83.4862 120.486 83.1591 117.133C82.9647 115.664 83.0867 114.171 83.5169 112.754C83.947 111.336 84.6755 110.027 85.6533 108.914C87.7795 106.584 90.9279 105.889 93.9536 106.625C96.9793 107.361 99.8824 109.487 102.254 111.695C104.625 113.903 106.833 116.438 109.45 118.482C111.988 120.511 114.929 121.975 118.078 122.775C121.171 123.579 124.416 123.608 127.523 122.857C129.928 122.188 132.132 120.938 133.942 119.218C135.452 117.837 136.748 116.239 137.786 114.475C138.154 113.862 138.522 113.208 138.849 112.553C139.037 112.197 139.201 111.828 139.339 111.449C139.402 111.302 139.519 111.184 139.667 111.122H139.83C139.841 111.122 139.851 111.118 139.859 111.11C139.867 111.103 139.871 111.092 139.871 111.081C140.321 111.04 140.73 111.368 140.525 111.858C140.321 112.349 140.157 112.635 139.994 113.044C138.338 116.524 135.836 119.533 132.716 121.794C127.85 125.106 121.553 125.27 116.115 123.47C113.088 122.441 110.285 120.846 107.856 118.768C105.402 116.683 103.276 114.271 100.905 112.104C98.5331 109.937 95.7118 107.933 92.4816 107.606C90.9499 107.387 89.3898 107.705 88.0657 108.505C86.9161 109.224 85.9833 110.242 85.3671 111.449C82.1778 117.337 86.512 123.92 90.5599 128.091C94.6078 132.261 98.4104 134.388 103.031 136.391C106.856 138.073 110.883 139.255 115.011 139.908L117.955 140.235H119.672C124.135 140.296 128.579 139.648 132.838 138.313C135.851 137.437 138.668 135.994 141.138 134.061C143.604 132.076 145.531 129.503 146.74 126.578C148.989 121.14 149.112 115.252 148.785 109.446C148.703 108.097 148.58 106.747 148.498 105.439V105.234C148.498 105.193 148.539 105.193 148.539 105.153C148.539 105.112 148.58 105.112 148.58 105.071C148.648 105.003 148.729 104.949 148.819 104.914C148.908 104.879 149.004 104.863 149.1 104.867C149.196 104.871 149.29 104.895 149.377 104.937C149.463 104.979 149.54 105.038 149.602 105.112C149.661 105.228 149.703 105.352 149.725 105.48C149.848 107.361 150.011 109.241 150.093 111.163C150.338 118.032 149.725 125.474 145.554 131.239Z" fill="#4040B7"/>
<path d="M145.146 130.421C141.22 135.86 134.842 138.476 128.504 139.785L126.337 140.194L124.497 140.439C121.727 140.752 118.932 140.78 116.156 140.521L115.216 140.398C114.153 140.276 113.089 140.071 112.067 139.867C107.831 138.982 103.724 137.567 99.8417 135.655C94.8124 133.161 90.233 129.726 86.7984 125.27C84.754 122.653 83.0775 119.668 82.7504 116.315C82.556 114.847 82.678 113.353 83.1082 111.936C83.5383 110.518 84.2668 109.209 85.2446 108.097C87.3708 105.766 90.5192 105.071 93.5449 105.807C96.5706 106.543 99.4737 108.669 101.845 110.877C104.217 113.085 106.425 115.62 109.042 117.664C111.579 119.693 114.52 121.157 117.669 121.958C120.763 122.762 124.007 122.79 127.114 122.039C129.519 121.37 131.724 120.121 133.533 118.4C135.043 117.019 136.339 115.421 137.377 113.657C137.745 113.044 138.113 112.39 138.44 111.736C138.628 111.379 138.792 111.01 138.931 110.632C138.993 110.484 139.11 110.367 139.258 110.305H139.421C139.432 110.305 139.443 110.3 139.45 110.293C139.458 110.285 139.462 110.274 139.462 110.264C139.912 110.223 140.321 110.55 140.116 111.041C139.912 111.531 139.748 111.817 139.585 112.226C137.93 115.706 135.427 118.715 132.307 120.976C127.441 124.288 121.144 124.452 115.706 122.653C112.68 121.624 109.877 120.028 107.447 117.951C104.994 115.865 102.867 113.453 100.496 111.286C98.1244 109.119 95.3031 107.115 92.0729 106.788C90.5413 106.57 88.9811 106.887 87.657 107.688C86.5074 108.406 85.5746 109.424 84.9584 110.632C81.7691 116.52 86.1033 123.103 90.1512 127.273C94.1991 131.444 98.0017 133.57 102.622 135.573C106.448 137.256 110.474 138.437 114.602 139.09L117.546 139.417H119.264C123.726 139.479 128.171 138.83 132.43 137.495C135.442 136.62 138.259 135.176 140.73 133.243C143.196 131.258 145.122 128.685 146.331 125.76C148.58 120.322 148.703 114.434 148.376 108.628C148.294 107.279 148.171 105.929 148.09 104.621V104.417C148.09 104.376 148.131 104.376 148.131 104.335C148.131 104.294 148.171 104.294 148.171 104.253C148.239 104.185 148.321 104.132 148.41 104.097C148.5 104.062 148.595 104.045 148.692 104.049C148.788 104.053 148.882 104.077 148.968 104.119C149.055 104.161 149.131 104.221 149.194 104.294C149.253 104.41 149.294 104.534 149.316 104.662C149.439 106.543 149.603 108.424 149.684 110.345C149.93 117.215 149.316 124.656 145.146 130.421Z" fill="#4040B7"/>
<path d="M148.171 104.253C147.981 103.674 147.911 103.061 147.967 102.454C147.834 101.93 147.612 101.432 147.313 100.982C146.618 99.919 145.391 98.4879 144.042 98.3243C142.692 98.1608 142.324 98.7741 141.752 99.551L141.629 99.7963C140.852 101.759 140.443 103.844 139.994 105.889C139.912 106.298 139.789 106.706 139.707 107.156C139.641 108.216 139.49 109.269 139.258 110.305C139.707 110.1 140.362 110.427 140.116 111C139.871 111.572 139.748 111.817 139.585 112.185C137.935 115.68 135.432 118.703 132.307 120.976C127.441 124.288 121.144 124.452 115.706 122.653C112.68 121.624 109.876 120.028 107.447 117.951C104.993 115.865 102.867 113.453 100.496 111.286C98.1242 109.119 95.3029 107.115 92.0728 106.788C90.5411 106.57 88.981 106.887 87.6568 107.688C86.5072 108.406 85.5744 109.424 84.9582 110.632C81.769 116.52 86.1031 123.103 90.151 127.273C94.199 131.444 98.0015 133.57 102.622 135.573C107.345 137.685 112.39 138.985 117.546 139.417C122.579 139.675 127.619 139.038 132.429 137.536C135.442 136.66 138.259 135.217 140.73 133.284C143.195 131.299 145.122 128.726 146.331 125.801C149.112 119.095 148.621 111.695 148.089 104.621C148.089 104.458 148.09 104.335 148.171 104.253Z" fill="#5959FF"/>
<path d="M103.031 113.33C102.409 114.065 101.861 114.859 101.395 115.702C99.2691 119.136 97.8789 122.939 96.8159 127.069C96.4479 128.581 96.1208 130.094 95.8754 131.689C97.6403 132.865 99.4847 133.917 101.395 134.837C101.477 134.265 101.518 133.733 101.641 133.202C102.213 129.317 103.644 126.046 105.648 122.653C106.484 121.185 107.441 119.79 108.51 118.482L107.856 117.951C106.179 116.519 104.625 114.925 103.031 113.33Z" fill="#6678FF"/>
<path d="M91.7048 118.973C92.8905 115.865 94.7305 111.817 97.2655 108.792C95.7138 107.729 93.9358 107.043 92.0728 106.788C90.5411 106.57 88.981 106.887 87.6568 107.688C86.5072 108.406 85.5744 109.424 84.9582 110.632C81.9734 116.151 85.5715 122.244 89.3741 126.414C89.9719 123.881 90.7508 121.394 91.7048 118.973Z" fill="#6678FF"/>
<path d="M52.3704 143.506C52.1273 147.615 51.677 151.709 51.0211 155.772C50.8166 157.04 50.7349 158.225 50.4895 159.452C50.2442 160.679 49.9171 161.987 49.1811 162.846C49.0569 163.037 48.8949 163.201 48.705 163.328C48.5152 163.454 48.3016 163.541 48.0771 163.582H47.6683L47.4638 163.5L47.0958 163.296L46.6461 162.887C46.447 162.687 46.2689 162.468 46.1145 162.232C45.7874 161.742 45.4603 161.21 45.1741 160.679C43.7062 157.853 42.4357 154.93 41.3715 151.929C39.9303 147.807 38.9298 143.545 38.3867 139.212L39.8177 139.294C43.8085 141.22 48.0259 142.635 52.3704 143.506Z" fill="#5959FF"/>
<path d="M54.2104 143.26V143.874C54.0468 146.245 53.8424 148.658 53.5562 151.029C53.3926 152.297 53.2291 153.564 53.0246 154.791C52.8202 156.017 52.7384 156.549 52.6566 157.326C52.5127 158.808 52.2251 160.274 51.798 161.701C51.3891 163.009 50.694 164.359 49.4265 165.054C46.6461 166.526 44.5608 163.5 43.4568 161.374C39.8542 154.395 37.5017 146.839 36.5058 139.049C36.5122 138.978 36.498 138.907 36.4649 138.844C36.424 138.395 36.8738 138.027 37.2827 137.945H37.4054C37.5784 137.945 37.7475 137.996 37.8925 138.09C38.0376 138.184 38.1524 138.319 38.2231 138.476C38.2698 138.594 38.2974 138.718 38.3049 138.844C38.3458 138.967 38.3458 139.09 38.3867 139.212C38.9298 143.545 39.9303 147.807 41.3715 151.929C42.4357 154.929 43.7063 157.853 45.1741 160.679C45.4603 161.21 45.7874 161.742 46.1145 162.232C46.2689 162.468 46.447 162.687 46.6461 162.887L47.0958 163.295L47.4638 163.5L47.6683 163.582H48.0772C48.3016 163.541 48.5152 163.454 48.7051 163.328C48.8949 163.201 49.0569 163.037 49.1811 162.846C49.9171 161.987 50.2442 160.597 50.4896 159.452C50.7349 158.307 50.8167 157.04 51.0211 155.772C51.677 151.709 52.1274 147.615 52.3704 143.506V143.26C52.4522 142.075 54.2922 142.075 54.2104 143.26Z" fill="#4040B7"/>
<path d="M72.6918 146.245C71.3834 151.806 69.6252 157.408 66.5177 162.273C66.0271 163.091 65.3729 163.991 64.3916 164.236C64.0767 164.283 63.7555 164.21 63.492 164.031C63.0768 163.678 62.754 163.229 62.5516 162.723C61.4067 160.352 61.3249 157.53 60.9161 154.954C60.4254 151.561 60.0574 148.167 59.853 144.732C64.1462 145.387 68.4395 145.877 72.6918 146.245Z" fill="#5959FF"/>
<path d="M74.4502 146.777C73.6868 150.239 72.6336 153.631 71.3018 156.917C70.7173 158.385 70.0484 159.819 69.2983 161.21C68.6032 162.478 67.9081 163.868 66.8859 164.849C65.8637 165.831 64.8006 166.321 63.574 166.076C62.3473 165.831 61.366 164.604 60.8345 163.418C59.6487 160.679 59.4851 157.612 59.0354 154.709C58.5856 151.806 58.2176 147.922 58.0132 144.487C58.0132 144.364 57.9723 144.242 57.9723 144.078C57.9314 142.892 59.7714 142.892 59.8123 144.078C59.845 144.308 59.8587 144.541 59.8531 144.773C60.0576 148.208 60.4256 151.601 60.9162 154.995C61.3251 157.571 61.4069 160.392 62.5518 162.764C62.7542 163.27 63.077 163.719 63.4922 164.072C63.7557 164.251 64.0768 164.324 64.3917 164.277C65.373 164.031 66.0272 163.132 66.5179 162.314C69.6254 157.448 71.3836 151.847 72.692 146.286C72.9782 145.305 74.3684 145.591 74.4911 146.45C74.4933 146.56 74.4795 146.67 74.4502 146.777Z" fill="#4040B7"/>
<path d="M103.153 144.978C102.458 151.152 102.785 157.817 99.5553 163.296C98.9941 163.293 98.4386 163.182 97.9198 162.968C97.6206 162.854 97.3438 162.688 97.102 162.478C96.8587 162.147 96.653 161.791 96.4887 161.415C95.5471 159.831 94.7006 158.192 93.9536 156.508C92.5405 153.325 91.4449 150.011 90.6826 146.613L93.0132 146.45C96.4197 146.163 99.8059 145.671 103.153 144.978Z" fill="#5959FF"/>
<path d="M105.034 144.61C104.666 147.758 104.544 150.906 104.176 154.014C103.808 157.121 103.276 159.616 102.131 162.232C101.859 162.879 101.545 163.507 101.191 164.113C100.986 164.44 100.782 164.89 100.414 165.054C100.015 165.169 99.5932 165.183 99.1873 165.095C97.9607 164.972 96.5705 164.563 95.7118 163.623C94.8532 162.682 94.8532 162.232 94.4852 161.578C94.1172 160.924 93.7083 160.229 93.3812 159.534C92.6861 158.184 92.0728 156.794 91.5003 155.363C90.3749 152.595 89.4858 149.736 88.8426 146.818C88.8278 146.801 88.8166 146.782 88.8095 146.76C88.8025 146.739 88.7999 146.717 88.8017 146.695C88.72 145.632 90.3555 145.223 90.6008 146.327C90.6417 146.409 90.6417 146.49 90.6826 146.572C91.4449 149.97 92.5406 153.284 93.9536 156.467C94.7006 158.152 95.5471 159.79 96.4887 161.374C96.653 161.75 96.8587 162.106 97.102 162.437C97.3438 162.647 97.6206 162.813 97.9198 162.927C98.4386 163.141 98.9941 163.252 99.5553 163.255C102.785 157.776 102.458 151.111 103.153 144.937C103.149 144.826 103.163 144.716 103.194 144.61C103.194 144.371 103.289 144.142 103.458 143.974C103.627 143.805 103.855 143.71 104.094 143.71C104.336 143.71 104.57 143.803 104.745 143.971C104.92 144.139 105.024 144.367 105.034 144.61Z" fill="#4040B7"/>
<path d="M124.906 141.257C123.803 148.06 121.622 154.644 118.445 160.76C117.981 161.753 117.36 162.664 116.605 163.459C116.342 163.722 116.02 163.918 115.665 164.031L115.174 163.95C114.982 163.851 114.803 163.727 114.643 163.582C113.784 162.805 113.416 161.578 113.13 160.433C112.844 159.288 112.68 157.816 112.517 156.508C112.23 154.504 111.903 152.501 111.658 150.497C111.413 148.494 111.208 145.959 111.126 143.669C111.108 143.449 111.006 143.243 110.84 143.097L116.033 141.502L116.565 141.338C119.34 141.597 122.136 141.57 124.906 141.257Z" fill="#5959FF"/>
<path d="M126.746 141.011V141.298C126.069 145.738 124.931 150.095 123.352 154.3C122.649 156.183 121.844 158.026 120.94 159.82C120.433 160.943 119.859 162.036 119.222 163.091C118.527 164.154 117.669 165.258 116.442 165.708C115.215 166.158 113.784 165.503 112.967 164.481C111.127 162.232 111.086 159.125 110.677 156.426C109.967 152.204 109.503 147.945 109.287 143.669C109.246 143.628 109.287 143.587 109.287 143.547C109.328 142.729 110.391 142.565 110.84 143.097C111.006 143.244 111.109 143.449 111.127 143.669C111.208 145.959 111.413 148.249 111.658 150.498C111.904 152.746 112.231 154.505 112.517 156.508C112.68 157.817 112.844 159.125 113.13 160.433C113.416 161.742 113.784 162.805 114.643 163.582C114.803 163.727 114.982 163.851 115.175 163.95L115.665 164.031C116.02 163.919 116.342 163.722 116.606 163.459C117.36 162.664 117.982 161.753 118.446 160.76C121.622 154.644 123.803 148.06 124.906 141.257C124.906 141.093 124.947 140.971 124.947 140.807C125.022 140.577 125.183 140.385 125.396 140.271C125.61 140.157 125.859 140.129 126.092 140.194C126.276 140.239 126.44 140.343 126.558 140.491C126.676 140.639 126.742 140.822 126.746 141.011Z" fill="#4040B7"/>
<path d="M44.4793 110.673C44.5036 110.533 44.5607 110.4 44.646 110.287C44.7313 110.173 44.8423 110.081 44.97 110.018H45.0108C45.1219 109.953 45.2506 109.925 45.3788 109.937C45.5631 109.942 45.7401 110.01 45.8811 110.128C46.0222 110.247 46.1189 110.41 46.1557 110.591V110.877C46.1105 111.463 46.1947 112.052 46.4024 112.602C46.6101 113.151 46.9362 113.649 47.3576 114.058C47.779 114.468 48.2854 114.78 48.8408 114.972C49.3963 115.164 49.9871 115.232 50.5716 115.17C51.1056 115.129 51.6251 114.977 52.0969 114.724C52.5687 114.47 52.9822 114.121 53.3111 113.698C53.9764 112.87 54.2852 111.811 54.1698 110.754C54.1233 110.227 53.9686 109.716 53.7153 109.251C53.462 108.787 53.1156 108.38 52.6978 108.056C52.5362 107.907 52.4345 107.705 52.4119 107.486C52.3893 107.268 52.4473 107.049 52.5751 106.87C52.7255 106.697 52.9362 106.588 53.1641 106.566C53.3921 106.543 53.6201 106.608 53.8018 106.747C54.3871 107.214 54.8705 107.796 55.2221 108.457C55.5737 109.118 55.7861 109.844 55.8462 110.591C55.9312 111.338 55.8672 112.094 55.6577 112.817C55.4482 113.539 55.0976 114.212 54.626 114.798C54.1544 115.384 53.5713 115.87 52.9104 116.229C52.2496 116.587 51.5241 116.811 50.7761 116.888C50.3265 116.935 49.8726 116.921 49.4268 116.847C48.3716 116.733 47.3748 116.305 46.5646 115.62C45.8417 115.026 45.2742 114.266 44.9109 113.404C44.5476 112.542 44.3995 111.605 44.4793 110.673Z" fill="#221A7E"/>
<path d="M36.6697 106.993C36.8447 106.856 37.0661 106.792 37.2873 106.815C37.5085 106.837 37.7121 106.945 37.8554 107.115C37.9308 107.197 37.9888 107.293 38.0256 107.398C38.0625 107.503 38.0776 107.615 38.0699 107.726C38.0623 107.837 38.0321 107.945 37.9811 108.044C37.9302 108.143 37.8596 108.23 37.7736 108.301C37.2732 108.73 36.885 109.274 36.6427 109.887C36.4005 110.5 36.3115 111.162 36.3835 111.817C36.5422 112.871 37.0802 113.831 37.8963 114.516C38.7476 115.165 39.8178 115.458 40.8811 115.334C41.9455 115.207 42.916 114.663 43.5798 113.821C43.9039 113.409 44.1431 112.936 44.2835 112.431C44.4239 111.926 44.4626 111.397 44.3975 110.877V110.632C44.4261 110.482 44.4942 110.342 44.5948 110.227C44.6955 110.112 44.825 110.026 44.97 109.977H45.1335C45.3433 109.952 45.5553 110.004 45.7288 110.125C45.9023 110.245 46.0252 110.426 46.0739 110.632V110.713C46.2274 111.948 45.9687 113.198 45.3379 114.271C45.2118 114.504 45.061 114.723 44.8882 114.925C44.4285 115.515 43.8552 116.008 43.2021 116.373C42.5489 116.738 41.8293 116.969 41.0856 117.051C40.6121 117.133 40.128 117.133 39.6545 117.051C38.6343 116.927 37.6702 116.515 36.8741 115.865C36.2795 115.406 35.7818 114.834 35.4099 114.181C35.0379 113.528 34.799 112.808 34.707 112.063C34.5991 111.122 34.7213 110.169 35.0632 109.286C35.4051 108.402 35.9564 107.616 36.6697 106.993Z" fill="#221A7E"/>
<path d="M52.0027 88.0205C52.0507 87.7793 52.1808 87.5622 52.3709 87.4062C52.5611 87.2502 52.7994 87.1649 53.0453 87.1649C53.2913 87.1649 53.5296 87.2502 53.7197 87.4062C53.9098 87.5622 54.04 87.7793 54.088 88.0205L54.1698 92.8453C54.2019 94.2191 54.7731 95.5251 55.76 96.4814C56.7468 97.4377 58.0702 97.9674 59.4443 97.9563C60.1316 97.9457 60.8101 97.7997 61.441 97.5268C62.0719 97.2539 62.6429 96.8594 63.1213 96.3658C63.5997 95.8722 63.9762 95.2891 64.2293 94.65C64.4824 94.0109 64.607 93.3282 64.5962 92.6409L64.5145 87.8161C64.5624 87.5749 64.6926 87.3577 64.8827 87.2017C65.0728 87.0457 65.3112 86.9604 65.5571 86.9604C65.803 86.9604 66.0414 87.0457 66.2315 87.2017C66.4216 87.3577 66.5517 87.5749 66.5997 87.8161L66.6815 92.6C66.6978 93.5611 66.5245 94.5161 66.1716 95.4103C65.8187 96.3045 65.2931 97.1204 64.6249 97.8115C63.9566 98.5025 63.1588 99.0552 62.2769 99.4378C61.395 99.8205 60.4464 100.026 59.4852 100.042L58.3812 99.9598C56.8432 99.7606 55.4099 99.0726 54.2924 97.9972C52.9057 96.6383 52.1121 94.7866 52.0845 92.8453L52.0027 88.0205Z" fill="#221A7E"/>
<path d="M23.2993 88.4703C23.3423 88.228 23.4681 88.0081 23.6552 87.8482C23.8423 87.6883 24.079 87.5982 24.3251 87.5934C24.5712 87.5886 24.8113 87.6693 25.0045 87.8217C25.1977 87.9742 25.332 88.189 25.3846 88.4294L25.4663 93.2542C25.6006 94.5566 26.2181 95.7614 27.1971 96.6309C28.1761 97.5003 29.4454 97.9712 30.7545 97.9507C32.0637 97.9301 33.3176 97.4196 34.2688 96.5199C35.22 95.6202 35.7995 94.3966 35.8928 93.0906L35.811 88.2658C35.8108 87.9908 35.9172 87.7265 36.1078 87.5282C36.2984 87.33 36.5584 87.2133 36.8332 87.2028C37.1082 87.2026 37.3726 87.3089 37.5708 87.4995C37.7691 87.6901 37.8857 87.9502 37.8963 88.225L37.9781 93.0906C37.9687 94.9797 37.2373 96.7936 35.9337 98.1608C35.2821 98.8419 34.5024 99.3876 33.6394 99.7665C32.7763 100.145 31.8468 100.35 30.9044 100.369C30.5089 100.397 30.1114 100.383 29.7187 100.328C28.2024 100.124 26.7875 99.4518 25.6708 98.4061C24.965 97.7519 24.3985 96.9621 24.0051 96.0839C23.6117 95.2057 23.3994 94.2572 23.381 93.2951L23.2993 88.4703Z" fill="#221A7E"/>
<path d="M41.4945 101.595C42.132 101.433 42.8043 101.471 43.4192 101.705C44.0341 101.939 44.5615 102.358 44.9291 102.904C44.97 102.986 45.0517 103.026 45.0926 103.067C45.2129 103.127 45.3514 103.14 45.4804 103.102C45.6094 103.064 45.7192 102.979 45.7877 102.863C46.1504 102.316 46.664 101.885 47.2664 101.624C47.8688 101.363 48.534 101.282 49.1814 101.391C50.7761 101.759 51.7165 103.476 51.3076 105.194C50.8987 106.911 48.0366 109.691 46.1557 110.55H46.0739C45.8364 110.635 45.5891 110.69 45.3379 110.713C45.0459 110.749 44.7498 110.706 44.4793 110.591H44.3975C42.5167 109.855 39.5318 106.87 39.2456 105.48C38.9594 104.09 39.8998 102.045 41.4945 101.595Z" fill="#221A7E"/>
<path d="M100.782 63.6102C101.232 61.6476 116.442 60.38 127.932 68.5577C140.566 77.553 143.837 94.5216 142.079 95.5029C140.321 96.4842 136.559 86.1395 123.761 76.3264C110.963 66.5133 100.373 65.3275 100.782 63.6102Z" fill="#6678FF"/>
</svg>
