<svg width="171" height="167" viewBox="0 0 171 167" fill="none" xmlns="http://www.w3.org/2000/svg">
<path d="M32.1836 0H106.661C108.152 0 109.582 0.594796 110.636 1.65354C111.69 2.71228 112.282 4.14825 112.282 5.64554V26.4H26.5634V5.64554C26.5634 4.90416 26.7088 4.17003 26.9912 3.48508C27.2736 2.80014 27.6876 2.17778 28.2095 1.65354C28.7314 1.1293 29.351 0.713456 30.0328 0.429741C30.7147 0.146026 31.4455 0 32.1836 0V0Z" fill="#6678FF"/>
<path d="M107.632 21.12H31.2132C28.6452 21.12 26.5634 23.2112 26.5634 25.7908V102.554C26.5634 105.133 28.6452 107.225 31.2132 107.225H107.632C110.2 107.225 112.282 105.133 112.282 102.554V25.7908C112.282 23.2112 110.2 21.12 107.632 21.12Z" fill="#5959FF"/>
<path d="M105.004 29.6492H33.8414V101.132H105.004V29.6492Z" fill="#221A7E"/>
<path d="M31.8197 29.6492L2.02046 58.8111C1.46555 59.3466 1.02517 59.9902 0.726234 60.7025C0.4273 61.4148 0.276087 62.1809 0.281835 62.9538V132H3.11216L3.79952 128.548L31.8197 101.132V34.1169H34.65V29.6492H31.8197Z" fill="#5050E5"/>
<path d="M105.004 82.4492H33.8414V101.132H105.004V82.4492Z" fill="#4E4EDE"/>
<path d="M3.11217 132L34.65 101.132V29.6492L4.4869 59.1766C4.04697 59.6022 3.69814 60.1134 3.46175 60.6791C3.22537 61.2448 3.10642 61.853 3.11217 62.4665V132Z" fill="#6678FF"/>
<path d="M8.97496 94.2277C10.4264 94.2277 11.6031 91.591 11.6031 88.3384C11.6031 85.0859 10.4264 82.4492 8.97496 82.4492C7.52347 82.4492 6.3468 85.0859 6.3468 88.3384C6.3468 91.591 7.52347 94.2277 8.97496 94.2277Z" fill="#4040B7"/>
<path d="M45.3581 99.0348L44.6221 98.6274C41.6296 96.9828 38.4034 95.8014 35.0543 95.1238C33.493 94.8181 31.9012 94.695 30.3112 94.7571C29.906 94.7795 29.5064 94.8619 29.1255 95.0016C28.839 95.1342 28.5765 95.3131 28.3486 95.5312L28.1851 95.7349L28.0624 95.9386C27.9422 96.0637 27.8576 96.2183 27.8171 96.3867L27.7353 96.5904C27.6894 96.6936 27.6617 96.8038 27.6535 96.9163C27.5699 97.0948 27.528 97.2898 27.5308 97.4867C27.49 97.6089 27.49 97.5274 27.49 97.7311C27.49 97.9348 27.4491 97.8941 27.4491 98.0163V98.7089C27.4491 99.1978 27.49 99.6867 27.5308 100.135C27.6365 101.057 27.8142 101.97 28.0624 102.864C28.2668 103.679 28.5122 104.535 28.7575 105.35C29.2464 106.923 29.8759 108.45 30.6383 109.912C30.9733 110.603 31.3558 111.27 31.7832 111.909L31.865 112.031H32.4374C33.6232 112.031 33.6232 113.864 32.4374 113.864C31.964 113.924 31.4833 113.853 31.0472 113.66C30.8462 113.577 30.6651 113.452 30.5157 113.294C29.9663 112.626 29.5123 111.886 29.1664 111.094C28.2431 109.317 27.477 107.463 26.8766 105.553C26.2317 103.568 25.8066 101.519 25.6091 99.4422C25.4864 97.4052 25.8135 95.1238 27.5308 93.8201C28.472 93.1886 29.5856 92.8614 30.7201 92.8831C32.5488 92.9052 34.3706 93.1099 36.1582 93.4942C39.7324 94.2711 43.1568 95.6194 46.2985 97.4867C47.3207 98.0978 46.3803 99.6459 45.3581 99.0348Z" fill="#4040B7"/>
<path d="M112.496 135.986C112.379 138.207 111.952 140.401 111.229 142.504C109.103 148.778 104.278 153.626 98.5126 156.845C92.7474 160.063 84.856 162.304 77.6188 163.078C70.0674 163.915 62.4329 163.627 54.9668 162.223C51.5763 161.625 48.2498 160.711 45.031 159.493C43.6817 158.963 42.4141 158.393 41.0239 157.741C39.3627 156.937 37.7637 156.011 36.24 154.971C32.233 152.16 29.0437 148.249 27.5717 143.564C26.0998 138.879 26.3042 133.745 27.3673 128.897C28.2439 124.483 29.7155 120.208 31.7423 116.186C33.9438 111.975 36.7849 108.127 40.1653 104.779C47.0754 97.8942 56.2752 93.3721 66.0883 92.8017C74.3069 92.3536 82.4436 94.5943 89.599 98.5461C91.5797 99.6149 93.4793 100.827 95.2825 102.172H95.3233L95.446 102.294L95.6913 102.498L97.7766 104.29C99.5872 105.939 101.269 107.723 102.806 109.627C108.694 116.961 113.028 126.453 112.496 135.986Z" fill="#5959FF"/>
<path d="M108.448 114.557C108.203 114.231 107.999 113.864 107.794 113.538C107.59 113.212 107.017 112.316 106.608 111.746C103.256 106.715 98.9502 102.383 93.9332 98.9942L93.7696 98.872L92.0114 97.8127C86.1825 94.262 79.6573 91.9976 72.8758 91.1721C68.1124 90.6386 63.2915 90.9699 58.6467 92.1499C57.2056 92.5039 55.7859 92.9392 54.3943 93.4536C51.5638 94.5173 48.8509 95.8689 46.2985 97.4868C45.7261 97.8535 45.1536 98.2201 44.6221 98.6275L44.2541 98.872C39.3635 102.458 35.2009 106.938 31.9876 112.072C31.6605 112.601 31.3334 113.131 31.0472 113.661C29.4545 116.411 28.1527 119.319 27.1629 122.338C26.4747 124.448 25.9149 126.598 25.4864 128.775C24.9944 131.081 24.7071 133.426 24.6278 135.782C24.4424 141.471 26.2817 147.041 29.8206 151.508C32.5192 154.849 36.1174 157.334 39.9199 159.208C42.8704 160.669 45.9501 161.856 49.1198 162.752C56.5726 164.785 64.2973 165.651 72.0171 165.319C79.745 165.034 87.6364 163.73 94.7918 160.715L97.0406 159.697L99.0851 158.638C103.91 155.989 108.162 152.364 110.943 147.597C111.795 146.138 112.493 144.595 113.028 142.993C116.217 133.419 113.396 122.99 108.448 114.557ZM112.496 135.986C112.379 138.207 111.952 140.401 111.229 142.504C109.103 148.778 104.278 153.626 98.5126 156.845L97.0815 157.66L96.3864 157.986L95.6913 158.312L95.4869 158.434L94.6283 158.8L93.4425 159.289L92.4612 159.697H92.3385L91.4799 159.982L91.2754 160.063L90.2532 160.43L89.1492 160.756L88.127 161.041L87.759 161.163L86.8595 161.408L83.9973 162.06L83.1387 162.223H82.9342L81.7485 162.426H81.6667L80.6445 162.589L80.1539 162.671L79.4179 162.793L77.6188 162.997C70.0674 163.834 62.4329 163.546 54.9668 162.141C51.5763 161.543 48.2498 160.63 45.031 159.412C43.6817 158.882 42.4141 158.312 41.0239 157.66C39.3627 156.855 37.7637 155.93 36.24 154.889C32.233 152.078 29.0437 148.167 27.5717 143.482C26.0998 138.797 26.3042 133.664 27.3673 128.816C28.2439 124.402 29.7155 120.126 31.7423 116.105C33.9509 111.922 36.7917 108.102 40.1653 104.779C47.0754 97.8942 56.2752 93.3721 66.0883 92.8017C74.3069 92.3536 82.4436 94.5943 89.599 98.546L91.3572 99.5645L91.8479 99.8497C93.02 100.583 94.1649 101.357 95.2825 102.172H95.3233L95.446 102.294L95.6913 102.498L97.7766 104.29C99.5872 105.939 101.269 107.723 102.806 109.627C108.694 116.961 113.028 126.453 112.496 135.986Z" fill="#4040B7"/>
<path d="M44.622 98.6275L44.2541 98.8719C39.3635 102.458 35.2009 106.938 31.9876 112.072H31.865L31.7832 111.949C31.3558 111.311 30.9732 110.644 30.6383 109.953C29.8736 108.478 29.2441 106.937 28.7575 105.35C28.5121 104.535 28.2668 103.679 28.0624 102.864C27.8142 101.97 27.6365 101.057 27.5308 100.135C27.4899 99.6867 27.449 99.1979 27.449 98.709V98.0164C27.449 97.8942 27.4899 97.8127 27.4899 97.7312C27.4899 97.6497 27.4899 97.609 27.5308 97.4868C27.5279 97.2899 27.5699 97.0949 27.6535 96.9164C27.6617 96.8039 27.6893 96.6936 27.7353 96.5905L27.817 96.3868C27.8575 96.2184 27.9422 96.0638 28.0624 95.9387L28.185 95.735L28.3486 95.5313C28.5764 95.3132 28.8389 95.1343 29.1254 95.0017C29.5063 94.862 29.906 94.7796 30.3112 94.7572C31.9011 94.6951 33.4929 94.8182 35.0542 95.1239C38.4034 95.8015 41.6296 96.9829 44.622 98.6275Z" fill="#6678FF"/>
<path d="M37.3031 133.99C45.2354 134.723 52.0228 132.931 55.2939 131.545C66.1701 126.86 73.3664 111.257 72.3034 92.9647C70.2379 92.7675 68.1613 92.713 66.0884 92.8017C56.2752 93.3721 47.0754 97.8942 40.1653 104.779C36.7849 108.127 33.9438 111.975 31.7423 116.186C29.7156 120.208 28.2439 124.483 27.3673 128.897C27.1629 129.753 26.9993 130.649 26.8766 131.545C30.2233 132.833 33.7316 133.655 37.3031 133.99Z" fill="#6678FF"/>
<path d="M163.443 131.057C162.502 135.676 160.654 140.065 158.005 143.971C153.957 150.001 148.151 154.645 141.731 157.945C140.627 158.515 139.523 159.004 138.419 159.493L138.215 159.575H138.174L137.97 159.656L137.315 159.9L136.293 160.308C131.786 162.002 127.04 162.978 122.228 163.2C117.506 163.385 112.783 162.891 108.203 161.734C106.404 161.286 104.605 160.756 102.888 160.145C101.17 159.534 100.434 159.208 99.1668 158.637H99.0851C103.91 155.989 108.162 152.364 110.943 147.597C111.795 146.138 112.493 144.595 113.028 142.993C116.217 133.419 113.396 122.99 108.448 114.557C104.809 108.446 99.9028 102.946 93.9331 98.9942C87.6284 94.7744 80.4142 92.0946 72.8758 91.1721C68.1124 90.6386 63.2915 90.9699 58.6467 92.1499C59.7916 91.2536 60.9773 90.4388 62.2857 89.5425C65.4374 87.4097 68.7295 85.4905 72.1398 83.7982C80.8421 79.533 90.2762 76.948 99.9437 76.1798C105.836 75.6705 111.763 75.7114 117.648 76.302C126.03 77.239 134.331 79.7649 141.445 84.3685C144.827 86.5033 147.895 89.0945 150.563 92.0684C151.095 92.598 151.585 93.2091 152.076 93.7795L152.567 94.3906L153.016 95.0017L154.202 96.5905C158.618 102.742 162.012 109.709 163.402 117.164C164.315 121.749 164.329 126.467 163.443 131.057Z" fill="#5959FF"/>
<path d="M68.419 139.245C68.4371 139.093 68.496 138.948 68.5895 138.826C68.6831 138.705 68.8077 138.61 68.9505 138.553C69.0789 138.496 69.2222 138.481 69.3594 138.512C69.533 138.517 69.6998 138.58 69.8332 138.691C69.9666 138.802 70.0589 138.954 70.0954 139.123C70.1289 139.214 70.1428 139.311 70.1363 139.408C70.0659 140.062 70.1642 140.724 70.4217 141.33C70.6793 141.936 71.0877 142.466 71.6082 142.871C72.0105 143.215 72.4796 143.471 72.9862 143.626C73.4928 143.78 74.026 143.828 74.5522 143.767C75.6063 143.639 76.5715 143.114 77.2508 142.301C77.9266 141.479 78.2499 140.425 78.1503 139.367C78.0232 138.305 77.4973 137.33 76.6784 136.638C76.5895 136.57 76.5155 136.486 76.4608 136.389C76.4061 136.291 76.372 136.184 76.3605 136.074C76.349 135.963 76.3604 135.851 76.394 135.745C76.4275 135.639 76.4826 135.541 76.5557 135.456C76.699 135.287 76.9027 135.18 77.1238 135.157C77.345 135.134 77.5664 135.198 77.7414 135.334C78.9143 136.288 79.6633 137.664 79.8267 139.164C79.9105 139.912 79.8414 140.67 79.6236 141.391C79.4058 142.112 79.0437 142.782 78.5592 143.36C78.0895 143.944 77.5077 144.428 76.8477 144.785C76.1877 145.142 75.4629 145.364 74.7157 145.438H73.3664C72.3257 145.272 71.3423 144.852 70.5043 144.216C70.0311 143.815 69.618 143.348 69.2776 142.83C68.6279 141.752 68.328 140.5 68.419 139.245Z" fill="#221A7E"/>
<path d="M60.6094 135.619C60.6865 135.518 60.7853 135.435 60.8986 135.376C61.0119 135.318 61.137 135.285 61.2646 135.281C61.3922 135.276 61.5191 135.3 61.6362 135.351C61.7534 135.402 61.8576 135.478 61.9415 135.574C62.0253 135.67 62.0867 135.783 62.121 135.906C62.1553 136.028 62.1618 136.157 62.14 136.282C62.1181 136.408 62.0685 136.526 61.9947 136.63C61.9209 136.734 61.8248 136.82 61.7134 136.882C61.2175 137.311 60.8351 137.855 60.5998 138.466C60.3645 139.077 60.2836 139.737 60.3641 140.386C60.4155 140.914 60.5765 141.426 60.837 141.889C61.0974 142.352 61.4515 142.756 61.8769 143.075C62.7056 143.738 63.7645 144.045 64.8209 143.93C65.3487 143.87 65.8591 143.706 66.3226 143.447C66.786 143.188 67.1932 142.84 67.5204 142.423C67.8477 142.006 68.0884 141.528 68.2286 141.018C68.3688 140.507 68.4058 139.974 68.3372 139.449C68.3313 139.365 68.3453 139.282 68.3781 139.205C68.3975 139.051 68.4623 138.908 68.5643 138.791C68.6663 138.675 68.8008 138.592 68.9506 138.553H69.0732C69.2775 138.525 69.4849 138.572 69.6576 138.684C69.8302 138.796 69.9566 138.966 70.0137 139.164V139.245C70.1829 140.489 69.9234 141.753 69.2777 142.83L68.8279 143.482C67.8872 144.657 66.5221 145.417 65.0253 145.601H63.5942C62.5844 145.439 61.6298 145.034 60.8138 144.419C60.2238 143.952 59.7323 143.373 59.3674 142.716C59.0026 142.059 58.7715 141.336 58.6876 140.59C58.5706 139.668 58.6849 138.731 59.0203 137.863C59.3557 136.996 59.9017 136.225 60.6094 135.619Z" fill="#221A7E"/>
<path d="M75.9424 116.716C75.9854 116.475 76.1112 116.256 76.2983 116.096C76.4854 115.937 76.7222 115.847 76.9682 115.842C77.2143 115.838 77.4544 115.918 77.6476 116.07C77.8408 116.222 77.9751 116.436 78.0277 116.675L78.1094 121.483C78.1202 122.168 78.2667 122.845 78.5403 123.474C78.8139 124.103 79.2094 124.673 79.7041 125.149C80.4496 125.852 81.3862 126.322 82.3973 126.499C83.4085 126.676 84.4495 126.552 85.3908 126.144C86.3322 125.736 87.1323 125.061 87.6915 124.203C88.2507 123.345 88.5444 122.343 88.5359 121.32L88.4541 116.512C88.4206 116.359 88.4215 116.201 88.4568 116.048C88.4921 115.896 88.5609 115.753 88.6582 115.63C88.7555 115.507 88.879 115.407 89.0197 115.338C89.1604 115.268 89.3148 115.23 89.4719 115.227C89.629 115.224 89.7848 115.256 89.9281 115.32C90.0715 115.384 90.1987 115.479 90.3008 115.598C90.4029 115.717 90.4773 115.857 90.5185 116.008C90.5598 116.159 90.5669 116.317 90.5394 116.472L90.6212 121.279C90.6374 122.231 90.4652 123.177 90.1144 124.063C89.7636 124.95 89.241 125.758 88.5765 126.443C87.9121 127.128 87.1187 127.675 86.2418 128.054C85.3649 128.434 84.4216 128.637 83.4658 128.653H82.3618C80.6266 128.428 79.0309 127.587 77.867 126.285C76.703 124.984 76.0488 123.307 76.0241 121.564L75.9424 116.716Z" fill="#221A7E"/>
<path d="M47.2389 117.164C47.2387 116.89 47.3451 116.627 47.5357 116.429C47.7263 116.232 47.9863 116.115 48.2611 116.105C48.3988 116.099 48.5361 116.122 48.6649 116.17C48.7937 116.219 48.9112 116.293 49.0105 116.388C49.1098 116.484 49.1888 116.598 49.2427 116.724C49.2966 116.85 49.3243 116.986 49.3242 117.123L49.406 121.89C49.4537 123.265 50.0409 124.567 51.0415 125.516C51.7793 126.222 52.7101 126.696 53.7171 126.877C54.7241 127.058 55.7624 126.939 56.7016 126.534C57.6408 126.13 58.439 125.457 58.996 124.602C59.5531 123.747 59.8441 122.747 59.8325 121.727L59.7507 116.96C59.7937 116.719 59.9195 116.5 60.1066 116.341C60.2937 116.181 60.5305 116.092 60.7765 116.087C61.0226 116.082 61.2627 116.162 61.4559 116.314C61.6491 116.466 61.7835 116.68 61.836 116.92L61.9178 121.727C61.9254 123.613 61.1915 125.426 59.8734 126.779C58.5513 128.146 56.7484 128.95 54.8441 129.02C54.4471 129.034 54.0496 129.007 53.6584 128.938C51.9436 128.716 50.3641 127.893 49.2028 126.617C48.0415 125.34 47.3743 123.694 47.3207 121.971L47.2389 117.164Z" fill="#221A7E"/>
<path d="M65.4342 130.242C66.0716 130.073 66.746 130.108 67.3622 130.342C67.9785 130.576 68.5054 130.997 68.8688 131.545L69.0323 131.668C69.0881 131.704 69.1509 131.729 69.2167 131.741C69.2826 131.753 69.3501 131.751 69.4152 131.736C69.4803 131.72 69.5416 131.692 69.5953 131.652C69.649 131.613 69.6939 131.562 69.7274 131.505C70.0811 130.94 70.5999 130.497 71.2139 130.235C71.8279 129.972 72.5077 129.904 73.162 130.038C74.7158 130.364 75.6562 132.075 75.2882 133.786C74.9202 135.497 72.0172 138.308 70.0954 139.123H70.0137C69.7822 139.227 69.5317 139.283 69.2777 139.286C68.9889 139.316 68.6969 139.289 68.419 139.205H68.3781C66.4564 138.512 63.5124 135.538 63.2262 134.112C63.043 133.309 63.168 132.466 63.5765 131.75C63.9851 131.034 64.6477 130.496 65.4342 130.242Z" fill="#221A7E"/>
<path d="M131.346 148.941C125.949 149.104 120.429 148.29 115.563 146.049C112.967 144.824 110.513 143.322 108.244 141.567C106.322 140.142 104.401 138.716 102.152 137.86C100.308 137.192 98.3295 136.983 96.3865 137.249C94.2194 137.453 91.9706 138.064 90.2124 139.367C89.0713 140.231 88.156 141.355 87.5438 142.646C86.9317 143.937 86.6409 145.356 86.696 146.782C86.7651 149.021 87.3978 151.206 88.536 153.138C90.4986 156.315 93.7287 158.637 97.1633 159.982L97.5722 160.104C98.7171 160.512 99.1669 158.76 98.0629 158.352L97.6949 158.23L97.4087 158.108L97.2042 158.026C96.5568 157.741 95.9285 157.415 95.3234 157.049C93.6456 156.113 92.161 154.869 90.9483 153.382C88.2906 150.041 87.2684 144.338 90.8257 141.242C91.6214 140.564 92.5364 140.039 93.5243 139.693L94.9554 139.286L95.6505 139.164H96.1411C97.8975 138.924 99.6853 139.077 101.375 139.612C103.46 140.304 105.259 141.73 107.017 143.034C109.27 144.75 111.679 146.25 114.214 147.515C118.806 149.633 123.792 150.771 128.852 150.856H131.346C132.532 150.856 132.532 149.023 131.346 149.023V148.941Z" fill="#4040B7"/>
<path d="M111.801 100.257C111.631 101.553 111.358 102.834 110.984 104.087C110.24 106.761 109.111 109.314 107.631 111.664H107.058C106.9 111.661 106.743 111.703 106.609 111.786C103.256 106.755 98.9502 102.424 93.9332 99.0349L93.7696 98.9127C97.8574 96.4667 102.437 94.9504 107.181 94.472C108.244 94.3498 109.512 94.1868 110.534 94.635C111.556 95.0831 111.883 95.8572 111.965 96.7942C112.07 97.9505 112.015 99.1157 111.801 100.257Z" fill="#6678FF"/>
<path d="M113.846 97.9757C113.729 100.926 113.149 103.84 112.128 106.613C111.599 108.033 110.985 109.421 110.288 110.768C109.961 111.42 109.552 112.072 109.184 112.683C108.816 113.294 108.653 113.498 108.121 113.538H107.794L107.058 113.457C106.036 113.416 105.872 112.072 106.608 111.746C106.743 111.662 106.9 111.62 107.058 111.624H107.631C109.111 109.273 110.24 106.72 110.984 104.046C111.358 102.793 111.631 101.512 111.801 100.216C112.019 99.0617 112.074 97.8825 111.965 96.7127C111.883 95.7757 111.474 94.9202 110.534 94.5535C109.593 94.1869 108.244 94.2683 107.181 94.3906C102.437 94.8689 97.8574 96.3853 93.7696 98.8312L92.4612 99.646C92.3762 99.7147 92.2777 99.7647 92.172 99.7928C92.0663 99.8208 91.9558 99.8264 91.8479 99.809C91.6597 99.7642 91.489 99.665 91.3572 99.5238C91.2621 99.4209 91.1902 99.2989 91.1465 99.166C91.1028 99.0331 91.0881 98.8924 91.1036 98.7534C91.1191 98.6143 91.1644 98.4802 91.2364 98.3601C91.3083 98.24 91.4053 98.1367 91.5208 98.0572L92.0114 97.772C94.7144 96.0548 97.6461 94.7246 100.721 93.8202C102.134 93.3699 103.584 93.0428 105.055 92.8424C106.468 92.5606 107.908 92.4376 109.348 92.4758C110.779 92.5573 112.128 93.0461 112.987 94.2276C113.846 95.4091 113.887 96.7127 113.846 97.9757Z" fill="#4040B7"/>
<path d="M107.426 116.512C107.465 122.049 105.904 127.48 102.929 132.156C97.8175 140.264 89.7626 146.171 80.9716 149.838C73.5709 152.893 65.9248 153.912 57.9107 153.789C51.0006 153.626 43.8861 153.138 37.2213 151.264C34.4915 150.56 31.8951 149.418 29.5344 147.882C31.2502 150.684 33.5341 153.099 36.24 154.971C37.7637 156.011 39.3627 156.937 41.0239 157.741C42.4141 158.393 43.6817 158.963 45.031 159.493C48.2498 160.711 51.5763 161.625 54.9668 162.223C62.4329 163.627 70.0674 163.915 77.6188 163.078C84.856 162.304 92.175 160.43 98.5126 156.845C104.85 153.26 109.103 148.778 111.229 142.504C111.952 140.401 112.379 138.207 112.496 135.986C112.864 129.182 110.82 122.46 107.426 116.512Z" fill="#5050E5"/>
<path d="M88.9856 161.978C88.9329 162.212 88.8357 162.433 88.6994 162.63V162.752H88.6585L88.5768 162.874L88.3723 163.078C88.3314 163.078 88.3314 163.078 88.3314 163.119L88.2088 163.2L87.4319 163.608C86.5453 163.951 85.628 164.21 84.6924 164.382C82.6864 164.769 80.6382 164.892 78.6001 164.748C76.6212 164.637 74.6673 164.253 72.7939 163.608C71.4855 163.119 70.0136 162.141 70.7086 160.593C71.4037 159.045 72.8348 157.741 74.3068 156.886C75.9999 155.9 77.9086 155.341 79.8676 155.256C81.9938 155.175 84.1608 155.337 86.0826 156.437C87.3105 157.17 88.2597 158.287 88.7812 159.615C89.0715 160.368 89.1424 161.187 88.9856 161.978Z" fill="#5959FF"/>
<path d="M88.6177 156.112C86.3688 153.871 82.9751 153.301 79.8676 153.423H79.8267C75.8197 153.626 71.8535 155.419 69.5638 158.841C68.9336 159.642 68.6012 160.635 68.6234 161.652C68.6837 162.146 68.8412 162.624 69.0867 163.057C69.3323 163.49 69.6611 163.871 70.0545 164.178C71.69 165.482 73.9388 165.971 75.9832 166.297C78.3497 166.676 80.7572 166.731 83.1387 166.46C85.1013 166.215 87.3501 165.889 89.0674 164.789C92.1749 162.752 90.8256 158.312 88.6177 156.112ZM88.9857 161.978C88.9329 162.212 88.8358 162.433 88.6995 162.63V162.752H88.6586L88.5768 162.874L88.3723 163.078C88.3315 163.078 88.3315 163.078 88.3315 163.119L88.2088 163.2L87.4319 163.608C86.5453 163.951 85.628 164.21 84.6924 164.382C82.6864 164.769 80.6382 164.892 78.6001 164.749C76.6212 164.637 74.6673 164.253 72.794 163.608C71.4856 163.119 70.0136 162.141 70.7087 160.593C71.4038 159.045 72.8349 157.741 74.3068 156.886C75.9999 155.9 77.9086 155.341 79.8676 155.256C81.9938 155.175 84.1609 155.338 86.0826 156.438C87.3106 157.17 88.2597 158.287 88.7812 159.615C89.0715 160.368 89.1424 161.187 88.9857 161.978Z" fill="#4040B7"/>
<path d="M65.3115 161.286C65.2183 161.59 65.0655 161.872 64.862 162.117C64.6584 162.362 64.4082 162.564 64.1257 162.711C63.3698 163.094 62.5747 163.395 61.7542 163.608C60.7853 163.857 59.8022 164.047 58.8103 164.178C56.7489 164.456 54.6602 164.47 52.5953 164.219C50.9598 163.974 49.0789 163.73 47.6887 162.793L47.5252 162.711L47.3207 162.508L47.2389 162.386H47.1981L47.1163 162.223C46.7693 161.693 46.6377 161.052 46.7483 160.43C46.9905 158.928 47.7758 157.566 48.9562 156.601C50.878 154.971 53.5766 154.767 55.989 154.849C59.2192 155.012 62.6129 156.438 64.5346 159.126C64.9435 159.737 65.475 160.471 65.3115 161.286Z" fill="#5959FF"/>
<path d="M66.947 159.697C66.1701 157.7 64.4528 156.071 62.6946 155.012C60.6556 153.813 58.3539 153.128 55.989 153.015H55.9072C53.2904 152.934 50.3873 153.26 48.1793 154.889C45.9714 156.519 43.3954 161.204 46.0123 163.811C47.2798 165.074 49.2833 165.482 50.9597 165.808C53.2798 166.221 55.644 166.331 57.9925 166.134C60.2005 165.889 62.5311 165.523 64.5346 164.545C66.5381 163.567 67.7648 161.774 66.947 159.697ZM65.3115 161.286C65.2183 161.59 65.0655 161.872 64.8619 162.117C64.6584 162.362 64.4082 162.564 64.1257 162.711C63.3698 163.094 62.5747 163.395 61.7542 163.608C60.7853 163.857 59.8022 164.047 58.8103 164.178C56.7489 164.456 54.6602 164.47 52.5953 164.219C50.9597 163.974 49.0789 163.73 47.6887 162.793L47.5251 162.711L47.3207 162.508L47.2389 162.386H47.198L47.1163 162.223C46.7693 161.693 46.6377 161.052 46.7483 160.43C46.9905 158.928 47.7758 157.566 48.9562 156.6C50.878 154.971 53.5766 154.767 55.989 154.849C59.2191 155.012 62.6129 156.438 64.5346 159.126C64.9435 159.737 65.475 160.471 65.3115 161.286Z" fill="#4040B7"/>
<path d="M99.9028 159.819C104.564 161.367 107.385 162.426 111.842 163.037C116.299 163.649 118.63 163.974 121.451 163.852C124.879 163.767 128.273 163.148 131.509 162.019C133.799 161.245 137.683 160.145 140.218 158.393C140.494 158.183 140.817 158.043 141.159 157.986C142.788 153.845 143.62 149.437 143.612 144.99C143.627 144.242 143.599 143.494 143.53 142.749C140.505 146.09 136.048 148.534 131.591 148.778C131.718 148.909 131.805 149.074 131.839 149.253C131.874 149.432 131.855 149.618 131.786 149.786C131.716 149.955 131.599 150.1 131.448 150.203C131.298 150.306 131.12 150.363 130.937 150.367H128.443C123.383 150.282 118.397 149.144 113.805 147.027C111.27 145.761 108.861 144.261 106.608 142.545C104.85 141.242 103.051 139.816 100.966 139.123C99.2764 138.588 97.4885 138.435 95.7322 138.675H95.2416L94.5465 138.797L93.1154 139.205C92.1275 139.55 91.2125 140.075 90.4168 140.753C88.2906 142.627 88.0861 148.493 90.5394 152.893C91.3549 154.356 92.4364 155.654 93.7287 156.723C95.446 158.23 97.1224 158.923 99.9028 159.819Z" fill="#5959FF"/>
<path d="M105.136 141.445C103.865 140.477 102.46 139.695 100.966 139.123C99.2764 138.588 97.4885 138.435 95.7322 138.675H95.2416L94.5465 138.797L93.1154 139.205C92.1275 139.55 91.2125 140.075 90.4168 140.753C88.2906 142.627 88.0861 148.493 90.5394 152.893C91.3549 154.356 92.4364 155.654 93.7287 156.723C94.8581 157.661 96.1456 158.392 97.5313 158.882C98.9624 152.975 101.457 146.66 105.136 141.445Z" fill="#6678FF"/>
<path d="M110.82 145.438C107.794 149.715 105.75 154.93 104.441 159.86C104.319 160.308 104.237 160.756 104.114 161.245C106.333 161.964 108.602 162.522 110.902 162.915C110.949 162.646 110.976 162.374 110.983 162.1C111.638 157.13 112.415 151.875 114.623 147.393L113.805 147.027C112.783 146.538 111.801 146.008 110.82 145.438Z" fill="#6678FF"/>
<path d="M131.346 148.534C125.949 148.697 120.429 147.882 115.563 145.641C112.967 144.417 110.513 142.914 108.244 141.16C106.322 139.734 104.401 138.308 102.152 137.453C100.308 136.785 98.3295 136.575 96.3865 136.842C94.2194 137.045 91.9706 137.656 90.2124 138.96C89.0713 139.823 88.156 140.948 87.5438 142.239C86.9317 143.53 86.6409 144.948 86.696 146.375C86.7651 148.613 87.3978 150.799 88.536 152.73C90.4986 155.908 93.7287 158.23 97.1633 159.575L97.5722 159.697C98.7171 160.104 99.1669 158.352 98.0629 157.945L97.6949 157.823L97.4087 157.701L97.2042 157.619C96.5568 157.334 95.9285 157.007 95.3234 156.641C93.6456 155.706 92.161 154.461 90.9483 152.975C88.2906 149.634 87.2684 143.93 90.8257 140.834C91.6214 140.156 92.5364 139.631 93.5243 139.286L94.9554 138.879L95.6505 138.756H96.1411C97.8975 138.517 99.6853 138.67 101.375 139.205C103.46 139.897 105.259 141.323 107.017 142.627C109.27 144.342 111.679 145.843 114.214 147.108C118.806 149.226 123.792 150.364 128.852 150.449H131.346C132.532 150.449 132.532 148.616 131.346 148.616V148.534Z" fill="#4040B7"/>
<path d="M165.937 124.049C165.924 133.683 162.225 142.95 155.592 149.96C150.352 155.327 143.967 159.45 136.911 162.024C129.854 164.598 122.306 165.557 114.827 164.83C108.647 164.148 102.63 162.411 97.0407 159.697L96.1411 159.208C95.9717 159.136 95.8334 159.006 95.751 158.842C95.6686 158.678 95.6475 158.49 95.6913 158.312C95.7202 158.165 95.7824 158.026 95.8733 157.907C95.9642 157.788 96.0813 157.692 96.2156 157.625C96.3498 157.558 96.4977 157.523 96.6479 157.522C96.798 157.521 96.9464 157.554 97.0815 157.619L99.0851 158.597H99.1668C100.434 159.167 101.497 159.575 102.888 160.104C104.278 160.634 106.404 161.245 108.203 161.693C112.783 162.85 117.506 163.344 122.228 163.16C127.04 162.937 131.786 161.961 136.293 160.267L137.315 159.86L137.97 159.615L138.174 159.534H138.215L138.419 159.452C139.523 158.963 140.627 158.475 141.731 157.904C148.151 154.604 153.957 149.96 158.005 143.93C160.654 140.025 162.502 135.636 163.443 131.016C164.329 126.426 164.315 121.708 163.402 117.123C162.012 109.668 158.618 102.701 154.202 96.5498L153.016 95.0016L152.567 94.3905L152.076 93.7794C151.585 93.2091 151.095 92.598 150.563 92.0684C147.895 89.0945 144.827 86.5032 141.445 84.3685C134.331 79.7649 126.03 77.239 117.648 76.302C111.763 75.7114 105.836 75.6705 99.9437 76.1798C90.2762 76.948 80.8421 79.533 72.1398 83.7982C68.7295 85.4905 65.4374 87.4096 62.2858 89.5425C60.9773 90.4388 59.7916 91.2536 58.6467 92.1498C57.5018 93.0461 56.8476 93.535 55.9481 94.3091C55.7682 94.4694 55.5353 94.558 55.2939 94.558C55.0525 94.558 54.8196 94.4694 54.6397 94.3091C54.539 94.1927 54.4648 94.0559 54.4225 93.9082C54.3801 93.7605 54.3705 93.6053 54.3943 93.4535C54.4349 93.2851 54.5195 93.1305 54.6397 93.0054L57.461 90.7647C63.56 86.085 70.2911 82.2859 77.4552 79.4797C82.2101 77.608 87.1414 76.2158 92.175 75.3242C95.8411 74.7071 99.5415 74.3125 103.256 74.1428C110.193 73.679 117.162 74.1172 123.986 75.4465C132.981 77.3205 141.527 81.2315 148.437 87.3425C152.395 90.9598 155.785 95.1483 158.495 99.7682C162.911 107.101 165.896 115.453 165.937 124.049Z" fill="#4040B7"/>
<path d="M88.5768 159.249C83.5066 162.223 75.2881 162.63 70.5042 161.204C70.3815 162.426 71.6491 163.2 72.7531 163.608C74.6264 164.253 76.5803 164.637 78.5592 164.748C80.5973 164.892 82.6455 164.769 84.6515 164.382C85.5871 164.21 86.5044 163.951 87.391 163.608L88.1679 163.2L88.2905 163.119C88.2905 163.078 88.2905 163.078 88.3314 163.078L88.5359 162.874L88.6177 162.752H88.6585V162.63C88.7948 162.433 88.892 162.212 88.9448 161.978C89.0885 161.183 89.0035 160.364 88.6994 159.615C88.6425 159.499 88.6012 159.376 88.5768 159.249Z" fill="#5050E5"/>
<path d="M52.9633 160.878C51.0945 160.144 49.2893 159.259 47.566 158.23C47.163 158.908 46.886 159.654 46.7483 160.43C46.6377 161.052 46.7693 161.693 47.1163 162.223L47.1981 162.386H47.2389L47.3207 162.508L47.5252 162.712L47.6887 162.793C49.0789 163.73 50.9598 163.974 52.5953 164.219C54.6602 164.47 56.7489 164.456 58.8103 164.178C59.8022 164.047 60.7853 163.857 61.7542 163.608C62.5747 163.395 63.3698 163.094 64.1257 162.712C64.4082 162.564 64.6584 162.362 64.862 162.117C65.0655 161.872 65.2183 161.59 65.3115 161.286C65.3443 161.208 65.3583 161.125 65.3524 161.041C61.6724 163.16 56.8885 162.386 52.9633 160.878Z" fill="#5050E5"/>
<path d="M109.43 118.875L108.285 118.101L94.4647 123.438C93.5242 123.805 92.4612 124.294 92.4612 125.027C92.4612 125.76 93.1971 126.086 94.0149 126.29C94.8672 126.419 95.732 126.447 96.5909 126.371C99.7392 126.208 102.929 125.964 105.872 125.19C108.162 124.62 110.329 123.601 111.679 122.257L109.43 118.875Z" fill="#4040B7"/>
<path d="M112.128 126.208L111.556 125.842L97.7357 131.179C96.7953 131.545 95.7322 132.034 95.7322 132.768C95.7322 133.501 96.4682 133.827 97.2859 134.031C98.1382 134.16 99.0031 134.187 99.8619 134.112C103.01 133.949 106.2 133.705 109.143 132.931C110.525 132.582 111.858 132.062 113.11 131.382C112.885 129.64 112.558 127.912 112.128 126.208Z" fill="#4040B7"/>
<path d="M116.217 83.4723C117.198 80.702 132.286 80.4983 143.367 88.3611C155.674 97.0794 160.09 113.498 157.514 115.249C155.715 116.472 151.136 109.831 135.026 97.7313C121.655 87.7092 115.563 85.3463 116.217 83.4723Z" fill="#6678FF"/>
</svg>
