<svg width="185" height="167" viewBox="0 0 185 167" fill="none" xmlns="http://www.w3.org/2000/svg">
<path d="M71.5022 45.8419L14.2346 30.7975L77.6495 14.2607L132.086 29.3052L71.5022 45.8419Z" fill="#39309F"/>
<path d="M78.2158 43.7446L132.086 29.5068L78.4584 14.2607L78.2158 43.7446Z" fill="#3F3FB4"/>
<path d="M70.4102 36.3232C69.4216 33.6662 67.7136 31.3346 65.4761 29.5875C63.8302 28.2621 61.9385 27.2732 59.9091 26.6775C57.8797 26.0817 55.7525 25.8908 53.649 26.1155C51.5456 26.3403 49.5072 26.9763 47.6504 27.9873C45.7937 28.9983 44.1549 30.3644 42.8279 32.0075C41.5132 33.6625 40.5251 35.5513 39.916 37.5735C39.3343 39.6034 39.1557 41.7271 39.3903 43.8252C39.7189 46.846 40.9006 49.7118 42.7978 52.0893C44.695 54.4669 47.2298 56.2586 50.1077 57.2563L51.4828 57.6596C53.3192 58.117 55.2212 58.2535 57.1044 58.063C58.1219 57.9531 59.125 57.7368 60.0972 57.4176H60.2185L61.7554 56.853C63.9652 55.9094 65.9295 54.4747 67.4983 52.6583L67.9432 52.1339L68.388 51.5289L68.8329 50.9239C68.9958 50.6911 69.1444 50.4487 69.2778 50.1979L69.7631 49.3509L69.8844 49.0283C71.1896 46.3351 71.7082 43.3299 71.3808 40.3565C71.295 39.553 71.1463 38.7573 70.936 37.9769C70.8221 37.4081 70.6458 36.8535 70.4102 36.3232Z" fill="#C8C5E9"/>
<path d="M62.4833 33.6208C61.3419 32.6985 60.0291 32.0099 58.6202 31.5947C57.2114 31.1794 55.7342 31.0455 54.2734 31.2008C53.5467 31.2824 52.8291 31.4309 52.1299 31.6445C49.5045 32.503 47.288 34.2956 45.9035 36.68C44.5189 39.0645 44.0632 41.8739 44.6233 44.5721C45.1834 47.2703 46.7201 49.6684 48.9402 51.3086C51.1602 52.9489 53.9081 53.7165 56.6595 53.4649C57.404 53.3895 58.137 53.2271 58.8435 52.9809C60.9516 52.3403 62.8139 51.074 64.182 49.3509C65.1079 48.2076 65.7987 46.8934 66.2145 45.4834C66.6304 44.0735 66.7632 42.5956 66.6054 41.1344C66.4476 39.6732 66.0023 38.2573 65.295 36.968C64.5876 35.6787 63.6322 34.5413 62.4833 33.6208V33.6208Z" stroke="#A49FDA" stroke-width="2" stroke-miterlimit="10" stroke-dasharray="5.12 5.12"/>
<path d="M60.4207 43.6639C60.8656 45.1563 59.3288 46.9309 56.9426 47.6569C54.5565 48.3829 52.2916 47.8183 51.8468 46.3663C51.4019 44.9143 52.1299 44.2689 53.2623 43.4219C53.1887 42.8867 53.3064 42.3427 53.5949 41.8855C53.8833 41.4282 54.324 41.0868 54.8396 40.9212C55.3585 40.7712 55.9131 40.8012 56.4126 41.0063C56.9122 41.2115 57.3272 41.5796 57.5897 42.0506C59.0052 42.1312 60.0972 42.6959 60.4207 43.6639Z" fill="#A49FDA"/>
<path d="M51.4828 44.0672C51.1648 44.3473 50.7492 44.4915 50.3256 44.4689C49.9019 44.4462 49.5042 44.2585 49.218 43.9462C48.9469 43.6189 48.8162 43.1983 48.854 42.7755C48.8919 42.3527 49.0953 41.9618 49.4202 41.6876C49.7425 41.4171 50.1559 41.279 50.5766 41.3015C50.9972 41.324 51.3935 41.5053 51.685 41.8086C51.956 42.1359 52.0868 42.5565 52.0489 42.9793C52.0111 43.4021 51.8077 43.793 51.4828 44.0672Z" fill="#A49FDA"/>
<path d="M60.8252 41.1229C60.584 41.3161 60.2912 41.4343 59.9832 41.4629C59.6752 41.4914 59.3656 41.429 59.0929 41.2834C58.8202 41.1378 58.5964 40.9154 58.4494 40.644C58.3025 40.3725 58.2388 40.064 58.2663 39.7567C58.2938 39.4495 58.4113 39.157 58.6042 38.9159C58.797 38.6747 59.0568 38.4954 59.351 38.4002C59.6453 38.3051 59.9611 38.2984 60.2591 38.3809C60.5572 38.4634 60.8244 38.6315 61.0274 38.8642C61.2984 39.1915 61.4291 39.6122 61.3913 40.035C61.3534 40.4578 61.15 40.8487 60.8252 41.1229Z" fill="#A49FDA"/>
<path d="M57.1853 39.4289C56.8657 39.7165 56.4465 39.8689 56.0163 39.8538C55.5861 39.8388 55.1786 39.6575 54.88 39.3482C54.6466 39.0156 54.544 38.6089 54.5919 38.2057C54.6397 37.8025 54.8346 37.431 55.1395 37.1619C55.4443 36.8927 55.8377 36.7449 56.2448 36.7464C56.652 36.748 57.0443 36.8988 57.3471 37.1702C57.6132 37.4966 57.7447 37.9119 57.7146 38.3315C57.6846 38.7511 57.4953 39.1436 57.1853 39.4289Z" fill="#A49FDA"/>
<path d="M53.2623 40.6389C53.0211 40.8321 52.7283 40.9503 52.4203 40.9789C52.1123 41.0074 51.8027 40.945 51.53 40.7994C51.2573 40.6538 51.0335 40.4314 50.8866 40.16C50.7396 39.8885 50.6759 39.58 50.7034 39.2727C50.7309 38.9654 50.8484 38.673 51.0413 38.4318C51.2342 38.1907 51.4939 38.0113 51.7881 37.9162C52.0824 37.8211 52.3982 37.8144 52.6963 37.8969C52.9943 37.9794 53.2615 38.1475 53.4645 38.3802C53.7355 38.7075 53.8663 39.1282 53.8284 39.551C53.7906 39.9738 53.5872 40.3647 53.2623 40.6389Z" fill="#A49FDA"/>
<path d="M70.4102 36.3232C69.4216 33.6662 67.7136 31.3346 65.4761 29.5875C63.8302 28.2621 61.9385 27.2732 59.9091 26.6775C57.8797 26.0817 55.7525 25.8908 53.649 26.1155C51.5456 26.3403 49.5072 26.9763 47.6504 27.9873C45.7937 28.9983 44.1549 30.3644 42.8279 32.0075C41.5132 33.6625 40.5251 35.5513 39.916 37.5735C39.3343 39.6034 39.1557 41.7271 39.3903 43.8252C39.7189 46.846 40.9006 49.7118 42.7978 52.0893C44.695 54.4669 47.2298 56.2586 50.1077 57.2563L51.4828 57.6596C53.3192 58.117 55.2212 58.2535 57.1044 58.063C58.1219 57.9531 59.125 57.7368 60.0972 57.4176H60.2185L61.7554 56.853C63.9652 55.9094 65.9295 54.4747 67.4983 52.6583L67.9432 52.1339L68.388 51.5289L68.8329 50.9239C68.9958 50.6911 69.1444 50.4487 69.2778 50.1979L69.7631 49.3509L69.8844 49.0283C71.1896 46.3351 71.7082 43.3299 71.3808 40.3565C71.295 39.553 71.1463 38.7573 70.936 37.9769C70.8221 37.4081 70.6458 36.8535 70.4102 36.3232Z" stroke="#A49FDA" stroke-width="3" stroke-miterlimit="10"/>
<path d="M71.3404 123L14.0728 107.996L14.2346 30.7975L71.5022 45.8419L71.3404 123Z" fill="#3F3FB4"/>
<path d="M132.086 29.3052L131.924 106.463L71.3404 123L71.5022 45.8419L132.086 29.3052Z" fill="#5959FF"/>
<path d="M0.281677 45.7209L57.3066 60.6443L71.4617 45.7209L14.4368 30.7975L0.281677 45.7209Z" fill="#4E4EDE"/>
<path d="M146.282 44.5109L85.6169 60.6443L71.4617 45.7209L132.127 29.5875L146.282 44.5109Z" fill="#4E4EDE"/>
<path d="M102.724 29.6278C103.659 27.6416 104.023 25.4355 103.776 23.2551C103.58 21.2231 102.883 19.2709 101.748 17.5723C100.613 15.8736 99.0738 14.4813 97.2685 13.5192C95.4631 12.5571 93.4472 12.055 91.4003 12.0578C89.3533 12.0605 87.3388 12.5679 85.536 13.5348C84.1016 14.3138 82.826 15.3535 81.7748 16.6001C80.738 17.8646 79.9614 19.3205 79.4895 20.8847C79.0176 22.4488 78.8596 24.0904 79.0246 25.7155C79.1721 27.1268 79.5548 28.5036 80.157 29.7892C80.3188 30.1119 80.4806 30.4345 80.6828 30.7572C81.422 32.0186 82.3807 33.1385 83.5138 34.0645C84.1389 34.5586 84.8015 35.0036 85.4955 35.3955H85.5764L86.7088 35.9199C88.4247 36.6208 90.2777 36.9242 92.1282 36.8072H93.2202L93.8268 36.6862L94.4335 36.5652L95.2019 36.3232L95.4446 36.2426C97.63 35.4949 99.5628 34.1539 101.026 32.3705C101.426 31.8861 101.791 31.3739 102.118 30.8379C102.362 30.457 102.565 30.0514 102.724 29.6278Z" fill="#C8C5E9"/>
<path d="M99.9338 23.8198C99.7123 21.5363 98.5925 19.4333 96.8196 17.9714C96.3831 17.6117 95.9085 17.3006 95.4041 17.0438C93.5097 16.0275 91.3037 15.7513 89.2161 16.2688C87.1285 16.7864 85.309 18.0608 84.1123 19.8434C82.9156 21.6261 82.4274 23.7893 82.743 25.9113C83.0585 28.0334 84.1551 29.9622 85.8191 31.3218C86.2648 31.6809 86.7381 32.0046 87.2346 32.2898C89.0098 33.2263 91.0553 33.521 93.0238 33.124C94.9922 32.7269 96.7621 31.6626 98.0329 30.1118C98.7521 29.2411 99.2905 28.2364 99.6169 27.1562C99.9432 26.076 100.051 24.9419 99.9338 23.8198V23.8198Z" stroke="#A49FDA" stroke-width="2" stroke-miterlimit="10" stroke-dasharray="5.17 5.17"/>
<path d="M93.2606 28.0952C92.6944 29.1438 90.8745 29.2649 89.1759 28.3775C87.4772 27.4902 86.5875 25.8768 87.1133 24.8282C87.639 23.7795 88.4479 23.8602 89.5398 24.0215C89.8019 23.7038 90.1665 23.4868 90.5713 23.4076C90.9761 23.3283 91.3959 23.3918 91.7589 23.5871C92.122 23.7824 92.4057 24.0975 92.5616 24.4783C92.7175 24.8592 92.7358 25.2823 92.6135 25.6752C93.3415 26.4818 93.6246 27.4095 93.2606 28.0952Z" fill="#A49FDA"/>
<path d="M88.2052 23.4165C87.8763 23.3858 87.5716 23.2309 87.3536 22.9834C87.1355 22.736 87.0206 22.4147 87.0324 22.0855C87.0475 21.9263 87.0942 21.7717 87.1696 21.6306C87.2451 21.4894 87.3478 21.3646 87.4719 21.2634C87.596 21.1621 87.739 21.0864 87.8927 21.0406C88.0463 20.9948 88.2075 20.9798 88.367 20.9965C88.5299 21.0015 88.6902 21.0393 88.8382 21.1075C88.9862 21.1757 89.1189 21.2729 89.2283 21.3934C89.3378 21.5138 89.4218 21.6551 89.4753 21.8086C89.5289 21.9622 89.5508 22.125 89.5398 22.2872C89.509 22.6118 89.3522 22.9116 89.1029 23.1225C88.8535 23.3335 88.5314 23.439 88.2052 23.4165Z" fill="#A49FDA"/>
<path d="M94.8783 26.9659C94.5529 26.9451 94.2485 26.7987 94.0295 26.5577C93.8105 26.3167 93.6943 26.0002 93.7055 25.6752C93.7155 25.5125 93.7585 25.3534 93.8317 25.2077C93.9049 25.0619 94.0069 24.9324 94.1315 24.8269C94.2562 24.7214 94.4009 24.6422 94.557 24.5939C94.7132 24.5456 94.8775 24.5292 95.0401 24.5458C95.2049 24.545 95.368 24.5787 95.5189 24.6449C95.6697 24.7111 95.8048 24.8083 95.9155 24.93C96.0261 25.0518 96.1098 25.1955 96.1611 25.3517C96.2123 25.5079 96.23 25.6731 96.213 25.8365C96.1821 26.1612 96.0253 26.4609 95.776 26.6719C95.5267 26.8829 95.2045 26.9884 94.8783 26.9659Z" fill="#A49FDA"/>
<path d="M93.8268 24.0215C93.5014 24.0007 93.1969 23.8543 92.978 23.6133C92.759 23.3723 92.6428 23.0558 92.654 22.7308C92.664 22.5681 92.7069 22.409 92.7801 22.2633C92.8534 22.1175 92.9554 21.988 93.08 21.8825C93.2047 21.777 93.3494 21.6978 93.5055 21.6495C93.6617 21.6012 93.826 21.5848 93.9886 21.6015C94.1515 21.6065 94.3118 21.6443 94.4598 21.7124C94.6078 21.7806 94.7405 21.8779 94.8499 21.9983C94.9594 22.1188 95.0434 22.26 95.0969 22.4136C95.1505 22.5672 95.1724 22.7299 95.1615 22.8921C95.1514 23.0548 95.1085 23.2139 95.0353 23.3596C94.9621 23.5054 94.8601 23.6349 94.7354 23.7404C94.6108 23.8459 94.466 23.9251 94.3099 23.9734C94.1538 24.0217 93.9895 24.0381 93.8268 24.0215Z" fill="#A49FDA"/>
<path d="M91.0362 22.5291C90.8733 22.5241 90.7131 22.4863 90.5651 22.4182C90.4171 22.35 90.2844 22.2527 90.1749 22.1323C90.0654 22.0118 89.9814 21.8706 89.9279 21.717C89.8744 21.5634 89.8524 21.4007 89.8634 21.2385C89.904 20.9104 90.0693 20.6104 90.3251 20.4003C90.5809 20.1902 90.9079 20.086 91.2385 20.1091C91.3978 20.1224 91.553 20.1668 91.6951 20.2398C91.8372 20.3129 91.9635 20.4131 92.0668 20.5348C92.17 20.6566 92.2483 20.7974 92.297 20.9492C92.3457 21.1011 92.3639 21.2611 92.3506 21.42C92.3374 21.5789 92.2928 21.7336 92.2196 21.8753C92.1464 22.0171 92.0458 22.143 91.9238 22.246C91.8017 22.349 91.6605 22.427 91.5082 22.4756C91.356 22.5242 91.1956 22.5424 91.0362 22.5291Z" fill="#A49FDA"/>
<path d="M102.724 29.6279C103.659 27.6416 104.023 25.4355 103.776 23.2551C103.58 21.2231 102.883 19.2709 101.748 17.5723C100.613 15.8736 99.0738 14.4813 97.2685 13.5192C95.4631 12.5571 93.4472 12.055 91.4003 12.0578C89.3533 12.0605 87.3388 12.5679 85.536 13.5348C84.1016 14.3138 82.826 15.3535 81.7748 16.6001C80.738 17.8646 79.9614 19.3205 79.4895 20.8847C79.0176 22.4488 78.8596 24.0904 79.0246 25.7155C79.1721 27.1268 79.5548 28.5036 80.157 29.7892C80.3188 30.1119 80.4806 30.4345 80.6828 30.7572C81.422 32.0186 82.3807 33.1385 83.5138 34.0645C84.1389 34.5586 84.8015 35.0036 85.4955 35.3955H85.5764L86.7088 35.9199C88.4247 36.6208 90.2777 36.9242 92.1282 36.8072H93.2202L93.8268 36.6862L94.4335 36.5652L95.2019 36.3232L95.4446 36.2426C97.63 35.4949 99.5628 34.1539 101.026 32.3705C101.426 31.8861 101.791 31.3739 102.118 30.8379C102.362 30.457 102.565 30.0514 102.724 29.6279V29.6279Z" stroke="#A49FDA" stroke-width="3" stroke-miterlimit="10"/>
<path d="M73.7266 9.74338C73.591 7.99354 72.9087 6.33014 71.7755 4.98735C70.6423 3.64456 69.1154 2.69 67.4097 2.25806C65.704 1.82611 63.9054 1.93853 62.2672 2.57948C60.6289 3.22043 59.2334 4.35765 58.2772 5.83103C57.6745 6.76325 57.2622 7.80494 57.0639 8.89638C56.8618 9.98364 56.8793 11.1002 57.1154 12.1807C57.3515 13.2611 57.8015 14.2837 58.439 15.1884C58.9609 15.9835 59.6342 16.6687 60.4207 17.2051L61.0678 17.6488C61.937 18.1336 62.8795 18.4742 63.8584 18.6571C64.3803 18.7375 64.9076 18.7779 65.4357 18.7781H66.3254C67.5762 18.6243 68.7775 18.1974 69.844 17.5278L70.1271 17.3261L70.4507 17.0841L70.7742 16.8421L71.0977 16.5598L71.4617 16.1968L71.5831 16.0758C72.6373 14.8886 73.35 13.4392 73.6457 11.8811L73.767 10.6307C73.7737 10.3344 73.7602 10.0379 73.7266 9.74338Z" fill="#C8C5E9"/>
<path d="M70.1676 7.20236C69.7333 6.56998 69.177 6.03027 68.5312 5.61475C67.8854 5.19924 67.1631 4.91625 66.4063 4.78234C66.0218 4.69561 65.6263 4.6684 65.2335 4.70168C63.8007 4.75868 62.4386 5.33721 61.4045 6.3279C60.3705 7.31859 59.7362 8.65277 59.6217 10.0782C59.5072 11.5036 59.9203 12.9215 60.7829 14.0638C61.6455 15.2061 62.8979 15.9936 64.3033 16.2774C64.6754 16.3576 65.055 16.3982 65.4357 16.3984C66.5916 16.3594 67.7131 15.9959 68.6712 15.3497C69.3097 14.9121 69.8535 14.351 70.2703 13.6997C70.6872 13.0484 70.9685 12.3202 71.0978 11.5584C71.24 10.8071 71.2309 10.035 71.0713 9.28722C70.9116 8.5394 70.6044 7.8307 70.1676 7.20236V7.20236Z" stroke="#A49FDA" stroke-width="2" stroke-miterlimit="10" stroke-dasharray="5.06 5.06"/>
<path d="M67.6196 11.9214C67.6601 12.7281 66.6085 13.4138 65.3144 13.4138C64.0202 13.4138 62.9282 12.8088 62.9282 12.0021C62.9282 11.1954 63.3731 10.9938 64.0606 10.7517C64.1147 10.477 64.2596 10.2282 64.4723 10.0454C64.685 9.86259 64.953 9.75624 65.2335 9.74341C65.5173 9.7377 65.7942 9.83144 66.0159 10.0083C66.2376 10.1852 66.3901 10.434 66.4468 10.7114C67.1343 10.9534 67.6196 11.3971 67.6196 11.9214Z" fill="#A49FDA"/>
<path d="M63.09 10.7921C62.8912 10.8915 62.6612 10.9092 62.4494 10.8413C62.2377 10.7734 62.0611 10.6254 61.9576 10.4291C61.8741 10.2197 61.8736 9.98647 61.9562 9.77673C62.0388 9.567 62.1984 9.39647 62.4025 9.29975C62.6085 9.22244 62.8354 9.22055 63.0428 9.2944C63.2501 9.36826 63.4245 9.51307 63.5349 9.70308C63.6165 9.90673 63.6158 10.134 63.5328 10.3371C63.4498 10.5402 63.2911 10.7033 63.09 10.7921Z" fill="#A49FDA"/>
<path d="M68.2263 10.7114C68.0275 10.8108 67.7975 10.8285 67.5857 10.7606C67.374 10.6928 67.1974 10.5447 67.0939 10.3484C66.9973 10.1452 66.9857 9.91201 67.0616 9.70021C67.1374 9.48842 67.2945 9.31535 67.4983 9.21908C67.7021 9.1228 67.9359 9.11121 68.1483 9.18685C68.3606 9.26249 68.5342 9.41917 68.6307 9.62241C68.6779 9.72007 68.7048 9.82621 68.7099 9.93449C68.715 10.0428 68.6982 10.151 68.6605 10.2526C68.6227 10.3542 68.5648 10.4473 68.4902 10.5261C68.4156 10.6049 68.3258 10.668 68.2263 10.7114Z" fill="#A49FDA"/>
<path d="M66.649 9.34006C66.5481 9.38786 66.4388 9.41534 66.3272 9.42094C66.2156 9.42653 66.1041 9.41013 65.9989 9.37266C65.8937 9.3352 65.797 9.27741 65.7142 9.2026C65.6314 9.1278 65.5643 9.03745 65.5166 8.93672C65.4694 8.83906 65.4425 8.73293 65.4374 8.62465C65.4323 8.51638 65.4491 8.40819 65.4868 8.30654C65.5246 8.20489 65.5825 8.11187 65.6571 8.03304C65.7317 7.95421 65.8214 7.89118 65.921 7.84772C66.1198 7.7483 66.3498 7.73063 66.5616 7.79851C66.7733 7.86638 66.9499 8.01439 67.0534 8.21072C67.1014 8.31133 67.1289 8.42039 67.1345 8.53164C67.1401 8.64289 67.1237 8.75415 67.0861 8.85906C67.0485 8.96396 66.9906 9.06044 66.9156 9.14298C66.8406 9.22552 66.75 9.29249 66.649 9.34006Z" fill="#A49FDA"/>
<path d="M64.5055 9.38037C64.4046 9.42817 64.2953 9.45565 64.1837 9.46125C64.0722 9.46684 63.9606 9.45044 63.8554 9.41297C63.7502 9.37551 63.6535 9.31772 63.5707 9.24291C63.4879 9.16811 63.4208 9.07776 63.3731 8.97704C63.3271 8.87688 63.3021 8.76837 63.2997 8.65822C63.2973 8.54806 63.3176 8.43859 63.3593 8.33656C63.401 8.23452 63.4632 8.14208 63.5421 8.06494C63.621 7.9878 63.7149 7.92759 63.818 7.88803C63.9134 7.83968 64.0176 7.81071 64.1244 7.80281C64.2311 7.79491 64.3384 7.80823 64.44 7.84199C64.5416 7.87576 64.6354 7.92931 64.7161 7.99952C64.7968 8.06974 64.8627 8.15523 64.9099 8.25103C64.9964 8.45561 65.0028 8.68507 64.928 8.89415C64.8531 9.10322 64.7024 9.27671 64.5055 9.38037Z" fill="#A49FDA"/>
<path d="M73.7266 9.74338C73.591 7.99354 72.9087 6.33014 71.7755 4.98735C70.6423 3.64456 69.1154 2.69 67.4097 2.25806C65.704 1.82611 63.9054 1.93853 62.2672 2.57948C60.6289 3.22043 59.2334 4.35765 58.2772 5.83103C57.6745 6.76325 57.2622 7.80494 57.0639 8.89638C56.8618 9.98364 56.8793 11.1002 57.1154 12.1807C57.3515 13.2611 57.8015 14.2837 58.439 15.1884C58.9609 15.9835 59.6342 16.6687 60.4207 17.2051L61.0678 17.6488C61.937 18.1336 62.8795 18.4742 63.8584 18.6571C64.3803 18.7375 64.9076 18.7779 65.4357 18.7781H66.3254C67.5762 18.6243 68.7775 18.1974 69.844 17.5278L70.1271 17.3261L70.4507 17.0841L70.7742 16.8421L71.0977 16.5598L71.4617 16.1968L71.5831 16.0758C72.6373 14.8886 73.35 13.4392 73.6457 11.8811L73.767 10.6307C73.7737 10.3344 73.7602 10.0379 73.7266 9.74338V9.74338Z" stroke="#A49FDA" stroke-width="3" stroke-miterlimit="10"/>
<path d="M153.064 84.2772C169.135 98.2943 168.981 117.857 168.878 120.013C168.776 123.248 167.543 140.14 153.064 152.874C136.788 167.25 115.428 166.069 106.956 164.888L104.543 164.478H104.389C95.712 162.937 82.5677 158.573 71.8367 150.769C63.4675 144.659 53.4552 134.236 53.4552 118.986C53.4552 105.174 63.1594 94.8542 71.3232 88.6928C81.1759 81.3952 92.435 76.2202 104.389 73.4948C109.267 72.4679 134.529 68.0522 153.064 84.2772Z" fill="#5959FF"/>
<path d="M154.091 83.1476C145.978 76.062 135.812 71.9031 123.9 70.8762C117.274 70.2977 110.599 70.6782 104.081 72.0058C91.9188 74.7648 80.4651 80.0283 70.4503 87.4605C61.9784 93.8786 51.9148 104.558 51.9148 118.986C51.9148 127.664 55.0469 135.776 61.0542 142.913C61.4136 143.324 61.773 143.786 62.1838 144.197C64.5406 146.815 67.1553 149.188 69.9882 151.282L70.9637 152.001L71.4258 152.309C81.2042 159.153 92.3418 163.811 104.081 165.967H104.286L106.751 166.326C115.377 167.558 137.353 168.739 154.091 153.952C169.032 140.808 170.316 123.402 170.419 120.013V119.294C170.419 114.981 169.494 96.5999 154.091 83.1476ZM168.878 120.013C168.776 123.248 167.543 140.14 153.064 152.874C136.788 167.25 115.428 166.069 106.956 164.888L104.543 164.478H104.389C95.7119 162.937 82.5677 158.573 71.8366 150.769C63.4674 144.659 53.4552 134.236 53.4552 118.986C53.4552 105.174 63.1593 94.8542 71.3232 88.6928C80.6166 81.6586 92.9907 75.9593 104.389 73.5461C109.267 72.4679 134.529 68.0522 153.064 84.2772C169.135 98.2943 168.981 117.857 168.878 120.013Z" fill="#4040B7"/>
<path d="M93.0933 80.2208C92.9906 79.9641 92.9393 79.7074 92.8366 79.4506C91.9967 76.3794 90.6613 73.4658 88.883 70.8247C88.066 69.5824 87.1004 68.4444 86.0077 67.436C85.7149 67.1834 85.3861 66.9757 85.0322 66.8198C84.7521 66.7193 84.4569 66.6672 84.1593 66.6658H83.7486L83.2865 66.8198H83.2351C83.1838 66.8198 83.0811 66.8712 83.0811 66.9225L82.8244 67.0252L82.3623 67.3333L82.1569 67.4873L81.9515 67.6413L81.4894 68.1034L80.5652 69.1303C80.1031 69.7465 79.5896 70.5167 79.1275 71.2355C78.6654 71.9543 78.3574 72.6731 77.9466 73.3406C77.252 74.7189 76.6516 76.1427 76.1495 77.6022C75.9442 78.3211 75.7388 78.9885 75.5847 79.7074C75.4307 80.4262 75.6361 79.7587 75.5847 79.8614V79.9641L75.8928 80.2722C76.7143 80.991 75.4821 82.2233 74.7119 81.4531C74.3531 81.1672 74.0708 80.7967 73.8904 80.3748C73.8269 80.1931 73.7923 80.0025 73.7877 79.8101C73.8834 78.9982 74.0907 78.2034 74.4038 77.4482C74.9401 75.6492 75.6629 73.9112 76.5603 72.2624C77.4461 70.5326 78.5318 68.9128 79.795 67.436C81.0786 65.9983 82.773 64.7147 84.7755 64.9714C85.8155 65.1721 86.7669 65.6927 87.4967 66.4604C88.6962 67.6793 89.7633 69.0218 90.6801 70.4653C92.5086 73.3326 93.8772 76.4683 94.7363 79.7587C94.9931 80.837 93.35 81.2991 93.0933 80.2208Z" fill="#4040B7"/>
<path d="M112.912 148.971C111.365 150.36 109.638 151.534 107.778 152.463C102.233 155.184 95.8147 155.236 89.8587 153.593C83.9027 151.949 77.2792 148.15 71.9907 143.888C66.4242 139.48 61.5594 134.251 57.5628 128.382C55.7418 125.739 54.1609 122.938 52.8391 120.013C52.2743 118.781 51.8122 117.548 51.3501 116.214C50.7796 114.59 50.3334 112.925 50.0151 111.233C49.1784 106.717 49.8269 102.051 51.8635 97.9348C54.02 93.7245 57.5628 90.5925 61.465 88.0766C64.9614 85.7375 68.7621 83.8889 72.7609 82.5827C76.9918 81.2269 81.411 80.551 85.8538 80.5803C94.9931 80.5803 104.03 83.6609 110.859 89.771C116.609 94.8541 120.511 101.734 122.617 109.077C123.194 111.099 123.64 113.157 123.952 115.238V115.341C123.944 115.446 123.962 115.552 124.003 115.649C124.054 116.522 124.157 117.394 124.157 118.216C124.269 120.511 124.2 122.812 123.952 125.096C123.027 133.876 119.587 143.015 112.912 148.971Z" fill="#5959FF"/>
<path d="M125.132 112.209V112.055L124.67 110.155C123.195 103.962 120.392 98.1629 116.455 93.1597C113.674 89.6679 110.281 86.7104 106.443 84.4311C105.255 83.7 104.02 83.0482 102.746 82.48C100.188 81.2849 97.5001 80.389 94.7364 79.81L92.8366 79.4506L92.4772 79.3479C86.8726 78.4896 81.1552 78.7162 75.6361 80.0154L73.9417 80.4262C71.0854 81.2042 68.3156 82.2708 65.6752 83.6095C63.8213 84.5713 62.0215 85.634 60.284 86.7929C58.4238 87.9677 56.6864 89.3266 55.0982 90.8492C51.1873 94.4926 48.6949 99.4046 48.064 104.712C47.6532 108.666 48.3721 112.722 49.6557 116.47C50.6228 119.386 51.8605 122.205 53.3525 124.891L54.2767 126.38C54.5848 126.945 54.9442 127.509 55.3036 128.074C57.6015 131.635 60.2319 134.97 63.1593 138.035C63.526 138.487 63.9204 138.916 64.3403 139.319L66.7535 141.68C72.0933 146.61 78.152 150.923 84.8782 153.644L87.0347 154.465L89.0885 155.133C94.0176 156.519 99.2034 156.93 104.184 155.646C105.726 155.235 107.223 154.667 108.651 153.952C117.071 149.742 122.154 140.962 124.414 132.13C124.518 131.758 124.604 131.381 124.67 131.001C124.824 130.333 124.978 129.666 125.081 128.998C126.202 123.46 126.219 117.754 125.132 112.209ZM123.952 125.147C123.027 133.876 119.587 143.015 112.912 148.971C111.365 150.36 109.638 151.534 107.778 152.463C102.233 155.184 95.8146 155.236 89.8586 153.592L88.421 153.13L87.7022 152.925L87.0347 152.668H86.8293L86.0078 152.36L84.9295 151.898L84.0053 151.487H83.9026L83.1325 151.128L82.9271 151.025L82.0542 150.614L81.0787 150.101L80.2058 149.639L79.8977 149.434L79.1789 149.023C78.3574 148.561 77.5872 148.047 76.8171 147.534L76.1496 147.123L75.9955 147.02L75.0713 146.353H74.9686L74.2498 145.788L73.8391 145.531L73.3256 145.121L71.9906 144.042C66.4124 139.587 61.547 134.306 57.5628 128.382C55.7417 125.739 54.1608 122.938 52.839 120.013C52.2743 118.781 51.8122 117.548 51.35 116.213C50.7731 114.574 50.3267 112.892 50.0151 111.182C49.1785 106.682 49.8273 102.033 51.8635 97.9347C54.02 93.7758 57.5628 90.5924 61.465 88.0765C64.9614 85.7374 68.7621 83.8889 72.7608 82.5827C76.9917 81.2269 81.411 80.551 85.8537 80.5802C94.9931 80.5802 104.03 83.6609 110.859 89.7709C116.609 94.8541 120.511 101.734 122.617 109.077L123.079 110.874L123.233 111.387C123.541 112.671 123.746 113.954 123.952 115.238V115.341C123.944 115.446 123.962 115.551 124.003 115.649C124.054 116.522 124.157 117.394 124.157 118.216C124.272 120.528 124.203 122.846 123.952 125.147Z" fill="#4040B7"/>
<path d="M92.8366 79.4507L92.4772 79.348C86.8726 78.4897 81.1553 78.7163 75.6361 80.0155V79.9128C75.6875 79.8101 75.6361 79.8101 75.6361 79.7587C75.6361 79.7074 75.9956 78.3724 76.2009 77.6536C76.7029 76.1941 77.3033 74.7703 77.998 73.392C78.4088 72.7245 78.7682 72.0057 79.1789 71.2868C79.5897 70.568 80.1545 69.7978 80.6166 69.1817L81.5408 68.1548L82.0029 67.6927L82.2083 67.5387L82.4136 67.3846L82.8758 67.0766L83.1325 66.9739C83.1325 66.9225 83.2352 66.8712 83.2865 66.8712H83.3379L83.8 66.7172H84.2107C84.5083 66.7185 84.8035 66.7706 85.0836 66.8712C85.4375 67.0271 85.7663 67.2347 86.0591 67.4873C87.1518 68.4958 88.1174 69.6338 88.9344 70.8761C90.6897 73.5048 92.0075 76.4005 92.8366 79.4507Z" fill="#6678FF"/>
<path d="M64.6484 98.0375C69.3721 103.737 75.02 107.074 78.152 108.306C88.3696 112.363 103.465 106.766 114.915 93.9812C113.696 92.455 112.338 91.0455 110.859 89.771C104.03 83.6609 94.9931 80.5803 85.8538 80.5803C81.411 80.551 76.9918 81.2269 72.7608 82.5827C68.7621 83.8889 64.9614 85.7375 61.465 88.0766C60.7462 88.5387 60.0273 89.0008 59.3598 89.5142C60.742 92.5746 62.52 95.4402 64.6484 98.0375Z" fill="#6678FF"/>
<path d="M81.6948 122.067C81.7944 121.969 81.9202 121.903 82.057 121.875C82.1937 121.848 82.3355 121.861 82.465 121.913C82.5309 121.933 82.5922 121.966 82.6451 122.01C82.698 122.054 82.7415 122.108 82.773 122.169C82.8885 122.291 82.9611 122.448 82.9796 122.614C82.9981 122.781 82.9616 122.949 82.8757 123.094L82.6703 123.248C82.2104 123.656 81.8507 124.165 81.6192 124.735C81.3877 125.305 81.2906 125.92 81.3354 126.534C81.384 127.025 81.532 127.502 81.7703 127.934C82.0086 128.367 82.3323 128.746 82.7217 129.05C83.1017 129.371 83.5444 129.61 84.0217 129.752C84.499 129.893 85.0004 129.934 85.4943 129.871C85.9811 129.826 86.4541 129.685 86.886 129.456C87.3178 129.227 87.6999 128.914 88.0102 128.536C88.6388 127.756 88.934 126.76 88.8317 125.764C88.7918 125.646 88.7789 125.521 88.794 125.398C88.8091 125.275 88.8519 125.158 88.9191 125.053C88.9863 124.949 89.0762 124.862 89.182 124.797C89.2878 124.733 89.4069 124.693 89.5302 124.681C89.6536 124.669 89.778 124.685 89.8943 124.728C90.0105 124.771 90.1155 124.84 90.2014 124.929C90.2873 125.019 90.3519 125.126 90.3904 125.244C90.4288 125.362 90.4401 125.487 90.4234 125.61C90.5531 127.016 90.1254 128.418 89.2324 129.512C88.3394 130.607 87.0524 131.307 85.6483 131.463C84.9516 131.546 84.2452 131.484 83.5736 131.281C82.9021 131.078 82.2798 130.737 81.7461 130.282C81.4179 130.031 81.1243 129.737 80.8733 129.409C80.2548 128.627 79.8798 127.681 79.795 126.688C79.7267 126.121 79.7615 125.547 79.8977 124.993C80.1581 123.847 80.7898 122.818 81.6948 122.067Z" fill="#221A7E"/>
<path d="M78.9222 114.468C79.0282 114.474 79.1319 114.502 79.2265 114.55C79.3212 114.598 79.405 114.665 79.4725 114.747C79.54 114.829 79.5898 114.924 79.6188 115.026C79.6478 115.128 79.6554 115.235 79.6411 115.341C79.6345 115.442 79.6081 115.541 79.5632 115.632C79.5184 115.723 79.456 115.804 79.3796 115.871C79.3033 115.938 79.2145 115.989 79.1184 116.021C79.0223 116.053 78.9207 116.066 78.8195 116.06C78.2648 116.017 77.7076 116.098 77.1882 116.298C76.6689 116.498 76.2005 116.81 75.8171 117.213C75.4336 117.617 75.1447 118.1 74.9713 118.629C74.798 119.157 74.7444 119.718 74.8147 120.27C74.8653 120.761 75.0141 121.238 75.252 121.671C75.49 122.104 75.8124 122.485 76.2001 122.791C76.5878 123.098 77.033 123.323 77.5094 123.454C77.9858 123.586 78.4836 123.62 78.9736 123.556C79.4681 123.498 79.9459 123.341 80.3783 123.094C80.8106 122.847 81.1886 122.515 81.4895 122.118L81.6435 121.964C81.7672 121.893 81.9057 121.851 82.0482 121.842C82.1908 121.833 82.3334 121.857 82.465 121.913L82.6191 122.016C82.7682 122.137 82.8667 122.309 82.8952 122.499C82.9237 122.689 82.8801 122.883 82.7731 123.042H82.7217C82.0128 123.967 81.0211 124.634 79.8978 124.942L79.179 125.045C78.4813 125.143 77.7709 125.098 77.0912 124.913C76.4114 124.727 75.7766 124.405 75.2254 123.967C74.8786 123.68 74.5682 123.353 74.3012 122.991C73.7272 122.223 73.3563 121.322 73.223 120.372C73.0763 118.974 73.4816 117.574 74.3526 116.47C74.8907 115.786 75.5893 115.246 76.3864 114.896C77.1836 114.547 78.0546 114.4 78.9222 114.468Z" fill="#221A7E"/>
<path d="M85.6997 114.108C86.2251 114.424 86.6401 114.895 86.8882 115.455C87.1363 116.016 87.2054 116.639 87.086 117.24V117.446C87.1317 117.567 87.2179 117.67 87.3302 117.735C87.4424 117.801 87.5738 117.825 87.7022 117.805C88.2951 117.66 88.9185 117.7 89.4879 117.92C90.0574 118.14 90.5453 118.531 90.8855 119.038C91.2566 119.699 91.3515 120.48 91.1496 121.211C90.9476 121.941 90.4652 122.563 89.8073 122.94C88.6264 123.659 84.6728 123.761 82.8758 123.094H82.7731C82.5457 123.016 82.3362 122.894 82.1569 122.734L81.6948 122.118V122.016C80.9247 120.321 80.9247 116.368 81.6948 115.289C82.0922 114.626 82.7247 114.136 83.4667 113.917C84.2087 113.698 85.0058 113.766 85.6997 114.108Z" fill="#221A7E"/>
<path d="M136.12 124.84C135.158 125.601 134.126 126.272 133.04 126.842C130.772 128.12 128.334 129.071 125.8 129.666L125.441 129.255C125.343 129.142 125.22 129.054 125.081 128.998C126.202 123.46 126.219 117.754 125.132 112.209V112.055C129.457 113.126 133.49 115.142 136.942 117.959C137.712 118.575 138.636 119.294 139.047 120.27C139.194 120.672 139.223 121.107 139.133 121.525C139.042 121.943 138.834 122.327 138.533 122.632C137.857 123.496 137.041 124.242 136.12 124.84Z" fill="#6678FF"/>
<path d="M127.032 78.4238C126.108 78.1671 118.612 76.216 114.607 80.2209C113.911 80.8523 113.382 81.646 113.066 82.5314C111.783 87.3065 120.666 89.8737 128.881 100.759C129.754 101.888 131.14 103.634 133.399 104.25C135.658 104.866 139.098 103.069 140.433 100.862C141.768 98.6537 141.049 95.573 140.228 93.0571C139.406 90.5412 136.326 81.0424 127.032 78.4238Z" fill="#6678FF"/>
<path d="M138.996 124.685C136.966 126.572 134.642 128.116 132.115 129.255C130.838 129.866 129.516 130.381 128.162 130.795L126.159 131.36C125.697 131.463 125.287 131.566 124.927 131.206L124.67 131.001L124.26 130.487C124.148 130.345 124.081 130.172 124.066 129.992C124.052 129.811 124.091 129.63 124.178 129.471C124.266 129.313 124.398 129.183 124.559 129.099C124.719 129.015 124.901 128.98 125.081 128.998C125.22 129.054 125.343 129.142 125.441 129.255L125.8 129.666C128.334 129.071 130.772 128.12 133.04 126.842C134.126 126.272 135.158 125.601 136.12 124.839C137.041 124.242 137.857 123.496 138.533 122.632C138.834 122.327 139.042 121.943 139.133 121.525C139.224 121.107 139.194 120.672 139.047 120.27C138.636 119.294 137.712 118.575 136.942 117.959C133.49 115.142 129.457 113.126 125.133 112.055L123.695 111.695C123.508 111.654 123.343 111.544 123.233 111.387C123.129 111.236 123.075 111.057 123.079 110.874C123.083 110.744 123.116 110.617 123.175 110.501C123.234 110.386 123.319 110.285 123.422 110.206C123.525 110.127 123.645 110.073 123.772 110.046C123.899 110.02 124.031 110.022 124.157 110.052L124.67 110.155C127.592 110.805 130.409 111.86 133.04 113.287C134.268 113.944 135.452 114.681 136.582 115.495C137.69 116.268 138.722 117.145 139.663 118.113C140.119 118.575 140.466 119.133 140.679 119.746C140.892 120.358 140.966 121.011 140.895 121.656C140.61 122.846 139.943 123.911 138.996 124.685Z" fill="#4040B7"/>
<path d="M122.206 135.622L122 134.338L109.318 128.742C108.445 128.382 107.419 128.023 106.956 128.485C106.494 128.947 106.751 129.666 107.162 130.333C107.625 131.004 108.178 131.609 108.805 132.13C111.013 134.082 113.22 136.033 115.685 137.47C117.435 138.567 119.427 139.219 121.487 139.37C121.744 138.138 121.949 136.854 122.206 135.622Z" fill="#4040B7"/>
<path d="M119.125 142.245L119.022 141.629L106.34 136.033C105.467 135.673 104.441 135.314 103.978 135.776C103.516 136.238 103.773 136.957 104.184 137.624C104.635 138.29 105.19 138.879 105.827 139.37C107.939 141.388 110.243 143.193 112.707 144.761C113.853 145.425 115.078 145.943 116.353 146.302C117.381 145.024 118.308 143.668 119.125 142.245Z" fill="#4040B7"/>
<path d="M88.9581 105.16C92.0861 102.032 92.6876 97.5616 90.3014 95.1755C87.9153 92.7894 83.4452 93.3908 80.3172 96.5188C77.1892 99.6469 76.5878 104.117 78.9739 106.503C81.36 108.889 85.8301 108.288 88.9581 105.16Z" fill="white"/>
<path d="M84.8269 102.915C84.9379 102.797 85.0713 102.702 85.2192 102.635C85.3672 102.568 85.5268 102.532 85.6891 102.527C85.8513 102.522 86.0128 102.55 86.1644 102.607C86.316 102.665 86.4548 102.752 86.5726 102.864C86.7104 102.994 86.815 103.155 86.8776 103.334C86.9401 103.512 86.9588 103.703 86.932 103.891C87.3599 103.719 87.7453 103.456 88.0616 103.121C88.3789 102.817 88.6333 102.455 88.8103 102.053C88.9872 101.651 89.0832 101.219 89.0927 100.78C89.1023 100.341 89.0252 99.905 88.8658 99.4961C88.7065 99.0871 88.4681 98.7136 88.1643 98.397C87.8476 98.09 87.4725 97.8498 87.0611 97.6909C86.6497 97.532 86.2105 97.4575 85.7697 97.4718C85.3289 97.4862 84.8956 97.5892 84.4954 97.7746C84.0952 97.96 83.7365 98.224 83.4405 98.551C83.1232 98.8542 82.8688 99.2169 82.6919 99.6186C82.5149 100.02 82.419 100.453 82.4094 100.892C82.3999 101.33 82.477 101.767 82.6363 102.176C82.7956 102.585 83.034 102.958 83.3379 103.275C83.6385 103.581 84.0083 103.81 84.4161 103.942C84.4104 103.752 84.444 103.563 84.5146 103.386C84.5853 103.209 84.6916 103.049 84.8269 102.915Z" fill="#221A7E"/>
<path d="M91.1936 101.786C90.7084 102.595 90.1406 103.352 89.4993 104.045C86.3672 107.177 81.9002 107.793 79.487 105.38C77.8953 103.788 77.6386 101.221 78.6142 98.7563C77.0738 101.529 77.1252 104.61 78.9736 106.458C80.822 108.306 85.8538 108.255 88.9345 105.123C89.9093 104.178 90.6784 103.042 91.1936 101.786Z" fill="#EAE9FF"/>
<path d="M108.063 124.209C111.191 121.081 111.792 116.61 109.406 114.224C107.02 111.838 102.55 112.44 99.4219 115.568C96.2939 118.696 95.6925 123.166 98.0786 125.552C100.465 127.938 104.935 127.337 108.063 124.209Z" fill="white"/>
<path d="M103.876 122.016C104.036 121.792 104.269 121.632 104.535 121.562C104.801 121.492 105.083 121.517 105.332 121.632C105.581 121.748 105.783 121.947 105.901 122.195C106.02 122.443 106.048 122.725 105.981 122.991C106.404 122.783 106.801 122.524 107.162 122.221C107.52 121.931 107.814 121.57 108.024 121.159C108.233 120.749 108.355 120.299 108.379 119.839C108.403 119.378 108.331 118.918 108.166 118.488C108.001 118.057 107.747 117.667 107.421 117.341C107.095 117.015 106.704 116.761 106.274 116.596C105.844 116.431 105.383 116.358 104.923 116.383C104.463 116.407 104.013 116.528 103.602 116.738C103.192 116.948 102.83 117.241 102.541 117.6C101.905 118.212 101.533 119.048 101.504 119.931C101.476 120.813 101.792 121.671 102.387 122.324C102.718 122.628 103.1 122.872 103.516 123.043C103.497 122.855 103.52 122.667 103.582 122.489C103.644 122.312 103.744 122.15 103.876 122.016Z" fill="#221A7E"/>
<path d="M110.294 120.835C109.833 121.674 109.244 122.436 108.548 123.094C105.416 126.226 100.949 126.842 98.5873 124.48C96.2254 122.118 96.7389 120.321 97.7144 117.857C96.1741 120.629 96.2254 123.71 98.0738 125.558C99.9222 127.407 104.903 127.355 108.035 124.223C108.994 123.246 109.761 122.096 110.294 120.835Z" fill="#EAE9FF"/>
<path d="M78.3574 154.311C75.1227 156.519 71.3232 158.008 67.3696 157.957H65.932C65.5476 157.943 65.1671 157.874 64.8024 157.751C64.567 157.6 64.3702 157.396 64.2275 157.156C64.0849 156.915 64.0005 156.644 63.9809 156.365C63.8527 155.781 63.9065 155.172 64.1349 154.619C64.5356 153.839 65.0362 153.114 65.6239 152.463C67.1643 150.615 68.91 149.023 70.553 147.328C72.9258 149.9 75.5391 152.238 78.3574 154.311Z" fill="#5959FF"/>
<path d="M79.795 155.39L79.5897 155.544C77.4647 157.094 75.0837 158.258 72.5554 158.984C70.3568 159.623 68.0557 159.832 65.7779 159.6C64.8024 159.497 63.8782 159.343 63.2107 158.573C62.6496 157.925 62.3081 157.116 62.2351 156.262C62.0297 154.209 63.2107 152.617 64.443 151.128C65.6752 149.639 67.729 147.739 69.3207 146.045C69.3479 146.045 69.3741 146.034 69.3933 146.015C69.4126 145.996 69.4234 145.969 69.4234 145.942C69.5979 145.843 69.8015 145.806 69.9997 145.839C70.1979 145.872 70.3786 145.973 70.5113 146.124C70.6441 146.274 70.7207 146.466 70.7283 146.667C70.7359 146.868 70.674 147.065 70.553 147.226C68.91 148.92 67.1642 150.512 65.6239 152.36C65.0361 153.011 64.5356 153.736 64.1349 154.517C63.9064 155.069 63.8527 155.678 63.9809 156.262C64.0004 156.542 64.0849 156.812 64.2275 157.053C64.3701 157.294 64.567 157.498 64.8024 157.649C65.1671 157.771 65.5475 157.84 65.932 157.854H67.3696C71.3232 157.906 75.1227 156.417 78.3574 154.209L78.7681 153.952C78.8623 153.897 78.9665 153.862 79.0745 153.847C79.1825 153.833 79.2923 153.841 79.3974 153.869C79.5026 153.898 79.6009 153.947 79.6868 154.014C79.7727 154.082 79.8444 154.165 79.8977 154.26C80.018 154.43 80.0737 154.637 80.0549 154.844C80.036 155.051 79.9439 155.244 79.795 155.39Z" fill="#4040B7"/>
<path d="M63.1593 138.035C61.6703 139.884 60.2326 141.783 58.6923 143.58C57.9244 144.502 57.1013 145.377 56.2277 146.199C55.9124 146.512 55.5482 146.772 55.1495 146.969C54.8558 147.091 54.543 147.161 54.2253 147.174C53.8762 147.194 53.528 147.124 53.2135 146.971C52.899 146.819 52.6287 146.588 52.4282 146.302C52.2139 145.869 52.0915 145.397 52.0688 144.915C52.0175 144.248 52.0175 143.632 51.9661 142.964C51.9316 140.339 52.2074 137.72 52.7876 135.16C53.3401 132.706 54.1848 130.327 55.3035 128.074C57.6015 131.635 60.2318 134.971 63.1593 138.035Z" fill="#5959FF"/>
<path d="M64.6483 138.908L64.3403 139.319C62.4918 141.578 60.7975 143.94 58.795 146.096C58.0305 147 57.1297 147.78 56.1251 148.407C55.6666 148.658 55.1621 148.816 54.6417 148.868C54.1213 148.921 53.5956 148.869 53.0958 148.715C52.5826 148.584 52.1048 148.341 51.6965 148.003C51.2882 147.666 50.9595 147.243 50.7339 146.764C50.2204 145.583 50.2718 144.042 50.2718 142.759C50.1689 137.045 51.5487 131.402 54.2767 126.38L54.3794 126.123C54.9442 125.199 56.4332 126.072 55.8684 126.996L55.3036 128.074C54.1848 130.327 53.3402 132.706 52.7877 135.16C52.2074 137.72 51.9317 140.339 51.9662 142.964C52.0175 143.632 52.0175 144.248 52.0689 144.915C52.0916 145.397 52.214 145.869 52.4283 146.302C52.6288 146.588 52.899 146.819 53.2135 146.971C53.528 147.124 53.8763 147.194 54.2253 147.174C54.543 147.161 54.8558 147.091 55.1495 146.969C55.5483 146.772 55.9124 146.512 56.2278 146.199C57.1014 145.377 57.9244 144.502 58.6923 143.58C60.2327 141.783 61.6703 139.883 63.1593 138.035L63.4161 137.727C63.5797 137.564 63.8012 137.472 64.0322 137.472C64.2632 137.472 64.4847 137.564 64.6483 137.727C64.7275 137.804 64.7905 137.895 64.8335 137.997C64.8765 138.098 64.8987 138.207 64.8987 138.317C64.8987 138.428 64.8765 138.537 64.8335 138.638C64.7905 138.74 64.7275 138.831 64.6483 138.908Z" fill="#4040B7"/>
<path d="M149.573 101.272C154.399 96.7539 159.482 92.0302 161.793 85.6634C162.831 82.8962 163.166 79.9147 162.768 76.9862C162.295 74.1026 161.285 71.3334 159.79 68.8223C157.491 64.7157 154.444 61.0759 150.805 58.0913C147.028 55.0791 142.753 52.7506 138.174 51.2111C133.778 49.5695 129.104 48.8021 124.414 48.9519C118.971 49.2086 111.834 50.9544 110.243 56.9617C109.909 58.2063 109.909 59.5166 110.243 60.7612C110.648 62.1274 111.497 63.3196 112.656 64.15C115.12 65.9984 118.355 66.3578 121.282 66.4091C124.208 66.4605 127.289 66.1524 130.267 66.3064C133.242 66.4278 136.168 67.107 138.893 68.3089C143.771 70.5681 147.981 74.6756 149.162 80.0668C149.859 83.5875 149.647 87.228 148.546 90.6439C148.443 91.0546 148.289 91.414 148.186 91.8248C148.084 92.2356 146.903 92.0302 147.159 91.3113C147.416 90.5925 147.365 90.6439 147.468 90.2845C147.57 89.925 147.827 88.9495 147.981 88.282C148.398 86.4129 148.537 84.4924 148.392 82.5827C148.218 80.2567 147.497 78.0046 146.287 76.0106C144.655 73.5215 142.432 71.4753 139.817 70.0546C137.149 68.6157 134.212 67.7418 131.191 67.4874C128.111 67.2307 125.03 67.5901 121.949 67.5901C118.868 67.5901 115.736 67.282 113.067 65.793C110.397 64.304 108.805 61.8908 108.856 58.9128C108.895 57.5354 109.226 56.182 109.828 54.9426C110.43 53.7032 111.289 52.6061 112.348 51.7245C114.71 49.6707 117.79 48.6952 120.82 48.1817C126.014 47.3827 131.323 47.8046 136.326 49.414C141.157 50.7999 145.722 52.9868 149.829 55.8835C153.187 58.3679 156.133 61.3655 158.558 64.7661C162.049 69.6952 164.719 75.5485 163.949 81.7099C163.179 87.8712 158.866 93.8272 154.245 98.3456L150.446 101.991C149.881 102.505 149.008 101.734 149.573 101.272Z" fill="#4040B7"/>
<path d="M149.573 101.272C154.399 96.7539 159.482 92.0302 161.793 85.6634C162.831 82.8962 163.166 79.9147 162.768 76.9862C162.295 74.1026 161.285 71.3334 159.79 68.8223C157.491 64.7157 154.444 61.0759 150.805 58.0913C147.028 55.0791 142.753 52.7506 138.174 51.2111C133.778 49.5695 129.104 48.8021 124.414 48.9519C118.971 49.2086 111.834 50.9544 110.243 56.9617C109.909 58.2063 109.909 59.5166 110.243 60.7612C110.648 62.1274 111.497 63.3196 112.656 64.15C115.12 65.9984 118.355 66.3578 121.282 66.4091C124.208 66.4605 127.289 66.1524 130.267 66.3064C133.242 66.4278 136.168 67.107 138.893 68.3089C143.771 70.5681 147.981 74.6756 149.162 80.0668C149.859 83.5875 149.647 87.228 148.546 90.6439C148.443 91.0546 148.289 91.414 148.186 91.8248C148.084 92.2356 146.903 92.0302 147.159 91.3113C147.416 90.5925 147.365 90.6439 147.468 90.2845C147.57 89.925 147.827 88.9495 147.981 88.282C148.398 86.4129 148.537 84.4924 148.392 82.5827C148.218 80.2567 147.497 78.0046 146.287 76.0106C144.655 73.5215 142.432 71.4753 139.817 70.0546C137.149 68.6157 134.212 67.7418 131.191 67.4874C128.111 67.2307 125.03 67.5901 121.949 67.5901C118.868 67.5901 115.736 67.282 113.067 65.793C110.397 64.304 108.805 61.8908 108.856 58.9128C108.895 57.5354 109.226 56.182 109.828 54.9426C110.43 53.7032 111.289 52.6061 112.348 51.7245C114.71 49.6707 117.79 48.6952 120.82 48.1817C126.014 47.3827 131.323 47.8046 136.326 49.414C141.157 50.7999 145.722 52.9868 149.829 55.8835C153.187 58.3679 156.133 61.3655 158.558 64.7661C162.049 69.6952 164.719 75.5485 163.949 81.7099C163.179 87.8712 158.866 93.8272 154.245 98.3456L150.446 101.991C149.881 102.505 149.008 101.734 149.573 101.272Z" fill="#4040B7"/>
<path d="M149.367 101.529C148.871 101.82 148.436 102.204 148.084 102.659C147.66 102.929 147.19 103.12 146.697 103.223C145.568 103.531 143.822 103.685 142.795 102.967C141.768 102.248 141.922 101.58 142.025 100.656C142.025 100.605 142.076 100.502 142.076 100.451C142.847 98.6277 143.774 96.8754 144.849 95.2136L145.465 94.1867C146.076 93.4155 146.642 92.6098 147.159 91.7735C147.199 91.8742 147.267 91.9614 147.356 92.0246C147.444 92.0877 147.548 92.1242 147.656 92.1296C147.765 92.135 147.872 92.1092 147.966 92.0551C148.06 92.0011 148.137 91.9211 148.186 91.8248C148.289 91.414 148.443 91.0546 148.546 90.6439C149.647 87.228 149.859 83.5876 149.162 80.0668C147.981 74.6756 143.771 70.5681 138.893 68.3089C136.168 67.107 133.242 66.4278 130.267 66.3064C127.289 66.1524 124.311 66.4605 121.282 66.4091C118.252 66.3578 115.12 65.9984 112.656 64.15C111.497 63.3197 110.648 62.1274 110.243 60.7612C109.909 59.5166 109.909 58.2063 110.243 56.9617C111.834 50.9544 118.971 49.2086 124.414 48.9519C129.104 48.8021 133.778 49.5695 138.174 51.2111C142.753 52.7506 147.028 55.0791 150.805 58.0913C154.444 61.0759 157.491 64.7157 159.79 68.8223C161.285 71.3334 162.295 74.1026 162.768 76.9862C163.166 79.9148 162.831 82.8962 161.793 85.6634C159.482 92.0302 154.399 96.7539 149.573 101.272C149.47 101.324 149.419 101.478 149.367 101.529Z" fill="#5959FF"/>
<path d="M124.054 66.4091C124.096 65.5104 124.216 64.617 124.414 63.7392C125.226 59.9894 126.611 56.3872 128.521 53.0595C129.24 51.7759 130.01 50.5436 130.832 49.3113C132.776 49.6284 134.697 50.0744 136.582 50.6463L135.71 51.9299C133.755 54.8859 132.411 58.2027 131.756 61.6854C131.384 63.2196 131.143 64.7827 131.037 66.3578H130.267C128.213 66.2038 126.108 66.3065 124.054 66.4091Z" fill="#6678FF"/>
<path d="M120.152 55.5754C119.023 58.502 117.688 62.4042 117.482 66.101C115.741 65.8447 114.086 65.1758 112.656 64.1499C111.497 63.3196 110.648 62.1274 110.243 60.7612C109.909 59.5166 109.909 58.2062 110.243 56.9617C111.732 51.3137 118.047 49.4653 123.335 49.0032C122.12 51.1158 121.056 53.312 120.152 55.5754Z" fill="#6678FF"/>
<path d="M159.585 91.3114C159.585 91.3627 159.585 91.3627 159.534 91.3627C158.712 92.595 157.788 93.7759 156.864 94.9569C159.293 100.851 160.532 107.168 160.509 113.544C160.406 116.778 159.123 133.619 144.695 146.404C128.419 160.781 107.008 159.549 98.5873 158.419L96.1227 158.008H95.9687C91.1094 157.137 86.3462 155.796 81.7462 154.003L79.1276 155.441C88.0616 160.37 97.5604 163.348 104.389 164.529H104.543L106.956 164.94C115.428 166.121 136.788 167.302 153.064 152.925C167.543 140.192 168.776 123.299 168.878 120.064C168.981 118.165 169.084 104.096 159.585 91.3114Z" fill="#5050E5"/>
</svg>
