<svg width="890" height="400" viewBox="0 0 890 400" fill="none" xmlns="http://www.w3.org/2000/svg">
<path d="M886.895 290.787C756.547 281.523 658.715 281.149 585.073 283.535C585.073 283.535 436.384 288.448 356.004 233.099C351.98 230.292 340.05 221.402 326.809 209.612C312.118 196.558 299.252 183.037 290.877 168.252C280.49 150.005 279.975 131.805 291.532 113.699C298.456 102.797 308.89 92.9719 320.727 83.5677C332.564 74.1636 346.039 65.3676 357.735 55.8699C366.484 48.7115 374.625 41.4127 378.696 32.9443C381.643 26.8152 381.363 20.7797 375.982 15.0249C371.807 11.2579 367.207 7.99181 362.274 5.29323C354.975 1.17598 346.272 -1.86517 338.038 -5.28061L336.213 -5.79527C317.873 -12.3922 298.363 -17.8663 279.367 -23.8082C268.7 -27.1301 257.939 -30.3584 248.535 -34.8032C244.745 -36.5811 241.236 -38.4993 238.569 -40.8855C235.902 -43.2716 235.715 -46.032 238.522 -48.6521C241.329 -51.2721 244.277 -52.3482 247.786 -53.7986C251.887 -55.508 256.09 -56.9612 260.372 -58.1498C268.138 -60.3956 276.045 -62.5478 283.718 -64.9339C288.491 -66.4311 293.169 -68.0687 296.912 -70.3612C300.655 -72.6538 300.936 -75.2738 296.819 -77.7535C293.59 -79.6718 289.473 -80.9351 285.356 -82.1047C276.841 -84.3973 267.951 -86.1284 259.108 -87.9999H192.577C194.355 -86.7366 197.443 -86.5963 199.876 -85.9413C205.584 -84.3973 211.386 -82.9469 216.018 -80.514C220.65 -78.0811 220.462 -75.6013 215.316 -73.4024C208.625 -70.5016 200.905 -68.6769 193.186 -66.8522C177.886 -63.2964 162.119 -60.302 147.615 -55.7169C145.178 -54.9987 142.8 -54.0914 140.504 -53.0033C129.509 -48.1842 128.433 -43.3184 137.041 -37.1893C140.27 -34.8499 144.059 -32.8849 148.13 -31.0134C160.856 -25.3054 174.845 -20.5799 188.273 -15.4334C197.069 -12.0179 206.005 -8.74284 213.678 -4.53202C214.805 -3.60495 216.111 -2.92009 217.515 -2.52018C219.73 -2.03399 221.769 -0.949768 223.41 0.61454C224.673 1.55028 226.124 2.34566 227.387 3.28139C238.475 11.1884 239.739 19.61 231.457 28.4995C225.843 34.4883 218.076 39.5881 209.608 44.2667C194.964 52.4077 179.103 59.7532 163.336 67.1923C147.568 74.6315 132.503 81.5091 118.373 89.4629C109.858 94.2819 101.015 98.8671 93.0616 103.967C88.2894 107.008 83.9382 110.33 78.9788 113.277C72.7561 118.05 66.7674 122.916 61.4805 128.062C41.4557 147.619 33.6423 168.58 37.6659 190.991C41.0814 209.892 48.6609 223.273 55.3982 233.754C73.1304 261.077 81.9731 274.739 93.1084 287.138C131.333 329.667 177.231 360.125 194.449 371.26C215.924 385.156 242.218 401.017 273.191 417.299H886.895V290.787ZM227.761 -87.6724C228.335 -87.6129 228.9 -87.4873 229.445 -87.2981L227.761 -87.6724Z" fill="url(#paint0_linear_801_605)"/>
<path d="M886.895 271.745C843.521 273.436 800.088 272.812 756.781 269.873C700.169 266.083 686.694 261.264 653.475 256.492C636.211 254.012 623.298 252.889 612.817 251.907C515.033 242.877 387.819 231.835 336.353 180.276C318.574 162.404 317.077 146.636 316.516 142.426C314.457 127.407 319.838 113.09 331.441 99.4752C341.126 88.106 354.039 77.8596 367.046 67.6601C378.602 58.677 389.691 49.5068 396.943 39.0733C405.083 27.3298 401.621 16.9899 385.339 8.05356C377.022 3.61953 368.39 -0.196121 359.513 -3.36245C338.833 -10.8484 316.563 -16.7903 295.041 -23.434C282.502 -27.2706 269.729 -30.9667 259.249 -36.5344C247.131 -42.991 247.739 -47.8568 260.98 -53.6584C269.401 -57.3078 278.946 -59.881 288.303 -62.6415C295.462 -64.7469 302.667 -66.8991 308.235 -70.3145C312.165 -72.7007 312.024 -74.6657 308.001 -76.9583C305.006 -78.7362 301.31 -79.9058 297.52 -80.9819C290.549 -82.9938 283.063 -84.3506 275.858 -86.0817C273.37 -86.8455 270.817 -87.378 268.232 -87.6725H267.015C265.846 -87.4853 263.881 -88.2807 263.6 -87.2046C263.319 -86.1285 265.331 -86.3624 266.407 -86.1285C272.817 -84.8185 279.18 -83.4149 285.356 -81.7773C289.192 -80.748 292.935 -79.5783 296.07 -77.9876C301.731 -75.0868 301.497 -72.7942 295.883 -69.8934C291.064 -67.4605 285.543 -65.6826 279.835 -63.9983C269.121 -60.8168 257.939 -58.0564 248.02 -54.0795C246.429 -53.3309 244.745 -52.6291 243.248 -51.8805C236.229 -48.2779 235.2 -43.8799 240.487 -39.482C243.018 -37.3997 245.84 -35.6975 248.862 -34.429C250.827 -33.9611 252.184 -33.1189 253.868 -32.4171C267.764 -26.8027 283.11 -22.5451 298.035 -17.96C311.697 -13.7491 325.499 -9.67868 338.599 -4.9532C345.009 -2.33314 351.934 -0.134148 357.829 2.81342C364.847 6.36923 372.192 9.6911 376.684 14.5102C382.953 20.4053 383.983 26.5812 380.567 33.1313C376.216 41.4594 368.449 48.7582 359.747 55.823C351.045 62.8878 340.611 70.093 331.16 77.2982C317.873 87.4509 305.989 98.0248 297.754 109.815C288.303 123.337 285.403 137.373 288.912 151.689C291.766 163.293 298.596 174.194 307.392 184.721C327.183 216.63 358.437 236.093 358.437 236.093C391.89 256.913 424.313 267.393 473.392 278.529C541.187 293.922 585.073 298.647 585.073 298.647C700.543 311.092 827.382 308.8 886.895 306.882V271.745Z" fill="url(#paint1_linear_801_605)"/>
<path opacity="0.4" d="M164.365 168.158C163.991 164.79 167.032 163.667 170.775 164.603C171.944 164.883 171.804 165.398 171.898 165.913C174.658 182.335 184.156 197.681 196.133 212.606C196.695 213.355 199.081 214.197 196.975 215.132C194.87 216.068 189.302 215.132 188.367 214.01C183.471 208.066 179.029 201.764 175.079 195.154C169.699 185.984 165.722 176.674 164.365 168.158Z" fill="#FCFCFC"/>
<path opacity="0.4" d="M217 92.6911C211.9 96.6212 207.128 100.177 202.637 103.826C195.291 109.815 189.022 116.085 183.922 122.728C183.36 123.477 183.267 124.553 181.442 124.693C179.617 124.834 177.512 125.208 176.342 124.506C175.173 123.804 176.904 122.962 177.465 122.214C185.7 111.827 197.069 102.516 209.608 93.6736C211.62 92.2232 213.959 92.8315 217 92.6911Z" fill="#FAFAFA"/>
<path opacity="0.4" d="M254.149 66.7712L278.806 52.1269C281.613 50.4425 284.467 48.7582 286.853 46.8867C289.239 45.0152 290.596 45.4363 293.544 45.7171C290.222 48.4775 286.432 50.8168 282.689 53.0626C275.577 57.367 268.279 61.531 261.214 65.8354C259.249 67.0051 257.19 67.1922 254.149 66.7712Z" fill="#F7F7F7"/>
<path opacity="0.4" d="M304.538 12.4515C307.907 11.7965 309.17 12.5451 310.106 14.0422C312.679 17.832 313.334 21.7621 312.305 25.7857C311.978 27.049 311.463 28.1251 308.609 27.7508C305.755 27.3765 307.486 26.2536 307.673 25.5518C308.936 21.0135 307.86 16.7091 304.538 12.4515Z" fill="#F3F3F3"/>
<path d="M889.046 303.012C847.031 301.109 805.032 299.019 763.049 296.743C723.311 294.653 683.62 292.391 643.976 289.958C614.407 288.118 584.853 286.2 555.315 284.204C534.635 282.753 513.815 281.677 493.229 279.197C451.03 274.056 410.425 259.92 374.156 237.744C371.021 235.873 367.98 233.908 364.939 231.943C361.898 229.978 359.091 234.797 362.085 236.762C397.269 259.874 437.084 275.829 478.631 282.753C500.808 286.449 523.36 287.525 545.724 289.116C573.827 291.144 601.962 293.015 630.127 294.731C668.773 297.101 707.466 299.347 746.206 301.468C793.772 304.057 841.386 306.459 889.046 308.673V303.012Z" fill="url(#paint2_linear_801_605)"/>
<path d="M388.147 355.54C396.35 358.753 404.631 361.638 412.991 364.196C421.35 366.753 429.771 368.983 438.255 370.886C446.771 372.82 455.333 374.38 463.941 375.565C472.55 376.75 481.346 377.67 490.329 378.325C498.985 378.887 507.687 379.074 516.343 378.933L519.618 378.84C521.115 378.84 522.519 377.577 522.425 376.033C522.402 375.296 522.098 374.595 521.577 374.074C521.056 373.552 520.355 373.249 519.618 373.225C511.009 373.459 502.354 373.366 493.745 372.898C485.136 372.43 476.434 371.635 467.825 370.512H467.497C467.497 370.512 467.965 370.559 467.638 370.512L466.889 370.418L465.205 370.184L461.93 369.716L455.52 368.594C451.262 367.845 447.005 367.05 442.747 366.161C434.263 364.32 425.857 362.168 417.529 359.704C409.154 357.224 400.826 354.417 392.638 351.282L389.644 350.113C388.287 349.598 386.509 350.721 386.182 352.078C386.017 352.796 386.128 353.55 386.491 354.191C386.855 354.832 387.446 355.313 388.147 355.54Z" fill="url(#paint3_linear_801_605)"/>
<path d="M660.727 381.6C674.919 383.378 689.143 384.719 703.397 385.624C717.651 386.529 731.906 386.95 746.16 386.887C754.208 386.841 762.208 386.7 770.255 386.373C771.706 386.279 773.109 385.109 773.063 383.565C773.016 382.021 771.799 380.665 770.255 380.758C756.001 381.32 741.731 381.429 727.445 381.086C713.16 380.743 698.905 379.916 684.682 378.606C676.682 377.857 668.728 376.968 660.727 375.986C660.072 375.892 659.23 376.36 658.762 376.781C658.257 377.334 657.959 378.045 657.92 378.793C657.94 379.532 658.242 380.234 658.762 380.758C659.314 381.237 660.001 381.531 660.727 381.6Z" fill="url(#paint4_linear_801_605)"/>
<path d="M47.5379 231.695C37.8062 216.162 30.0396 198.336 31.2093 177.188C31.9111 165.398 36.0283 154.029 44.0289 143.127C53.4799 130.308 66.9077 118.798 83.096 108.318C85.716 106.072 89.0379 104.107 92.4066 102.189C104.524 95.3111 116.736 88.4803 129.836 82.1172C151.732 71.5434 174.611 61.531 195.946 50.5361C207.081 44.8281 217.936 38.9329 226.077 31.7277C230.943 27.3765 234.639 22.7446 235.013 17.5045C235.434 10.9543 229.96 5.7142 222.942 0.801567C212.733 -5.11826 202.062 -10.2034 191.033 -14.4042C176.529 -19.9718 161.417 -25.0248 147.755 -31.2007C142.047 -33.774 136.714 -36.4876 132.83 -40.0434C128.947 -43.5992 129.275 -46.0789 133.345 -49.0265C137.416 -51.9741 141.814 -53.6116 146.82 -55.3427C160.669 -59.6471 175.594 -62.5947 190.191 -65.8698C198.473 -67.7413 206.801 -69.6127 213.959 -72.7007C221.117 -75.7886 220.743 -79.0169 213.398 -81.9645C206.894 -84.5378 199.783 -86.4092 192.39 -88H184.717C186.682 -87.3918 188.881 -87.0643 190.893 -86.5028C196.274 -84.9589 201.841 -83.5552 206.239 -81.1691C210.637 -78.783 210.871 -76.584 206.286 -74.0575C201.701 -71.531 196.835 -70.3613 191.548 -69.0981C175.687 -65.3551 159.733 -61.8461 143.919 -58.1032C136.573 -56.3253 129.509 -54.2198 123.707 -51.0383C120.151 -49.1201 117.531 -46.9211 117.952 -43.9735C118.373 -41.0259 122.069 -37.9848 126.046 -35.6454C137.275 -29.0485 150.937 -24.2762 164.178 -19.1764C177.418 -14.0767 190.706 -8.9769 202.028 -2.5203C209.28 1.64373 215.643 6.18206 217.889 12.0772C220.696 19.5163 215.409 25.7858 208.157 31.6809C198.706 39.354 186.448 45.5298 173.956 51.5654C149.721 63.2621 123.941 73.9295 99.7989 85.7198C76.5458 97.089 54.7899 109.207 37.0109 123.43C15.5825 140.601 2.85642 159.456 1.03173 180.463C-0.465455 197.587 4.16645 211.811 9.64052 224.069C35.8412 282.973 82.4409 322.929 91.1433 330.275C121.227 355.587 122.163 359.049 208.672 417.299H289.005C237.633 385.343 186.074 352.312 129.275 315.21C124.736 312.262 78.9319 281.71 47.5379 231.695Z" fill="url(#paint5_linear_801_605)"/>
<path d="M45.9004 225.145C46.0865 225.145 46.265 225.071 46.3967 224.94C46.5283 224.808 46.6022 224.629 46.6022 224.443C46.6022 224.257 46.5283 224.079 46.3967 223.947C46.265 223.815 46.0865 223.741 45.9004 223.741C45.7143 223.741 45.5358 223.815 45.4042 223.947C45.2725 224.079 45.1986 224.257 45.1986 224.443C45.1986 224.629 45.2725 224.808 45.4042 224.94C45.5358 225.071 45.7143 225.145 45.9004 225.145Z" fill="#5959FF"/>
<path d="M242.171 268.891C250.088 276.785 258.546 284.117 267.483 290.834C276.159 297.399 285.289 303.341 294.807 308.613C300.094 311.56 305.521 314.274 311.089 316.8C311.755 317.129 312.512 317.228 313.241 317.081C313.946 316.87 314.547 316.403 314.925 315.771C315.58 314.555 315.346 312.59 313.896 311.935C304.108 307.497 294.649 302.369 285.59 296.588C281.005 293.688 276.513 290.6 272.115 287.325L268.887 284.892L268.559 284.658L267.811 284.096L266.08 282.693C263.927 281.008 261.822 279.231 259.763 277.453C255.038 273.476 250.5 269.265 246.148 264.914C245.621 264.386 244.906 264.09 244.16 264.09C243.414 264.09 242.699 264.386 242.171 264.914C241.644 265.441 241.348 266.156 241.348 266.902C241.348 267.648 241.644 268.363 242.171 268.891Z" fill="#FCFCFC"/>
<path d="M224.159 0.193466L218.076 -3.03483C216.111 -4.15771 212.789 -5.98241 208.485 -8.04104C204.18 -10.0997 190.144 -14.5912 157.768 -27.7851C149.908 -30.9666 142.094 -34.2417 136.339 -38.78C130.585 -43.3184 131.38 -47.1081 138.164 -50.9446C141.065 -52.629 144.668 -53.7519 147.849 -55.2022C151.545 -56.1848 155.148 -57.3077 158.938 -58.1966L201.093 -68.0687C206.801 -69.4255 212.321 -71.0162 217 -73.3088C221.679 -75.6013 222.053 -78.1746 217.328 -80.7947C214.286 -82.479 210.59 -83.6955 206.801 -84.7716L194.776 -87.9999H191.548L204.227 -84.5844C208.157 -83.5083 212.041 -82.2919 215.082 -80.4672C218.918 -78.2214 218.872 -76.2564 214.988 -74.0574C212.181 -72.4198 208.766 -71.2969 205.21 -70.2676C195.338 -67.3668 184.904 -65.2614 174.564 -62.9221C164.926 -60.7231 155.101 -58.7581 146.212 -55.6233C142.72 -54.6294 139.322 -53.3299 136.059 -51.74C127.356 -47.342 126.701 -43.2248 133.719 -38.0314C139.615 -33.6803 147.288 -30.452 155.101 -27.2705C177.886 -18.1002 202.87 -10.5675 222.193 1.17599L226.638 4.77859C234.124 11.0948 235.949 17.7853 230.849 24.9437C227.012 30.2775 221.211 34.9094 214.427 39.2138C198.987 48.9454 180.881 57.0864 163.102 65.4612C140.27 76.1286 117.204 86.7493 96.5238 98.7735C91.6112 101.674 86.4646 104.435 82.3941 107.757C74.3468 112.388 67.7966 117.675 61.4336 123.056C43.561 138.215 32.3789 154.731 30.1332 172.931C27.4663 194.78 35.888 215.647 48.8479 236.093H57.9246C58.2989 235.204 57.4099 234.456 56.8953 233.66C48.614 220.139 42.1106 206.383 39.3502 192.067C35.2797 170.779 41.5024 150.613 59.5154 131.665C65.5977 125.255 72.99 119.36 80.242 113.418C80.7566 113.137 81.3181 112.903 81.7391 112.622C99.7521 99.6157 121.087 88.4336 143.217 77.6726C162.914 68.0813 183.407 59.0514 202.449 49.039C214.427 42.7696 225.983 36.313 233.329 27.9381C242.125 17.8789 238.803 7.91331 224.159 0.193466Z" fill="url(#paint6_linear_801_605)"/>
<path d="M332.857 358.874L808.539 358.874V296.156L332.857 296.156V358.874Z" fill="#2F23B8"/>
<path d="M569.832 208.782L589.483 220.666C592.571 222.537 595.659 224.362 598.7 226.374C601.741 228.386 604.174 230.023 606.186 232.596C608.197 235.17 608.946 237.93 608.01 240.784C607.075 243.638 604.501 245.042 601.647 245.369C598.793 245.697 595.659 245.182 592.805 244.621C589.731 244.001 586.724 243.093 583.821 241.907C577.297 239.296 571.374 235.379 566.417 230.397C565.434 229.415 566.931 227.871 567.914 228.9C575.961 236.948 587.003 242.375 598.419 243.264C600.758 243.451 603.799 243.404 605.343 241.299C606.887 239.193 606.045 236.059 604.548 234.047C603.051 232.035 600.01 229.789 597.483 228.152C594.957 226.514 591.822 224.643 588.968 222.912L568.756 210.607C567.54 209.905 568.616 208.033 569.832 208.782Z" fill="#4040B7"/>
<path d="M556.919 202.232C558.334 201.715 559.814 201.4 561.317 201.296C562.206 201.202 563.142 201.343 564.031 201.296C564.091 202.022 564.35 202.718 564.779 203.308C566.312 205.587 568.246 207.569 570.487 209.156L569.832 208.782C568.616 208.033 567.54 209.905 568.756 210.606L588.968 222.911C591.822 224.643 594.676 226.327 597.483 228.152C600.291 229.976 602.723 231.567 604.548 234.047C606.373 236.526 606.981 239.1 605.344 241.299C603.706 243.498 600.758 243.451 598.419 243.264C587.003 242.375 575.961 236.948 567.914 228.9C567.798 228.778 567.654 228.686 567.494 228.632C567.334 228.578 567.163 228.565 566.997 228.592C566.831 228.62 566.674 228.688 566.54 228.791C566.406 228.893 566.3 229.027 566.23 229.181L564.873 228.058C560.849 224.596 557.761 220.666 554.814 216.502V203.401C555.462 202.922 556.17 202.529 556.919 202.232Z" fill="#5959FF"/>
<path d="M441.168 287.056C441.758 287.434 442.307 287.874 442.806 288.366C444.35 289.864 445.8 291.501 447.25 293.092L449.496 295.431L450.338 296.273L450.713 296.601L450.993 296.835H451.04C452.371 297.699 453.762 298.466 455.204 299.127C456.935 300.016 458.713 300.812 460.491 301.513C475.463 307.502 491.838 308.298 507.746 306.941C516.402 306.192 524.964 304.835 533.526 303.385L559.446 298.987L572.405 296.741C575.447 296.227 578.581 295.852 581.622 295.291C584.809 294.71 587.8 293.343 590.325 291.314C591.989 289.944 593.196 288.1 593.787 286.027C595.191 281.535 595.05 276.576 594.723 271.897C594.473 268.554 594.036 265.226 593.413 261.932L593.272 261.417C590.357 248.04 586.734 234.828 582.418 221.835C581.295 218.42 580.079 215.051 579.049 211.636C576.991 204.992 575.026 198.302 572.827 191.705C569.692 182.394 566.183 173.177 561.317 164.615C554.907 153.339 546.018 142.859 534.415 136.73C528.484 133.576 521.9 131.846 515.185 131.677C509.089 131.555 503.025 132.587 497.312 134.718C493.025 136.296 488.929 138.352 485.101 140.847L481.639 143.28C481.639 143.327 481.592 143.327 481.592 143.374H481.545L481.311 143.561L480.937 143.842C480.095 144.543 479.253 145.245 478.457 145.994C470.644 153.152 466.106 162.65 462.363 172.335C456.982 186.231 452.21 200.407 449.028 214.958C446.455 226.654 444.818 238.585 443.601 250.563C442.385 262.54 441.496 273.862 441.215 285.559C441.215 286.121 441.168 286.588 441.168 287.056Z" fill="#5959FF"/>
<path d="M439.39 289.068C439.598 289.202 439.849 289.252 440.092 289.209H440.139L440.279 289.349C440.4 289.446 440.51 289.556 440.607 289.676C443.648 292.39 446.081 295.806 449.169 298.472C450.151 299.315 451.415 299.876 452.537 300.484C453.66 301.092 456.093 302.262 457.918 303.058C461.494 304.606 465.186 305.873 468.96 306.847C484.914 311.058 501.617 310.403 517.852 308.251C526.554 307.081 535.21 305.584 543.912 304.087L570.253 299.595C573.809 298.987 577.412 298.332 580.78 297.864C584.139 297.448 587.357 296.263 590.185 294.402C592.15 293.092 593.974 291.548 595.05 289.396C596.04 287.347 596.688 285.15 596.969 282.892C597.951 275.64 597.156 267.921 595.659 260.762C594.816 256.879 593.928 252.996 592.945 249.159C589.997 237.509 586.395 226.046 582.605 214.677C578.815 203.308 575.915 192.453 571.797 181.599C568.054 171.633 563.422 162.042 556.966 153.527C552.844 147.986 547.943 143.069 542.415 138.929C541.247 138.033 540.029 137.205 538.766 136.449C534.511 133.757 529.851 131.767 524.964 130.554C521.792 129.771 518.545 129.332 515.279 129.244H512.846C504.658 129.478 496.564 131.817 489.265 135.607C487.013 136.772 484.84 138.084 482.762 139.537C482.046 139.978 481.359 140.462 480.703 140.988C477.303 143.541 474.238 146.512 471.58 149.83C467.322 155.211 464.187 161.293 461.614 167.609C461.146 168.639 460.725 169.668 460.351 170.744C458.994 174.16 457.778 177.575 456.608 180.99C453.941 188.57 451.321 196.149 449.216 203.916C447.344 210.794 445.847 217.812 444.584 224.877C442.431 237.275 441.075 249.814 440.092 262.353C439.624 268.482 439.203 274.658 438.922 280.834C438.876 282.658 438.782 284.483 438.735 286.308C438.735 287.197 438.501 288.554 439.39 289.068ZM441.168 287.056C441.168 286.589 441.215 286.121 441.215 285.606C441.496 273.909 442.385 262.213 443.601 250.609C444.818 239.006 446.455 226.701 449.028 215.005C452.21 200.454 456.982 186.277 462.363 172.382C466.106 162.697 470.644 153.199 478.457 146.041C479.253 145.292 480.095 144.59 480.937 143.888L481.311 143.608L481.545 143.421H481.592C481.592 143.374 481.639 143.374 481.639 143.327L485.101 140.894C488.929 138.399 493.025 136.343 497.313 134.765C503.025 132.634 509.089 131.602 515.185 131.724C521.9 131.893 528.484 133.623 534.415 136.777C536.481 137.908 538.481 139.158 540.403 140.52C540.828 140.789 541.234 141.086 541.62 141.409C549.807 147.538 556.311 155.866 561.317 164.662C566.323 173.458 569.692 182.441 572.827 191.751C575.026 198.348 576.991 205.039 579.049 211.683C580.079 215.098 581.295 218.467 582.418 221.882C586.734 234.875 590.357 248.087 593.273 261.464L593.413 261.979C594.036 265.273 594.474 268.6 594.723 271.944C595.05 276.623 595.191 281.582 593.787 286.074C593.196 288.147 591.989 289.991 590.325 291.361C587.8 293.39 584.809 294.757 581.623 295.338C578.581 295.899 575.447 296.273 572.406 296.788L559.446 299.034L533.526 303.432C524.964 304.882 516.402 306.239 507.746 306.988C491.839 308.344 475.463 307.549 460.491 301.56C458.713 300.859 456.935 300.063 455.204 299.174C453.762 298.512 452.371 297.746 451.04 296.882H450.994L450.713 296.648L450.338 296.32L449.496 295.478L447.251 293.139C445.8 291.548 444.35 289.91 442.806 288.413C442.31 287.904 441.761 287.449 441.168 287.056Z" fill="#4040B7"/>
<path d="M458.713 154.369C459.279 158.861 460.25 163.292 461.614 167.609C464.187 161.293 467.322 155.211 471.58 149.83C474.241 146.528 477.306 143.573 480.703 141.034L470.784 132.285C468.398 130.133 464 125.969 460.678 128.917C459.322 130.133 459.041 132.285 458.807 133.97C458.486 136.235 458.283 138.515 458.199 140.801C457.972 145.33 458.144 149.87 458.713 154.369Z" fill="#6678FF"/>
<path d="M459.836 170.042C459.911 170.334 460.095 170.585 460.351 170.744C461.193 171.259 462.55 170.604 462.176 169.434L461.614 167.609C460.25 163.292 459.279 158.861 458.713 154.369C458.144 149.87 457.972 145.329 458.199 140.8C458.283 138.514 458.486 136.234 458.807 133.97C459.041 132.285 459.322 130.133 460.678 128.917C464 125.969 468.398 130.133 470.784 132.285L480.703 141.034L481.779 141.97C482.949 142.999 484.68 141.268 483.51 140.239L482.762 139.584L476.492 134.063C474.34 132.145 472.282 130.18 470.036 128.402C466.901 125.922 462.035 123.957 458.76 127.373C457.31 128.917 456.795 131.022 456.514 133.034C456.234 135.046 455.906 137.946 455.766 140.426C455.238 150.467 456.62 160.516 459.836 170.042Z" fill="#4040B7"/>
<path d="M515.279 129.291C518.545 129.379 521.792 129.818 524.964 130.601C529.851 131.813 534.511 133.804 538.766 136.496C538.111 134.812 537.409 133.081 536.707 131.349C535.744 128.808 534.635 126.324 533.385 123.91C532.122 121.711 530.531 119.699 528.239 118.53C526.929 117.875 525.478 117.641 524.168 118.53C523.024 119.401 521.973 120.389 521.034 121.477C518.799 123.833 516.866 126.458 515.279 129.291Z" fill="#6678FF"/>
<path d="M512.846 129.291C513.08 130.227 514.483 130.695 515.045 129.665L515.279 129.291C516.866 126.458 518.799 123.833 521.033 121.478C521.973 120.389 523.024 119.401 524.168 118.53C525.478 117.641 526.929 117.875 528.239 118.53C530.531 119.7 532.122 121.711 533.385 123.91C534.635 126.324 535.744 128.808 536.707 131.35C537.409 133.081 538.111 134.812 538.766 136.496C539.421 138.18 539.889 139.163 540.403 140.52H540.45C540.536 140.763 540.694 140.974 540.903 141.124C541.112 141.275 541.362 141.358 541.62 141.362C542.415 141.362 543.164 140.801 542.789 139.912C542.685 139.577 542.56 139.248 542.415 138.929C540.965 135.28 539.468 131.677 538.017 128.028C535.959 123.022 532.871 116.284 526.741 115.489C523.326 115.068 520.893 117.922 518.834 120.214C516.561 122.691 514.583 125.423 512.939 128.355C512.862 128.497 512.815 128.653 512.798 128.814C512.782 128.974 512.798 129.137 512.846 129.291Z" fill="#4040B7"/>
<path d="M522.531 181.692L505.968 185.576C504.326 185.95 502.604 185.677 501.157 184.815C499.711 183.952 498.653 182.566 498.202 180.944L494.646 167.469C494.396 166.509 494.369 165.505 494.567 164.534C494.765 163.562 495.182 162.649 495.787 161.863C496.392 161.078 497.169 160.441 498.057 160.002C498.946 159.562 499.924 159.332 500.915 159.328H521.034C521.885 159.322 522.73 159.484 523.519 159.806C524.307 160.128 525.025 160.602 525.629 161.203C526.234 161.803 526.714 162.517 527.041 163.303C527.368 164.089 527.537 164.933 527.537 165.785V175.376C527.534 176.838 527.039 178.257 526.13 179.403C525.222 180.549 523.954 181.356 522.531 181.692Z" fill="#312893"/>
<path d="M529.362 162.697C525.806 158.486 523.513 153.292 521.923 148.006C520.332 142.719 519.349 137.432 519.77 132.098C524.889 132.786 529.846 134.369 534.415 136.777C546.018 142.906 554.907 153.386 561.317 164.662C562.206 166.206 563.048 167.796 563.844 169.387L563.095 169.481L552.989 170.697C549.808 171.072 546.532 171.446 543.304 170.978C537.83 170.183 532.917 166.954 529.362 162.697Z" fill="#6678FF"/>
<path d="M546.158 176.733L560.194 174.908C563.095 174.534 564.92 171.633 564.358 168.311L562.019 155.258C561.317 151.234 557.48 148.661 554.252 150.017L538.953 156.474C536.239 157.597 535.116 161.106 536.473 164.287L540.029 172.756C541.152 175.423 543.678 177.06 546.158 176.733Z" fill="#312893"/>
<path d="M538.251 184.874C538.173 184.709 538.056 184.568 537.908 184.461C537.761 184.355 537.589 184.288 537.409 184.265C537.232 184.252 537.055 184.284 536.894 184.359C536.702 184.438 536.54 184.575 536.43 184.751C536.321 184.928 536.271 185.135 536.286 185.342C536.295 185.471 536.327 185.597 536.38 185.716C536.68 186.448 536.803 187.241 536.738 188.03C536.673 188.819 536.422 189.581 536.005 190.254C535.29 191.332 534.182 192.087 532.917 192.36C531.978 192.558 531.001 192.475 530.109 192.119C529.217 191.764 528.45 191.153 527.905 190.362C527.36 189.572 527.061 188.638 527.045 187.678C527.029 186.718 527.298 185.775 527.818 184.967C527.895 184.858 527.95 184.734 527.978 184.603C528.006 184.472 528.007 184.336 527.981 184.205C527.954 184.073 527.901 183.949 527.825 183.838C527.749 183.728 527.651 183.635 527.537 183.564C527.307 183.424 527.031 183.38 526.768 183.441C526.506 183.502 526.278 183.664 526.133 183.891C525.626 184.645 525.28 185.495 525.119 186.389C524.958 187.284 524.985 188.201 525.198 189.085C525.384 189.966 525.745 190.801 526.259 191.54C526.773 192.279 527.43 192.908 528.192 193.389C528.945 193.896 529.796 194.242 530.69 194.403C531.584 194.564 532.502 194.537 533.385 194.325C533.919 194.217 534.438 194.044 534.929 193.81C536.074 193.274 537.034 192.411 537.69 191.33C538.126 190.713 538.429 190.012 538.579 189.272C538.959 187.81 538.844 186.263 538.251 184.874Z" fill="#221A7E"/>
<path d="M545.831 177.762C545.705 177.71 545.57 177.683 545.433 177.683C545.297 177.683 545.162 177.71 545.036 177.762C544.91 177.814 544.795 177.89 544.699 177.987C544.603 178.083 544.526 178.198 544.474 178.323C544.422 178.449 544.395 178.584 544.395 178.721C544.395 178.857 544.421 178.992 544.474 179.118C544.526 179.244 544.602 179.359 544.698 179.455C544.795 179.552 544.909 179.628 545.035 179.68C545.979 180.089 546.769 180.787 547.292 181.673C547.815 182.559 548.043 183.588 547.944 184.612C547.845 185.636 547.425 186.603 546.742 187.373C546.06 188.142 545.151 188.676 544.146 188.897C542.885 189.145 541.576 188.894 540.497 188.196C539.967 187.842 539.512 187.388 539.158 186.858C538.805 186.328 538.56 185.733 538.438 185.108C538.412 185.005 538.364 184.909 538.298 184.827C538.214 184.662 538.087 184.523 537.931 184.424C537.774 184.325 537.594 184.27 537.409 184.265H537.222C536.979 184.32 536.762 184.456 536.608 184.653C536.454 184.849 536.374 185.092 536.38 185.342C536.38 185.388 536.426 185.388 536.426 185.435C536.694 186.906 537.453 188.242 538.579 189.225L539.374 189.833C540.886 190.843 542.736 191.213 544.521 190.862C545.082 190.725 545.63 190.537 546.158 190.301C547.279 189.773 548.234 188.947 548.919 187.915C549.488 187.068 549.862 186.106 550.014 185.097C550.165 184.088 550.091 183.059 549.795 182.082C549.499 181.106 548.99 180.207 548.305 179.452C547.619 178.697 546.774 178.104 545.831 177.715V177.762Z" fill="#221A7E"/>
<path d="M521.174 161.808C521.066 161.491 520.842 161.227 520.546 161.07C520.25 160.913 519.906 160.876 519.583 160.965C519.423 161.013 519.275 161.092 519.147 161.2C519.019 161.307 518.914 161.439 518.84 161.588C518.765 161.737 518.722 161.9 518.713 162.067C518.704 162.233 518.73 162.4 518.788 162.556L520.472 168.077C520.969 169.661 520.818 171.377 520.051 172.849C519.673 173.585 519.151 174.238 518.516 174.768C517.881 175.299 517.146 175.696 516.355 175.937C515.565 176.183 514.735 176.27 513.912 176.193C513.089 176.116 512.289 175.878 511.558 175.491C510.828 175.104 510.181 174.576 509.655 173.938C509.129 173.3 508.735 172.564 508.495 171.773L506.763 166.252C506.734 166.074 506.667 165.903 506.567 165.753C506.466 165.602 506.334 165.475 506.18 165.38C506.026 165.285 505.853 165.224 505.673 165.202C505.494 165.179 505.311 165.196 505.138 165.25C504.966 165.304 504.807 165.395 504.672 165.516C504.537 165.637 504.43 165.786 504.358 165.952C504.286 166.118 504.25 166.297 504.254 166.478C504.257 166.659 504.299 166.838 504.377 167.001L506.062 172.522C506.398 173.628 506.95 174.656 507.686 175.548C508.422 176.439 509.327 177.176 510.35 177.715C511.372 178.254 512.491 178.586 513.642 178.69C514.793 178.795 515.954 178.67 517.057 178.323L518.32 177.856C520.008 177.055 521.389 175.724 522.25 174.066C523.333 171.988 523.551 169.567 522.858 167.328L521.174 161.808Z" fill="#221A7E"/>
<path d="M555.001 154.79C554.87 154.516 554.644 154.298 554.365 154.177C554.086 154.056 553.773 154.039 553.483 154.13C553.194 154.221 552.946 154.413 552.786 154.672C552.627 154.931 552.566 155.238 552.615 155.538L554.299 161.106C554.762 162.702 554.577 164.417 553.784 165.878C553.196 166.952 552.307 167.83 551.225 168.405C550.144 168.979 548.918 169.224 547.699 169.11C546.48 168.995 545.321 168.526 544.366 167.761C543.41 166.995 542.699 165.967 542.322 164.802L540.591 159.281C540.458 159.016 540.237 158.805 539.965 158.687C539.693 158.569 539.388 158.549 539.104 158.633C538.819 158.717 538.573 158.898 538.409 159.145C538.244 159.391 538.172 159.688 538.204 159.983L539.935 165.551C540.27 166.635 540.82 167.641 541.551 168.51C542.283 169.378 543.181 170.09 544.193 170.604C546.205 171.672 548.551 171.924 550.743 171.305C551.214 171.167 551.669 170.979 552.1 170.744C553.761 169.965 555.123 168.668 555.983 167.048C556.541 166.036 556.895 164.925 557.023 163.777C557.152 162.629 557.053 161.467 556.732 160.357L555.001 154.79Z" fill="#221A7E"/>
<path d="M538.251 173.411C537.466 173.46 536.715 173.751 536.103 174.246C535.491 174.741 535.048 175.414 534.836 176.171L534.695 176.405C534.646 176.468 534.584 176.52 534.513 176.557C534.442 176.593 534.365 176.615 534.285 176.619C534.205 176.624 534.125 176.611 534.051 176.582C533.977 176.553 533.909 176.509 533.853 176.452C533.229 175.947 532.47 175.637 531.671 175.562C530.872 175.487 530.068 175.651 529.362 176.031C527.724 177.06 527.256 179.353 528.379 181.178C529.502 183.002 533.806 185.108 536.286 185.342H536.38C536.695 185.364 537.011 185.333 537.315 185.248C537.655 185.179 537.974 185.035 538.251 184.827H538.298C540.216 183.283 542.509 178.745 542.275 177.014C542.17 176.021 541.701 175.103 540.957 174.437C540.214 173.771 539.249 173.405 538.251 173.411Z" fill="#221A7E"/>
<path d="M535.303 225.344C545.082 219.917 559.071 217.858 571.423 222.397C574.852 223.531 578.064 225.24 580.921 227.45C582.553 228.77 584.1 230.192 585.553 231.707C588.5 241.533 591.12 251.451 593.272 261.464L593.413 261.978C594.036 265.273 594.473 268.6 594.723 271.944C595.05 276.623 595.191 281.582 593.787 286.074C593.196 288.147 591.989 289.99 590.325 291.361C587.8 293.39 584.809 294.757 581.623 295.338C578.581 295.899 575.447 296.273 572.406 296.788L559.446 299.034L533.526 303.432C525.572 304.788 517.571 306.052 509.571 306.8C508.358 292.044 509.24 277.19 512.191 262.68C515.045 248.597 520.659 233.485 535.303 225.344Z" fill="#6678FF"/>
<path opacity="0.23" d="M525.619 179.961C524.775 180.821 523.704 181.421 522.531 181.692L519.443 182.394C515.092 177.247 510.834 172.007 506.904 166.533C505.219 164.147 503.582 161.761 502.085 159.328H509.477C514.577 166.44 520.051 173.224 525.619 179.961Z" fill="#95A4FF"/>
<path opacity="0.23" d="M500.4 175.423C502.833 178.745 505.407 181.926 507.98 185.108L506.155 185.529C503.91 182.721 501.664 179.914 499.465 177.06C498.202 175.469 497.032 173.832 495.909 172.148L494.693 167.609C496.517 170.276 498.482 172.896 500.4 175.423Z" fill="#95A4FF"/>
<path d="M468.164 172.195C471.719 175.85 476.147 178.54 481.031 180.008C485.475 181.318 490.809 182.113 492.961 186.184C493.289 186.745 493.476 187.494 493.102 188.008C492.894 188.215 492.645 188.376 492.371 188.481C492.097 188.585 491.804 188.632 491.511 188.617C481.405 189.131 469.708 186.698 464.889 177.809C463.626 175.376 463.72 171.352 466.433 171.025C468.164 170.838 469.521 172.428 470.504 173.832" fill="#4040B7"/>
<path d="M468.164 186.886C471.735 190.512 476.159 193.182 481.031 194.652C485.475 196.009 490.809 196.758 492.961 200.875C493.289 201.436 493.476 202.185 493.102 202.7C492.727 203.214 492.119 203.214 491.511 203.261C481.405 203.776 469.708 201.39 464.889 192.453C463.626 190.067 463.72 186.043 466.433 185.716C468.164 185.482 469.521 187.073 470.504 188.476" fill="#4040B7"/>
<path d="M518.835 225.157L541.012 238.585C544.521 240.737 548.076 242.796 551.492 245.042C554.907 247.287 557.668 249.206 559.913 252.106C562.159 255.007 563.048 258.142 561.972 261.323C560.896 264.505 557.995 266.143 554.814 266.564C551.632 266.985 548.03 266.33 544.801 265.675C541.333 264.968 537.935 263.95 534.649 262.633C527.283 259.651 520.587 255.229 514.951 249.627C513.875 248.504 515.559 246.773 516.682 247.896C525.759 257.019 538.251 263.148 551.164 264.131C553.784 264.365 557.247 264.318 558.978 261.979C560.709 259.639 559.82 255.99 558.089 253.697C556.358 251.405 552.942 248.925 550.088 247.053C547.234 245.182 543.725 243.077 540.497 241.158L517.618 227.263C516.261 226.467 517.478 224.315 518.835 225.157Z" fill="#4040B7"/>
<path d="M504.284 217.765C505.88 217.19 507.55 216.844 509.243 216.736C510.226 216.642 511.302 216.736 512.284 216.689C512.353 217.515 512.644 218.308 513.126 218.982C514.846 221.566 517.036 223.804 519.583 225.578L518.834 225.157C517.478 224.315 516.261 226.467 517.618 227.263L540.497 241.159C543.725 243.077 546.953 244.995 550.088 247.054C553.223 249.112 556.03 250.937 558.089 253.697C560.147 256.458 560.849 259.452 558.978 261.979C557.106 264.505 553.784 264.365 551.164 264.131C538.251 263.148 525.759 257.019 516.682 247.896C516.55 247.756 516.385 247.651 516.203 247.59C516.02 247.529 515.825 247.514 515.635 247.546C515.446 247.579 515.267 247.658 515.115 247.776C514.963 247.894 514.842 248.048 514.764 248.223L513.22 246.96C508.728 243.077 505.173 238.585 501.851 233.907V219.122C502.591 218.553 503.411 218.096 504.284 217.765Z" fill="#5959FF"/>
<path d="M622 251.358C621.859 250.984 621.625 250.703 622.14 251.639L621.953 251.218C621.8 250.896 621.628 250.584 621.438 250.282L620.877 249.393C620.596 248.925 621.158 249.767 621.158 249.767C620.987 249.576 620.831 249.373 620.69 249.159L619.146 247.615L618.35 246.913L617.836 246.492C617.274 246.024 618.023 246.539 618.07 246.679C618.116 246.82 616.619 245.603 616.292 245.369L614.28 244.059C612.783 243.077 611.286 242.094 609.742 241.158L607.402 239.895L606.233 239.334C606.186 239.334 605.765 239.193 605.718 239.1L606.139 239.287L605.811 239.147C604.407 238.627 602.969 238.205 601.507 237.883L600.431 237.696L600.01 237.603H600.384C599.589 237.603 598.84 237.462 598.045 237.415C596.547 237.353 595.047 237.384 593.553 237.509L592.945 237.603L592.384 237.696C591.61 237.802 590.844 237.959 590.091 238.164C588.613 238.501 587.159 238.939 585.74 239.474L584.711 239.895L585.132 239.708L584.57 239.942C583.822 240.269 583.12 240.644 582.418 241.018C581.077 241.734 579.78 242.531 578.535 243.404L577.786 243.966C577.037 244.48 577.973 243.778 578.02 243.778C578.067 243.778 577.505 244.153 577.505 244.153L575.821 245.603C574.624 246.714 573.484 247.885 572.406 249.112C571.938 249.627 571.517 250.188 571.049 250.75C570.581 251.311 571.61 250.001 571.236 250.516L570.955 250.89L570.16 251.966C569.262 253.262 568.434 254.605 567.68 255.99C566.792 257.548 565.995 259.157 565.294 260.809C565.2 260.902 565.013 261.464 565.247 260.809C565.481 260.154 565.2 260.996 565.154 261.136C565.107 261.277 564.826 261.979 564.639 262.353L563.797 264.879C562.675 268.315 561.83 271.836 561.27 275.406C561.13 276.529 560.007 277.793 559.025 278.307C558.469 278.643 557.85 278.862 557.206 278.951C556.563 279.039 555.908 278.995 555.282 278.822C552.521 277.933 551.445 275.547 551.866 272.786C554.065 258.563 560.709 244.714 572.312 235.871C577.759 231.775 584.144 229.105 590.886 228.105C598.466 227.029 605.858 228.058 612.689 231.614C616.31 233.509 619.769 235.699 623.029 238.164C626.772 241.018 629.813 244.2 631.404 248.691C632.293 251.124 630.468 254.165 627.988 254.727C625.509 255.288 622.935 253.884 622 251.311V251.358Z" fill="#221A7E"/>
<path d="M441.215 285.606C441.496 273.909 442.385 262.212 443.601 250.609C444.818 239.006 446.455 226.701 449.028 215.004C451.205 205.362 453.923 195.849 457.169 186.511C457.871 187.915 458.62 189.318 459.368 190.675C460.491 196.196 461.848 201.623 463.486 206.957C471.814 234.047 486.692 261.043 508.635 279.477C520.098 289.115 532.917 296.835 547.374 301.092L533.526 303.432C524.964 304.882 516.402 306.239 507.746 306.988C491.838 308.344 475.463 307.549 460.491 301.56C458.713 300.858 456.935 300.063 455.204 299.174C453.762 298.512 452.371 297.746 451.04 296.882H450.993L450.713 296.648L450.338 296.32L449.496 295.478L447.25 293.139C445.8 291.548 444.35 289.91 442.806 288.413C442.307 287.92 441.758 287.481 441.168 287.103C441.168 286.588 441.215 286.121 441.215 285.606Z" fill="#5050E5"/>
<path d="M656.716 276.295L647.077 279.898C645.886 280.347 644.581 280.398 643.359 280.044C642.136 279.69 641.06 278.949 640.293 277.933L599.355 224.643C596.828 221.367 597.998 216.502 601.741 214.911C602.813 214.431 604.006 214.29 605.16 214.507C606.314 214.725 607.374 215.29 608.198 216.127L658.774 265.768C662.096 268.997 660.926 274.705 656.716 276.295Z" fill="url(#paint7_linear_801_605)"/>
<path d="M448.14 262.727L445.192 261.511L446.549 261.09C447.063 261.651 447.578 262.212 448.14 262.727Z" fill="url(#paint8_linear_801_605)"/>
<path d="M322.283 328.743C324.575 324.252 326.353 323.223 328.786 317.327C333.745 305.303 330.751 298.238 332.857 287.992C334.12 281.91 337.488 273.207 347.501 263.569H687.969C725.773 263.101 755.436 268.903 775.133 274.19C786.83 277.325 807.744 280.319 819.113 296.18C823.104 301.889 826.138 308.21 828.096 314.895C829.125 319.012 832.026 332.019 831.324 340.955C831.091 343.159 831.38 345.386 832.166 347.458C833.336 350.499 834.88 350.827 836.237 353.166C838.857 357.751 837.453 364.348 834.599 368.653C832.951 371.077 830.713 373.041 828.096 374.361L790.666 373.893C791.722 369.781 792.256 365.552 792.257 361.307C792.257 332.065 767.975 308.391 738.078 308.391C708.181 308.391 683.899 332.065 683.899 361.307C683.913 365.116 684.336 368.912 685.162 372.63L564.171 371.086L445.426 369.542C445.859 366.818 446.078 364.065 446.081 361.307C446.081 332.065 421.845 308.391 391.902 308.391C361.958 308.391 337.769 332.065 337.769 361.307C337.767 363.56 337.907 365.81 338.19 368.044L322.283 367.857C315.966 347.973 318.587 335.995 322.283 328.743Z" fill="url(#paint9_linear_801_605)"/>
<path d="M738.078 400C762.367 400 782.058 380.31 782.058 356.02C782.058 331.731 762.367 312.041 738.078 312.041C713.789 312.041 694.098 331.731 694.098 356.02C694.098 380.31 713.789 400 738.078 400Z" fill="#5959FF"/>
<path d="M392.744 400C417.033 400 436.724 380.31 436.724 356.02C436.724 331.731 417.033 312.041 392.744 312.041C368.454 312.041 348.764 331.731 348.764 356.02C348.764 380.31 368.454 400 392.744 400Z" fill="#5959FF"/>
<path d="M811.019 311.011C805.732 315.456 787.204 301.888 775.929 289.723C771.25 284.67 766.946 279.992 768.209 277.839C770.408 274.143 787.345 280.038 799.182 287.618C808.258 293.42 810.832 298.005 811.767 301.841C812.235 303.572 813.545 308.953 811.019 311.011Z" fill="#8597FF"/>
<path d="M687.969 263.569H648.902L603.285 215.519C606.904 214.066 610.819 213.505 614.701 213.882C616.933 214.13 619.121 214.681 621.204 215.519C647.266 225.444 670.282 242.008 687.969 263.569Z" fill="url(#paint10_linear_801_605)"/>
<path d="M342.775 269.043C342.822 266.704 345.676 265.207 347.828 265.909C349.981 266.61 351.431 268.95 351.665 271.242C351.899 273.535 351.244 275.827 350.542 278.026C346.842 289.484 341.244 300.239 333.979 309.841C333.465 310.543 332.716 311.339 331.874 311.058C331.032 310.777 330.938 310.122 330.798 309.514C330.236 307.221 330.47 304.835 330.751 302.543C332.367 290.381 336.666 278.731 343.337 268.435" fill="#8597FF"/>
<path d="M503.769 296.554H535.865C536.899 296.554 537.736 295.716 537.736 294.683V282.949C537.736 281.915 536.899 281.077 535.865 281.077H503.769C502.736 281.077 501.898 281.915 501.898 282.949V294.683C501.898 295.716 502.736 296.554 503.769 296.554Z" fill="#312893"/>
<path d="M626.859 274.514L604.999 273.254C604.627 273.232 604.279 273.064 604.032 272.786C603.784 272.508 603.657 272.143 603.678 271.772L604.828 251.827C604.85 251.455 605.018 251.107 605.296 250.86C605.574 250.612 605.939 250.485 606.31 250.506L628.17 251.767C628.901 251.809 629.586 252.14 630.073 252.686C630.56 253.233 630.81 253.951 630.767 254.682L629.771 271.964C629.729 272.695 629.398 273.379 628.851 273.866C628.305 274.353 627.587 274.603 626.856 274.561L626.859 274.514Z" fill="url(#paint11_linear_801_605)"/>
<path d="M791.181 350.827C791.434 350.803 791.685 350.756 791.93 350.687H791.976L828.096 351.155C829.672 350.338 831.122 349.298 832.4 348.067C833.57 350.546 834.974 350.967 836.237 353.166C838.857 357.752 837.453 364.348 834.599 368.653C832.951 371.077 830.713 373.041 828.096 374.361L790.666 373.893C791.722 369.781 792.256 365.553 792.257 361.307C792.259 357.786 791.898 354.274 791.181 350.827Z" fill="#5959FF"/>
<path d="M443.741 345.914H445.473C445.473 346.055 445.426 346.195 445.426 346.335L564.171 347.879L685.162 349.423L685.022 348.768L685.443 348.862C684.426 352.932 683.907 357.112 683.899 361.307C683.913 365.116 684.336 368.912 685.162 372.63L564.171 371.086L445.426 369.542C446.694 361.641 446.117 353.555 443.741 345.914Z" fill="#5959FF"/>
<path d="M319.803 335.2C320.456 338.378 321.284 341.518 322.283 344.604L337.582 344.838L338.424 345.072C339.02 345.302 339.659 345.398 340.296 345.353C338.621 350.505 337.768 355.889 337.769 361.307C337.767 363.56 337.907 365.81 338.19 368.045L322.283 367.857C317.557 352.979 317.838 342.593 319.803 335.2Z" fill="#5959FF"/>
<path d="M822.762 358.5C826.354 358.5 829.266 352.656 829.266 345.446C829.266 338.237 826.354 332.393 822.762 332.393C819.17 332.393 816.259 338.237 816.259 345.446C816.259 352.656 819.17 358.5 822.762 358.5Z" fill="#8597FF"/>
<path opacity="0.13" d="M620.409 219.964C620.502 218.42 620.549 216.829 620.596 215.285L621.204 215.519L622.701 216.127L622.982 221.602C623.029 222.397 623.076 223.192 623.169 223.988L623.029 236.339L620.924 234.094C620.69 229.836 620.456 225.532 620.269 221.227C620.366 220.813 620.414 220.389 620.409 219.964Z" fill="white"/>
<path opacity="0.13" d="M658.681 235.871L662.049 238.445C661.815 243.217 661.722 248.083 661.909 252.855C661.769 256.411 661.675 260.014 661.628 263.569H653.674C653.628 260.435 653.534 257.347 653.44 254.212C653.3 246.82 653.207 239.38 653.066 231.988C654.938 233.251 656.809 234.515 658.681 235.871Z" fill="white"/>
<path opacity="0.13" d="M633.79 220.946L640.013 224.128C639.966 232.269 640.153 240.363 640.714 248.457C640.855 250.843 641.089 253.183 641.276 255.569C639.498 253.697 637.72 251.779 635.895 249.908C635.568 241.346 634.398 232.737 633.743 224.268V224.034C633.743 223.005 633.79 221.976 633.79 220.946Z" fill="white"/>
<path d="M527.537 170.089C527.878 168.904 528.479 167.811 529.297 166.888C530.114 165.965 531.127 165.237 532.262 164.755C534.508 163.82 537.362 164.334 538.392 166.72C538.719 167.562 539.935 166.814 539.608 166.019C538.345 163.118 534.836 162.322 532.075 163.305C530.666 163.848 529.401 164.709 528.379 165.821C527.356 166.933 526.604 168.265 526.18 169.715C525.946 170.557 527.303 170.931 527.537 170.089Z" fill="#4040B7"/>
<path d="M392.744 386.993C409.85 386.993 423.717 373.126 423.717 356.02C423.717 338.914 409.85 325.047 392.744 325.047C375.638 325.047 361.771 338.914 361.771 356.02C361.771 373.126 375.638 386.993 392.744 386.993Z" fill="#2727C6"/>
<path d="M738.078 386.993C755.184 386.993 769.051 373.126 769.051 356.02C769.051 338.914 755.184 325.047 738.078 325.047C720.972 325.047 707.105 338.914 707.105 356.02C707.105 373.126 720.972 386.993 738.078 386.993Z" fill="#2727C6"/>
<path d="M392.744 368.232C399.488 368.232 404.955 362.765 404.955 356.02C404.955 349.276 399.488 343.809 392.744 343.809C386 343.809 380.532 349.276 380.532 356.02C380.532 362.765 386 368.232 392.744 368.232Z" fill="#5050E5"/>
<path d="M738.078 368.232C744.822 368.232 750.289 362.765 750.289 356.02C750.289 349.276 744.822 343.809 738.078 343.809C731.334 343.809 725.867 349.276 725.867 356.02C725.867 362.765 731.334 368.232 738.078 368.232Z" fill="#5050E5"/>
<path d="M499.652 370.477H499.09C493.841 355.327 489.835 339.773 487.113 323.971C485.709 315.971 484.399 307.783 484.353 299.642C484.293 292.451 485.627 285.317 488.283 278.635C490.558 272.976 493.768 267.741 497.78 263.148H501.102C492.238 272.477 487.152 284.765 486.832 297.63C486.645 305.678 487.862 313.678 489.172 321.585C490.482 329.492 492.026 337.025 493.944 344.651C496.096 353.198 498.623 361.65 501.523 370.01C501.56 370.179 501.576 370.351 501.57 370.524L499.652 370.477Z" fill="#4747CC"/>
<path d="M662.657 372.302H660.224C661.02 356.769 661.815 341.189 661.862 325.609C661.909 317.795 661.768 309.935 661.301 302.075C660.833 294.215 660.037 287.571 657.417 280.787C654.797 274.003 650.867 268.529 644.925 265.02C644.762 264.94 644.621 264.822 644.513 264.676C644.405 264.53 644.335 264.36 644.307 264.181C644.279 264.002 644.296 263.818 644.354 263.646C644.413 263.475 644.513 263.32 644.644 263.195H646.516C658.306 270.307 662.236 284.67 663.406 297.537C664.108 305.35 664.248 313.304 664.295 321.164C664.342 329.024 664.201 337.259 663.921 345.306C663.593 354.289 663.125 363.319 662.657 372.302Z" fill="#4747CC"/>
<path d="M380.286 14.0892C376.918 10.393 371.678 7.53901 366.391 4.7318C358.998 0.84848 350.577 -2.28624 341.968 -5.2806C341.219 -6.0292 339.816 -6.21635 338.693 -6.63743C310.387 -16.5095 279.414 -23.8082 252.277 -34.8499C252.138 -34.7604 251.976 -34.7118 251.81 -34.7096L252.277 -34.8499C251.844 -35.0087 251.422 -35.1963 251.014 -35.4114C236.931 -43.4119 238.475 -47.6228 251.529 -53.7051C263.226 -58.337 276.513 -61.3781 288.865 -65.355C293.497 -66.8522 298.035 -68.4429 301.638 -70.7355C305.24 -73.0281 305.381 -75.0399 301.357 -77.3792C297.333 -79.7186 293.403 -80.8415 288.678 -81.9644C281.8 -84.1634 274.08 -85.2862 267.109 -87.4852H271.179L271.694 -87.7192L271.086 -87.8595L267.951 -87.9999C266.033 -87.8595 263.927 -88.187 262.196 -87.4384L287.836 -81.5433C291.251 -80.4204 294.807 -79.3911 297.754 -77.8471C302.807 -75.1803 302.901 -73.2152 297.988 -70.4548C292.093 -67.0861 284.607 -65.1211 277.308 -62.9689C267.998 -60.2084 258.219 -57.9159 249.845 -54.2197C247.116 -53.285 244.509 -52.0285 242.078 -50.4768C236.791 -46.9678 236.37 -43.7862 240.908 -39.9497C243.816 -37.6232 247.047 -35.7319 250.5 -34.3353C253.728 -33.0252 256.769 -31.6216 260.138 -30.4052C286.104 -21.0946 314.317 -13.8894 340.377 -4.67237C340.878 -4.39492 341.393 -4.14502 341.921 -3.92378C355.957 1.17599 368.777 7.02435 377.666 15.1185C383.889 22.043 383.047 29.1078 378.368 36.1258C371.818 46.0446 361.01 54.6067 349.688 62.9347C335.371 73.5554 320.352 83.8953 308.281 95.4048C291.953 110.938 282.876 127.501 284.654 145.701C285.917 158.38 292.327 170.311 301.357 181.867C316.75 201.518 338.178 219.109 361.244 236.093H370.321C365.455 232.444 360.496 228.888 355.77 225.192C335.745 209.705 317.405 193.657 304.819 175.785C293.871 160.252 288.631 144.344 293.31 127.688C297.24 113.558 307.626 100.972 321.195 89.0418C333.172 78.5148 347.536 68.9234 360.449 58.8175C369.713 51.5187 378.509 44.0796 383.515 35.4708C387.819 28.1253 388.661 20.8733 380.286 14.0892ZM372.005 9.12977L371.912 9.03619H372.005V9.12977Z" fill="url(#paint12_linear_801_605)"/>
<path d="M282.034 417.299H296.351L296.21 417.205C272.817 404.167 249.689 390.677 226.825 376.735C206.379 364.242 186.121 351.423 166.236 338.089C157.487 332.193 148.785 326.158 140.223 319.935C136.667 317.409 133.158 314.789 129.696 312.122L128.526 311.233L127.824 310.671C127.029 310.11 126.28 309.502 125.532 308.894L121.087 305.385C111.81 297.947 102.997 289.947 94.6991 281.43C80.0075 266.22 66.6403 249.785 54.743 232.303L51.0937 226.876C50.6165 226.089 49.8525 225.517 48.9625 225.281C48.0724 225.046 47.1256 225.165 46.3214 225.613C44.7306 226.549 43.9821 228.841 45.0582 230.432C57.4994 249.385 71.5902 267.202 87.1664 283.675C95.0001 291.985 103.344 299.798 112.151 307.069C125.906 318.485 140.41 328.918 155.148 338.978C175.032 352.593 195.384 365.553 215.877 378.232C237.68 391.675 259.732 404.698 282.034 417.299Z" fill="url(#paint13_linear_801_605)"/>
<defs>
<linearGradient id="paint0_linear_801_605" x1="285.128" y1="57.4193" x2="343.932" y2="350.008" gradientUnits="userSpaceOnUse">
<stop stop-color="#312893" stop-opacity="0"/>
<stop offset="0.516646" stop-color="#312893" stop-opacity="0.61"/>
<stop offset="1" stop-color="#312893" stop-opacity="0"/>
</linearGradient>
<linearGradient id="paint1_linear_801_605" x1="521.535" y1="-87.7816" x2="700.687" y2="297.014" gradientUnits="userSpaceOnUse">
<stop offset="0.216129" stop-color="#4747CC" stop-opacity="0"/>
<stop offset="0.641768" stop-color="#4747CC"/>
<stop offset="1" stop-color="#4747CC" stop-opacity="0"/>
</linearGradient>
<linearGradient id="paint2_linear_801_605" x1="441.245" y1="231.481" x2="940.649" y2="377.696" gradientUnits="userSpaceOnUse">
<stop stop-color="#5959FF"/>
<stop offset="1" stop-color="#5959FF" stop-opacity="0"/>
</linearGradient>
<linearGradient id="paint3_linear_801_605" x1="454.268" y1="349.985" x2="454.268" y2="378.978" gradientUnits="userSpaceOnUse">
<stop stop-color="#FCFCFC"/>
<stop offset="1" stop-color="#FCFCFC" stop-opacity="0"/>
</linearGradient>
<linearGradient id="paint4_linear_801_605" x1="715.492" y1="375.974" x2="715.492" y2="386.893" gradientUnits="userSpaceOnUse">
<stop stop-color="#FCFCFC"/>
<stop offset="1" stop-color="#FCFCFC" stop-opacity="0"/>
</linearGradient>
<linearGradient id="paint5_linear_801_605" x1="144.876" y1="-7.67028" x2="144.876" y2="341.403" gradientUnits="userSpaceOnUse">
<stop stop-color="#4747CC" stop-opacity="0"/>
<stop offset="0.473958" stop-color="#4747CC"/>
<stop offset="1" stop-color="#4747CC" stop-opacity="0"/>
</linearGradient>
<linearGradient id="paint6_linear_801_605" x1="133.898" y1="-87.9999" x2="133.898" y2="236.093" gradientUnits="userSpaceOnUse">
<stop stop-color="#5959FF" stop-opacity="0"/>
<stop offset="1" stop-color="#5959FF"/>
</linearGradient>
<linearGradient id="paint7_linear_801_605" x1="699.221" y1="332.514" x2="569.509" y2="173.996" gradientUnits="userSpaceOnUse">
<stop stop-color="#6678FF"/>
<stop offset="0.76" stop-color="#4747CC"/>
</linearGradient>
<linearGradient id="paint8_linear_801_605" x1="445.417" y1="197.263" x2="447.288" y2="294.589" gradientUnits="userSpaceOnUse">
<stop offset="0.36" stop-color="#6678FF"/>
<stop offset="0.51" stop-color="#5964EA"/>
<stop offset="0.76" stop-color="#4747CC"/>
</linearGradient>
<linearGradient id="paint9_linear_801_605" x1="577.964" y1="361.869" x2="578.946" y2="228.381" gradientUnits="userSpaceOnUse">
<stop offset="0.29" stop-color="#6678FF"/>
<stop offset="0.76" stop-color="#555CE2"/>
<stop offset="1" stop-color="#4747CC"/>
</linearGradient>
<linearGradient id="paint10_linear_801_605" x1="629.983" y1="245.216" x2="682.845" y2="216.419" gradientUnits="userSpaceOnUse">
<stop stop-color="#8597FF"/>
<stop offset="1" stop-color="#8597FF" stop-opacity="0"/>
</linearGradient>
<linearGradient id="paint11_linear_801_605" x1="606.852" y1="248.653" x2="626.822" y2="279.954" gradientUnits="userSpaceOnUse">
<stop offset="0.26" stop-color="#6678FF"/>
<stop offset="0.64" stop-color="#4747CC"/>
</linearGradient>
<linearGradient id="paint12_linear_801_605" x1="312.241" y1="44.1199" x2="312.241" y2="236.093" gradientUnits="userSpaceOnUse">
<stop stop-color="#5959FF" stop-opacity="0"/>
<stop offset="1" stop-color="#5959FF"/>
</linearGradient>
<linearGradient id="paint13_linear_801_605" x1="170.452" y1="225.163" x2="170.452" y2="417.299" gradientUnits="userSpaceOnUse">
<stop stop-color="#5959FF"/>
<stop offset="0.88458" stop-color="#5959FF" stop-opacity="0"/>
</linearGradient>
</defs>
</svg>
