<svg width="152" height="138" viewBox="0 0 152 138" fill="none" xmlns="http://www.w3.org/2000/svg">
<g clip-path="url(#clip0_751_27558)">
<path d="M11.4369 131.855L10.985 131.245C7.50873 126.555 5.21439 120.975 4.17151 114.68C3.00696 107.653 3.00696 100.313 4.17151 92.8497C5.26533 85.8477 7.28184 79.0226 10.1681 72.5536L9.88998 72.17V72.1002C5.90965 65.3871 2.92005 54.6985 1.89455 43.5042C1.49478 39.2672 0.590952 25.1435 5.37083 21.4993C6.90039 20.331 9.22949 19.7556 12.4624 19.7556C24.4903 19.7556 46.6516 28.0031 52.3005 30.2001C56.3134 28.5969 60.4854 27.4278 64.7456 26.7128C67.8477 26.1934 70.9865 25.9252 74.1315 25.9107C75.8001 24.5158 82.1269 19.2151 89.3923 14.0016C100.881 5.71919 109.259 1.49954 114.265 1.49954C115.037 1.50191 115.804 1.61944 116.542 1.84827C122.226 3.7663 125.911 17.4191 126.884 21.5516C129.422 32.1007 130.065 42.8068 128.657 50.4091C139.955 62.0044 147.463 76.285 149.827 90.6876C151.253 99.2664 150.071 107.217 146.334 114.332C142.927 120.835 137.382 126.642 129.856 131.611L129.474 131.855H11.4369Z" fill="#5959FF"/>
<path d="M114.265 3.03396C114.878 3.01663 115.49 3.1051 116.073 3.29551C123.025 5.63201 130.43 34.7511 127.023 50.9148C137.973 61.9696 145.864 75.9886 148.333 90.9491C151.166 108.142 143.031 121.114 129.004 130.356H12.1843C8.95139 125.979 6.69181 120.713 5.66631 114.436C3.35459 100.4 5.89227 85.5961 11.941 72.2746C11.648 71.9956 11.3857 71.6857 11.1588 71.3504C2.74624 57.1222 0.417141 27.1662 6.2399 22.7198C7.57826 21.6911 9.73355 21.2726 12.4277 21.2726C24.5772 21.2726 47.4163 29.9212 52.2657 31.8217C59.3055 28.8886 66.8564 27.3891 74.4791 27.4103H74.6529C74.6529 27.4103 102.985 3.01652 114.248 3.01652L114.265 3.03396ZM114.248 -6.79959e-06C108.859 -6.79959e-06 100.429 4.16733 88.4711 12.7636C81.5707 17.7155 75.6784 22.5978 73.5405 24.3938C66.251 24.4862 59.0379 25.898 52.2484 28.5611C49.0849 27.3405 42.8972 25.0563 35.962 22.9291C25.7939 19.8254 17.8854 18.2386 12.4277 18.2386C8.8471 18.2386 6.22251 18.9187 4.41485 20.2962C2.31171 21.9178 0.990725 25.004 0.364996 29.7991C-0.121682 33.6526 -0.139063 38.4302 0.347615 43.6437C1.3905 54.9426 4.41485 65.7882 8.44733 72.7105C5.69686 79.0782 3.75802 85.7685 2.67672 92.6231C1.49478 100.243 1.49478 107.758 2.67672 114.942C3.75436 121.463 6.13561 127.27 9.76831 132.152L10.6721 133.372H129.926L130.673 132.867C138.425 127.775 144.144 121.76 147.672 115.046C151.565 107.636 152.782 99.3536 151.322 90.4609C150.071 82.8063 147.429 75.2562 143.535 68.0201C139.946 61.4165 135.485 55.3286 130.273 49.9209C131.542 42.1791 130.847 31.5951 128.361 21.2029C127.145 16.1288 125.598 11.5953 123.894 8.108C121.774 3.76629 119.532 1.25543 117.029 0.418471C116.135 0.133538 115.203 -0.00770319 114.265 -6.79959e-06H114.248Z" fill="black"/>
<path d="M88.3321 117.244C86.8085 117.24 85.3159 116.812 84.0215 116.006C82.865 115.293 81.9004 114.307 81.2125 113.134C80.5245 111.96 80.1343 110.635 80.0759 109.275C80.0967 108.971 80.2284 108.686 80.4458 108.473C80.6633 108.26 80.9513 108.136 81.2547 108.123C81.558 108.11 81.8555 108.209 82.0902 108.403C82.3249 108.596 82.4803 108.869 82.5267 109.17C82.5677 110.129 82.8427 111.063 83.3276 111.89C83.8126 112.717 84.4925 113.411 85.3077 113.913C85.9604 114.318 86.687 114.588 87.4451 114.708C88.2032 114.828 88.9774 114.795 89.7226 114.611C90.4677 114.436 91.1703 114.113 91.7884 113.661C92.4066 113.209 92.9276 112.636 93.3205 111.978C93.7237 111.325 93.9941 110.598 94.1162 109.84C94.2383 109.082 94.2097 108.307 94.032 107.559C93.8543 106.812 93.531 106.108 93.0808 105.486C92.6305 104.865 92.0622 104.339 91.4086 103.939C91.2693 103.857 91.1479 103.747 91.0513 103.617C90.9547 103.487 90.885 103.339 90.8461 103.182C90.8073 103.024 90.8001 102.86 90.8251 102.7C90.85 102.54 90.9066 102.386 90.9914 102.248C91.0767 102.109 91.1885 101.989 91.3204 101.893C91.4523 101.798 91.6017 101.73 91.76 101.692C91.9183 101.655 92.0824 101.65 92.2428 101.676C92.4032 101.703 92.5568 101.761 92.6948 101.847C94.0899 102.708 95.1996 103.964 95.884 105.456C96.5683 106.949 96.7966 108.612 96.54 110.235C96.2834 111.857 95.5534 113.368 94.4422 114.575C93.331 115.782 91.8883 116.631 90.2962 117.017C89.6512 117.161 88.9929 117.237 88.3321 117.244Z" fill="black"/>
<path d="M74.3401 119.336C72.8523 119.34 71.3916 118.936 70.1164 118.168C69.0621 117.545 68.1591 116.694 67.4726 115.678C66.7861 114.662 66.3333 113.506 66.147 112.292C65.9607 111.079 66.0455 109.84 66.3953 108.664C66.7451 107.487 67.3512 106.404 68.1697 105.491C68.277 105.371 68.4068 105.273 68.5518 105.203C68.6968 105.133 68.854 105.093 69.0146 105.084C69.1752 105.075 69.336 105.098 69.4878 105.151C69.6395 105.205 69.7793 105.288 69.8991 105.395C70.019 105.503 70.1165 105.633 70.1862 105.779C70.2558 105.924 70.2962 106.082 70.3051 106.243C70.314 106.404 70.2912 106.565 70.2379 106.718C70.1846 106.87 70.102 107.01 69.9947 107.13C69.3619 107.847 68.9125 108.707 68.6853 109.636C68.4582 110.566 68.4602 111.537 68.6911 112.466C68.977 113.587 69.5873 114.598 70.4451 115.371C71.3029 116.145 72.3699 116.646 73.5113 116.812C74.6528 116.978 75.8177 116.801 76.8592 116.304C77.9006 115.807 78.7719 115.011 79.3633 114.018C79.7589 113.36 80.0182 112.628 80.1257 111.867C80.2332 111.106 80.1867 110.331 79.989 109.589C79.9144 109.272 79.9651 108.939 80.1305 108.66C80.2958 108.38 80.5629 108.175 80.8755 108.089C81.0319 108.048 81.195 108.037 81.3553 108.06C81.5156 108.082 81.6699 108.136 81.8091 108.219C81.9483 108.302 82.0696 108.412 82.166 108.542C82.2623 108.672 82.3318 108.821 82.3703 108.979C82.6443 110.035 82.7056 111.136 82.5504 112.217C82.3952 113.298 82.0267 114.337 81.4664 115.273C80.7407 116.52 79.6994 117.553 78.4479 118.266C77.1965 118.979 75.7794 119.349 74.3401 119.336Z" fill="black"/>
<path d="M97.1966 92.3789C94.6682 92.3657 92.2277 91.4465 90.3154 89.7872C88.4031 88.1278 87.1449 85.8375 86.7678 83.3294L85.7423 76.4071C85.7101 76.2111 85.7171 76.0107 85.7627 75.8175C85.8084 75.6243 85.8919 75.4421 86.0083 75.2815C86.1247 75.1209 86.2718 74.9851 86.441 74.882C86.6101 74.7789 86.798 74.7105 86.9937 74.6808C87.3901 74.6208 87.7941 74.7212 88.1168 74.9599C88.4395 75.1986 88.6544 75.556 88.7145 75.9537L89.74 82.8935C90.089 84.835 91.1783 86.5638 92.7769 87.7129C94.3755 88.8621 96.3576 89.3411 98.3024 89.0485C100.247 88.7558 102.002 87.7144 103.194 86.1454C104.386 84.5763 104.922 82.603 104.688 80.6441L103.662 73.7218C103.633 73.526 103.642 73.3263 103.689 73.134C103.736 72.9418 103.821 72.7607 103.938 72.6013C104.055 72.4418 104.202 72.307 104.371 72.2045C104.54 72.1021 104.727 72.0341 104.923 72.0043C105.118 71.9746 105.317 71.9836 105.508 72.0311C105.7 72.0785 105.881 72.1633 106.04 72.2807C106.199 72.3981 106.333 72.5457 106.435 72.7152C106.537 72.8847 106.605 73.0727 106.635 73.2685L107.678 80.1908C108.091 82.9745 107.386 85.809 105.717 88.0715C104.049 90.3339 101.553 91.8393 98.7783 92.2569C98.2543 92.3322 97.7259 92.373 97.1966 92.3789Z" fill="black"/>
<path d="M54.6991 30.8802C54.6991 30.8802 60.07 33.7398 59.7397 40.4877C59.4095 47.5321 54.7861 47.009 55.6551 54.8031C56.5242 62.5973 76.9994 77.4358 67.0225 100.068C57.2021 122.387 12.8796 116.529 4.91893 107.758C3.00699 84.1489 18.094 61.0629 18.094 61.0629C18.094 61.0629 36.4835 35.187 54.6991 30.8802Z" fill="#6678FF"/>
<path d="M56.8892 97.1914C54.3839 97.1906 51.9606 96.2955 50.053 94.6662C48.1455 93.0369 46.8781 90.7798 46.4778 88.2988L45.4349 81.3765C45.4002 81.1773 45.4055 80.9733 45.4506 80.7762C45.4956 80.5792 45.5794 80.3932 45.6972 80.2291C45.8149 80.065 45.9641 79.9262 46.136 79.8208C46.308 79.7154 46.4992 79.6456 46.6985 79.6154C46.8977 79.5852 47.101 79.5952 47.2963 79.6449C47.4916 79.6946 47.675 79.783 47.8358 79.9048C47.9966 80.0266 48.1315 80.1795 48.2326 80.3543C48.3337 80.5292 48.3989 80.7226 48.4245 80.9231L49.45 87.8454C49.8057 89.7787 50.8959 91.4979 52.4906 92.6406C54.0853 93.7833 56.0599 94.2602 57.9983 93.9708C59.9367 93.6814 61.6873 92.6482 62.8812 91.0892C64.075 89.5301 64.6188 87.567 64.3979 85.6136L63.3724 78.6912C63.3404 78.4963 63.3475 78.2969 63.3934 78.1048C63.4392 77.9127 63.5229 77.7317 63.6395 77.5725C63.7561 77.4133 63.9033 77.2791 64.0723 77.1778C64.2414 77.0764 64.4289 77.01 64.6239 76.9825C64.8205 76.9503 65.0215 76.958 65.2151 77.0049C65.4087 77.0518 65.591 77.137 65.7513 77.2556C65.9116 77.3742 66.0467 77.5237 66.1486 77.6954C66.2505 77.8671 66.3171 78.0574 66.3446 78.2553L67.3875 85.1951C67.7536 87.9312 67.0413 90.7027 65.4022 92.9202C63.763 95.1377 61.3262 96.6262 58.6099 97.0694C58.0402 97.1533 57.465 97.1941 56.8892 97.1914Z" fill="black"/>
<path d="M36.553 43.6089C36.553 43.6089 29.9133 34.3849 22.9086 29.555C15.9039 24.7251 10.5679 22.3886 7.63042 23.8009C3.92819 25.6143 3.71961 37.0876 5.85752 48.8573C7.99543 60.627 11.2979 66.1544 12.7927 69.2058C14.2875 72.2572 36.553 43.6089 36.553 43.6089Z" fill="#6678FF"/>
<path opacity="0.2" d="M108.894 35.3091C107.552 39.8589 104.493 43.7041 100.369 46.0269C96.2446 48.3497 91.3797 48.9669 86.8087 47.7472C82.2377 46.5276 78.3213 43.5674 75.8922 39.496C73.4631 35.4246 72.7129 30.5632 73.8013 25.9456C73.8013 25.9456 81.0145 19.1802 106.287 4.55095C131.42 -9.34599 129.456 49.1014 129.456 49.1014L108.894 35.3091Z" fill="black"/>
<path d="M95.7191 30.2176C95.7191 30.2176 98.0309 21.9875 103.054 15.1001C108.077 8.21262 112.301 4.20221 115.551 4.56838C119.636 5.03916 123.634 15.7975 125.511 27.6021C127.388 39.4066 126.137 45.7361 125.719 49.1014C123.512 45.4397 95.7191 30.2176 95.7191 30.2176Z" fill="#6678FF"/>
<path d="M130.621 133.372H10.1159L9.64665 132.745C6.10085 127.932 3.75436 122.248 2.6941 115.831C0.469287 102.265 2.45076 87.6711 8.46471 73.6346C14.2353 60.1562 23.5344 48.0203 34.6584 39.4241C34.8182 39.3004 35.0007 39.2096 35.1955 39.1567C35.3903 39.1038 35.5935 39.0899 35.7937 39.1158C35.9938 39.1417 36.1869 39.2069 36.3619 39.3077C36.5369 39.4084 36.6905 39.5428 36.8137 39.7031C36.937 39.8634 37.0275 40.0464 37.0803 40.2418C37.133 40.4372 37.1469 40.6412 37.121 40.8419C37.0952 41.0427 37.0302 41.2364 36.9298 41.412C36.8293 41.5876 36.6954 41.7416 36.5356 41.8652C14.131 59.1797 1.46002 89.3973 5.73584 115.325C6.67443 120.975 8.67329 125.997 11.6803 130.269H129.7C144.63 120.277 150.922 107.357 148.367 91.8559C143.952 65.1256 121.791 40.3134 94.4503 31.5253C94.0909 31.377 93.8003 31.0985 93.6363 30.745C93.4723 30.3916 93.4469 29.9891 93.5652 29.6178C93.6834 29.2464 93.9367 28.9333 94.2747 28.7408C94.6126 28.5482 95.0104 28.4903 95.3889 28.5785C108.929 32.9377 121.913 41.4467 131.977 52.5538C136.943 58.0133 141.163 64.1115 144.526 70.6879C147.862 77.1807 150.184 84.1496 151.409 91.3502C152.852 100.086 151.635 108.211 147.828 115.482C144.352 122.108 138.686 128.037 131.003 133.111L130.621 133.372Z" fill="black"/>
<path d="M12.8448 136.215C12.138 136.217 11.4378 136.079 10.7841 135.809C10.1305 135.54 9.53639 135.143 9.03582 134.643C8.53525 134.142 8.13808 133.547 7.86709 132.893C7.59609 132.238 7.45659 131.536 7.4566 130.827C7.4536 130.318 7.52983 129.812 7.68256 129.327C8.88187 125.195 11.6107 121.829 15.5737 119.65C19.1543 117.645 23.7603 116.581 28.8531 116.581C33.9458 116.581 38.5519 117.645 42.1498 119.632C46.1127 121.847 48.8416 125.195 50.0409 129.327C50.4329 130.703 50.2651 132.178 49.5744 133.43C48.8836 134.682 47.7263 135.608 46.3561 136.005C45.8699 136.144 45.3668 136.215 44.8613 136.215H12.8448Z" fill="#5959FF"/>
<path d="M28.8531 118.115C38.3259 118.115 46.2866 121.847 48.5983 129.763C48.8772 130.753 48.754 131.813 48.2556 132.711C47.7572 133.61 46.9242 134.274 45.9389 134.558C45.5892 134.663 45.2262 134.715 44.8613 134.715H12.8448C11.8168 134.715 10.831 134.305 10.1041 133.576C9.37716 132.847 8.9688 131.858 8.9688 130.827C8.96973 130.466 9.02241 130.108 9.12523 129.763C11.4196 121.847 19.3802 118.115 28.8531 118.115ZM28.8531 115.081C17.2076 115.081 8.74284 120.243 6.22254 128.909C5.71757 130.67 5.92991 132.561 6.81297 134.166C7.69604 135.771 9.1777 136.959 10.9329 137.47C11.5555 137.643 12.1987 137.731 12.8448 137.731H44.8613C45.7667 137.734 46.6636 137.557 47.5007 137.211C48.3378 136.865 49.0986 136.357 49.7396 135.715C50.3806 135.074 50.8891 134.312 51.2361 133.473C51.5831 132.634 51.7617 131.735 51.7617 130.827C51.7645 130.177 51.6708 129.531 51.4836 128.909C48.9807 120.243 40.516 115.081 28.8531 115.081Z" fill="black"/>
<path d="M36.3097 129.519C36.3097 129.519 37.3699 131.995 37.0049 134.105L36.3097 129.519Z" fill="#5959FF"/>
<path d="M37.0049 135.622H36.7616C36.368 135.553 36.0174 135.332 35.7862 135.005C35.555 134.678 35.462 134.273 35.5275 133.878C35.7535 132.518 35.1625 130.705 34.9191 130.129C34.7815 129.763 34.7904 129.357 34.9439 128.997C35.0974 128.638 35.3836 128.351 35.7427 128.198C36.1018 128.045 36.506 128.037 36.8708 128.176C37.2356 128.315 37.5328 128.59 37.7002 128.943C37.8218 129.24 38.9169 131.89 38.4997 134.366C38.4382 134.719 38.2544 135.038 37.9809 135.268C37.7074 135.498 37.3617 135.623 37.0049 135.622Z" fill="black"/>
<path d="M23.3432 129.519C23.3432 129.519 21.7441 132.675 22.2308 134.715L23.3432 129.519Z" fill="#5959FF"/>
<path d="M22.2308 136.214C21.8929 136.219 21.5637 136.107 21.298 135.898C21.0323 135.689 20.8462 135.394 20.7707 135.064C20.1624 132.57 21.8136 129.205 22.0048 128.839C22.1846 128.483 22.498 128.213 22.8761 128.089C23.2542 127.964 23.6661 127.996 24.021 128.176C24.376 128.357 24.645 128.671 24.7689 129.05C24.8927 129.43 24.8613 129.843 24.6815 130.199C24.1253 131.315 23.4474 133.337 23.6908 134.349C23.7399 134.542 23.7499 134.744 23.7203 134.941C23.6908 135.139 23.6221 135.328 23.5185 135.499C23.4149 135.67 23.2784 135.818 23.1169 135.934C22.9555 136.051 22.7724 136.135 22.5784 136.18C22.4649 136.208 22.3477 136.22 22.2308 136.214Z" fill="black"/>
<path d="M96.1449 66.6596C100.14 66.2878 103.18 63.8331 102.935 61.177C102.689 58.521 99.2509 56.6692 95.2555 57.041C91.26 57.4128 88.2202 59.8674 88.4658 62.5235C88.7115 65.1796 92.1495 67.0314 96.1449 66.6596Z" fill="#6678FF"/>
<path d="M52.7842 73.1623C56.7567 72.478 59.6105 69.7824 59.1585 67.1416C58.7065 64.5008 55.1197 62.9147 51.1473 63.599C47.1748 64.2833 44.3209 66.9789 44.773 69.6197C45.225 72.2605 48.8118 73.8466 52.7842 73.1623Z" fill="#5959FF"/>
<path opacity="0.2" d="M134.984 58.3253C134.984 58.3253 130.916 65.3697 127.04 68.2119C123.164 71.054 115.986 71.6992 115.882 74.489C115.777 77.2789 128.327 82.4575 142.44 69.537L134.984 58.3253Z" fill="black"/>
<path opacity="0.2" d="M143.136 70.5832C143.136 70.5832 137.852 76.7732 133.524 78.8482C129.196 80.9231 122.017 80.2431 121.409 82.9632C120.8 85.6833 132.185 93.0764 148.419 82.9806L143.136 70.5832Z" fill="black"/>
<path d="M80.4757 97.8017C80.4324 97.9195 80.3589 98.0237 80.2627 98.1039C80.1665 98.1841 80.0509 98.2375 79.9276 98.2588C79.8042 98.28 79.6775 98.2682 79.5602 98.2247C79.4428 98.1812 79.3389 98.1075 79.259 98.011C77.9901 96.5637 75.8001 96.0232 74.062 96.7904C71.8719 97.7494 70.7595 100.452 71.5938 102.858C72.4281 105.265 78.9809 109.972 81.2926 109.24C83.7955 108.891 88.6102 102.51 88.8535 100.068C89.0968 97.6274 87.4108 95.2386 85.0817 95.0119C83.2393 94.8201 81.3274 96.0232 80.4757 97.8017Z" fill="black"/>
<path opacity="0.1" d="M127.77 51.1414C127.84 51.3158 145.482 90.1645 127.701 114.419C122.156 121.986 113.153 127.113 103.367 130.565H129.752C143.761 121.324 151.913 108.368 149.08 91.1758C146.612 76.2152 138.721 62.1788 127.77 51.1414Z" fill="black"/>
<path d="M110.302 136.215C109.596 136.217 108.897 136.079 108.244 135.809C107.591 135.539 106.998 135.142 106.499 134.642C106 134.141 105.605 133.546 105.335 132.891C105.066 132.236 104.929 131.535 104.931 130.827C104.931 130.319 105.001 129.815 105.14 129.327C106.339 125.195 109.068 121.829 113.031 119.65C116.612 117.645 121.218 116.581 126.328 116.581C131.438 116.581 136.027 117.645 139.607 119.632C143.57 121.847 146.299 125.195 147.498 129.327C147.695 130.007 147.756 130.719 147.678 131.423C147.601 132.127 147.385 132.809 147.044 133.429C146.704 134.049 146.245 134.596 145.693 135.038C145.142 135.48 144.509 135.809 143.831 136.005C143.345 136.144 142.842 136.215 142.336 136.215H110.302Z" fill="#5959FF"/>
<path d="M126.328 118.115C135.801 118.115 143.761 121.847 146.056 129.763C146.196 130.253 146.239 130.766 146.181 131.273C146.123 131.779 145.966 132.269 145.719 132.715C145.472 133.16 145.14 133.553 144.741 133.869C144.342 134.185 143.885 134.419 143.396 134.558C143.052 134.662 142.695 134.715 142.336 134.715H110.302C109.276 134.71 108.292 134.299 107.566 133.571C106.84 132.843 106.431 131.856 106.426 130.827C106.427 130.466 106.48 130.108 106.583 129.763C108.877 121.847 116.838 118.115 126.31 118.115H126.328ZM126.31 115.081C114.665 115.081 106.2 120.243 103.68 128.909C103.18 130.67 103.394 132.559 104.277 134.163C105.159 135.767 106.638 136.955 108.39 137.47C109.013 137.643 109.656 137.731 110.302 137.731H142.336C144.161 137.731 145.912 137.004 147.203 135.709C148.494 134.414 149.219 132.658 149.219 130.827C149.219 130.178 149.131 129.533 148.958 128.909C146.438 120.243 137.973 115.081 126.328 115.081H126.31Z" fill="black"/>
<path d="M133.767 129.519C133.767 129.519 134.827 131.995 134.462 134.105L133.767 129.519Z" fill="#5959FF"/>
<path d="M134.462 135.622H134.201C133.808 135.553 133.457 135.332 133.226 135.005C132.995 134.678 132.902 134.273 132.967 133.878C133.211 132.518 132.62 130.705 132.376 130.129C132.239 129.763 132.248 129.357 132.401 128.997C132.555 128.638 132.841 128.351 133.2 128.198C133.559 128.045 133.963 128.037 134.328 128.176C134.693 128.315 134.99 128.59 135.157 128.943C135.279 129.24 136.374 131.89 135.957 134.384C135.889 134.731 135.703 135.045 135.43 135.271C135.158 135.496 134.816 135.62 134.462 135.622Z" fill="black"/>
<path d="M120.8 129.519C120.8 129.519 119.201 132.675 119.688 134.715L120.8 129.519Z" fill="#5959FF"/>
<path d="M119.688 136.214C119.35 136.219 119.021 136.107 118.755 135.898C118.49 135.688 118.303 135.394 118.228 135.064C117.62 132.57 119.271 129.205 119.462 128.839C119.551 128.662 119.673 128.504 119.822 128.375C119.972 128.246 120.145 128.148 120.333 128.086C120.52 128.025 120.718 128.001 120.914 128.016C121.111 128.032 121.303 128.086 121.478 128.176C121.656 128.263 121.815 128.385 121.945 128.534C122.076 128.684 122.175 128.857 122.239 129.045C122.302 129.234 122.327 129.432 122.313 129.63C122.298 129.828 122.245 130.022 122.156 130.199C121.583 131.315 120.922 133.337 121.165 134.349C121.26 134.74 121.195 135.152 120.987 135.495C120.778 135.838 120.442 136.085 120.053 136.18C119.934 136.208 119.811 136.22 119.688 136.214Z" fill="black"/>
</g>
<defs>
<clipPath id="clip0_751_27558">
<rect width="152" height="138" fill="white"/>
</clipPath>
</defs>
</svg>
