<svg width="31" height="34" viewBox="0 0 31 34" fill="none" xmlns="http://www.w3.org/2000/svg">
<g clip-path="url(#clip0_801_25646)">
<path d="M2.92415 34C2.73376 34.0001 2.54415 33.9759 2.35995 33.9278C2.18946 33.8844 2.02849 33.8098 1.88519 33.7079L1.86799 33.6941L1.84735 33.6804C1.69007 33.5501 1.57412 33.377 1.51365 33.182C1.46913 33.0592 1.44136 32.9308 1.43108 32.8006V32.7799C1.42764 32.7043 1.4242 32.5978 1.4242 32.4534V26.6968C1.4225 26.5545 1.42939 26.4122 1.44484 26.2707V26.2294C1.47253 26.0611 1.53083 25.8992 1.61686 25.7517C1.75737 25.5041 1.98963 25.3214 2.26362 25.2431C2.45283 25.1847 2.68333 25.1572 2.96199 25.1572C3.16859 25.1502 3.37505 25.1745 3.57435 25.2293C3.74334 25.2722 3.90307 25.3456 4.04566 25.4459L4.0835 25.4734C4.24176 25.6034 4.35887 25.7765 4.42065 25.9717C4.46247 26.0963 4.48904 26.2256 4.49977 26.3566V26.3738C4.50665 26.4528 4.50665 26.5594 4.50665 26.7003V31.2162H6.69808C6.82801 31.2129 6.95799 31.2198 7.08683 31.2368L7.12467 31.2437C7.26233 31.2691 7.39558 31.3142 7.5203 31.3777C7.63738 31.4395 7.74073 31.5244 7.8241 31.6271C7.90746 31.7299 7.96913 31.8485 8.00537 31.9757L8.01225 31.9998C8.10853 32.395 8.10853 32.8075 8.01225 33.2027C7.97815 33.3335 7.91749 33.4559 7.83405 33.5623C7.7506 33.6687 7.64615 33.7569 7.52718 33.8213C7.39601 33.8959 7.25281 33.9471 7.10403 33.9725L7.06963 33.9794C6.9428 33.9931 6.81533 34 6.68776 34H2.92415ZM2.67989 32.7215C2.76783 32.7422 2.85788 32.7525 2.94823 32.7524H6.83569C6.84027 32.7114 6.84142 32.67 6.83913 32.6287V32.5909C6.84147 32.5508 6.84032 32.5105 6.83569 32.4706H3.26129V26.7003C3.26129 26.5662 3.26129 26.4906 3.25785 26.4494C3.25806 26.4435 3.25689 26.4376 3.25441 26.4322C3.16658 26.4112 3.07634 26.402 2.98607 26.4047H2.97231C2.87555 26.4027 2.77881 26.4096 2.68333 26.4253C2.67645 26.5078 2.67301 26.5972 2.67301 26.6831V32.4534C2.67301 32.5875 2.67645 32.6631 2.67645 32.7043C2.67645 32.7456 2.67989 32.7146 2.67989 32.7215Z" fill="black"/>
<path d="M9.00993 34C8.82068 34.0002 8.6322 33.9759 8.44917 33.9278C8.27868 33.8844 8.11771 33.8099 7.97442 33.7079L7.95378 33.6941L7.93658 33.6804C7.77823 33.5511 7.66205 33.3776 7.60287 33.1821C7.55867 33.0591 7.53091 32.9308 7.52031 32.8006V32.78C7.51343 32.7043 7.51343 32.5944 7.51343 32.4535V26.6934C7.51343 26.1607 7.63728 25.7792 7.89529 25.5249C8.15331 25.2706 8.54206 25.1538 9.08217 25.1538H13.1623C13.3048 25.1521 13.4472 25.1589 13.5889 25.1744H13.6302C13.7983 25.2036 13.9601 25.2617 14.1084 25.3462C14.357 25.4857 14.5401 25.7181 14.6175 25.9923C14.676 26.1848 14.7035 26.4116 14.7035 26.69C14.71 26.895 14.6868 27.0999 14.6347 27.2983C14.5913 27.4686 14.5166 27.6294 14.4145 27.7726L14.4008 27.7932L14.3836 27.8104C14.2541 27.9676 14.0821 28.0845 13.8882 28.1472C13.7645 28.1886 13.6363 28.2151 13.5063 28.2262H13.4891C13.4134 28.2331 13.3137 28.2331 13.1589 28.2331H12.98C13.2233 28.3747 13.4021 28.6051 13.4788 28.8758C13.5373 29.0648 13.5648 29.2916 13.5648 29.57C13.5701 29.7763 13.5457 29.9823 13.4926 30.1818C13.4497 30.3517 13.3762 30.5124 13.2758 30.656L13.2586 30.6766L13.2449 30.6938C13.1729 30.7796 13.0882 30.8538 12.9937 30.9138H13.1623C13.3047 30.9109 13.4472 30.9167 13.5889 30.931L13.6302 30.9378C13.7981 30.9659 13.9599 31.0228 14.1084 31.1062C14.3572 31.2471 14.5403 31.4806 14.6175 31.7558C14.676 31.9448 14.7035 32.1716 14.7035 32.45C14.71 32.6562 14.6868 32.8622 14.6347 33.0618C14.5913 33.231 14.5166 33.3907 14.4145 33.5326L14.4008 33.5532L14.387 33.5704C14.2568 33.7285 14.0836 33.8455 13.8882 33.9072C13.7645 33.9486 13.6363 33.9752 13.5063 33.9863H13.4891L13.1589 33.9931H9.00993V34ZM8.76911 32.7215C8.8559 32.7422 8.9448 32.7526 9.03401 32.7525H13.4272C13.4477 32.6646 13.458 32.5746 13.4582 32.4844V32.4672C13.4619 32.3705 13.4549 32.2737 13.4375 32.1785C13.3529 32.1711 13.2679 32.1688 13.1829 32.1716H9.35051V29.8724H12.261L12.2885 29.8656C12.3097 29.779 12.319 29.69 12.316 29.6009V29.5872C12.3181 29.4905 12.3112 29.3939 12.2954 29.2985C12.2098 29.2882 12.1235 29.2848 12.0373 29.2882H9.35051V26.989H13.4272C13.4479 26.9023 13.4582 26.8135 13.4582 26.7244V26.7072C13.4621 26.6105 13.4551 26.5136 13.4375 26.4185C13.3549 26.4116 13.2655 26.4082 13.1829 26.4082H9.07185C8.97588 26.4049 8.8799 26.4142 8.78631 26.4357C8.76836 26.5227 8.76028 26.6115 8.76223 26.7003V32.4535C8.76223 32.5875 8.76223 32.6631 8.76567 32.7043C8.76546 32.7103 8.76664 32.7162 8.76911 32.7215Z" fill="black"/>
<path d="M20.4762 33.9966H20.4728C20.1081 33.9966 19.8639 33.9656 19.6815 33.89C19.4725 33.8084 19.2902 33.6704 19.1552 33.4913L17.208 30.9035V32.4569C17.2097 32.6015 17.2028 32.7461 17.1874 32.8899L17.1805 32.9346C17.1524 33.0991 17.0953 33.2574 17.0119 33.402C16.8705 33.6489 16.6386 33.8313 16.3651 33.9106C16.1725 33.9691 15.942 33.9966 15.6633 33.9966H15.6599C15.3812 33.9966 15.1542 33.9691 14.965 33.9072C14.6934 33.8276 14.4637 33.6451 14.3251 33.3986C14.2401 33.2473 14.183 33.082 14.1565 32.9105V32.8796C14.1393 32.7359 14.1324 32.5912 14.1359 32.4466V26.6762C14.133 26.5268 14.1422 26.3774 14.1634 26.2294L14.1703 26.1882C14.202 26.0365 14.2565 25.8905 14.332 25.7552C14.4248 25.5868 14.6106 25.3668 14.9684 25.2568C15.198 25.193 15.4354 25.1618 15.6736 25.164C15.8918 25.1613 16.1093 25.1879 16.3204 25.2431L16.3411 25.25C16.5612 25.3187 16.716 25.4046 16.8364 25.518L16.8468 25.5283C16.933 25.6111 17.0124 25.7008 17.0841 25.7964L17.1495 25.8755C17.8616 26.8446 18.4637 27.6557 18.9453 28.3053V26.6762C18.9425 26.5268 18.9517 26.3774 18.9728 26.2294L18.9797 26.1882C19.0114 26.0365 19.066 25.8905 19.1414 25.7552C19.2343 25.5868 19.4201 25.3668 19.7813 25.2568C19.9705 25.1984 20.2044 25.1675 20.4865 25.164C20.6896 25.1605 20.8921 25.1847 21.0886 25.2362C21.2635 25.2778 21.4284 25.3537 21.5736 25.4596L21.5977 25.4802L21.6184 25.4974C21.7648 25.6283 21.874 25.7954 21.9349 25.982C21.9767 26.1055 22.0033 26.2336 22.014 26.3635V26.3841C22.0174 26.4631 22.0209 26.5731 22.0209 26.714V32.4569C22.0209 32.6012 22.014 32.7456 22.0002 32.8899L21.9934 32.9346C21.9653 33.0991 21.9082 33.2574 21.8248 33.402C21.6834 33.6489 21.4515 33.8313 21.178 33.9106C20.9854 33.9691 20.7549 33.9966 20.4762 33.9966ZM20.146 32.7318C20.2544 32.7446 20.3636 32.7503 20.4728 32.749C20.5695 32.7511 20.6663 32.7442 20.7618 32.7284C20.7686 32.6425 20.7721 32.5565 20.7721 32.4741V26.714C20.7721 26.5766 20.7686 26.5009 20.7686 26.4631C20.7659 26.4566 20.7647 26.4496 20.7652 26.4425C20.6795 26.4221 20.5918 26.4117 20.5037 26.4116H20.4969C20.3978 26.412 20.2989 26.4201 20.201 26.4356C20.1941 26.5078 20.1907 26.58 20.1907 26.6556V32.0032L19.0726 30.5529C18.5806 29.9171 17.5967 28.5974 16.1484 26.6281L16.0968 26.5594L16.0074 26.4563L15.9729 26.446C15.8831 26.4225 15.7906 26.4109 15.6977 26.4116H15.684C15.586 26.4121 15.4883 26.4202 15.3915 26.4356C15.3829 26.5086 15.3794 26.5821 15.3812 26.6556V32.4603C15.3812 32.5497 15.3847 32.639 15.3915 32.7284C15.4805 32.7405 15.5701 32.7462 15.6599 32.7456H15.6633C15.7589 32.7477 15.8546 32.7408 15.9489 32.7249C15.9557 32.639 15.9592 32.5531 15.9592 32.4706V27.2227L17.0773 28.673C17.5658 29.3054 18.5978 30.6698 20.146 32.7318Z" fill="black"/>
<path d="M23.0875 33.9862C22.8758 33.9869 22.665 33.9579 22.4613 33.9003H22.4407C22.0932 33.7903 21.9075 33.5807 21.8146 33.4226C21.7191 33.2697 21.6559 33.099 21.6288 32.9208V32.9002C21.6104 32.7474 21.6024 32.5936 21.6047 32.4397V26.6865C21.6019 26.542 21.6076 26.3974 21.6219 26.2535V26.2054C21.6518 26.0419 21.71 25.8849 21.7939 25.7414C21.8626 25.6181 21.9552 25.5096 22.0662 25.4223C22.1772 25.3349 22.3045 25.2705 22.4407 25.2328C22.6678 25.1685 22.9031 25.1384 23.1391 25.1434H23.1459L24.1023 25.1503H25.0622C26.2249 25.1503 27.2605 25.573 28.1377 26.4047C29.015 27.2364 29.4725 28.2949 29.4725 29.5253C29.4725 30.7557 29.0356 31.797 28.179 32.67C27.3224 33.5429 26.2594 33.9828 25.0312 33.9828H23.0875V33.9862ZM22.8604 32.7146C22.9449 32.7345 23.0317 32.7426 23.1184 32.7387H25.0346C25.9256 32.7387 26.6653 32.4294 27.2914 31.797C27.9175 31.1646 28.2272 30.4154 28.2272 29.5287C28.2272 28.6421 27.9175 27.9169 27.2811 27.312C26.6447 26.7072 25.9084 26.4013 25.0656 26.4013H24.0954L23.1459 26.3944C23.0492 26.3925 22.9525 26.3994 22.857 26.415C22.8495 26.5007 22.8472 26.5868 22.8501 26.6728V32.45C22.8483 32.5383 22.8517 32.6267 22.8604 32.7146ZM25.0656 32.1544H23.4349V26.989H25.0553C25.7468 26.989 26.3557 27.2364 26.8648 27.7279C27.374 28.2193 27.6389 28.8448 27.6389 29.57C27.6389 30.2951 27.3705 30.9447 26.8373 31.4362C26.3041 31.9276 25.7227 32.1544 25.0656 32.1544ZM24.6837 30.9069H25.0656C25.4027 30.9069 25.7055 30.7797 25.991 30.5185C26.2766 30.2573 26.3901 29.9652 26.3901 29.57C26.3901 29.1748 26.2662 28.8861 25.9979 28.6249C25.7296 28.3637 25.4234 28.2365 25.0553 28.2365H24.6837V30.9069Z" fill="black"/>
<path d="M3.88743 31.8383H6.70842C6.81075 31.8372 6.91304 31.843 7.01461 31.8554C7.09175 31.8699 7.16608 31.8966 7.23478 31.9345C7.32079 31.9757 7.37927 32.0513 7.41367 32.1613C7.45156 32.3071 7.46892 32.4575 7.46528 32.6081C7.46873 32.7553 7.45136 32.9022 7.41367 33.0446C7.40055 33.0933 7.37762 33.1389 7.34627 33.1785C7.31491 33.2181 7.27581 33.2509 7.23134 33.2748C7.15837 33.3156 7.07942 33.3446 6.9974 33.3607C6.89807 33.3722 6.79807 33.3768 6.6981 33.3745H2.96201C2.81128 33.3777 2.66081 33.3604 2.51478 33.3229C2.41838 33.2988 2.32736 33.2569 2.24644 33.1992C2.17967 33.1434 2.13065 33.0694 2.10539 32.9861C2.07806 32.9096 2.06072 32.8299 2.05379 32.749C2.05035 32.6837 2.05035 32.584 2.05035 32.4534V26.69C2.04813 26.5707 2.05272 26.4513 2.06411 26.3325C2.08178 26.236 2.1155 26.143 2.16387 26.0576C2.19335 26.0046 2.23322 25.9582 2.2811 25.921C2.32898 25.8837 2.38389 25.8566 2.44253 25.8411C2.57326 25.7998 2.75216 25.7792 2.97233 25.7792C3.12308 25.7756 3.2736 25.7929 3.41956 25.8308C3.51568 25.8557 3.60655 25.8976 3.6879 25.9545C3.75562 26.0094 3.80485 26.0838 3.82895 26.1676C3.85592 26.2442 3.87326 26.3238 3.88055 26.4047C3.88399 26.4735 3.88743 26.5697 3.88743 26.7003V31.8383Z" fill="#8D9EFF"/>
<path d="M9.97319 31.5393H13.1692C13.2887 31.5382 13.4081 31.5439 13.527 31.5564C13.6238 31.5714 13.7171 31.604 13.8022 31.6527C13.8553 31.6828 13.9019 31.7233 13.9391 31.7717C13.9763 31.8201 14.0034 31.8754 14.0189 31.9345C14.0602 32.0651 14.0808 32.2404 14.0808 32.4603C14.0845 32.6109 14.0671 32.7613 14.0292 32.9071C14.0037 33.004 13.9618 33.0958 13.9054 33.1786C13.8492 33.2442 13.7751 33.292 13.6921 33.3161C13.6156 33.3445 13.5359 33.363 13.4547 33.3711H9.05121C8.90047 33.3745 8.74998 33.3571 8.60398 33.3195C8.50732 33.2961 8.41617 33.2541 8.33564 33.1958C8.26792 33.1408 8.21869 33.0665 8.19459 32.9827C8.16726 32.9062 8.14992 32.8265 8.14299 32.7456C8.13955 32.6803 8.13611 32.5806 8.13611 32.45V26.69C8.13611 26.3394 8.20491 26.0988 8.33564 25.9683C8.46637 25.8377 8.71407 25.7758 9.08217 25.7792H13.1692C13.2886 25.777 13.4081 25.7816 13.527 25.793C13.6236 25.8106 13.7166 25.8443 13.8022 25.8926C13.8552 25.9221 13.9017 25.9619 13.939 26.0097C13.9762 26.0576 14.0034 26.1124 14.0189 26.171C14.0602 26.3051 14.0808 26.4803 14.0808 26.7003C14.0845 26.8509 14.0671 27.0013 14.0292 27.1471C14.0058 27.2436 13.9637 27.3347 13.9054 27.4151C13.8504 27.4828 13.7759 27.532 13.6921 27.556C13.6155 27.5833 13.5357 27.6007 13.4547 27.6076L13.1589 27.6145H9.97319V28.6592H12.027C12.1465 28.658 12.266 28.6638 12.3848 28.6764C12.482 28.6902 12.5755 28.7229 12.66 28.7727C12.7135 28.8028 12.7606 28.8432 12.7984 28.8915C12.8362 28.9399 12.864 28.9953 12.8802 29.0545C12.9215 29.1851 12.9421 29.3603 12.9421 29.5837C12.9454 29.7343 12.928 29.8846 12.8905 30.0305C12.8652 30.127 12.822 30.2179 12.7632 30.2986C12.708 30.3653 12.6335 30.4133 12.5499 30.4361C12.4711 30.4645 12.3891 30.483 12.3057 30.491H9.97319V31.5393Z" fill="#8D9EFF"/>
<path d="M20.4935 25.7895C20.6419 25.7861 20.7902 25.8034 20.9338 25.8411C21.0305 25.8645 21.1216 25.9065 21.2022 25.9648C21.2663 26.0216 21.3128 26.0956 21.3363 26.1779C21.3648 26.2543 21.3833 26.334 21.3914 26.415C21.3948 26.4838 21.3948 26.58 21.3948 26.7106V32.4603C21.3972 32.5819 21.3926 32.7035 21.3811 32.8246C21.3633 32.919 21.3296 33.0097 21.2813 33.0927C21.2519 33.146 21.212 33.193 21.1642 33.2308C21.1163 33.2685 21.0614 33.2964 21.0026 33.3126C20.8685 33.3539 20.693 33.3745 20.4728 33.3745C20.2527 33.3745 20.0153 33.3539 19.9121 33.3126C19.8091 33.2716 19.7197 33.2026 19.6541 33.1133C18.0968 31.0421 17.0727 29.6891 16.5819 29.0545V32.4603C16.5843 32.5819 16.5797 32.7035 16.5682 32.8246C16.5505 32.919 16.5167 33.0097 16.4684 33.0927C16.439 33.146 16.3992 33.193 16.3513 33.2308C16.3035 33.2685 16.2485 33.2964 16.1897 33.3126C16.0556 33.3539 15.8801 33.3745 15.6599 33.3745C15.4398 33.3745 15.2746 33.3539 15.1474 33.3126C15.0302 33.2783 14.9314 33.1993 14.8721 33.0927C14.8217 33.0069 14.7879 32.9125 14.7724 32.8143C14.7597 32.6933 14.7539 32.5717 14.7552 32.45V26.6693C14.7546 26.5521 14.7627 26.4349 14.7792 26.3188C14.7974 26.2272 14.8299 26.1391 14.8756 26.0576C14.9272 25.9614 15.0201 25.8926 15.1508 25.8514C15.2815 25.8102 15.4604 25.7895 15.6806 25.7895C15.8395 25.7855 15.9982 25.804 16.1519 25.8445C16.2723 25.8823 16.3583 25.9236 16.4065 25.9717C16.472 26.0383 16.534 26.1083 16.5922 26.1813L16.6439 26.2432C18.1025 28.2251 19.0772 29.5345 19.5681 30.1714V26.6693C19.5646 26.5521 19.5715 26.4348 19.5887 26.3188C19.6068 26.2272 19.6393 26.1391 19.685 26.0576C19.7366 25.9614 19.8295 25.8926 19.9602 25.8514C20.091 25.8102 20.2699 25.7895 20.4935 25.7895Z" fill="#8D9EFF"/>
<path d="M28.8498 29.5288C28.8498 30.5804 28.4782 31.482 27.7352 32.2335C26.9921 32.985 26.0919 33.3619 25.0346 33.3642H23.1356C22.9649 33.3678 22.7946 33.3469 22.6298 33.3023C22.4957 33.2611 22.4028 33.1924 22.3477 33.0996C22.2962 33.0128 22.2612 32.9172 22.2445 32.8177C22.2307 32.6922 22.2238 32.566 22.2239 32.4397V26.6797C22.2228 26.5591 22.2285 26.4387 22.2411 26.3188C22.257 26.2234 22.2896 26.1315 22.3374 26.0473C22.3676 25.9942 22.4081 25.9477 22.4565 25.9105C22.505 25.8733 22.5604 25.8462 22.6195 25.8308C22.7503 25.7895 22.9257 25.7689 23.1493 25.7689H24.1023L25.0655 25.7758C26.0666 25.7758 26.9508 26.1367 27.7111 26.8584C28.4714 27.5801 28.8498 28.4737 28.8498 29.5288ZM27.0161 29.57C27.0161 29.0201 26.82 28.5527 26.4313 28.1781C26.0426 27.8035 25.5816 27.611 25.0552 27.611H24.061V31.529H25.0655C25.5644 31.529 26.0116 31.3468 26.4141 30.9756C26.8166 30.6045 27.0161 30.1371 27.0161 29.57Z" fill="#8D9EFF"/>
<path d="M2.26367 25.9889L2.17422 25.8686C1.48617 24.9441 1.03206 23.8443 0.825649 22.6037C0.595153 21.2186 0.595153 19.7718 0.825649 18.3008C1.04214 16.9207 1.44126 15.5755 2.01253 14.3004L1.95749 14.2248V14.2111C1.16967 12.8879 0.577952 10.7812 0.374978 8.57475C0.295852 7.73961 0.11696 4.95583 1.06302 4.23754C1.36577 4.00728 1.82676 3.89386 2.46664 3.89386C4.84728 3.89386 9.23358 5.51946 10.3517 5.95249C11.1459 5.63649 11.9717 5.40607 12.8149 5.26514C13.4289 5.16276 14.0501 5.10989 14.6726 5.10705C15.0029 4.8321 16.2551 3.78732 17.6931 2.75973C19.9671 1.12726 21.6253 0.295563 22.6161 0.295563C22.7689 0.29603 22.9208 0.319195 23.0668 0.364298C24.1917 0.742343 24.9211 3.43334 25.1137 4.24785C25.616 6.3271 25.7433 8.43728 25.4646 9.93571C27.7008 12.2212 29.1869 15.0359 29.6548 17.8747C29.9369 19.5655 29.703 21.1327 28.9633 22.5349C28.289 23.8168 27.1916 24.9613 25.702 25.9408L25.6263 25.9889H2.26367Z" fill="#5959FF"/>
<path d="M22.6161 0.597996C22.7375 0.59458 22.8585 0.612018 22.9739 0.649548C24.35 1.11008 25.8156 6.84949 25.1413 10.0354C27.3086 12.2143 28.8705 14.9775 29.359 17.9262C29.9198 21.3149 28.3097 23.8718 25.5335 25.6933H2.41164C1.77175 24.8307 1.32452 23.7928 1.12155 22.5555C0.663999 19.7889 1.16627 16.8711 2.36348 14.2454C2.30548 14.1904 2.25358 14.1294 2.20866 14.0633C0.543591 11.2589 0.0825999 5.35449 1.23508 4.47811C1.49998 4.27534 1.92657 4.19286 2.4598 4.19286C4.86453 4.19286 9.38499 5.8975 10.3448 6.27211C11.7382 5.69399 13.2327 5.39843 14.7414 5.40261H14.7758C14.7758 5.40261 20.3834 0.59456 22.6127 0.59456L22.6161 0.597996ZM22.6127 -2.22477e-06C21.5462 -2.22477e-06 19.8777 0.821387 17.5108 2.51572C16.1451 3.49176 14.9788 4.45406 14.5557 4.80804C13.1129 4.82627 11.6852 5.10453 10.3414 5.62943C9.71526 5.38886 8.49053 4.93864 7.11788 4.51935C5.10534 3.90761 3.54004 3.59486 2.4598 3.59486C1.75111 3.59486 1.23164 3.7289 0.873854 4.0004C0.457585 4.32002 0.196128 4.92833 0.0722791 5.87344C-0.0240475 6.63297 -0.0274877 7.57465 0.0688388 8.60224C0.275253 10.8293 0.873854 12.9669 1.67199 14.3313C1.1276 15.5864 0.743849 16.9051 0.52983 18.2561C0.295894 19.758 0.295894 21.2393 0.52983 22.6552C0.743125 23.9406 1.21444 25.085 1.93345 26.0473L2.11234 26.2879H25.7158L25.8637 26.1882C27.3981 25.1847 28.5299 23.999 29.2283 22.6758C29.9989 21.2152 30.2397 19.5827 29.9507 17.83C29.703 16.3212 29.1801 14.8331 28.4095 13.4069C27.699 12.1053 26.8161 10.9053 25.7846 9.83948C26.0357 8.31355 25.8981 6.22743 25.4062 4.17911C25.1653 3.17901 24.8592 2.28545 24.522 1.5981C24.1023 0.742341 23.6585 0.247445 23.1631 0.0824803C22.9863 0.0263196 22.8017 -0.0015192 22.6161 -2.22477e-06H22.6127Z" fill="black"/>
<path d="M17.4832 23.1089C17.1817 23.1083 16.8862 23.0238 16.6301 22.8649C16.4011 22.7245 16.2102 22.5301 16.0741 22.2988C15.9379 22.0675 15.8607 21.8063 15.8491 21.5383C15.8532 21.4784 15.8793 21.4221 15.9223 21.3802C15.9654 21.3383 16.0224 21.3137 16.0824 21.3111C16.1425 21.3086 16.2013 21.3282 16.2478 21.3663C16.2942 21.4044 16.325 21.4583 16.3342 21.5176C16.3423 21.7066 16.3967 21.8906 16.4927 22.0536C16.5887 22.2166 16.7233 22.3536 16.8846 22.4524C17.0138 22.5323 17.1576 22.5855 17.3077 22.6091C17.4577 22.6327 17.611 22.6262 17.7585 22.5899C17.9059 22.5556 18.045 22.4919 18.1673 22.4028C18.2897 22.3136 18.3928 22.2008 18.4706 22.071C18.5504 21.9423 18.6039 21.7991 18.6281 21.6496C18.6522 21.5001 18.6466 21.3474 18.6114 21.2001C18.5762 21.0529 18.5122 20.914 18.4231 20.7915C18.334 20.6691 18.2215 20.5655 18.0922 20.4866C18.0646 20.4704 18.0406 20.4488 18.0214 20.4231C18.0023 20.3975 17.9885 20.3683 17.9808 20.3372C17.9731 20.3062 17.9717 20.2739 17.9767 20.2423C17.9816 20.2108 17.9928 20.1805 18.0096 20.1532C18.0265 20.1259 18.0486 20.1021 18.0747 20.0833C18.1008 20.0645 18.1304 20.0511 18.1617 20.0437C18.193 20.0364 18.2255 20.0353 18.2573 20.0405C18.289 20.0457 18.3194 20.0572 18.3467 20.0742C18.6229 20.2439 18.8425 20.4914 18.978 20.7856C19.1134 21.0799 19.1586 21.4076 19.1078 21.7274C19.057 22.0473 18.9125 22.3449 18.6926 22.5828C18.4727 22.8207 18.1871 22.9882 17.872 23.0642C17.7443 23.0926 17.614 23.1076 17.4832 23.1089Z" fill="black"/>
<path d="M14.7139 23.5213C14.4195 23.5222 14.1304 23.4426 13.878 23.291C13.6693 23.1682 13.4905 23.0006 13.3547 22.8004C13.2188 22.6001 13.1292 22.3721 13.0923 22.133C13.0554 21.8939 13.0722 21.6496 13.1414 21.4177C13.2107 21.1859 13.3306 20.9723 13.4926 20.7925C13.5139 20.7688 13.5396 20.7495 13.5683 20.7357C13.597 20.722 13.6281 20.714 13.6599 20.7122C13.6917 20.7105 13.7235 20.715 13.7535 20.7255C13.7836 20.736 13.8112 20.7524 13.8349 20.7736C13.8587 20.7948 13.878 20.8205 13.8918 20.8491C13.9055 20.8778 13.9135 20.9089 13.9153 20.9407C13.9171 20.9724 13.9125 21.0042 13.902 21.0342C13.8915 21.0642 13.8751 21.0919 13.8539 21.1156C13.7286 21.2567 13.6397 21.4263 13.5947 21.6095C13.5497 21.7927 13.5501 21.9842 13.5959 22.1672C13.6524 22.3882 13.7732 22.5874 13.943 22.7399C14.1128 22.8923 14.324 22.9911 14.5499 23.0239C14.7758 23.0566 15.0064 23.0217 15.2125 22.9237C15.4187 22.8257 15.5911 22.6689 15.7082 22.4731C15.7865 22.3434 15.8378 22.1992 15.8591 22.0492C15.8803 21.8992 15.8711 21.7465 15.832 21.6001C15.8172 21.5378 15.8273 21.4721 15.86 21.417C15.8927 21.3618 15.9456 21.3215 16.0075 21.3046C16.0384 21.2963 16.0707 21.2944 16.1024 21.2987C16.1342 21.3031 16.1647 21.3138 16.1922 21.3301C16.2198 21.3464 16.2438 21.3681 16.2629 21.3938C16.282 21.4195 16.2957 21.4488 16.3033 21.4798C16.3576 21.6881 16.3697 21.9052 16.339 22.1182C16.3082 22.3312 16.2353 22.536 16.1244 22.7205C15.9808 22.9663 15.7747 23.1698 15.527 23.3104C15.2793 23.451 14.9988 23.5238 14.7139 23.5213Z" fill="black"/>
<path d="M19.2378 18.208C18.7374 18.2054 18.2544 18.0242 17.8759 17.6972C17.4974 17.3701 17.2483 16.9187 17.1737 16.4243L16.9707 15.0599C16.9644 15.0213 16.9657 14.9818 16.9748 14.9437C16.9838 14.9057 17.0003 14.8698 17.0234 14.8381C17.0464 14.8064 17.0755 14.7797 17.109 14.7594C17.1425 14.739 17.1797 14.7256 17.2184 14.7197C17.2969 14.7079 17.3768 14.7277 17.4407 14.7747C17.5046 14.8218 17.5471 14.8922 17.559 14.9706L17.762 16.3384C17.8311 16.7211 18.0467 17.0619 18.3631 17.2883C18.6795 17.5148 19.0718 17.6093 19.4567 17.5516C19.8417 17.4939 20.189 17.2886 20.4249 16.9794C20.6609 16.6701 20.7669 16.2812 20.7206 15.8951L20.5176 14.5307C20.5117 14.4921 20.5135 14.4527 20.5229 14.4148C20.5322 14.3769 20.549 14.3413 20.5721 14.3098C20.5953 14.2784 20.6244 14.2518 20.6579 14.2316C20.6913 14.2114 20.7284 14.198 20.767 14.1922C20.8057 14.1863 20.8451 14.1881 20.883 14.1974C20.9209 14.2068 20.9566 14.2235 20.9881 14.2466C21.0196 14.2698 21.0462 14.2989 21.0664 14.3323C21.0866 14.3657 21.1 14.4027 21.1059 14.4413L21.3123 15.8057C21.3941 16.3544 21.2546 16.9131 20.9243 17.359C20.594 17.805 20.1 18.1017 19.5509 18.184C19.4472 18.1988 19.3426 18.2068 19.2378 18.208Z" fill="black"/>
<path d="M10.8264 6.08652C10.8264 6.08652 11.8894 6.65015 11.8241 7.98018C11.7587 9.36864 10.8436 9.26553 11.0156 10.8018C11.1876 12.338 15.2402 15.2627 13.2655 19.7236C11.3218 24.1227 2.54921 22.9679 0.973582 21.2393C0.595157 16.5859 3.58128 12.0356 3.58128 12.0356C3.58128 12.0356 7.22105 6.9354 10.8264 6.08652Z" fill="#6678FF"/>
<path d="M11.2599 19.1566C10.764 19.1564 10.2844 18.98 9.90681 18.6589C9.52925 18.3377 9.2784 17.8928 9.19916 17.4038L8.99275 16.0394C8.98588 16.0002 8.98694 15.96 8.99585 15.9211C9.00477 15.8823 9.02136 15.8456 9.04466 15.8133C9.06796 15.781 9.0975 15.7536 9.13153 15.7328C9.16556 15.712 9.20341 15.6983 9.24285 15.6923C9.28228 15.6864 9.32251 15.6883 9.36117 15.6981C9.39983 15.7079 9.43614 15.7254 9.46797 15.7494C9.49979 15.7734 9.52649 15.8035 9.5465 15.838C9.56651 15.8724 9.57942 15.9106 9.58447 15.9501L9.78744 17.3145C9.85786 17.6955 10.0736 18.0344 10.3893 18.2596C10.7049 18.4848 11.0957 18.5788 11.4794 18.5218C11.863 18.4647 12.2095 18.2611 12.4458 17.9538C12.6821 17.6465 12.7898 17.2596 12.746 16.8746L12.5431 15.5102C12.5367 15.4718 12.5381 15.4325 12.5472 15.3946C12.5563 15.3567 12.5729 15.3211 12.5959 15.2897C12.619 15.2583 12.6481 15.2318 12.6816 15.2119C12.7151 15.1919 12.7522 15.1788 12.7908 15.1734C12.8297 15.167 12.8695 15.1685 12.9078 15.1778C12.9461 15.187 12.9822 15.2038 13.0139 15.2272C13.0456 15.2506 13.0724 15.28 13.0925 15.3139C13.1127 15.3477 13.1259 15.3852 13.1314 15.4243L13.3378 16.7921C13.4102 17.3314 13.2692 17.8776 12.9448 18.3147C12.6204 18.7518 12.1381 19.0452 11.6004 19.1325C11.4877 19.1491 11.3738 19.1571 11.2599 19.1566Z" fill="black"/>
<path d="M7.23476 8.59538C7.23476 8.59538 5.92059 6.77733 4.53418 5.82534C3.14776 4.87335 2.09161 4.41283 1.51021 4.69121C0.77744 5.04863 0.736157 7.31003 1.15931 9.62985C1.58245 11.9497 2.2361 13.0391 2.53196 13.6406C2.82782 14.242 7.23476 8.59538 7.23476 8.59538Z" fill="#6678FF"/>
<path opacity="0.2" d="M21.553 6.95945C21.2874 7.85624 20.682 8.61412 19.8657 9.07195C19.0494 9.52978 18.0865 9.65143 17.1817 9.41104C16.277 9.17065 15.5018 8.58718 15.0211 7.7847C14.5403 6.98223 14.3918 6.02404 14.6072 5.11391C14.6072 5.11391 16.0349 3.78044 21.037 0.896985C26.0116 -1.84212 25.6228 9.67794 25.6228 9.67794L21.553 6.95945Z" fill="black"/>
<path d="M18.9453 5.95592C18.9453 5.95592 19.4029 4.33376 20.3971 2.97624C21.3913 1.61871 22.2273 0.828252 22.8706 0.900425C23.6791 0.993218 24.4703 3.11371 24.8419 5.4404C25.2134 7.7671 24.9657 9.01465 24.8832 9.67794C24.4462 8.95622 18.9453 5.95592 18.9453 5.95592Z" fill="#6678FF"/>
<path d="M25.8534 26.2879H2.00222L1.90933 26.1642C1.20752 25.2156 0.74309 24.0952 0.533236 22.8305C0.092886 20.1567 0.485073 17.2801 1.67539 14.5135C2.81755 11.8569 4.65808 9.46488 6.85983 7.77055C6.89145 7.74618 6.92757 7.72827 6.96612 7.71785C7.00468 7.70742 7.04491 7.70468 7.08452 7.70979C7.12413 7.71489 7.16235 7.72774 7.19699 7.7476C7.23163 7.76747 7.26202 7.79395 7.28642 7.82554C7.31081 7.85713 7.32874 7.89322 7.33918 7.93173C7.34961 7.97025 7.35236 8.01044 7.34724 8.05001C7.34213 8.08958 7.32927 8.12776 7.30939 8.16237C7.28951 8.19697 7.263 8.22733 7.23137 8.2517C2.79691 11.6644 0.288979 17.6203 1.13528 22.7308C1.32105 23.8443 1.71668 24.8341 2.31184 25.6761H25.671C28.6262 23.7069 29.8716 21.1602 29.3658 18.1049C28.492 12.8364 24.1057 7.94583 18.6942 6.2137C18.6231 6.18447 18.5656 6.12956 18.5331 6.0599C18.5007 5.99023 18.4956 5.91091 18.519 5.83772C18.5424 5.76452 18.5926 5.70281 18.6595 5.66485C18.7263 5.6269 18.8051 5.61548 18.88 5.63288C21.5599 6.49207 24.1298 8.16922 26.1217 10.3584C27.1047 11.4345 27.94 12.6365 28.6055 13.9327C29.2659 15.2124 29.7254 16.586 29.9679 18.0053C30.2534 19.7271 30.0126 21.3286 29.2592 22.7618C28.5711 24.0677 27.4496 25.2362 25.929 26.2363L25.8534 26.2879Z" fill="black"/>
<path d="M2.54232 26.8481C2.40243 26.8485 2.26383 26.8214 2.13446 26.7682C2.00509 26.7151 1.88749 26.6369 1.78842 26.5383C1.68934 26.4396 1.61073 26.3224 1.55709 26.1933C1.50346 26.0642 1.47585 25.9259 1.47585 25.7861C1.47525 25.6859 1.49034 25.5861 1.52057 25.4906C1.75795 24.676 2.29806 24.0127 3.08244 23.5831C3.79112 23.1879 4.70279 22.9783 5.71078 22.9783C6.71876 22.9783 7.63043 23.1879 8.34256 23.5797C9.12693 24.0162 9.66704 24.676 9.90442 25.4906C9.982 25.7617 9.94879 26.0525 9.81207 26.2993C9.67536 26.546 9.4463 26.7285 9.17509 26.8068C9.07887 26.8343 8.97929 26.8481 8.87923 26.8481H2.54232Z" fill="#5959FF"/>
<path d="M5.71083 23.2807C7.58576 23.2807 9.16139 24.0162 9.61894 25.5765C9.67414 25.7715 9.64975 25.9805 9.5511 26.1576C9.45246 26.3347 9.28759 26.4656 9.09258 26.5216C9.02337 26.5422 8.95151 26.5526 8.87929 26.5525H2.54238C2.33891 26.5525 2.14378 26.4718 1.9999 26.328C1.85603 26.1843 1.7752 25.9894 1.7752 25.7861C1.77539 25.7151 1.78582 25.6445 1.80617 25.5765C2.26028 24.0162 3.8359 23.2807 5.71083 23.2807ZM5.71083 22.6827C3.40587 22.6827 1.73048 23.7 1.23165 25.4081C1.1317 25.7553 1.17373 26.128 1.34851 26.4444C1.52329 26.7607 1.81655 26.9949 2.16395 27.0955C2.28718 27.1297 2.41448 27.1471 2.54238 27.1471H8.87929C9.05848 27.1475 9.236 27.1127 9.40169 27.0445C9.56737 26.9763 9.71796 26.8761 9.84483 26.7497C9.9717 26.6233 10.0724 26.4731 10.141 26.3077C10.2097 26.1424 10.2451 25.9651 10.2451 25.7861C10.2456 25.6581 10.2271 25.5307 10.19 25.4081C9.69462 23.7 8.01923 22.6827 5.71083 22.6827Z" fill="black"/>
<path d="M7.18665 25.5284C7.18665 25.5284 7.3965 26.0164 7.32425 26.4322L7.18665 25.5284Z" fill="#5959FF"/>
<path d="M7.32427 26.7312H7.27611C7.19822 26.7178 7.12881 26.6741 7.08305 26.6097C7.03729 26.5453 7.01888 26.4655 7.03185 26.3876C7.07657 26.1195 6.95961 25.7621 6.91144 25.6486C6.88421 25.5764 6.88596 25.4965 6.91634 25.4256C6.94671 25.3547 7.00337 25.2982 7.07444 25.268C7.14552 25.2378 7.22553 25.2363 7.29773 25.2637C7.36994 25.291 7.42875 25.3453 7.46188 25.4149C7.48596 25.4734 7.7027 25.9958 7.62013 26.4838C7.60796 26.5533 7.57158 26.6162 7.51744 26.6615C7.4633 26.7068 7.39488 26.7315 7.32427 26.7312Z" fill="black"/>
<path d="M4.62025 25.5284C4.62025 25.5284 4.30375 26.1504 4.40008 26.5525L4.62025 25.5284Z" fill="#5959FF"/>
<path d="M4.40007 26.8481C4.3332 26.849 4.26804 26.827 4.21546 26.7857C4.16287 26.7444 4.12604 26.6864 4.11109 26.6213C3.99068 26.1298 4.31751 25.4665 4.35535 25.3943C4.39093 25.3241 4.45297 25.271 4.52781 25.2465C4.60265 25.222 4.68416 25.2282 4.75442 25.2637C4.82467 25.2993 4.87791 25.3612 4.90243 25.436C4.92695 25.5108 4.92073 25.5922 4.88515 25.6624C4.77506 25.8823 4.64089 26.281 4.68905 26.4803C4.69877 26.5185 4.70076 26.5582 4.6949 26.5971C4.68905 26.6361 4.67547 26.6734 4.65496 26.707C4.63445 26.7407 4.60742 26.7698 4.57547 26.7929C4.54351 26.8159 4.50727 26.8324 4.46888 26.8412C4.44641 26.8469 4.42322 26.8492 4.40007 26.8481Z" fill="black"/>
<path d="M19.0297 13.1387C19.8205 13.0654 20.4221 12.5816 20.3735 12.0581C20.3249 11.5346 19.6444 11.1696 18.8536 11.2429C18.0628 11.3161 17.4612 11.7999 17.5098 12.3235C17.5584 12.847 18.2389 13.212 19.0297 13.1387Z" fill="#6678FF"/>
<path d="M10.4473 14.4204C11.2336 14.2855 11.7985 13.7542 11.709 13.2337C11.6195 12.7132 10.9096 12.4006 10.1233 12.5354C9.33709 12.6703 8.77224 13.2016 8.86171 13.7221C8.95118 14.2426 9.66109 14.5553 10.4473 14.4204Z" fill="#5959FF"/>
<path opacity="0.2" d="M26.7169 11.496C26.7169 11.496 25.9118 12.8845 25.1447 13.4447C24.3775 14.0048 22.9567 14.132 22.936 14.6819C22.9154 15.2318 25.3992 16.2525 28.1927 13.7058L26.7169 11.496Z" fill="black"/>
<path opacity="0.2" d="M28.3303 13.912C28.3303 13.912 27.2845 15.1321 26.4278 15.5411C25.5712 15.9501 24.1504 15.816 24.03 16.3522C23.9096 16.8883 26.1629 18.3455 29.3761 16.3556L28.3303 13.912Z" fill="black"/>
<path d="M15.9283 19.2769C15.9198 19.3001 15.9052 19.3206 15.8862 19.3364C15.8671 19.3522 15.8443 19.3628 15.8199 19.3669C15.7954 19.3711 15.7704 19.3688 15.7471 19.3602C15.7239 19.3517 15.7034 19.3371 15.6875 19.3181C15.4364 19.0328 15.0029 18.9263 14.6589 19.0775C14.2254 19.2665 14.0053 19.7992 14.1704 20.2735C14.3355 20.7478 15.6325 21.6757 16.09 21.5314C16.5854 21.4626 17.5384 20.2048 17.5865 19.7236C17.6347 19.2425 17.301 18.7717 16.84 18.727C16.4753 18.6892 16.0969 18.9263 15.9283 19.2769Z" fill="black"/>
<path opacity="0.1" d="M25.2892 10.08C25.303 10.1144 28.7948 17.7715 25.2754 22.5521C24.178 24.0437 22.396 25.0541 20.4591 25.7346H25.6814C28.4542 23.9131 30.0677 21.3595 29.5069 17.9709C29.0184 15.0221 27.4565 12.2555 25.2892 10.08Z" fill="black"/>
<path d="M21.8317 26.8481C21.692 26.8485 21.5536 26.8214 21.4244 26.7682C21.2952 26.715 21.1778 26.6368 21.079 26.5381C20.9802 26.4393 20.9019 26.3221 20.8487 26.193C20.7954 26.064 20.7682 25.9257 20.7687 25.7861C20.7686 25.6862 20.7825 25.5867 20.81 25.4906C21.0473 24.676 21.5875 24.0127 22.3718 23.5831C23.0805 23.1879 23.9922 22.9783 25.0036 22.9783C26.015 22.9783 26.9233 23.1879 27.632 23.5797C28.4163 24.0162 28.9564 24.676 29.1938 25.4906C29.2328 25.6246 29.2449 25.765 29.2295 25.9037C29.2141 26.0424 29.1714 26.1768 29.104 26.299C29.0366 26.4213 28.9457 26.529 28.8366 26.6162C28.7274 26.7033 28.6022 26.7681 28.4679 26.8068C28.3717 26.8343 28.2721 26.8481 28.1721 26.8481H21.8317Z" fill="#5959FF"/>
<path d="M25.0036 23.2807C26.8786 23.2807 28.4542 24.0162 28.9083 25.5765C28.9361 25.6731 28.9445 25.7742 28.9331 25.874C28.9217 25.9739 28.8906 26.0705 28.8417 26.1583C28.7928 26.2461 28.727 26.3234 28.6481 26.3858C28.5692 26.4481 28.4787 26.4943 28.3819 26.5216C28.3139 26.5422 28.2432 26.5526 28.1721 26.5525H21.8317C21.6285 26.5516 21.4339 26.4706 21.2903 26.327C21.1466 26.1835 21.0655 25.9891 21.0646 25.7861C21.0647 25.7151 21.0752 25.6445 21.0955 25.5765C21.5496 24.0162 23.1253 23.2807 25.0002 23.2807H25.0036ZM25.0002 22.6827C22.6952 22.6827 21.0198 23.7 20.521 25.4081C20.422 25.7553 20.4645 26.1276 20.6391 26.4437C20.8137 26.7598 21.1064 26.9941 21.4533 27.0955C21.5765 27.1297 21.7038 27.1471 21.8317 27.1471H28.1721C28.5334 27.1471 28.8799 27.0037 29.1354 26.7485C29.3909 26.4932 29.5344 26.1471 29.5344 25.7861C29.5344 25.6583 29.517 25.5312 29.4828 25.4081C28.984 23.7 27.3086 22.6827 25.0036 22.6827H25.0002Z" fill="black"/>
<path d="M26.476 25.5284C26.476 25.5284 26.6859 26.0164 26.6136 26.4322L26.476 25.5284Z" fill="#5959FF"/>
<path d="M26.6136 26.7312H26.562C26.4841 26.7178 26.4147 26.6741 26.369 26.6097C26.3232 26.5453 26.3048 26.4655 26.3178 26.3876C26.3659 26.1195 26.249 25.7621 26.2008 25.6486C26.1736 25.5764 26.1753 25.4965 26.2057 25.4256C26.2361 25.3547 26.2927 25.2982 26.3638 25.268C26.4349 25.2378 26.5149 25.2363 26.5871 25.2637C26.6593 25.291 26.7181 25.3453 26.7512 25.4149C26.7753 25.4734 26.9921 25.9958 26.9095 26.4872C26.896 26.5558 26.8591 26.6175 26.8052 26.662C26.7513 26.7065 26.6836 26.731 26.6136 26.7312Z" fill="black"/>
<path d="M23.9097 25.5284C23.9097 25.5284 23.5932 26.1504 23.6895 26.5525L23.9097 25.5284Z" fill="#5959FF"/>
<path d="M23.6895 26.8481C23.6226 26.849 23.5575 26.8269 23.5049 26.7857C23.4523 26.7444 23.4155 26.6863 23.4005 26.6212C23.2801 26.1298 23.6069 25.4665 23.6448 25.3943C23.6623 25.3595 23.6865 25.3284 23.7161 25.303C23.7457 25.2775 23.78 25.2582 23.8171 25.246C23.8542 25.2339 23.8933 25.2292 23.9322 25.2322C23.9712 25.2353 24.0091 25.246 24.0438 25.2637C24.079 25.2809 24.1104 25.3049 24.1363 25.3343C24.1621 25.3637 24.1818 25.3979 24.1943 25.435C24.2068 25.4721 24.2118 25.5113 24.209 25.5503C24.2062 25.5894 24.1957 25.6274 24.178 25.6624C24.0645 25.8823 23.9338 26.281 23.9819 26.4803C24.0006 26.5573 23.9879 26.6386 23.9466 26.7063C23.9053 26.7739 23.8388 26.8225 23.7617 26.8412C23.7381 26.8469 23.7138 26.8492 23.6895 26.8481Z" fill="black"/>
</g>
<defs>
<clipPath id="clip0_801_25646">
<rect width="30.0848" height="34" fill="white"/>
</clipPath>
</defs>
</svg>
