<svg width="553" height="412" viewBox="0 0 553 412" fill="none" xmlns="http://www.w3.org/2000/svg">
<g opacity="0.5">
<g filter="url(#filter0_dd_736_26897)">
<path d="M58.3743 105.619C52.9312 112.764 39.2488 111.496 27.6624 102.669C16.076 93.8427 11.4133 81.1354 16.8563 73.9904C22.2994 66.8455 27.6786 68.1968 35.6233 70.5871C37.9727 68.5753 40.9284 67.4086 44.0185 67.2734C47.1086 67.1382 50.1549 68.0423 52.671 69.8412C55.1095 71.7623 56.8171 74.4601 57.5098 77.4862C58.2025 80.5122 57.8387 83.6842 56.4789 86.4749C60.893 93.4997 62.052 100.791 58.3743 105.619Z" fill="url(#paint0_linear_736_26897)"/>
</g>
<g filter="url(#filter1_dd_736_26897)">
<path d="M26.4934 64.5466C24.0936 63.9711 22.0134 62.4812 20.6959 60.3945C19.3784 58.3078 18.9278 55.7891 19.44 53.375C19.7031 52.1793 20.2078 51.05 20.9231 50.0564C21.6385 49.0629 22.5494 48.226 23.5999 47.5973C24.6505 46.9687 25.8185 46.5614 27.0321 46.4005C28.2458 46.2396 29.4796 46.3286 30.6576 46.6619C31.855 46.9027 32.9927 47.3789 34.0045 48.0629C35.0164 48.7469 35.8824 49.625 36.5522 50.6463C37.2221 51.6676 37.6824 52.8118 37.9066 54.0124C38.1308 55.213 38.1143 56.4462 37.8581 57.6404C37.5874 58.8523 37.0748 59.9971 36.351 61.0062C35.6272 62.0152 34.707 62.8677 33.6458 63.5126C32.5846 64.1575 31.4041 64.5815 30.1751 64.7592C28.9461 64.9368 27.6938 64.8645 26.4934 64.5466Z" fill="url(#paint1_linear_736_26897)"/>
</g>
<g filter="url(#filter2_dd_736_26897)">
<path d="M71.8721 99.1171C69.4683 98.4772 67.3912 96.9604 66.05 94.8655C64.7087 92.7705 64.2006 90.2493 64.6256 87.7984C65.3041 85.4374 66.8737 83.4326 69.0029 82.2074C71.1321 80.9822 73.6541 80.6326 76.0363 81.2323C77.2337 81.4732 78.3713 81.9494 79.3832 82.6334C80.3951 83.3174 81.2611 84.1955 81.9309 85.2168C82.6007 86.2381 83.0611 87.3822 83.2852 88.5828C83.5094 89.7834 83.493 91.0166 83.2368 92.2108C82.5767 94.5918 81.0337 96.6316 78.9222 97.9147C76.8107 99.1979 74.2895 99.6279 71.8721 99.1171Z" fill="url(#paint2_linear_736_26897)"/>
</g>
<g filter="url(#filter3_dd_736_26897)">
<path d="M67.6776 75.7801C66.4803 75.5393 65.3426 75.063 64.3307 74.379C63.3189 73.6951 62.4529 72.8169 61.783 71.7957C61.1132 70.7744 60.6528 69.6302 60.4287 68.4296C60.2045 67.229 60.221 65.9958 60.4772 64.8016C60.7402 63.6059 61.2449 62.4766 61.9602 61.483C62.6756 60.4895 63.5865 59.6526 64.6371 59.024C65.6876 58.3953 66.8556 57.988 68.0693 57.8271C69.2829 57.6662 70.5167 57.7552 71.6948 58.0885C72.8921 58.3293 74.0298 58.8056 75.0416 59.4895C76.0535 60.1735 76.9195 61.0516 77.5893 62.0729C78.2592 63.0942 78.7195 64.2384 78.9437 65.439C79.1679 66.6396 79.1514 67.8728 78.8952 69.067C78.6322 70.2627 78.1275 71.392 77.4122 72.3856C76.6968 73.3791 75.7859 74.2159 74.7353 74.8446C73.6848 75.4733 72.5168 75.8806 71.3031 76.0415C70.0894 76.2024 68.8557 76.1134 67.6776 75.7801Z" fill="url(#paint3_linear_736_26897)"/>
</g>
<g filter="url(#filter4_dd_736_26897)">
<path d="M48.7532 61.3636C47.0656 60.8861 45.5547 59.925 44.4069 58.5989C43.2592 57.2728 42.5248 55.6396 42.2943 53.901C42.0639 52.1624 42.3475 50.3943 43.1101 48.815C43.8728 47.2356 45.0811 45.9141 46.5861 45.0135C48.091 44.1129 49.8267 43.6725 51.579 43.7468C53.3312 43.8211 55.0234 44.4068 56.4467 45.4316C57.87 46.4563 58.9622 47.8754 59.5884 49.5136C60.2146 51.1518 60.3476 52.9375 59.9708 54.6504C59.7078 55.8462 59.2031 56.9755 58.4877 57.969C57.7724 58.9626 56.8614 59.7994 55.8109 60.4281C54.7603 61.0568 53.5924 61.4641 52.3787 61.625C51.165 61.7858 49.9313 61.6969 48.7532 61.3636Z" fill="url(#paint4_linear_736_26897)"/>
</g>
<g filter="url(#filter5_dd_736_26897)">
<path d="M401.723 66.4068C396.28 73.5517 382.598 72.2837 371.011 63.4571C359.425 54.6305 354.762 41.9232 360.205 34.7783C365.648 27.6333 371.027 28.9847 378.972 31.3749C381.322 29.3631 384.277 28.1965 387.367 28.0613C390.457 27.926 393.504 28.8301 396.02 30.629C398.458 32.5501 400.166 35.2479 400.859 38.274C401.551 41.3 401.188 44.472 399.828 47.2627C404.242 54.2875 405.401 61.5791 401.723 66.4068Z" fill="url(#paint5_linear_736_26897)"/>
</g>
<g filter="url(#filter6_dd_736_26897)">
<path d="M369.842 25.3345C367.442 24.7589 365.362 23.2691 364.045 21.1824C362.727 19.0956 362.277 16.5769 362.789 14.1628C363.052 12.9671 363.557 11.8378 364.272 10.8443C364.987 9.85071 365.898 9.01388 366.949 8.38519C367.999 7.75649 369.167 7.3492 370.381 7.18833C371.595 7.02746 372.828 7.11639 374.007 7.4497C375.204 7.69055 376.342 8.16679 377.353 8.85077C378.365 9.53475 379.231 10.4129 379.901 11.4342C380.571 12.4555 381.031 13.5996 381.255 14.8002C381.48 16.0008 381.463 17.234 381.207 18.4282C380.936 19.6401 380.424 20.7849 379.7 21.794C378.976 22.803 378.056 23.6555 376.995 24.3004C375.933 24.9453 374.753 25.3693 373.524 25.547C372.295 25.7247 371.043 25.6524 369.842 25.3345Z" fill="url(#paint6_linear_736_26897)"/>
</g>
<g filter="url(#filter7_dd_736_26897)">
<path d="M415.221 59.9049C412.817 59.265 410.74 57.7482 409.399 55.6533C408.058 53.5583 407.549 51.0371 407.974 48.5862C408.653 46.2252 410.223 44.2204 412.352 42.9952C414.481 41.77 417.003 41.4204 419.385 42.0201C420.583 42.261 421.72 42.7372 422.732 43.4212C423.744 44.1052 424.61 44.9833 425.28 46.0046C425.95 47.0259 426.41 48.17 426.634 49.3706C426.858 50.5713 426.842 51.8044 426.586 52.9986C425.926 55.3796 424.383 57.4194 422.271 58.7026C420.16 59.9857 417.638 60.4157 415.221 59.9049Z" fill="url(#paint7_linear_736_26897)"/>
</g>
<g filter="url(#filter8_dd_736_26897)">
<path d="M411.027 36.568C409.829 36.3271 408.692 35.8509 407.68 35.1669C406.668 34.4829 405.802 33.6048 405.132 32.5835C404.462 31.5622 404.002 30.418 403.778 29.2174C403.553 28.0168 403.57 26.7836 403.826 25.5894C404.089 24.3937 404.594 23.2644 405.309 22.2709C406.024 21.2773 406.935 20.4405 407.986 19.8118C409.036 19.1831 410.204 18.7758 411.418 18.6149C412.632 18.4541 413.866 18.543 415.044 18.8763C416.241 19.1172 417.379 19.5934 418.391 20.2774C419.402 20.9614 420.268 21.8395 420.938 22.8608C421.608 23.8821 422.068 25.0262 422.293 26.2268C422.517 27.4274 422.5 28.6606 422.244 29.8548C421.981 31.0505 421.476 32.1798 420.761 33.1734C420.046 34.167 419.135 35.0038 418.084 35.6325C417.034 36.2612 415.866 36.6685 414.652 36.8293C413.438 36.9902 412.205 36.9013 411.027 36.568Z" fill="url(#paint8_linear_736_26897)"/>
</g>
<g filter="url(#filter9_dd_736_26897)">
<path d="M392.102 22.1514C390.414 21.674 388.904 20.7129 387.756 19.3867C386.608 18.0606 385.874 16.4275 385.643 14.6888C385.413 12.9502 385.696 11.1822 386.459 9.60281C387.222 8.02347 388.43 6.70196 389.935 5.80134C391.44 4.90071 393.176 4.46039 394.928 4.53468C396.68 4.60897 398.372 5.19463 399.796 6.2194C401.219 7.24418 402.311 8.66322 402.937 10.3014C403.563 11.9397 403.696 13.7254 403.32 15.4383C403.057 16.634 402.552 17.7633 401.837 18.7569C401.121 19.7504 400.21 20.5873 399.16 21.216C398.109 21.8446 396.941 22.2519 395.728 22.4128C394.514 22.5737 393.28 22.4847 392.102 22.1514Z" fill="url(#paint9_linear_736_26897)"/>
</g>
<g filter="url(#filter10_dd_736_26897)">
<path d="M51.6374 398.547C46.1944 405.692 32.512 404.424 20.9256 395.598C9.33921 386.771 4.67648 374.064 10.1195 366.919C15.5626 359.774 20.9418 361.125 28.8865 363.516C31.2359 361.504 34.1916 360.337 37.2817 360.202C40.3718 360.067 43.4181 360.971 45.9342 362.77C48.3727 364.691 50.0802 367.389 50.773 370.415C51.4657 373.441 51.1019 376.613 49.742 379.403C54.1561 386.428 55.3152 393.72 51.6374 398.547Z" fill="url(#paint10_linear_736_26897)"/>
</g>
<g filter="url(#filter11_dd_736_26897)">
<path d="M19.7566 357.475C17.3568 356.9 15.2766 355.41 13.9591 353.323C12.6416 351.236 12.191 348.718 12.7032 346.303C12.9662 345.108 13.4709 343.978 14.1863 342.985C14.9017 341.991 15.8126 341.154 16.8631 340.526C17.9137 339.897 19.0817 339.49 20.2953 339.329C21.509 339.168 22.7428 339.257 23.9208 339.59C25.1182 339.831 26.2558 340.307 27.2677 340.991C28.2796 341.675 29.1456 342.553 29.8154 343.575C30.4853 344.596 30.9456 345.74 31.1698 346.941C31.3939 348.141 31.3775 349.375 31.1213 350.569C30.8506 351.781 30.338 352.926 29.6141 353.935C28.8903 354.944 27.9702 355.796 26.909 356.441C25.8478 357.086 24.6673 357.51 23.4383 357.688C22.2093 357.865 20.957 357.793 19.7566 357.475Z" fill="url(#paint11_linear_736_26897)"/>
</g>
<g filter="url(#filter12_dd_736_26897)">
<path d="M65.1353 392.046C62.7315 391.406 60.6544 389.889 59.3131 387.794C57.9719 385.699 57.4638 383.178 57.8888 380.727C58.5673 378.366 60.1369 376.361 62.2661 375.136C64.3953 373.911 66.9173 373.561 69.2995 374.161C70.4969 374.402 71.6345 374.878 72.6464 375.562C73.6583 376.246 74.5242 377.124 75.1941 378.145C75.8639 379.167 76.3243 380.311 76.5484 381.511C76.7726 382.712 76.7561 383.945 76.5 385.139C75.8398 387.52 74.2969 389.56 72.1854 390.843C70.0739 392.126 67.5527 392.556 65.1353 392.046Z" fill="url(#paint12_linear_736_26897)"/>
</g>
<g filter="url(#filter13_dd_736_26897)">
<path d="M60.9408 368.709C59.7434 368.468 58.6058 367.991 57.5939 367.308C56.5821 366.624 55.7161 365.745 55.0462 364.724C54.3764 363.703 53.916 362.559 53.6918 361.358C53.4677 360.157 53.4842 358.924 53.7403 357.73C54.0034 356.534 54.508 355.405 55.2234 354.411C55.9388 353.418 56.8497 352.581 57.9002 351.952C58.9508 351.324 60.1188 350.916 61.3324 350.756C62.5461 350.595 63.7799 350.684 64.9579 351.017C66.1553 351.258 67.2929 351.734 68.3048 352.418C69.3167 353.102 70.1827 353.98 70.8525 355.001C71.5224 356.023 71.9827 357.167 72.2069 358.367C72.431 359.568 72.4146 360.801 72.1584 361.995C71.8954 363.191 71.3907 364.32 70.6753 365.314C69.96 366.308 69.049 367.144 67.9985 367.773C66.948 368.402 65.78 368.809 64.5663 368.97C63.3526 369.131 62.1189 369.042 60.9408 368.709Z" fill="url(#paint13_linear_736_26897)"/>
</g>
<g filter="url(#filter14_dd_736_26897)">
<path d="M42.0164 354.292C40.3288 353.815 38.8179 352.853 37.6701 351.527C36.5224 350.201 35.7879 348.568 35.5575 346.829C35.3271 345.091 35.6107 343.323 36.3733 341.743C37.136 340.164 38.3443 338.843 39.8492 337.942C41.3542 337.041 43.0899 336.601 44.8421 336.675C46.5944 336.75 48.2866 337.335 49.7099 338.36C51.1332 339.385 52.2253 340.804 52.8516 342.442C53.4778 344.08 53.6108 345.866 53.234 347.579C52.971 348.775 52.4663 349.904 51.7509 350.897C51.0355 351.891 50.1246 352.728 49.0741 353.357C48.0235 353.985 46.8556 354.393 45.6419 354.553C44.4282 354.714 43.1944 354.625 42.0164 354.292Z" fill="url(#paint14_linear_736_26897)"/>
</g>
<g filter="url(#filter15_dd_736_26897)">
<path d="M523.306 398.547C517.863 405.692 504.18 404.424 492.594 395.598C481.007 386.771 476.345 374.064 481.788 366.919C487.231 359.774 492.61 361.125 500.555 363.516C502.904 361.504 505.86 360.337 508.95 360.202C512.04 360.067 515.086 360.971 517.602 362.77C520.041 364.691 521.748 367.389 522.441 370.415C523.134 373.441 522.77 376.613 521.41 379.403C525.824 386.428 526.983 393.72 523.306 398.547Z" fill="url(#paint15_linear_736_26897)"/>
</g>
<g filter="url(#filter16_dd_736_26897)">
<path d="M491.425 357.475C489.025 356.9 486.945 355.41 485.627 353.323C484.31 351.236 483.859 348.718 484.371 346.303C484.634 345.108 485.139 343.978 485.854 342.985C486.57 341.991 487.481 341.154 488.531 340.526C489.582 339.897 490.75 339.49 491.964 339.329C493.177 339.168 494.411 339.257 495.589 339.59C496.786 339.831 497.924 340.307 498.936 340.991C499.948 341.675 500.814 342.553 501.484 343.575C502.153 344.596 502.614 345.74 502.838 346.941C503.062 348.141 503.046 349.375 502.79 350.569C502.519 351.781 502.006 352.926 501.282 353.935C500.559 354.944 499.638 355.796 498.577 356.441C497.516 357.086 496.336 357.51 495.106 357.688C493.877 357.865 492.625 357.793 491.425 357.475V357.475Z" fill="url(#paint16_linear_736_26897)"/>
</g>
<g filter="url(#filter17_dd_736_26897)">
<path d="M536.803 392.046C534.4 391.406 532.323 389.889 530.981 387.794C529.64 385.699 529.132 383.178 529.557 380.727C530.236 378.366 531.805 376.361 533.934 375.136C536.063 373.911 538.586 373.561 540.968 374.161C542.165 374.402 543.303 374.878 544.315 375.562C545.326 376.246 546.192 377.124 546.862 378.145C547.532 379.167 547.992 380.311 548.217 381.511C548.441 382.712 548.424 383.945 548.168 385.139C547.508 387.52 545.965 389.56 543.854 390.843C541.742 392.126 539.221 392.556 536.803 392.046V392.046Z" fill="url(#paint17_linear_736_26897)"/>
</g>
<g filter="url(#filter18_dd_736_26897)">
<path d="M532.609 368.709C531.412 368.468 530.274 367.991 529.262 367.308C528.25 366.624 527.384 365.745 526.714 364.724C526.045 363.703 525.584 362.559 525.36 361.358C525.136 360.157 525.152 358.924 525.409 357.73C525.672 356.534 526.176 355.405 526.892 354.411C527.607 353.418 528.518 352.581 529.568 351.952C530.619 351.324 531.787 350.916 533.001 350.756C534.214 350.595 535.448 350.684 536.626 351.017C537.824 351.258 538.961 351.734 539.973 352.418C540.985 353.102 541.851 353.98 542.521 355.001C543.191 356.023 543.651 357.167 543.875 358.367C544.099 359.568 544.083 360.801 543.827 361.995C543.564 363.191 543.059 364.32 542.344 365.314C541.628 366.308 540.717 367.144 539.667 367.773C538.616 368.402 537.448 368.809 536.235 368.97C535.021 369.131 533.787 369.042 532.609 368.709Z" fill="url(#paint18_linear_736_26897)"/>
</g>
<g filter="url(#filter19_dd_736_26897)">
<path d="M513.685 354.292C511.997 353.815 510.486 352.853 509.338 351.527C508.191 350.201 507.456 348.568 507.226 346.829C506.995 345.091 507.279 343.323 508.042 341.743C508.804 340.164 510.012 338.843 511.517 337.942C513.022 337.041 514.758 336.601 516.51 336.675C518.263 336.75 519.955 337.335 521.378 338.36C522.801 339.385 523.894 340.804 524.52 342.442C525.146 344.08 525.279 345.866 524.902 347.579C524.639 348.775 524.134 349.904 523.419 350.897C522.704 351.891 521.793 352.728 520.742 353.357C519.692 353.985 518.524 354.393 517.31 354.553C516.096 354.714 514.863 354.625 513.685 354.292V354.292Z" fill="url(#paint19_linear_736_26897)"/>
</g>
</g>
<defs>
<filter id="filter0_dd_736_26897" x="10.5911" y="67.2602" width="53.9767" height="50.9774" filterUnits="userSpaceOnUse" color-interpolation-filters="sRGB">
<feFlood flood-opacity="0" result="BackgroundImageFix"/>
<feColorMatrix in="SourceAlpha" type="matrix" values="0 0 0 0 0 0 0 0 0 0 0 0 0 0 0 0 0 0 127 0" result="hardAlpha"/>
<feOffset dy="4"/>
<feGaussianBlur stdDeviation="2"/>
<feComposite in2="hardAlpha" operator="out"/>
<feColorMatrix type="matrix" values="0 0 0 0 0 0 0 0 0 0 0 0 0 0 0 0 0 0 0.25 0"/>
<feBlend mode="normal" in2="BackgroundImageFix" result="effect1_dropShadow_736_26897"/>
<feColorMatrix in="SourceAlpha" type="matrix" values="0 0 0 0 0 0 0 0 0 0 0 0 0 0 0 0 0 0 127 0" result="hardAlpha"/>
<feOffset dy="4"/>
<feGaussianBlur stdDeviation="2"/>
<feComposite in2="hardAlpha" operator="out"/>
<feColorMatrix type="matrix" values="0 0 0 0 0 0 0 0 0 0 0 0 0 0 0 0 0 0 0.25 0"/>
<feBlend mode="normal" in2="effect1_dropShadow_736_26897" result="effect2_dropShadow_736_26897"/>
<feBlend mode="normal" in="SourceGraphic" in2="effect2_dropShadow_736_26897" result="shape"/>
</filter>
<filter id="filter1_dd_736_26897" x="15.2338" y="46.3226" width="26.8295" height="26.5314" filterUnits="userSpaceOnUse" color-interpolation-filters="sRGB">
<feFlood flood-opacity="0" result="BackgroundImageFix"/>
<feColorMatrix in="SourceAlpha" type="matrix" values="0 0 0 0 0 0 0 0 0 0 0 0 0 0 0 0 0 0 127 0" result="hardAlpha"/>
<feOffset dy="4"/>
<feGaussianBlur stdDeviation="2"/>
<feComposite in2="hardAlpha" operator="out"/>
<feColorMatrix type="matrix" values="0 0 0 0 0 0 0 0 0 0 0 0 0 0 0 0 0 0 0.25 0"/>
<feBlend mode="normal" in2="BackgroundImageFix" result="effect1_dropShadow_736_26897"/>
<feColorMatrix in="SourceAlpha" type="matrix" values="0 0 0 0 0 0 0 0 0 0 0 0 0 0 0 0 0 0 127 0" result="hardAlpha"/>
<feOffset dy="4"/>
<feGaussianBlur stdDeviation="2"/>
<feComposite in2="hardAlpha" operator="out"/>
<feColorMatrix type="matrix" values="0 0 0 0 0 0 0 0 0 0 0 0 0 0 0 0 0 0 0.25 0"/>
<feBlend mode="normal" in2="effect1_dropShadow_736_26897" result="effect2_dropShadow_736_26897"/>
<feBlend mode="normal" in="SourceGraphic" in2="effect2_dropShadow_736_26897" result="shape"/>
</filter>
<filter id="filter2_dd_736_26897" x="60.4792" y="80.9458" width="26.9627" height="26.381" filterUnits="userSpaceOnUse" color-interpolation-filters="sRGB">
<feFlood flood-opacity="0" result="BackgroundImageFix"/>
<feColorMatrix in="SourceAlpha" type="matrix" values="0 0 0 0 0 0 0 0 0 0 0 0 0 0 0 0 0 0 127 0" result="hardAlpha"/>
<feOffset dy="4"/>
<feGaussianBlur stdDeviation="2"/>
<feComposite in2="hardAlpha" operator="out"/>
<feColorMatrix type="matrix" values="0 0 0 0 0 0 0 0 0 0 0 0 0 0 0 0 0 0 0.25 0"/>
<feBlend mode="normal" in2="BackgroundImageFix" result="effect1_dropShadow_736_26897"/>
<feColorMatrix in="SourceAlpha" type="matrix" values="0 0 0 0 0 0 0 0 0 0 0 0 0 0 0 0 0 0 127 0" result="hardAlpha"/>
<feOffset dy="4"/>
<feGaussianBlur stdDeviation="2"/>
<feComposite in2="hardAlpha" operator="out"/>
<feColorMatrix type="matrix" values="0 0 0 0 0 0 0 0 0 0 0 0 0 0 0 0 0 0 0.25 0"/>
<feBlend mode="normal" in2="effect1_dropShadow_736_26897" result="effect2_dropShadow_736_26897"/>
<feBlend mode="normal" in="SourceGraphic" in2="effect2_dropShadow_736_26897" result="shape"/>
</filter>
<filter id="filter3_dd_736_26897" x="56.272" y="57.7492" width="26.8284" height="26.3702" filterUnits="userSpaceOnUse" color-interpolation-filters="sRGB">
<feFlood flood-opacity="0" result="BackgroundImageFix"/>
<feColorMatrix in="SourceAlpha" type="matrix" values="0 0 0 0 0 0 0 0 0 0 0 0 0 0 0 0 0 0 127 0" result="hardAlpha"/>
<feOffset dy="4"/>
<feGaussianBlur stdDeviation="2"/>
<feComposite in2="hardAlpha" operator="out"/>
<feColorMatrix type="matrix" values="0 0 0 0 0 0 0 0 0 0 0 0 0 0 0 0 0 0 0.25 0"/>
<feBlend mode="normal" in2="BackgroundImageFix" result="effect1_dropShadow_736_26897"/>
<feColorMatrix in="SourceAlpha" type="matrix" values="0 0 0 0 0 0 0 0 0 0 0 0 0 0 0 0 0 0 127 0" result="hardAlpha"/>
<feOffset dy="4"/>
<feGaussianBlur stdDeviation="2"/>
<feComposite in2="hardAlpha" operator="out"/>
<feColorMatrix type="matrix" values="0 0 0 0 0 0 0 0 0 0 0 0 0 0 0 0 0 0 0.25 0"/>
<feBlend mode="normal" in2="effect1_dropShadow_736_26897" result="effect2_dropShadow_736_26897"/>
<feBlend mode="normal" in="SourceGraphic" in2="effect2_dropShadow_736_26897" result="shape"/>
</filter>
<filter id="filter4_dd_736_26897" x="38.2164" y="43.7388" width="25.9641" height="25.9641" filterUnits="userSpaceOnUse" color-interpolation-filters="sRGB">
<feFlood flood-opacity="0" result="BackgroundImageFix"/>
<feColorMatrix in="SourceAlpha" type="matrix" values="0 0 0 0 0 0 0 0 0 0 0 0 0 0 0 0 0 0 127 0" result="hardAlpha"/>
<feOffset dy="4"/>
<feGaussianBlur stdDeviation="2"/>
<feComposite in2="hardAlpha" operator="out"/>
<feColorMatrix type="matrix" values="0 0 0 0 0 0 0 0 0 0 0 0 0 0 0 0 0 0 0.25 0"/>
<feBlend mode="normal" in2="BackgroundImageFix" result="effect1_dropShadow_736_26897"/>
<feColorMatrix in="SourceAlpha" type="matrix" values="0 0 0 0 0 0 0 0 0 0 0 0 0 0 0 0 0 0 127 0" result="hardAlpha"/>
<feOffset dy="4"/>
<feGaussianBlur stdDeviation="2"/>
<feComposite in2="hardAlpha" operator="out"/>
<feColorMatrix type="matrix" values="0 0 0 0 0 0 0 0 0 0 0 0 0 0 0 0 0 0 0.25 0"/>
<feBlend mode="normal" in2="effect1_dropShadow_736_26897" result="effect2_dropShadow_736_26897"/>
<feBlend mode="normal" in="SourceGraphic" in2="effect2_dropShadow_736_26897" result="shape"/>
</filter>
<filter id="filter5_dd_736_26897" x="353.94" y="28.048" width="53.9767" height="50.9774" filterUnits="userSpaceOnUse" color-interpolation-filters="sRGB">
<feFlood flood-opacity="0" result="BackgroundImageFix"/>
<feColorMatrix in="SourceAlpha" type="matrix" values="0 0 0 0 0 0 0 0 0 0 0 0 0 0 0 0 0 0 127 0" result="hardAlpha"/>
<feOffset dy="4"/>
<feGaussianBlur stdDeviation="2"/>
<feComposite in2="hardAlpha" operator="out"/>
<feColorMatrix type="matrix" values="0 0 0 0 0 0 0 0 0 0 0 0 0 0 0 0 0 0 0.25 0"/>
<feBlend mode="normal" in2="BackgroundImageFix" result="effect1_dropShadow_736_26897"/>
<feColorMatrix in="SourceAlpha" type="matrix" values="0 0 0 0 0 0 0 0 0 0 0 0 0 0 0 0 0 0 127 0" result="hardAlpha"/>
<feOffset dy="4"/>
<feGaussianBlur stdDeviation="2"/>
<feComposite in2="hardAlpha" operator="out"/>
<feColorMatrix type="matrix" values="0 0 0 0 0 0 0 0 0 0 0 0 0 0 0 0 0 0 0.25 0"/>
<feBlend mode="normal" in2="effect1_dropShadow_736_26897" result="effect2_dropShadow_736_26897"/>
<feBlend mode="normal" in="SourceGraphic" in2="effect2_dropShadow_736_26897" result="shape"/>
</filter>
<filter id="filter6_dd_736_26897" x="358.583" y="7.11044" width="26.8295" height="26.5315" filterUnits="userSpaceOnUse" color-interpolation-filters="sRGB">
<feFlood flood-opacity="0" result="BackgroundImageFix"/>
<feColorMatrix in="SourceAlpha" type="matrix" values="0 0 0 0 0 0 0 0 0 0 0 0 0 0 0 0 0 0 127 0" result="hardAlpha"/>
<feOffset dy="4"/>
<feGaussianBlur stdDeviation="2"/>
<feComposite in2="hardAlpha" operator="out"/>
<feColorMatrix type="matrix" values="0 0 0 0 0 0 0 0 0 0 0 0 0 0 0 0 0 0 0.25 0"/>
<feBlend mode="normal" in2="BackgroundImageFix" result="effect1_dropShadow_736_26897"/>
<feColorMatrix in="SourceAlpha" type="matrix" values="0 0 0 0 0 0 0 0 0 0 0 0 0 0 0 0 0 0 127 0" result="hardAlpha"/>
<feOffset dy="4"/>
<feGaussianBlur stdDeviation="2"/>
<feComposite in2="hardAlpha" operator="out"/>
<feColorMatrix type="matrix" values="0 0 0 0 0 0 0 0 0 0 0 0 0 0 0 0 0 0 0.25 0"/>
<feBlend mode="normal" in2="effect1_dropShadow_736_26897" result="effect2_dropShadow_736_26897"/>
<feBlend mode="normal" in="SourceGraphic" in2="effect2_dropShadow_736_26897" result="shape"/>
</filter>
<filter id="filter7_dd_736_26897" x="403.828" y="41.7336" width="26.9627" height="26.3811" filterUnits="userSpaceOnUse" color-interpolation-filters="sRGB">
<feFlood flood-opacity="0" result="BackgroundImageFix"/>
<feColorMatrix in="SourceAlpha" type="matrix" values="0 0 0 0 0 0 0 0 0 0 0 0 0 0 0 0 0 0 127 0" result="hardAlpha"/>
<feOffset dy="4"/>
<feGaussianBlur stdDeviation="2"/>
<feComposite in2="hardAlpha" operator="out"/>
<feColorMatrix type="matrix" values="0 0 0 0 0 0 0 0 0 0 0 0 0 0 0 0 0 0 0.25 0"/>
<feBlend mode="normal" in2="BackgroundImageFix" result="effect1_dropShadow_736_26897"/>
<feColorMatrix in="SourceAlpha" type="matrix" values="0 0 0 0 0 0 0 0 0 0 0 0 0 0 0 0 0 0 127 0" result="hardAlpha"/>
<feOffset dy="4"/>
<feGaussianBlur stdDeviation="2"/>
<feComposite in2="hardAlpha" operator="out"/>
<feColorMatrix type="matrix" values="0 0 0 0 0 0 0 0 0 0 0 0 0 0 0 0 0 0 0.25 0"/>
<feBlend mode="normal" in2="effect1_dropShadow_736_26897" result="effect2_dropShadow_736_26897"/>
<feBlend mode="normal" in="SourceGraphic" in2="effect2_dropShadow_736_26897" result="shape"/>
</filter>
<filter id="filter8_dd_736_26897" x="399.621" y="18.537" width="26.8285" height="26.3702" filterUnits="userSpaceOnUse" color-interpolation-filters="sRGB">
<feFlood flood-opacity="0" result="BackgroundImageFix"/>
<feColorMatrix in="SourceAlpha" type="matrix" values="0 0 0 0 0 0 0 0 0 0 0 0 0 0 0 0 0 0 127 0" result="hardAlpha"/>
<feOffset dy="4"/>
<feGaussianBlur stdDeviation="2"/>
<feComposite in2="hardAlpha" operator="out"/>
<feColorMatrix type="matrix" values="0 0 0 0 0 0 0 0 0 0 0 0 0 0 0 0 0 0 0.25 0"/>
<feBlend mode="normal" in2="BackgroundImageFix" result="effect1_dropShadow_736_26897"/>
<feColorMatrix in="SourceAlpha" type="matrix" values="0 0 0 0 0 0 0 0 0 0 0 0 0 0 0 0 0 0 127 0" result="hardAlpha"/>
<feOffset dy="4"/>
<feGaussianBlur stdDeviation="2"/>
<feComposite in2="hardAlpha" operator="out"/>
<feColorMatrix type="matrix" values="0 0 0 0 0 0 0 0 0 0 0 0 0 0 0 0 0 0 0.25 0"/>
<feBlend mode="normal" in2="effect1_dropShadow_736_26897" result="effect2_dropShadow_736_26897"/>
<feBlend mode="normal" in="SourceGraphic" in2="effect2_dropShadow_736_26897" result="shape"/>
</filter>
<filter id="filter9_dd_736_26897" x="381.565" y="4.52661" width="25.9641" height="25.9641" filterUnits="userSpaceOnUse" color-interpolation-filters="sRGB">
<feFlood flood-opacity="0" result="BackgroundImageFix"/>
<feColorMatrix in="SourceAlpha" type="matrix" values="0 0 0 0 0 0 0 0 0 0 0 0 0 0 0 0 0 0 127 0" result="hardAlpha"/>
<feOffset dy="4"/>
<feGaussianBlur stdDeviation="2"/>
<feComposite in2="hardAlpha" operator="out"/>
<feColorMatrix type="matrix" values="0 0 0 0 0 0 0 0 0 0 0 0 0 0 0 0 0 0 0.25 0"/>
<feBlend mode="normal" in2="BackgroundImageFix" result="effect1_dropShadow_736_26897"/>
<feColorMatrix in="SourceAlpha" type="matrix" values="0 0 0 0 0 0 0 0 0 0 0 0 0 0 0 0 0 0 127 0" result="hardAlpha"/>
<feOffset dy="4"/>
<feGaussianBlur stdDeviation="2"/>
<feComposite in2="hardAlpha" operator="out"/>
<feColorMatrix type="matrix" values="0 0 0 0 0 0 0 0 0 0 0 0 0 0 0 0 0 0 0.25 0"/>
<feBlend mode="normal" in2="effect1_dropShadow_736_26897" result="effect2_dropShadow_736_26897"/>
<feBlend mode="normal" in="SourceGraphic" in2="effect2_dropShadow_736_26897" result="shape"/>
</filter>
<filter id="filter10_dd_736_26897" x="3.85431" y="360.189" width="53.9767" height="50.9774" filterUnits="userSpaceOnUse" color-interpolation-filters="sRGB">
<feFlood flood-opacity="0" result="BackgroundImageFix"/>
<feColorMatrix in="SourceAlpha" type="matrix" values="0 0 0 0 0 0 0 0 0 0 0 0 0 0 0 0 0 0 127 0" result="hardAlpha"/>
<feOffset dy="4"/>
<feGaussianBlur stdDeviation="2"/>
<feComposite in2="hardAlpha" operator="out"/>
<feColorMatrix type="matrix" values="0 0 0 0 0 0 0 0 0 0 0 0 0 0 0 0 0 0 0.25 0"/>
<feBlend mode="normal" in2="BackgroundImageFix" result="effect1_dropShadow_736_26897"/>
<feColorMatrix in="SourceAlpha" type="matrix" values="0 0 0 0 0 0 0 0 0 0 0 0 0 0 0 0 0 0 127 0" result="hardAlpha"/>
<feOffset dy="4"/>
<feGaussianBlur stdDeviation="2"/>
<feComposite in2="hardAlpha" operator="out"/>
<feColorMatrix type="matrix" values="0 0 0 0 0 0 0 0 0 0 0 0 0 0 0 0 0 0 0.25 0"/>
<feBlend mode="normal" in2="effect1_dropShadow_736_26897" result="effect2_dropShadow_736_26897"/>
<feBlend mode="normal" in="SourceGraphic" in2="effect2_dropShadow_736_26897" result="shape"/>
</filter>
<filter id="filter11_dd_736_26897" x="8.49701" y="339.251" width="26.8295" height="26.5315" filterUnits="userSpaceOnUse" color-interpolation-filters="sRGB">
<feFlood flood-opacity="0" result="BackgroundImageFix"/>
<feColorMatrix in="SourceAlpha" type="matrix" values="0 0 0 0 0 0 0 0 0 0 0 0 0 0 0 0 0 0 127 0" result="hardAlpha"/>
<feOffset dy="4"/>
<feGaussianBlur stdDeviation="2"/>
<feComposite in2="hardAlpha" operator="out"/>
<feColorMatrix type="matrix" values="0 0 0 0 0 0 0 0 0 0 0 0 0 0 0 0 0 0 0.25 0"/>
<feBlend mode="normal" in2="BackgroundImageFix" result="effect1_dropShadow_736_26897"/>
<feColorMatrix in="SourceAlpha" type="matrix" values="0 0 0 0 0 0 0 0 0 0 0 0 0 0 0 0 0 0 127 0" result="hardAlpha"/>
<feOffset dy="4"/>
<feGaussianBlur stdDeviation="2"/>
<feComposite in2="hardAlpha" operator="out"/>
<feColorMatrix type="matrix" values="0 0 0 0 0 0 0 0 0 0 0 0 0 0 0 0 0 0 0.25 0"/>
<feBlend mode="normal" in2="effect1_dropShadow_736_26897" result="effect2_dropShadow_736_26897"/>
<feBlend mode="normal" in="SourceGraphic" in2="effect2_dropShadow_736_26897" result="shape"/>
</filter>
<filter id="filter12_dd_736_26897" x="53.7424" y="373.874" width="26.9627" height="26.381" filterUnits="userSpaceOnUse" color-interpolation-filters="sRGB">
<feFlood flood-opacity="0" result="BackgroundImageFix"/>
<feColorMatrix in="SourceAlpha" type="matrix" values="0 0 0 0 0 0 0 0 0 0 0 0 0 0 0 0 0 0 127 0" result="hardAlpha"/>
<feOffset dy="4"/>
<feGaussianBlur stdDeviation="2"/>
<feComposite in2="hardAlpha" operator="out"/>
<feColorMatrix type="matrix" values="0 0 0 0 0 0 0 0 0 0 0 0 0 0 0 0 0 0 0.25 0"/>
<feBlend mode="normal" in2="BackgroundImageFix" result="effect1_dropShadow_736_26897"/>
<feColorMatrix in="SourceAlpha" type="matrix" values="0 0 0 0 0 0 0 0 0 0 0 0 0 0 0 0 0 0 127 0" result="hardAlpha"/>
<feOffset dy="4"/>
<feGaussianBlur stdDeviation="2"/>
<feComposite in2="hardAlpha" operator="out"/>
<feColorMatrix type="matrix" values="0 0 0 0 0 0 0 0 0 0 0 0 0 0 0 0 0 0 0.25 0"/>
<feBlend mode="normal" in2="effect1_dropShadow_736_26897" result="effect2_dropShadow_736_26897"/>
<feBlend mode="normal" in="SourceGraphic" in2="effect2_dropShadow_736_26897" result="shape"/>
</filter>
<filter id="filter13_dd_736_26897" x="49.5352" y="350.678" width="26.8284" height="26.3702" filterUnits="userSpaceOnUse" color-interpolation-filters="sRGB">
<feFlood flood-opacity="0" result="BackgroundImageFix"/>
<feColorMatrix in="SourceAlpha" type="matrix" values="0 0 0 0 0 0 0 0 0 0 0 0 0 0 0 0 0 0 127 0" result="hardAlpha"/>
<feOffset dy="4"/>
<feGaussianBlur stdDeviation="2"/>
<feComposite in2="hardAlpha" operator="out"/>
<feColorMatrix type="matrix" values="0 0 0 0 0 0 0 0 0 0 0 0 0 0 0 0 0 0 0.25 0"/>
<feBlend mode="normal" in2="BackgroundImageFix" result="effect1_dropShadow_736_26897"/>
<feColorMatrix in="SourceAlpha" type="matrix" values="0 0 0 0 0 0 0 0 0 0 0 0 0 0 0 0 0 0 127 0" result="hardAlpha"/>
<feOffset dy="4"/>
<feGaussianBlur stdDeviation="2"/>
<feComposite in2="hardAlpha" operator="out"/>
<feColorMatrix type="matrix" values="0 0 0 0 0 0 0 0 0 0 0 0 0 0 0 0 0 0 0.25 0"/>
<feBlend mode="normal" in2="effect1_dropShadow_736_26897" result="effect2_dropShadow_736_26897"/>
<feBlend mode="normal" in="SourceGraphic" in2="effect2_dropShadow_736_26897" result="shape"/>
</filter>
<filter id="filter14_dd_736_26897" x="31.4796" y="336.667" width="25.9641" height="25.9641" filterUnits="userSpaceOnUse" color-interpolation-filters="sRGB">
<feFlood flood-opacity="0" result="BackgroundImageFix"/>
<feColorMatrix in="SourceAlpha" type="matrix" values="0 0 0 0 0 0 0 0 0 0 0 0 0 0 0 0 0 0 127 0" result="hardAlpha"/>
<feOffset dy="4"/>
<feGaussianBlur stdDeviation="2"/>
<feComposite in2="hardAlpha" operator="out"/>
<feColorMatrix type="matrix" values="0 0 0 0 0 0 0 0 0 0 0 0 0 0 0 0 0 0 0.25 0"/>
<feBlend mode="normal" in2="BackgroundImageFix" result="effect1_dropShadow_736_26897"/>
<feColorMatrix in="SourceAlpha" type="matrix" values="0 0 0 0 0 0 0 0 0 0 0 0 0 0 0 0 0 0 127 0" result="hardAlpha"/>
<feOffset dy="4"/>
<feGaussianBlur stdDeviation="2"/>
<feComposite in2="hardAlpha" operator="out"/>
<feColorMatrix type="matrix" values="0 0 0 0 0 0 0 0 0 0 0 0 0 0 0 0 0 0 0.25 0"/>
<feBlend mode="normal" in2="effect1_dropShadow_736_26897" result="effect2_dropShadow_736_26897"/>
<feBlend mode="normal" in="SourceGraphic" in2="effect2_dropShadow_736_26897" result="shape"/>
</filter>
<filter id="filter15_dd_736_26897" x="475.522" y="360.189" width="53.9767" height="50.9774" filterUnits="userSpaceOnUse" color-interpolation-filters="sRGB">
<feFlood flood-opacity="0" result="BackgroundImageFix"/>
<feColorMatrix in="SourceAlpha" type="matrix" values="0 0 0 0 0 0 0 0 0 0 0 0 0 0 0 0 0 0 127 0" result="hardAlpha"/>
<feOffset dy="4"/>
<feGaussianBlur stdDeviation="2"/>
<feComposite in2="hardAlpha" operator="out"/>
<feColorMatrix type="matrix" values="0 0 0 0 0 0 0 0 0 0 0 0 0 0 0 0 0 0 0.25 0"/>
<feBlend mode="normal" in2="BackgroundImageFix" result="effect1_dropShadow_736_26897"/>
<feColorMatrix in="SourceAlpha" type="matrix" values="0 0 0 0 0 0 0 0 0 0 0 0 0 0 0 0 0 0 127 0" result="hardAlpha"/>
<feOffset dy="4"/>
<feGaussianBlur stdDeviation="2"/>
<feComposite in2="hardAlpha" operator="out"/>
<feColorMatrix type="matrix" values="0 0 0 0 0 0 0 0 0 0 0 0 0 0 0 0 0 0 0.25 0"/>
<feBlend mode="normal" in2="effect1_dropShadow_736_26897" result="effect2_dropShadow_736_26897"/>
<feBlend mode="normal" in="SourceGraphic" in2="effect2_dropShadow_736_26897" result="shape"/>
</filter>
<filter id="filter16_dd_736_26897" x="480.165" y="339.251" width="26.8295" height="26.5315" filterUnits="userSpaceOnUse" color-interpolation-filters="sRGB">
<feFlood flood-opacity="0" result="BackgroundImageFix"/>
<feColorMatrix in="SourceAlpha" type="matrix" values="0 0 0 0 0 0 0 0 0 0 0 0 0 0 0 0 0 0 127 0" result="hardAlpha"/>
<feOffset dy="4"/>
<feGaussianBlur stdDeviation="2"/>
<feComposite in2="hardAlpha" operator="out"/>
<feColorMatrix type="matrix" values="0 0 0 0 0 0 0 0 0 0 0 0 0 0 0 0 0 0 0.25 0"/>
<feBlend mode="normal" in2="BackgroundImageFix" result="effect1_dropShadow_736_26897"/>
<feColorMatrix in="SourceAlpha" type="matrix" values="0 0 0 0 0 0 0 0 0 0 0 0 0 0 0 0 0 0 127 0" result="hardAlpha"/>
<feOffset dy="4"/>
<feGaussianBlur stdDeviation="2"/>
<feComposite in2="hardAlpha" operator="out"/>
<feColorMatrix type="matrix" values="0 0 0 0 0 0 0 0 0 0 0 0 0 0 0 0 0 0 0.25 0"/>
<feBlend mode="normal" in2="effect1_dropShadow_736_26897" result="effect2_dropShadow_736_26897"/>
<feBlend mode="normal" in="SourceGraphic" in2="effect2_dropShadow_736_26897" result="shape"/>
</filter>
<filter id="filter17_dd_736_26897" x="525.411" y="373.874" width="26.9627" height="26.381" filterUnits="userSpaceOnUse" color-interpolation-filters="sRGB">
<feFlood flood-opacity="0" result="BackgroundImageFix"/>
<feColorMatrix in="SourceAlpha" type="matrix" values="0 0 0 0 0 0 0 0 0 0 0 0 0 0 0 0 0 0 127 0" result="hardAlpha"/>
<feOffset dy="4"/>
<feGaussianBlur stdDeviation="2"/>
<feComposite in2="hardAlpha" operator="out"/>
<feColorMatrix type="matrix" values="0 0 0 0 0 0 0 0 0 0 0 0 0 0 0 0 0 0 0.25 0"/>
<feBlend mode="normal" in2="BackgroundImageFix" result="effect1_dropShadow_736_26897"/>
<feColorMatrix in="SourceAlpha" type="matrix" values="0 0 0 0 0 0 0 0 0 0 0 0 0 0 0 0 0 0 127 0" result="hardAlpha"/>
<feOffset dy="4"/>
<feGaussianBlur stdDeviation="2"/>
<feComposite in2="hardAlpha" operator="out"/>
<feColorMatrix type="matrix" values="0 0 0 0 0 0 0 0 0 0 0 0 0 0 0 0 0 0 0.25 0"/>
<feBlend mode="normal" in2="effect1_dropShadow_736_26897" result="effect2_dropShadow_736_26897"/>
<feBlend mode="normal" in="SourceGraphic" in2="effect2_dropShadow_736_26897" result="shape"/>
</filter>
<filter id="filter18_dd_736_26897" x="521.203" y="350.678" width="26.8285" height="26.3702" filterUnits="userSpaceOnUse" color-interpolation-filters="sRGB">
<feFlood flood-opacity="0" result="BackgroundImageFix"/>
<feColorMatrix in="SourceAlpha" type="matrix" values="0 0 0 0 0 0 0 0 0 0 0 0 0 0 0 0 0 0 127 0" result="hardAlpha"/>
<feOffset dy="4"/>
<feGaussianBlur stdDeviation="2"/>
<feComposite in2="hardAlpha" operator="out"/>
<feColorMatrix type="matrix" values="0 0 0 0 0 0 0 0 0 0 0 0 0 0 0 0 0 0 0.25 0"/>
<feBlend mode="normal" in2="BackgroundImageFix" result="effect1_dropShadow_736_26897"/>
<feColorMatrix in="SourceAlpha" type="matrix" values="0 0 0 0 0 0 0 0 0 0 0 0 0 0 0 0 0 0 127 0" result="hardAlpha"/>
<feOffset dy="4"/>
<feGaussianBlur stdDeviation="2"/>
<feComposite in2="hardAlpha" operator="out"/>
<feColorMatrix type="matrix" values="0 0 0 0 0 0 0 0 0 0 0 0 0 0 0 0 0 0 0.25 0"/>
<feBlend mode="normal" in2="effect1_dropShadow_736_26897" result="effect2_dropShadow_736_26897"/>
<feBlend mode="normal" in="SourceGraphic" in2="effect2_dropShadow_736_26897" result="shape"/>
</filter>
<filter id="filter19_dd_736_26897" x="503.148" y="336.667" width="25.9641" height="25.9641" filterUnits="userSpaceOnUse" color-interpolation-filters="sRGB">
<feFlood flood-opacity="0" result="BackgroundImageFix"/>
<feColorMatrix in="SourceAlpha" type="matrix" values="0 0 0 0 0 0 0 0 0 0 0 0 0 0 0 0 0 0 127 0" result="hardAlpha"/>
<feOffset dy="4"/>
<feGaussianBlur stdDeviation="2"/>
<feComposite in2="hardAlpha" operator="out"/>
<feColorMatrix type="matrix" values="0 0 0 0 0 0 0 0 0 0 0 0 0 0 0 0 0 0 0.25 0"/>
<feBlend mode="normal" in2="BackgroundImageFix" result="effect1_dropShadow_736_26897"/>
<feColorMatrix in="SourceAlpha" type="matrix" values="0 0 0 0 0 0 0 0 0 0 0 0 0 0 0 0 0 0 127 0" result="hardAlpha"/>
<feOffset dy="4"/>
<feGaussianBlur stdDeviation="2"/>
<feComposite in2="hardAlpha" operator="out"/>
<feColorMatrix type="matrix" values="0 0 0 0 0 0 0 0 0 0 0 0 0 0 0 0 0 0 0.25 0"/>
<feBlend mode="normal" in2="effect1_dropShadow_736_26897" result="effect2_dropShadow_736_26897"/>
<feBlend mode="normal" in="SourceGraphic" in2="effect2_dropShadow_736_26897" result="shape"/>
</filter>
<linearGradient id="paint0_linear_736_26897" x1="7.00002" y1="86.9286" x2="48.5179" y2="118.557" gradientUnits="userSpaceOnUse">
<stop stop-color="#493FB5"/>
<stop offset="1" stop-color="#312893"/>
</linearGradient>
<linearGradient id="paint1_linear_736_26897" x1="15.4926" y1="57.1795" x2="30.5389" y2="68.6418" gradientUnits="userSpaceOnUse">
<stop stop-color="#493FB5"/>
<stop offset="1" stop-color="#312893"/>
</linearGradient>
<linearGradient id="paint2_linear_736_26897" x1="60.8628" y1="91.6738" x2="75.8319" y2="103.077" gradientUnits="userSpaceOnUse">
<stop stop-color="#493FB5"/>
<stop offset="1" stop-color="#312893"/>
</linearGradient>
<linearGradient id="paint3_linear_736_26897" x1="56.6027" y1="68.5103" x2="71.641" y2="79.9666" gradientUnits="userSpaceOnUse">
<stop stop-color="#493FB5"/>
<stop offset="1" stop-color="#312893"/>
</linearGradient>
<linearGradient id="paint4_linear_736_26897" x1="38.6105" y1="54.4227" x2="52.9004" y2="65.3088" gradientUnits="userSpaceOnUse">
<stop stop-color="#493FB5"/>
<stop offset="1" stop-color="#312893"/>
</linearGradient>
<linearGradient id="paint5_linear_736_26897" x1="350.349" y1="47.7164" x2="391.867" y2="79.3449" gradientUnits="userSpaceOnUse">
<stop stop-color="#493FB5"/>
<stop offset="1" stop-color="#312893"/>
</linearGradient>
<linearGradient id="paint6_linear_736_26897" x1="358.842" y1="17.9673" x2="373.888" y2="29.4296" gradientUnits="userSpaceOnUse">
<stop stop-color="#493FB5"/>
<stop offset="1" stop-color="#312893"/>
</linearGradient>
<linearGradient id="paint7_linear_736_26897" x1="404.212" y1="52.4616" x2="419.181" y2="63.8651" gradientUnits="userSpaceOnUse">
<stop stop-color="#493FB5"/>
<stop offset="1" stop-color="#312893"/>
</linearGradient>
<linearGradient id="paint8_linear_736_26897" x1="399.952" y1="29.2982" x2="414.99" y2="40.7544" gradientUnits="userSpaceOnUse">
<stop stop-color="#493FB5"/>
<stop offset="1" stop-color="#312893"/>
</linearGradient>
<linearGradient id="paint9_linear_736_26897" x1="381.959" y1="15.2105" x2="396.249" y2="26.0966" gradientUnits="userSpaceOnUse">
<stop stop-color="#493FB5"/>
<stop offset="1" stop-color="#312893"/>
</linearGradient>
<linearGradient id="paint10_linear_736_26897" x1="0.263205" y1="379.857" x2="41.7811" y2="411.486" gradientUnits="userSpaceOnUse">
<stop stop-color="#493FB5"/>
<stop offset="1" stop-color="#312893"/>
</linearGradient>
<linearGradient id="paint11_linear_736_26897" x1="8.75582" y1="350.108" x2="23.8021" y2="361.57" gradientUnits="userSpaceOnUse">
<stop stop-color="#493FB5"/>
<stop offset="1" stop-color="#312893"/>
</linearGradient>
<linearGradient id="paint12_linear_736_26897" x1="54.126" y1="384.602" x2="69.0951" y2="396.006" gradientUnits="userSpaceOnUse">
<stop stop-color="#493FB5"/>
<stop offset="1" stop-color="#312893"/>
</linearGradient>
<linearGradient id="paint13_linear_736_26897" x1="49.8659" y1="361.439" x2="64.9042" y2="372.895" gradientUnits="userSpaceOnUse">
<stop stop-color="#493FB5"/>
<stop offset="1" stop-color="#312893"/>
</linearGradient>
<linearGradient id="paint14_linear_736_26897" x1="31.8737" y1="347.351" x2="46.1636" y2="358.237" gradientUnits="userSpaceOnUse">
<stop stop-color="#493FB5"/>
<stop offset="1" stop-color="#312893"/>
</linearGradient>
<linearGradient id="paint15_linear_736_26897" x1="471.931" y1="379.857" x2="513.449" y2="411.486" gradientUnits="userSpaceOnUse">
<stop stop-color="#493FB5"/>
<stop offset="1" stop-color="#312893"/>
</linearGradient>
<linearGradient id="paint16_linear_736_26897" x1="480.424" y1="350.108" x2="495.47" y2="361.57" gradientUnits="userSpaceOnUse">
<stop stop-color="#493FB5"/>
<stop offset="1" stop-color="#312893"/>
</linearGradient>
<linearGradient id="paint17_linear_736_26897" x1="525.794" y1="384.602" x2="540.763" y2="396.006" gradientUnits="userSpaceOnUse">
<stop stop-color="#493FB5"/>
<stop offset="1" stop-color="#312893"/>
</linearGradient>
<linearGradient id="paint18_linear_736_26897" x1="521.534" y1="361.439" x2="536.572" y2="372.895" gradientUnits="userSpaceOnUse">
<stop stop-color="#493FB5"/>
<stop offset="1" stop-color="#312893"/>
</linearGradient>
<linearGradient id="paint19_linear_736_26897" x1="503.542" y1="347.351" x2="517.832" y2="358.237" gradientUnits="userSpaceOnUse">
<stop stop-color="#493FB5"/>
<stop offset="1" stop-color="#312893"/>
</linearGradient>
</defs>
</svg>
